<svg xmlns="http://www.w3.org/2000/svg" viewBox="0 0 100 100"><g id="Layer_2" data-name="Layer 2"><g id="Layer_1-2" data-name="Layer 1" fill="#6b000c"><path d="M92.58,0H7.42A7.42,7.42,0,0,0,0,7.42V92.58A7.42,7.42,0,0,0,7.42,100H92.58A7.42,7.42,0,0,0,100,92.58V7.42A7.42,7.42,0,0,0,92.58,0ZM24.75,85.1a9.86,9.86,0,1,1,9.86-9.85A9.86,9.86,0,0,1,24.75,85.1Zm0-50.49a9.86,9.86,0,1,1,9.86-9.86A9.86,9.86,0,0,1,24.75,34.61ZM75.25,85.1a9.86,9.86,0,1,1,9.85-9.85A9.85,9.85,0,0,1,75.25,85.1Zm0-50.49a9.86,9.86,0,1,1,9.85-9.86A9.85,9.85,0,0,1,75.25,34.61Z"/></g></g></svg>