<svg xmlns="http://www.w3.org/2000/svg" viewBox="0 0 95.05 100"><g id="Layer_2" data-name="Layer 2"><g id="Layer_1-2" data-name="Layer 1"><path d="M51.61,22.84C50.45,15.25,49.39,7.64,47.77,0c-.94.37-1.77.62-2.54,1Q39.11,4,33.31,7.6q-6.32,3.92-12.53,8c-4.42,2.87-8.72,5.92-12.94,9.1A77.21,77.21,0,0,0,1.58,30,4.29,4.29,0,0,0,0,33.67c.26,2.46.5,4.93.86,7.38.41,2.78.9,5.54,1.44,8.3s1.15,5.5,1.8,8.23c.74,3.06,1.52,6.1,2.32,9.14S8,72.54,8.78,75.44a9.42,9.42,0,0,0,.62,1.34A388.29,388.29,0,0,1,54.22,45.91,208,208,0,0,0,51.61,22.84ZM32.39,35.55a8.34,8.34,0,0,1-1.69,4.38,9.05,9.05,0,0,1-5.46,3.13,4.42,4.42,0,0,1-4.31-3.64,8,8,0,0,1,6.84-8.5c2.15-.25,3.69.46,4.41,2.86A5.09,5.09,0,0,1,32.39,35.55ZM88.66,69.19l-8.21-5.77c-.6-.42-1.21-.83-1.83-1.24L76,60.41c-.44-.3-.89-.59-1.34-.88l-3.53-2.29c-1.36-.87-2.7-1.75-4.07-2.59-1.71-1-3.45-2-5.17-3.07s-3.53-2.14-5.29-3.24a1.68,1.68,0,0,0-2-.06c-4.9,3.13-9.82,6.2-14.72,9.33-2.75,1.75-5.49,3.54-8.19,5.39-2.14,1.47-4.23,3-6.33,4.56-1.83,1.34-3.68,2.65-5.49,4s-3.68,2.88-5.53,4.3c-1.15.89-2.33,1.75-3.5,2.62-.15.59.25.9.61,1.17,1.07.81,2.13,1.64,3.24,2.37,1.9,1.26,3.82,2.47,5.75,3.67,1.7,1.06,3.41,2.12,5.13,3.14,1.27.74,2.57,1.43,3.85,2.14,2.63,1.47,5.23,3,7.88,4.4s5.22,2.72,7.84,4.06a4.29,4.29,0,0,0,3.67.25c2.43-1,4.91-1.79,7.33-2.76Q63.33,94,70.33,90.5a86.87,86.87,0,0,0,9-5.28C81.2,84,83.12,82.75,85,81.53a72.14,72.14,0,0,0,7.88-6.18,11.61,11.61,0,0,0,1.49-1.81,30.92,30.92,0,0,0-4.72-3.71C89.35,69.6,89,69.43,88.66,69.19ZM36.86,81a8.2,8.2,0,0,1-7.21,1.35,9.42,9.42,0,0,1-1.73-.79A6.46,6.46,0,0,1,27,80.36a3.76,3.76,0,0,1,.4-4.14,7.59,7.59,0,0,1,9.46-1.6,2.41,2.41,0,0,1,.74.65A4,4,0,0,1,36.86,81Zm18.56-1.12a7,7,0,0,1-1.15,1.09,7.52,7.52,0,0,1-6.33.91c-2.66-.9-3.83-2.62-3.09-5.15a3.44,3.44,0,0,1,1.52-2,18.54,18.54,0,0,1,2.7-1.28,6.48,6.48,0,0,1,5,.37A3.66,3.66,0,0,1,55.42,79.84ZM74.63,77a4.13,4.13,0,0,1-1.38,2.58,7.51,7.51,0,0,1-6.88,1.71,5.29,5.29,0,0,1-2.14-1,3.34,3.34,0,0,1-1.49-3.09,4.22,4.22,0,0,1,1.41-2.78,7.48,7.48,0,0,1,7.08-1.64,14,14,0,0,1,2.15.94A3.58,3.58,0,0,1,74.63,77Zm20.41-7c-.79-3.39-1.55-6.79-2.39-10.16-1-4-2-7.9-3.06-11.85-1-3.75-2.06-7.48-3.1-11.21-.44-1.55-.91-3.08-1.35-4.62a4.83,4.83,0,0,0-1.59-2.48c-3.41-2.93-6.42-6.27-9.67-9.34q-1.3-1.25-2.64-2.46c-.69-.64-1.43-1.22-2.09-1.88A181.92,181.92,0,0,0,54.46,3.18a21,21,0,0,0-4-2.54,2,2,0,0,0-.2.19A.26.26,0,0,0,50.2,1c2.92,14.82,5,29.78,6.45,44.78,2.81,1.66,5.54,3.21,8.19,4.86,3.23,2,6.41,4.13,9.61,6.19.16.11.33.22.51.32,3.18,1.83,6.17,4,9.17,6.1,3.5,2.46,7.05,4.86,10.8,7.43A2.92,2.92,0,0,0,95,69.94ZM73.78,32.65a2.49,2.49,0,0,1-3.1,2.09,4.26,4.26,0,0,1-2.55-1.29,8.44,8.44,0,0,1-3-4.93,4.41,4.41,0,0,1,0-1.77c.41-1.71,1.51-2.88,3.49-2.29a6.26,6.26,0,0,1,2.47,1.24,8.43,8.43,0,0,1,2.75,4.77A5.52,5.52,0,0,1,73.78,32.65ZM85.55,51.3A2.22,2.22,0,0,1,83,53.05a5.6,5.6,0,0,1-2.42-.84A8,8,0,0,1,77,46a5.47,5.47,0,0,1,.09-1.4,2.42,2.42,0,0,1,2.58-2,4.21,4.21,0,0,1,2.8,1,8.22,8.22,0,0,1,3.31,5.9A5.55,5.55,0,0,1,85.55,51.3Z"/></g></g></svg>