<svg xmlns="http://www.w3.org/2000/svg" viewBox="0 0 56.14 100"><defs><style>.cls-1{fill:#020203;}</style></defs><g id="Layer_2" data-name="Layer 2"><g id="Layer_1-2" data-name="Layer 1"><path class="cls-1" d="M34,70,30.13,71.8a.33.33,0,0,0,.05.62L50,78.7a1.59,1.59,0,0,0,1.17-.09l4.09-2a.35.35,0,0,0,0-.65L35.81,69.85A2.41,2.41,0,0,0,34,70Zm11.42,5.11c.14-.43,1-.52,2-.2s1.58.92,1.44,1.35-1,.51-2,.19S45.29,75.5,45.44,75.08Zm-9.58-3.19c.14-.43,1-.51,2-.2s1.58.92,1.44,1.35-1,.51-2,.2S35.71,72.32,35.86,71.89ZM55.74,77l-4.39,2.12a1.55,1.55,0,0,0-.8.92L44.46,99.21a.61.61,0,0,0,.84.73l3.44-1.62A2.17,2.17,0,0,0,49.87,97l6.26-19.73A.28.28,0,0,0,55.74,77ZM50.89,89.88c-.33,1-1,1.59-1.55,1.41s-.7-1.1-.38-2.07,1-1.59,1.56-1.41S51.22,88.91,50.89,89.88ZM49.42,79.16,30,72.9a.85.85,0,0,0-1.08.56l-6,18.87a1.43,1.43,0,0,0,.93,1.79l18.3,5.8A1.46,1.46,0,0,0,44,99l6-18.76A.83.83,0,0,0,49.42,79.16Zm-20.6,14a1.8,1.8,0,1,1,1.79-1.79A1.79,1.79,0,0,1,28.82,93.13Zm2.39-6.42A1.8,1.8,0,1,1,33,84.91,1.8,1.8,0,0,1,31.21,86.71Zm2.24-6.42a1.8,1.8,0,1,1,1.79-1.8A1.8,1.8,0,0,1,33.45,80.29Zm4.63,16a1.79,1.79,0,1,1,1.79-1.79A1.79,1.79,0,0,1,38.08,96.26Zm2.39-6.42a1.79,1.79,0,1,1,1.79-1.79A1.8,1.8,0,0,1,40.47,89.84Zm2.24-6.42a1.79,1.79,0,1,1,1.79-1.79A1.8,1.8,0,0,1,42.71,83.42ZM24.3,9.93,44.37,5.07a1.56,1.56,0,0,0,1-.7l2.56-4A.25.25,0,0,0,47.64,0l-20,4.83a2.42,2.42,0,0,0-1.44,1L23.89,9.35A.38.38,0,0,0,24.3,9.93Zm10-5.73c1-.27,1.9,0,2,.5s-.53,1.2-1.51,1.46-1.89,0-2-.5S33.3,4.47,34.28,4.2ZM28.37,31a1.16,1.16,0,0,0,1.41.86L49,27.2a1.18,1.18,0,0,0,.87-1.42L45.17,6.49A1.06,1.06,0,0,0,43.9,5.7L24.58,10.37a1.16,1.16,0,0,0-.85,1.4ZM43.75,21.9A1.79,1.79,0,1,1,42,20.11,1.79,1.79,0,0,1,43.75,21.9ZM39.42,10.1a1.8,1.8,0,1,1-1.79,1.79A1.79,1.79,0,0,1,39.42,10.1ZM34.49,24.29A1.79,1.79,0,1,1,32.7,22.5,1.79,1.79,0,0,1,34.49,24.29Zm-4.33-11.8a1.79,1.79,0,1,1-1.79,1.79A1.79,1.79,0,0,1,30.16,12.49ZM45.54,5.88l4.84,20a.43.43,0,0,0,.77.14l2.46-3.72A1.61,1.61,0,0,0,53.84,21L48.89.56a.24.24,0,0,0-.44-.08L45.74,4.7A1.57,1.57,0,0,0,45.54,5.88Zm5.37,10.66c.44-.1,1,.6,1.19,1.57s0,1.82-.41,1.92-1-.6-1.18-1.57S50.47,16.63,50.91,16.54ZM48.59,6.7c.44-.12,1,.56,1.26,1.52S50,10,49.53,10.16s-1-.56-1.25-1.52S48.16,6.82,48.59,6.7ZM12,37.36a1.38,1.38,0,0,0,.67.72l18.68,9.23a.36.36,0,0,0,.49-.44L30.41,43.1a3.09,3.09,0,0,0-1.5-1.64l-18.29-9a.3.3,0,0,0-.41.38Zm12.5,4.17c.19-.41,1.08-.39,2,0s1.46,1.11,1.26,1.51-1.07.39-2,0S24.32,41.93,24.51,41.53ZM15.58,36.8c.19-.4,1.07-.39,2,0s1.46,1.1,1.27,1.51-1.07.39-2,0S15.38,37.21,15.58,36.8ZM31.44,49.22a1.18,1.18,0,0,0-.54-1.58l-18.15-9a.66.66,0,0,0-.88.3l-9,18.23a1.1,1.1,0,0,0,.5,1.48l17.31,8.55a1.69,1.69,0,0,0,2.25-.77Zm-7.76-.52a1.79,1.79,0,1,1,.71,2.43A1.78,1.78,0,0,1,23.68,48.7ZM11,57a1.79,1.79,0,1,1-.71-2.43A1.79,1.79,0,0,1,11,57Zm4.93-12.1a1.79,1.79,0,1,1-.71-2.43A1.79,1.79,0,0,1,15.92,44.89Zm1.16,8.78A1.79,1.79,0,1,1,19.51,53,1.79,1.79,0,0,1,17.08,53.67Zm4.82,9A1.79,1.79,0,0,1,18.75,61a1.79,1.79,0,1,1,3.15,1.72ZM11.46,37.34l-1.62-4.1a.39.39,0,0,0-.71,0L.31,51.09a2.94,2.94,0,0,0-.12,2.36l1.23,3.22a.61.61,0,0,0,1.12,0L11.4,38.77A1.7,1.7,0,0,0,11.46,37.34ZM6.34,45.53c-.45.94-1.19,1.53-1.65,1.31s-.49-1.17,0-2.11S5.83,43.2,6.3,43.42,6.79,44.58,6.34,45.53Z"/></g></g></svg>