<svg xmlns="http://www.w3.org/2000/svg" viewBox="0 0 78.96 100"><defs><style>.cls-1{fill:#141515;}</style></defs><g id="Layer_2" data-name="Layer 2"><g id="Layer_1-2" data-name="Layer 1"><path class="cls-1" d="M75.57,18.9a.91.91,0,0,0-.37-.18,4.61,4.61,0,0,0-.58-.92c-4-4.83-8-9.66-12-14.54C60.49.7,58.86,0,55,0H24.3c-4.06,0-5.54.66-7.95,3.52L14.33,6c-3.26,3.95-6.5,7.88-9.77,11.82A4.16,4.16,0,0,0,3.86,19a.76.76,0,0,0-.22.11c-1.29,1-5.23,4-2.94,13.05a1.17,1.17,0,0,0,.09.24V90.08A9.91,9.91,0,0,0,10.66,100H68.52a9.91,9.91,0,0,0,9.87-9.92V32.41a1.15,1.15,0,0,0,.11-.31C80,24.09,77.71,20.5,75.57,18.9Zm-69.38.25C9.46,15.22,12.7,11.28,16,7.33l2-2.45c1.88-2.24,2.69-2.76,6.32-2.76H55c3.21,0,4.27.44,6,2.49,4,4.88,8,9.71,12,14.54.36.44.47.81.33,1.1-.32.7-2,1.44-4.8,1.44H10.66c-2.82,0-4.47-.75-4.8-1.45C5.73,20,5.84,19.58,6.19,19.15ZM4.14,21.46a4.19,4.19,0,0,0,1.78,1.47,10.05,10.05,0,0,0-3.8,3.72A7.13,7.13,0,0,1,4.14,21.46ZM76.27,90.08h0a7.79,7.79,0,0,1-7.75,7.8H10.66a7.79,7.79,0,0,1-7.75-7.8V31.61a7.79,7.79,0,0,1,7.75-7.8H68.52a7.79,7.79,0,0,1,7.75,7.8Zm-3-67.15a4.08,4.08,0,0,0,1.83-1.56,8.42,8.42,0,0,1,1.68,4.83A10.09,10.09,0,0,0,73.28,22.93ZM39.57,14.07c3.9,0,10.5-.79,10.5-3.73s-6.6-3.69-10.5-3.69-10.46.78-10.46,3.69S35.69,14.07,39.57,14.07Zm0-5.3c5,0,7.75,1,8.32,1.58-.55.54-3.32,1.6-8.32,1.6s-7.73-1.06-8.27-1.6C31.86,9.81,34.64,8.77,39.57,8.77ZM57.49,71.16h0A7.62,7.62,0,0,0,52,73.4h0a7.85,7.85,0,0,0,0,11,7.65,7.65,0,0,0,5.45,2.29h0a7.66,7.66,0,0,0,5.46-2.29,7.79,7.79,0,0,0,0-11A7.68,7.68,0,0,0,57.49,71.16Zm3.94,11.78a5.65,5.65,0,0,1-7.89,0,5.72,5.72,0,0,1,0-8,5.5,5.5,0,0,1,3.92-1.62h0A5.49,5.49,0,0,1,61.44,75,5.66,5.66,0,0,1,61.43,82.94ZM39.59,53.07a7.62,7.62,0,0,0-5.47,2.29,7.82,7.82,0,0,0,0,11,7.7,7.7,0,0,0,10.94,0,7.82,7.82,0,0,0,0-11A7.61,7.61,0,0,0,39.59,53.07Zm4,11.78a5.64,5.64,0,0,1-7.94-8,5.58,5.58,0,0,1,7.94,0h0A5.71,5.71,0,0,1,43.56,64.85ZM57.48,50.53a7.75,7.75,0,0,0,5.46-2.24,7.88,7.88,0,0,0,0-11A7.65,7.65,0,0,0,57.48,35h0A7.64,7.64,0,0,0,52,37.26a7.86,7.86,0,0,0,0,11A7.66,7.66,0,0,0,57.48,50.53ZM53.54,38.75a5.51,5.51,0,0,1,3.94-1.65h0a5.55,5.55,0,0,1,3.94,1.65,5.74,5.74,0,0,1,0,8,5.62,5.62,0,0,1-7.9,0A5.73,5.73,0,0,1,53.54,38.75ZM21.7,35h0a7.63,7.63,0,0,0-5.45,2.28,7.87,7.87,0,0,0,0,11,7.75,7.75,0,0,0,10.9,0,7.87,7.87,0,0,0,0-11A7.63,7.63,0,0,0,21.7,35Zm3.95,11.81a5.62,5.62,0,0,1-7.9,0,5.75,5.75,0,0,1,0-8,5.55,5.55,0,0,1,7.9,0A5.74,5.74,0,0,1,25.65,46.79Zm1.5,26.61a7.66,7.66,0,0,0-5.43-2.24h0a7.67,7.67,0,0,0-5.44,2.28,7.79,7.79,0,0,0,0,11,7.63,7.63,0,0,0,5.45,2.29h0a7.63,7.63,0,0,0,5.45-2.29,7.85,7.85,0,0,0,0-11Zm-1.5,9.54A5.52,5.52,0,0,1,21.7,84.6h0a5.52,5.52,0,0,1-3.95-1.66,5.67,5.67,0,0,1,0-8,5.56,5.56,0,0,1,3.95-1.66h0a5.54,5.54,0,0,1,3.93,1.62A5.74,5.74,0,0,1,25.65,82.94Z"/></g></g></svg>