<svg xmlns="http://www.w3.org/2000/svg" viewBox="0 0 86.82 100"><g id="Layer_2" data-name="Layer 2"><g id="Layer_1-2" data-name="Layer 1"><path d="M86.43,24.71h0L43.8.1A.83.83,0,0,0,43,.1L.4,24.71h0a.79.79,0,0,0-.39.68V74.61a.79.79,0,0,0,.39.67L43,99.89h0a.87.87,0,0,0,.39.1.9.9,0,0,0,.39-.1L86.43,75.28a.77.77,0,0,0,.39-.67V25.39A.81.81,0,0,0,86.43,24.71Zm-43-23L84.47,25.39,43.41,49.1,2.35,25.39ZM1.56,26.74l37,21.37,4.05,2.34V97.87L1.56,74.16ZM44.19,97.87V50.45l27.9-16.11,13.17-7.6V74.16ZM68.55,55.66a4.16,4.16,0,0,0-4.22.35,11.46,11.46,0,0,0-5.26,9.11A4.17,4.17,0,0,0,60.89,69a3.26,3.26,0,0,0,1.66.43,5.13,5.13,0,0,0,2.56-.78,11.46,11.46,0,0,0,5.26-9.11A4.15,4.15,0,0,0,68.55,55.66ZM64.33,67.25a2.21,2.21,0,0,1-3.7-2.13,10.05,10.05,0,0,1,4.48-7.76,3.69,3.69,0,0,1,1.78-.56,1.69,1.69,0,0,1,.88.22,2.68,2.68,0,0,1,1,2.47A10.05,10.05,0,0,1,64.33,67.25Zm-9.1,11.5a4.13,4.13,0,0,0-4.22.34,11.43,11.43,0,0,0-5.26,9.11A4.16,4.16,0,0,0,47.56,92a3.37,3.37,0,0,0,1.66.43,5.17,5.17,0,0,0,2.57-.78,11.46,11.46,0,0,0,5.26-9.11A4.14,4.14,0,0,0,55.23,78.75ZM51,90.33a2.69,2.69,0,0,1-2.67.34,2.68,2.68,0,0,1-1-2.47,10.05,10.05,0,0,1,4.48-7.76,3.69,3.69,0,0,1,1.78-.57,1.72,1.72,0,0,1,.88.23,2.68,2.68,0,0,1,1,2.47A10,10,0,0,1,51,90.33ZM81.88,32.59a4.13,4.13,0,0,0-4.22.34A11.46,11.46,0,0,0,72.4,42a4.15,4.15,0,0,0,1.82,3.83,3.23,3.23,0,0,0,1.65.43,5.25,5.25,0,0,0,2.57-.77,11.48,11.48,0,0,0,5.26-9.12A4.14,4.14,0,0,0,81.88,32.59ZM77.66,44.17A2.21,2.21,0,0,1,74,42a10.05,10.05,0,0,1,4.48-7.76,3.69,3.69,0,0,1,1.78-.57,1.72,1.72,0,0,1,.88.23,2.68,2.68,0,0,1,1,2.47A10.05,10.05,0,0,1,77.66,44.17ZM22.48,56a4.14,4.14,0,0,0-4.22-.35,4.17,4.17,0,0,0-1.82,3.83A11.46,11.46,0,0,0,21.7,68.6a5.17,5.17,0,0,0,2.57.78,3.27,3.27,0,0,0,1.66-.44,4.14,4.14,0,0,0,1.81-3.82A11.43,11.43,0,0,0,22.48,56Zm2.67,11.58a2.67,2.67,0,0,1-2.67-.34A10.1,10.1,0,0,1,18,59.49,2.68,2.68,0,0,1,19,57a1.75,1.75,0,0,1,.88-.23,3.58,3.58,0,0,1,1.78.57,10.05,10.05,0,0,1,4.48,7.76A2.68,2.68,0,0,1,25.15,67.59ZM35.81,48.31A4.15,4.15,0,0,0,31.59,48a4.17,4.17,0,0,0-1.82,3.83A11.47,11.47,0,0,0,35,60.91a5.22,5.22,0,0,0,2.57.77,3.2,3.2,0,0,0,1.65-.43,4.15,4.15,0,0,0,1.82-3.83A11.49,11.49,0,0,0,35.81,48.31ZM38.47,59.9a2.7,2.7,0,0,1-2.66-.34,10.07,10.07,0,0,1-4.48-7.76,2.71,2.71,0,0,1,1-2.48,1.69,1.69,0,0,1,.88-.22,3.61,3.61,0,0,1,1.78.57,10.05,10.05,0,0,1,4.48,7.75A2.71,2.71,0,0,1,38.47,59.9Zm-29.31-27a4.14,4.14,0,0,0-4.22-.35,4.15,4.15,0,0,0-1.82,3.83,11.46,11.46,0,0,0,5.26,9.11,5.13,5.13,0,0,0,2.56.78,3.37,3.37,0,0,0,1.66-.43A4.17,4.17,0,0,0,14.42,42,11.46,11.46,0,0,0,9.16,32.93Zm2.66,11.58a2.67,2.67,0,0,1-2.66-.34,10.05,10.05,0,0,1-4.48-7.76,2.68,2.68,0,0,1,1-2.47,1.7,1.7,0,0,1,.88-.23,3.75,3.75,0,0,1,1.78.57A10.05,10.05,0,0,1,12.86,42,2.68,2.68,0,0,1,11.82,44.51ZM9.16,63.7a4.15,4.15,0,0,0-4.23-.34,4.14,4.14,0,0,0-1.81,3.82A11.48,11.48,0,0,0,8.38,76.3a5.22,5.22,0,0,0,2.56.77,3.26,3.26,0,0,0,1.66-.43,4.17,4.17,0,0,0,1.82-3.83A11.46,11.46,0,0,0,9.16,63.7Zm2.66,11.59a2.68,2.68,0,0,1-2.66-.35,10.05,10.05,0,0,1-4.48-7.76,2.7,2.7,0,0,1,1-2.47,1.75,1.75,0,0,1,.89-.22,3.72,3.72,0,0,1,1.78.56,10.1,10.1,0,0,1,4.48,7.76A2.71,2.71,0,0,1,11.82,75.29Zm24,3.8a4.11,4.11,0,0,0-4.22-.35,4.17,4.17,0,0,0-1.82,3.83A11.46,11.46,0,0,0,35,91.68a5.14,5.14,0,0,0,2.57.78A3.21,3.21,0,0,0,39.25,92a4.12,4.12,0,0,0,1.82-3.82A11.46,11.46,0,0,0,35.81,79.09Zm2.66,11.58a2.67,2.67,0,0,1-2.66-.34,10.07,10.07,0,0,1-4.48-7.76,2.71,2.71,0,0,1,1-2.48,1.79,1.79,0,0,1,.88-.22,3.61,3.61,0,0,1,1.78.57,10.05,10.05,0,0,1,4.48,7.75A2.69,2.69,0,0,1,38.47,90.67Zm10.6-73a4.16,4.16,0,0,0,2.4,3.5,11.53,11.53,0,0,0,10.52,0,4.16,4.16,0,0,0,2.41-3.5A4.15,4.15,0,0,0,62,14.21a11.49,11.49,0,0,0-10.52,0A4.16,4.16,0,0,0,49.07,17.69Zm3.18-2.13a10.08,10.08,0,0,1,9,0,2.72,2.72,0,0,1,1.63,2.13,2.69,2.69,0,0,1-1.63,2.14,10,10,0,0,1-9,0,2.69,2.69,0,0,1-1.63-2.14A2.74,2.74,0,0,1,52.25,15.56ZM22.42,33.08a4.16,4.16,0,0,0,2.4,3.49,10.75,10.75,0,0,0,5.26,1.28,10.7,10.7,0,0,0,5.26-1.28,4.13,4.13,0,0,0,2.41-3.49,4.16,4.16,0,0,0-2.41-3.49,11.49,11.49,0,0,0-10.52,0A4.14,4.14,0,0,0,22.42,33.08ZM25.6,31a9.24,9.24,0,0,1,4.48-1.05A9.21,9.21,0,0,1,34.56,31a2.69,2.69,0,0,1,1.63,2.13,2.7,2.7,0,0,1-1.63,2.14,10.08,10.08,0,0,1-9,0h0A2.72,2.72,0,0,1,24,33.08,2.71,2.71,0,0,1,25.6,31Zm23.07,6.34a11.43,11.43,0,0,0-10.52,0,4.16,4.16,0,0,0-2.41,3.49,4.15,4.15,0,0,0,2.41,3.48h0a10.72,10.72,0,0,0,5.26,1.27,10.86,10.86,0,0,0,5.26-1.27,4.18,4.18,0,0,0,2.41-3.49A4.18,4.18,0,0,0,48.67,37.29Zm-.78,5.62a10.08,10.08,0,0,1-9,0,2.69,2.69,0,0,1-1.63-2.13,2.72,2.72,0,0,1,1.63-2.14,10.08,10.08,0,0,1,9,0,2.72,2.72,0,0,1,1.63,2.14A2.69,2.69,0,0,1,47.89,42.91Zm14.5-17.52a4.18,4.18,0,0,0,2.41,3.49,11.45,11.45,0,0,0,10.52,0,4.18,4.18,0,0,0,2.41-3.49,4.18,4.18,0,0,0-2.41-3.49,11.49,11.49,0,0,0-10.52,0A4.18,4.18,0,0,0,62.39,25.39Zm3.19-2.14a10.08,10.08,0,0,1,9,0h0a2.72,2.72,0,0,1,1.63,2.14,2.69,2.69,0,0,1-1.63,2.13,10.08,10.08,0,0,1-9,0A2.72,2.72,0,0,1,64,25.39,2.72,2.72,0,0,1,65.58,23.25ZM38.15,13.49a11.45,11.45,0,0,0,10.52,0A4.15,4.15,0,0,0,51.08,10a4.15,4.15,0,0,0-2.41-3.48,11.43,11.43,0,0,0-10.52,0A4.15,4.15,0,0,0,35.74,10,4.13,4.13,0,0,0,38.15,13.49Zm.78-5.62a10,10,0,0,1,9,0h0A2.68,2.68,0,0,1,49.51,10a2.69,2.69,0,0,1-1.62,2.14,10.08,10.08,0,0,1-9,0A2.7,2.7,0,0,1,37.3,10,2.69,2.69,0,0,1,38.93,7.87Zm-27.43,21a10.72,10.72,0,0,0,5.26,1.27A10.75,10.75,0,0,0,22,28.88a4.16,4.16,0,0,0,2.4-3.49A4.16,4.16,0,0,0,22,21.9a11.49,11.49,0,0,0-10.52,0,4.14,4.14,0,0,0-2.41,3.49A4.16,4.16,0,0,0,11.5,28.88Zm.78-5.63a9.18,9.18,0,0,1,4.48-1.05,9.24,9.24,0,0,1,4.48,1.05,2.7,2.7,0,0,1,1.62,2.14,2.68,2.68,0,0,1-1.62,2.13,10,10,0,0,1-9,0h0a2.69,2.69,0,0,1-1.63-2.13A2.72,2.72,0,0,1,12.28,23.25Z"/></g></g></svg>