<svg xmlns="http://www.w3.org/2000/svg" viewBox="0 0 100 87.13"><defs><style>.cls-1{fill:#020203;}</style></defs><g id="Layer_2" data-name="Layer 2"><g id="Layer_1-2" data-name="Layer 1"><path class="cls-1" d="M84.93,38.85a4.75,4.75,0,1,1-6.7.46A4.76,4.76,0,0,1,84.93,38.85ZM.8,45.26,3,42.86,37.17,3.38a5.45,5.45,0,0,1,3.5-1.83L51.37.07,53.06,0a8.14,8.14,0,0,1,5.46,1.81l.91.73,39,34.14a4.63,4.63,0,0,1,.44,6.53L64.39,82.54A9.75,9.75,0,0,1,58,86.13l-1,.13-9.62.84a6.7,6.7,0,0,1-5-1.6L1.77,50.3,1,49.57A3.07,3.07,0,0,1,.8,45.26ZM41.54,2.63a6.18,6.18,0,0,0-4,2.08l-35.68,41a.53.53,0,0,0,.46.88l11.89-1.27a5.45,5.45,0,0,0,3.52-1.83L54.52,1.23ZM63.13,82.47l35.1-40.3a3.08,3.08,0,0,0-.3-4.34L57.43,2.56a1.9,1.9,0,0,0-2.68.19L19,43.85a2.27,2.27,0,0,0,.22,3.2L60.09,82.68A2.15,2.15,0,0,0,63.13,82.47ZM1.71,48.53,42.47,84a7.33,7.33,0,0,0,5.62,1.77L59,84.62a.58.58,0,0,0,.32-1L18,47.58a4.74,4.74,0,0,0-3.61-1.13L1.94,47.79A.42.42,0,0,0,1.71,48.53ZM65,34a4.75,4.75,0,1,0-.46-6.69A4.75,4.75,0,0,0,65,34ZM35.12,11.46c-1.73,2-2.51,4.11-1.75,4.77s2.77-.41,4.49-2.38,2.5-4.12,1.74-4.78S36.84,9.48,35.12,11.46ZM19.84,29c-1.72,2-2.5,4.11-1.74,4.77s2.76-.41,4.49-2.39,2.5-4.11,1.74-4.77S21.57,27,19.84,29ZM58.16,62.36a4.75,4.75,0,1,0,6.69-.46A4.75,4.75,0,0,0,58.16,62.36ZM51.21,22.08a4.75,4.75,0,1,0-.46-6.7A4.75,4.75,0,0,0,51.21,22.08ZM25.89,62c-.66.76.41,2.77,2.38,4.49S32.39,69,33,68.25s-.4-2.77-2.38-4.49S26.55,61.26,25.89,62ZM44.4,74.1c-.66.76.41,2.77,2.38,4.49s4.12,2.51,4.77,1.75-.4-2.77-2.38-4.49S45.06,73.35,44.4,74.1ZM8.18,49c-.66.76.41,2.77,2.38,4.49s4.12,2.5,4.78,1.74-.41-2.76-2.39-4.48S8.84,48.24,8.18,49Zm22.5-10.57A4.75,4.75,0,1,0,37.37,38,4.75,4.75,0,0,0,30.68,38.43Zm13.74,12a4.75,4.75,0,1,0,6.69-.47A4.74,4.74,0,0,0,44.42,50.4Z"/></g></g></svg>