<svg xmlns="http://www.w3.org/2000/svg" viewBox="0 0 100 71.22"><defs><style>.cls-1{fill-rule:evenodd;}</style></defs><g id="Layer_2" data-name="Layer 2"><g id="Layer_1-2" data-name="Layer 1"><path class="cls-1" d="M96.56,44.45c2.45,3,4,7.46,3.28,15.09a10.66,10.66,0,0,1-6.28,8.7h0a41.47,41.47,0,0,1-7.64,2.66c-4.94.89-8.78,0-10.2-3.39-.73-1.75-1.18-3.61-1.78-5.41a78.76,78.76,0,0,1-2.17-10.63c-.65-4.46.07-8.24,4.46-9.7,2.37-.61,4.94-1.16,7.63-1.67C89.05,39,93.12,40.9,96.56,44.45ZM48.07,40.1c-2.68.51-5.25,1.06-7.63,1.67-4.38,1.46-5.1,5.24-4.45,9.7A77.25,77.25,0,0,0,38.16,62.1c.59,1.8,1.05,3.66,1.78,5.41,1.42,3.36,5.26,4.28,10.2,3.39a41.47,41.47,0,0,0,7.64-2.66h0a10.68,10.68,0,0,0,6.28-8.7c.67-7.63-.83-12.07-3.29-15.09C57.33,40.9,53.27,39,48.07,40.1Zm-35.78,0C9.6,40.61,7,41.16,4.66,41.77.28,43.23-.45,47,.21,51.47A77.25,77.25,0,0,0,2.38,62.1c.59,1.8,1.05,3.66,1.78,5.41,1.41,3.36,5.26,4.28,10.19,3.39A41.22,41.22,0,0,0,22,68.24h0a10.68,10.68,0,0,0,6.29-8.7c.66-7.63-.83-12.07-3.29-15.09C21.55,40.9,17.49,39,12.29,40.1ZM73.94,22.31c.6,1.8,1,3.66,1.78,5.41C77.14,31.08,81,32,85.92,31.11a41.47,41.47,0,0,0,7.64-2.66h0a10.66,10.66,0,0,0,6.28-8.7c.67-7.63-.83-12.07-3.28-15.09C93.12,1.11,89.05-.79,83.86.31,81.17.82,78.6,1.37,76.23,2c-4.39,1.46-5.11,5.24-4.46,9.7A78.76,78.76,0,0,0,73.94,22.31ZM48.07.31C45.39.82,42.82,1.37,40.44,2c-4.38,1.46-5.1,5.24-4.45,9.7a77.25,77.25,0,0,0,2.17,10.63c.59,1.8,1.05,3.66,1.78,5.41,1.42,3.36,5.26,4.28,10.2,3.39a41.47,41.47,0,0,0,7.64-2.66h0a10.68,10.68,0,0,0,6.28-8.7c.67-7.63-.83-12.07-3.29-15.09C57.33,1.11,53.27-.79,48.07.31ZM12.29.31C9.6.82,7,1.37,4.66,2,.28,3.44-.45,7.22.21,11.68A77.25,77.25,0,0,0,2.38,22.31C3,24.11,3.43,26,4.16,27.72,5.57,31.08,9.42,32,14.35,31.11A41.22,41.22,0,0,0,22,28.45h0a10.68,10.68,0,0,0,6.29-8.7c.66-7.63-.83-12.07-3.29-15.09C21.55,1.11,17.49-.79,12.29.31Z"/></g></g></svg>