<svg xmlns="http://www.w3.org/2000/svg" viewBox="0 0 100 76.05"><defs><style>.cls-1{fill:#020203;}</style></defs><g id="Layer_2" data-name="Layer 2"><g id="Layer_1-2" data-name="Layer 1"><path class="cls-1" d="M29.39,43.41,40.06,16.72a1.53,1.53,0,0,0-.85-2L12.75,4.17a1.65,1.65,0,0,0-2.15.92L.13,31.28a1.82,1.82,0,0,0,1,2.36L27.56,44.2A1.4,1.4,0,0,0,29.39,43.41ZM12.79,28.67a2.57,2.57,0,1,1-.61-3.59A2.56,2.56,0,0,1,12.79,28.67Zm5.34-13.81a2.57,2.57,0,1,1-.61-3.58A2.57,2.57,0,0,1,18.13,14.86Zm7.47,18.7A2.57,2.57,0,1,1,25,30,2.57,2.57,0,0,1,25.6,33.56Zm1.15-16.78a2.57,2.57,0,1,1,.6,3.58A2.56,2.56,0,0,1,26.75,16.78ZM12.44,3.27,40.29,14.4a2.35,2.35,0,0,0,1.73,0l5.73-2.31a.61.61,0,0,0,0-1.13L20.93.24a3.42,3.42,0,0,0-2.48,0l-6,2.3A.4.4,0,0,0,12.44,3.27Zm13.8,2.19c.28-.76,1.61-1,3-.46s2.25,1.52,2,2.28-1.61,1-3,.46S26,6.21,26.24,5.46Zm23.87,17.3,6.66,2.53a2.18,2.18,0,0,0,1.75-.08l26.89-13a.45.45,0,0,0,0-.83L79.15,8.94a2.51,2.51,0,0,0-2,.08L50.09,22.13A.34.34,0,0,0,50.11,22.76Zm18.37-7.65c1.33-.61,2.68-.51,3,.22s-.46,1.82-1.78,2.43-2.68.52-3-.22S67.16,15.72,68.48,15.11ZM61.76,68.54c-.57,1.26-1.54,2-2.17,1.76s-.67-1.54-.1-2.79,1.55-2.05,2.17-1.76S62.34,67.29,61.76,68.54ZM57.84,52.36a2.49,2.49,0,1,1-1.23-3.31A2.5,2.5,0,0,1,57.84,52.36Zm10.5,1.5a4.4,4.4,0,0,1-.32,1c-.58,1.26-1.55,2.05-2.18,1.76s-.67-1.54-.1-2.79a4.19,4.19,0,0,1,.45-.78c.55-.78,1.24-1.2,1.73-1S68.52,53,68.34,53.86ZM51.59,66.07a2.5,2.5,0,1,1-1.24-3.31A2.5,2.5,0,0,1,51.59,66.07ZM99.87,39.74,87.16,13.49a1.22,1.22,0,0,0-1.62-.56L59.33,25.62a1.19,1.19,0,0,0-.55,1.59l6,12.57-1.14-.52L57.75,27.1A2.27,2.27,0,0,0,56.51,26l-6.58-2.49a.29.29,0,0,0-.36.4l5.57,11.51L47,31.67a3.38,3.38,0,0,0-2.5-.13l-3,1L49.19,13.2a.5.5,0,0,0-.65-.65L42.21,15.1A2.17,2.17,0,0,0,41,16.32L30,43.78a.58.58,0,0,0,.75.75l1.69-.65L24.51,61.32a2,2,0,0,0,1,2.61L51.1,75.61h0a4.88,4.88,0,0,0,3.6.18l.51-.18,5.17-1.76a3,3,0,0,0,1.73-1.56l8.07-17.71h0l.43-.94.39-.86.35.72a1.34,1.34,0,0,0,1.79.63L99.27,41.48A1.31,1.31,0,0,0,99.87,39.74Zm-58-17.93c.49-1.33,1.37-2.23,2-2s.7,1.48.21,2.81-1.38,2.23-2,2S41.41,23.15,41.9,21.81ZM66.2,29.9a2.57,2.57,0,1,1-.1,3.64A2.57,2.57,0,0,1,66.2,29.9Zm-9.9.82c.59-.27,1.54.56,2.14,1.85s.6,2.55,0,2.82-1.54-.56-2.14-1.85S55.71,31,56.3,30.72ZM41.16,33.29l3.55-1.17a2.85,2.85,0,0,1,2,.11l8.8,4,8.5,3.87,1.14.52,6.26,2.86,1.79.81a.15.15,0,0,1,0,.28l-1.88.62-3.43,1.14-.74.24-.72.24a1.58,1.58,0,0,1-1.17-.06l-.41-.19L62,45.28l-2.68-1.23-19-8.67-1.45-.66L38,34.33l.86-.29Zm-2.74-.06a.6.6,0,0,1,.27.23L37,34C37.48,33.39,38,33.07,38.42,33.23ZM53.07,74.64a1.1,1.1,0,0,1-1.44.54L25.74,63.37a1.36,1.36,0,0,1-.67-1.8l8.21-18,2.77-6.07,1-2.15A.73.73,0,0,1,38,35l.76.35L40.1,36l19.66,9L62.2,46l2.46,1.12a.88.88,0,0,1,.43,1.15l-1.66,3.64ZM73,46.93l-2.33,5.13-.4.86-.65,1.43-8.12,17.8a2,2,0,0,1-1.18,1.06L54,75.3a.32.32,0,0,1-.39-.43L64,52.16l1.8-3.94a1.5,1.5,0,0,1,.92-.82l.74-.25.74-.24,3.4-1.13,1.93-.63a.15.15,0,0,1,.19.2Zm2.6-.56a2.57,2.57,0,0,1-2,.69l.75-1.54.06-.14a1.16,1.16,0,0,0-.57-1.5L73,43.46,71.77,43a2.63,2.63,0,0,1,.93-.77,2.61,2.61,0,0,1,2.71.28A2.57,2.57,0,0,1,75.59,46.37Zm3-16.73a2.57,2.57,0,1,1,.1-3.64A2.58,2.58,0,0,1,78.63,29.64Zm5.86,12.73a2.57,2.57,0,1,1,.1-3.63A2.57,2.57,0,0,1,84.49,42.37Zm3.18-16.58a2.57,2.57,0,1,1,.1-3.63A2.55,2.55,0,0,1,87.67,25.79Zm5.86,12.74a2.57,2.57,0,1,1,.1-3.64A2.57,2.57,0,0,1,93.53,38.53ZM61.14,43.38c.2-.45,1.39-.34,2.64.23s2.11,1.4,1.91,1.85c-.12.25-.54.32-1.12.24A5.71,5.71,0,0,1,63,45.23a6.77,6.77,0,0,1-1-.6C61.36,44.17,61,43.69,61.14,43.38ZM45.41,33.08c.2-.45,1.39-.34,2.64.23s2.11,1.4,1.91,1.85-1.39.34-2.64-.23S45.21,33.53,45.41,33.08Zm7.86,5.16c.2-.44,1.39-.34,2.64.23a6.6,6.6,0,0,1,1,.56c.67.47,1.05,1,.91,1.29a.36.36,0,0,1-.2.18,3.53,3.53,0,0,1-2.44-.41C53.92,39.51,53.07,38.69,53.27,38.24ZM43.2,45.69A2.5,2.5,0,1,1,42,42.37,2.5,2.5,0,0,1,43.2,45.69ZM37,59.39a2.5,2.5,0,1,1-1.24-3.31A2.51,2.51,0,0,1,37,59.39Z"/></g></g></svg>