<svg xmlns="http://www.w3.org/2000/svg" viewBox="0 0 100 89.82"><defs><style>.cls-1{fill:#020203;}</style></defs><g id="Layer_2" data-name="Layer 2"><g id="Layer_1-2" data-name="Layer 1"><path class="cls-1" d="M.32,29.82l.85,2L24.76,83.17a3.85,3.85,0,0,0,2.24,2l8.94,3,2.75,1a11.76,11.76,0,0,0,8.4-.29l1.31-.66L97.2,65.9a4.79,4.79,0,0,0,2.37-6.34L77.27,10.82,76.19,8.38a7.65,7.65,0,0,0-4.21-4L70.05,3.6,59,.25a5.11,5.11,0,0,0-3.67.2L6.42,22.63,2.31,24.58A4.05,4.05,0,0,0,.32,29.82Zm70.89-23L18.11,31a3.65,3.65,0,0,1-2.62.14L3,27A.7.7,0,0,1,3,25.72L55.06,2a6.11,6.11,0,0,1,4.45-.24L71.14,5.55A.68.68,0,0,1,71.21,6.81ZM42.28,86.51,18.16,33.64a1.18,1.18,0,0,1,.58-1.55L72.66,7.51a1.65,1.65,0,0,1,2.19.82L98.33,59.82a3.83,3.83,0,0,1-1.89,5.07L46,87.9A2.8,2.8,0,0,1,42.28,86.51Zm-40-58.4,12.34,4.07a4.36,4.36,0,0,1,2.58,2.31l24.16,53a.66.66,0,0,1-.81.9l-12.13-4a5,5,0,0,1-3-2.68l-24-52.62A.69.69,0,0,1,2.28,28.11Zm62.58-5.85a5,5,0,1,1-2.49,6.65A5,5,0,0,1,64.86,22.26ZM35.44,35.68A5,5,0,1,1,33,42.33,5,5,0,0,1,35.44,35.68ZM53.05,47.43a5,5,0,1,1,6.65,2.49A5,5,0,0,1,53.05,47.43ZM40.58,17.85c-2.53,1.15-5.07,1-5.69-.37s.93-3.38,3.45-4.53,5.07-1,5.69.37S43.1,16.7,40.58,17.85ZM77.42,49.8a5,5,0,1,1-2.49,6.65A5,5,0,0,1,77.42,49.8ZM48,63.22a5,5,0,1,1-2.49,6.65A5,5,0,0,1,48,63.22ZM12.72,41.68c1.26-.58,3.21,1,4.36,3.52s1.06,5-.2,5.62-3.21-1-4.36-3.53S11.45,42.25,12.72,41.68ZM25.28,69.22c1.26-.58,3.21,1,4.36,3.53s1.06,5-.2,5.61-3.21-1-4.37-3.53S24,69.79,25.28,69.22Z"/></g></g></svg>