<svg xmlns="http://www.w3.org/2000/svg" viewBox="0 0 99.96 100"><g id="Layer_2" data-name="Layer 2"><g id="Layer_1-2" data-name="Layer 1"><path d="M99.94,6.53C99.94,2.12,97.62,0,93.27,0Q50.21,0,7.14,0C2,0,0,1.88,0,7Q0,28.44,0,49.91,0,71.61,0,93.33C0,97.75,2.16,100,6.6,100q43.43,0,86.84,0c4.14,0,6.5-2.42,6.5-6.59Q100,50,99.94,6.53Zm-5.89,84.4c0,3.14,0,3.16-3.23,3.16q-40.9,0-81.81,0c-2.36,0-3.15-.6-3.15-3.06.08-27.27,0-54.54.06-81.81C5.92,6,5.94,6,9.27,6H90.84C94,6,94,6,94,9.12q0,20.52,0,41ZM26.36,9.25a11.09,11.09,0,0,0-11.09,11,10.87,10.87,0,0,0,10.94,11.1,11.12,11.12,0,0,0,11.2-11A11.3,11.3,0,0,0,26.36,9.25ZM26.22,26.9a6.28,6.28,0,0,1-6.47-6.46,6.61,6.61,0,0,1,6.58-6.7,6.81,6.81,0,0,1,6.59,6.81A6.63,6.63,0,0,1,26.22,26.9ZM73.67,68.4a11.07,11.07,0,0,0-.21,22.14,11.07,11.07,0,1,0,.21-22.14Zm-.13,17.65A6.42,6.42,0,0,1,67,79.57a6.59,6.59,0,1,1,6.51,6.48Zm.13-76.8a11.1,11.1,0,0,0-11.12,11A10.89,10.89,0,0,0,73.47,31.39,11.14,11.14,0,0,0,84.69,20.46,11.33,11.33,0,0,0,73.67,9.25ZM73.56,26.9A6.39,6.39,0,0,1,67,20.48a6.62,6.62,0,0,1,6.56-6.74,6.73,6.73,0,0,1,6.62,6.51A6.6,6.6,0,0,1,73.56,26.9ZM26.41,68.4a11.07,11.07,0,0,0-.28,22.14A11.13,11.13,0,0,0,37.4,79.62,11.3,11.3,0,0,0,26.41,68.4Zm0,17.65a6.32,6.32,0,0,1-6.63-6.57,6.4,6.4,0,0,1,6.41-6.59,6.69,6.69,0,0,1,6.76,6.61A6.62,6.62,0,0,1,26.38,86.05Z"/></g></g></svg>