<svg xmlns="http://www.w3.org/2000/svg" viewBox="0 0 100 88.66"><defs><style>.cls-1{fill:#010101;}</style></defs><g id="Layer_2" data-name="Layer 2"><g id="Layer_1-2" data-name="Layer 1"><path class="cls-1" d="M59.64,88.61a9,9,0,0,0-1.41-.13,3.25,3.25,0,0,1-1.32-.25c-.25-.18-1.92-1.8-3.2-3.2-.3-.35-1.32-1.37-2.22-2.31s-1.87-2-2.17-2.26S48,79.1,47.06,78.07,45,75.94,44.58,75.51s-1.15-1.24-1.7-1.79c-.9-.9-1-1.07-1.16-1.58a1.94,1.94,0,0,0-1-1.36c-.34-.22-.42-.34-.47-.56s-.08-1.7-.12-3.45S40,63,39.93,62.2s-.13-2.69-.17-4.26-.13-2.91-.17-3-.94-.09-2,.17a14.9,14.9,0,0,1-1.67.34c-.51.09-1.07.21-1.24.26s-.76.17-1.28.25a11.32,11.32,0,0,0-1.19.26,5.55,5.55,0,0,1-.9.17c-.72.13-2.68.51-3.88.77a12.67,12.67,0,0,1-1.49.3c-.39,0-.9.17-1.15.21s-.81.17-1.2.26-1.06.21-1.45.29c-.77.17-1.53.35-3.33.69-.59.12-1.28.25-1.53.34-.73.21-1,.17-1.41-.17a21.42,21.42,0,0,0-2.13-1.67A3.68,3.68,0,0,1,12.63,56c-.13-.22-.47-.77-.77-1.28-.51-.82-1.19-2-1.54-2.56,0-.13-.38-.64-.68-1.16s-.81-1.36-1.06-1.83-.56-.94-.6-1a3.09,3.09,0,0,0-.3-.47c-.13-.17-.34-.56-.51-.86S5.8,44.5,5.29,43.69c-.09-.17-.38-.69-.68-1.16s-.51-.89-.51-.89L3.71,41c-.21-.34-.51-.81-.64-1.07s-.34-.55-.42-.72c-.35-.56-1.41-2.31-1.58-2.61a10.84,10.84,0,0,1-1.07-2A2.85,2.85,0,0,1,.17,34a5.37,5.37,0,0,0,.26-1.11A2.21,2.21,0,0,0,.3,31.66a1.1,1.1,0,0,1,.08-1.24c.09-.13.56-.9,1-1.71a20.4,20.4,0,0,1,1-1.79c.13-.17.72-1.24,1.32-2.3S5,22.4,5.08,22.14a9.56,9.56,0,0,0,.51-.94c.3-.55,1.53-2.73,1.92-3.37s1.32-2.34,1.71-3,1.15-2,1.45-2.61c.12-.25.34-.59.42-.81s.34-.59.51-.89c.3-.51.47-.81,1-1.79a3.16,3.16,0,0,1,.47-.69c.21-.21,1.58-1.36,2.3-1.87a2.75,2.75,0,0,1,2.09-.56c.26,0,1.11.13,1.92.21s1.62.22,1.84.26,1,.17,1.79.26,2,.25,2.56.34,1.28.17,1.53.17a13.34,13.34,0,0,1,1.5.17,17.3,17.3,0,0,0,2.21.3,16.07,16.07,0,0,1,1.88.25c.39.09,1.24.17,1.88.26s1.66.21,2.26.3a7.14,7.14,0,0,0,1.19.13c.09,0,.43.12.82.38a4.11,4.11,0,0,0,.72.43s.13.13.21.3.26.29.39.29c.38,0,.64.22,1.79,1.54.3.34.51.6,1.28,1.45.47.51,1,1.15,1.24,1.45a7.69,7.69,0,0,0,.72.85c.17.18.6.64.94,1.07l1.24,1.41c.34.38.94,1.07,1.32,1.53a6.36,6.36,0,0,0,.77.86s.21.25.42.47c.35.38,1,1.19,2.1,2.34.25.26.64.77.89,1.07s.73.81,1,1.11.77.85,1.07,1.19.89,1.07,1.32,1.5.9,1,1.07,1.28l.34.47V33l-.3.47c-1.24,1.88-1.54,2.39-1.54,2.6s.18.34,2.82-.38c.3-.09.94-.26,1.37-.34.93-.22,2.26-.56,2.9-.73.25-.08.81-.21,1.23-.3A4.51,4.51,0,0,0,65.32,34a.94.94,0,0,1,.68-.08,3,3,0,0,0,.64.08,2.65,2.65,0,0,1,.6.13,1.35,1.35,0,0,0,.68.17c.42,0,1.06.34,4.22,1.88,2.31,1.11,3.24,1.58,4.57,2.17.59.3,1.53.73,2.09,1s1.83.9,2.9,1.41c2,1,3.41,1.67,4.73,2.26,2.48,1.16,2.56,1.2,2.82,2.69a2.24,2.24,0,0,0,.34,1.07l.26.38A42,42,0,0,1,89.46,52c-.08.6-.17,1.54-.21,2s-.13,1.62-.26,2.52-.21,2.3-.3,3.15-.17,2-.25,2.52-.17,1.71-.26,2.56-.17,2.09-.25,2.65-.22,1.92-.3,2.94a25.66,25.66,0,0,1-.51,3.8.59.59,0,0,1-.3.3,12.54,12.54,0,0,0-1.67,2.13,5.36,5.36,0,0,1-1,1.19c-.13,0-.55.26-.89.43a9.83,9.83,0,0,0-1.16.55,2.49,2.49,0,0,1-.55.22s-1.41.64-3.11,1.45l-1,.47s-.51.21-1.06.47-1.84.85-2.91,1.32-2.26,1-2.68,1.19-1.2.56-1.67.77c-1.49.68-2.9,1.37-4.52,2l-1.11.51-1,.47c-.3.13-.81.38-1.15.56a1.87,1.87,0,0,1-1.67.38Zm-.55-1c0-.22-.34-.6-.56-.56a.31.31,0,0,0-.17.56c.26.25.68.25.73,0Zm1.75-.6c.29-.13.64-.26.76-.34s.64-.3,1.88-.85c.64-.3,1.2-.56,2.65-1.2.59-.25,1.7-.77,2.47-1.15s1.84-.81,2.3-1.07.94-.42.94-.42a3.55,3.55,0,0,0,.77-.34c.38-.18,1-.47,1.28-.6s.85-.39,1.15-.56,1-.47,1.54-.72,1.15-.56,1.36-.64.64-.3,1-.43.82-.38,1.07-.47l2.48-1.11a6.68,6.68,0,0,0,1-.51,5.21,5.21,0,0,1,.64-.21c.47-.13.55-.17.94-.77.25-.34.6-.81.77-1.07s.29-.51.25-.72a2.63,2.63,0,0,1,0-.77c.05-.26.13-1.19.18-2s.17-2,.25-2.56.21-1.83.3-2.86.21-2.3.3-2.9.17-1.75.25-2.6.18-1.79.22-2.09.17-1.36.21-2.43.21-2.39.3-2.94.17-1.75.26-2.56.12-1.71.17-2c0-.47,0-.51-.22-.77-.42-.38-.64-.38-1.49,0-.43.17-1,.38-1.28.47a5.4,5.4,0,0,0-.77.3c-.17.08-.47.21-.72.3s-.77.29-1.2.47-1,.38-1.28.46a4.63,4.63,0,0,0-.68.3,3.85,3.85,0,0,1-.73.3c-.51.22-1.06.43-2.3.9-.34.13-.89.34-1.28.47s-.68.25-.77.3l-.76.29-1.28.47c-.35.13-.86.35-1.16.43A3.6,3.6,0,0,0,72,53a2.54,2.54,0,0,1-.64.25,3.38,3.38,0,0,0-.64.26,2.54,2.54,0,0,1-.64.25c-.29.09-1.15.43-1.87.73-1.37.55-2.22.9-3.16,1.19a3.62,3.62,0,0,0-.9.39,1.48,1.48,0,0,1-.55.21,1.73,1.73,0,0,0-.56.21,1.13,1.13,0,0,1-1,.13c-.59,0-.59,0-1.15.34s-.55.47-.6.73-.08,1.83-.17,3.67S60,65.61,60,66.72s-.12,4.06-.21,6.53-.17,5.63-.21,7c-.26,5.81-.26,5.85-.13,6.15s.47.72.72.72c.09.17.39.09.69,0Zm4.48-6.87a2.9,2.9,0,0,1-1.63-1.32l-.38-.56V77.13a2.86,2.86,0,0,1,.3-1.79,4.17,4.17,0,0,1,4.44-2.43A2.73,2.73,0,0,1,69.75,74a2.79,2.79,0,0,1,.56,2.26,3.15,3.15,0,0,1-.3,1.49,4.5,4.5,0,0,1-2.56,2.35,2.5,2.5,0,0,1-2.13.08Zm14-5.33a3.4,3.4,0,0,1-1.84-2.94,4.92,4.92,0,0,1,2.13-4.1,4.76,4.76,0,0,1,2-.68,4.16,4.16,0,0,1,2.22.89c1.49,1.45,1.32,4.18-.34,5.85a6.77,6.77,0,0,1-1.15.89,2.67,2.67,0,0,1-1.54.3,2.76,2.76,0,0,1-1.49-.21ZM66.64,64.51a3.45,3.45,0,0,1-1.92-1.2,4.13,4.13,0,0,1-.81-2.47A4.18,4.18,0,0,1,67.7,57a3.61,3.61,0,0,1,3,1.71c.08.21.25.68.38,1.1a2.27,2.27,0,0,1,0,1.58,6.81,6.81,0,0,1-.47,1.28,4,4,0,0,1-3.88,1.8Zm14-6.06a3.63,3.63,0,0,1-1.79-1.92,4.79,4.79,0,0,1,.42-3.76A4.23,4.23,0,0,1,81,51.11a2.2,2.2,0,0,1,1.36-.3,2.38,2.38,0,0,1,2.22.81,4.22,4.22,0,0,1-.17,5.76,3.9,3.9,0,0,1-1.79,1.11,4.19,4.19,0,0,1-2,0ZM57.85,86.65a2.94,2.94,0,0,0,.13-.77c0-1.37.25-8.19.34-11.82,0-2.22.13-4.82.17-5.8s.13-3.84.21-6.36c.13-5,.13-4.82-.51-5.42a3.53,3.53,0,0,0-.77-.55,26.38,26.38,0,0,1-3.28-2.52c-.64-.51-1.54-1.23-2.09-1.62-1.75-1.32-2.14-1.62-3.12-2.47-.55-.43-1.58-1.28-2.34-1.84s-1.79-1.36-2.35-1.83-1.24-1-1.54-1.24-.76-.6-1-.81c-.55-.43-.9-.47-1-.08s.08,6,.26,9.34c0,1,.12,3.45.21,5.59.08,3.58.13,4.78.38,9.72.13,2.18.22,2.52.9,3.16s3.67,3.71,5.84,6l2.44,2.52c1.19,1.2,2.51,2.65,3,3.12S54.78,84,55,84.26s.85.89,1.41,1.49a4.45,4.45,0,0,0,1.19,1.07.25.25,0,0,0,.3-.17Zm-4.65-7.6a4.38,4.38,0,0,1-2.6-3.2,4,4,0,0,1,0-2.56,2.46,2.46,0,0,1,2.09-1.87A3,3,0,0,1,55.67,73c1.33,1.75,1.33,4.4,0,5.59a3,3,0,0,1-1.7.68,2.62,2.62,0,0,1-.77-.17ZM48.51,67.11a4.24,4.24,0,0,1-2.39-2.78,6,6,0,0,1,.13-2.51,2.93,2.93,0,0,1,3.11-1.92A3.83,3.83,0,0,1,52,62a3,3,0,0,1,.3,1.79c0,1.15,0,1.15-.3,1.71A3,3,0,0,1,50.17,67a1.68,1.68,0,0,1-1.66.09ZM44.45,55.8A3.92,3.92,0,0,1,42,53.67,2.84,2.84,0,0,1,41.64,52a2.48,2.48,0,0,1,.3-1.49,3,3,0,0,1,1.75-1.71,1.57,1.57,0,0,1,1.23-.08,2.81,2.81,0,0,1,1.75.94c1.84,1.79,1.45,5-.68,5.93a2.61,2.61,0,0,1-1.54.25ZM18.09,57.59c.34-.08.85-.21,1.15-.25s.9-.17,1.28-.26l1.92-.38,1.92-.39L25.9,56l1.45-.3c.38-.09,1.11-.22,1.57-.3,1.37-.26,2.48-.47,3.42-.68l1.45-.3A10.39,10.39,0,0,0,35,54.18c.3-.08.94-.21,1.37-.3a21.52,21.52,0,0,0,3.07-.72,2.23,2.23,0,0,0,.13-.51c.08-.6-.09-.64-1.07-.22a2.82,2.82,0,0,1-2.39.17A2.5,2.5,0,0,1,35,49.45a3.51,3.51,0,0,1,1.92-2.31,2.86,2.86,0,0,1,1.37-.34,3,3,0,0,0,.89-.09c.09,0,.09-.46.05-1.53-.09-1.62-.09-1.54.59-2a2.48,2.48,0,0,0,.81-1.79,3.2,3.2,0,0,1,0-.81c0-.25.47-.47,1.45-.72,2.43-.56,2.64-.64,2.64-.9a1.7,1.7,0,0,0-.21-.6,2.3,2.3,0,0,1,0-1.92,4.16,4.16,0,0,1,4.23-2.73,1.89,1.89,0,0,1,1.49,1,1.5,1.5,0,0,1,.3,1.16A2.16,2.16,0,0,1,50.38,37c-.25.59-.25.81.09.81a1.62,1.62,0,0,0,.6-.13,3.7,3.7,0,0,1,1-.26c.85-.13,1.24-.3,1.45-.6s1.58-2.43,1.58-2.47.21-.34.47-.72.55-.86.64-1a.66.66,0,0,0,0-.72.82.82,0,0,0-.38-.47c-.17-.05-3.84-.09-10.79-.05l-10.54.05-.9.51a9.62,9.62,0,0,0-1.32,1,6.8,6.8,0,0,0-1.15,1.58,1.24,1.24,0,0,1-.22.38,9.45,9.45,0,0,0-.59.9c-.22.34-.56.89-.81,1.19a5.85,5.85,0,0,0-.43.6s-.38.64-.9,1.41-1.19,1.83-1.57,2.39c-1,1.49-1.75,2.68-1.84,2.77s-.38.6-.77,1.15-1,1.49-1.32,2.05-.64,1-.68,1.07-1.62,2.47-2.09,3.2-.86,1.28-1.45,2.17c-.34.56-.94,1.45-1.28,2-.56.86-.6,1-.6,1.45.21.77.26.77,1.58.47Zm7-3.54A3,3,0,0,1,23.63,52a4.11,4.11,0,0,1,1.24-3.33,3.76,3.76,0,0,1,1.88-.93,2.39,2.39,0,0,1,1.24,0A2.89,2.89,0,0,1,29.78,49c.34.51.34.6.38,1.49a2.17,2.17,0,0,1-.25,1.54,4.92,4.92,0,0,1-2,2,2.48,2.48,0,0,1-1.4.3,1.63,1.63,0,0,1-1.41-.3Zm5.29-7a2.85,2.85,0,0,1-1.5-1.28,2.07,2.07,0,0,1-.25-1.28A2.24,2.24,0,0,1,29,43a4.06,4.06,0,0,1,2.65-2.17,2.61,2.61,0,0,1,2.73,1.11,3.19,3.19,0,0,1-.09,3.2A3.5,3.5,0,0,1,30.42,47Zm5.67-6.69A2.43,2.43,0,0,1,34.56,39a3.74,3.74,0,0,1,1.23-4.18,5,5,0,0,1,1-.59,2.23,2.23,0,0,1,1.37-.3,1.92,1.92,0,0,1,1.28.42,2.24,2.24,0,0,1,1.07,2A4.07,4.07,0,0,1,39,39.46a3.58,3.58,0,0,1-2.9.86ZM15.78,57.55a1,1,0,0,0,0-.85c-.12-.22-1,.08-1,.34s.52.6.81.64c0,0,.09,0,.17-.13Zm44.76-1.07c.55-.34.38-.46-.6-.51s-1,0-1,.17.72.52,1.06.52a1.57,1.57,0,0,0,.56-.18Zm-45.39-.59c.38-.22.59-.47,1.66-2,.68-1,1.28-1.92,1.32-2s.43-.69,2.39-3.67c.85-1.32,1.71-2.6,1.92-2.9s.55-.86.81-1.28.51-.81.56-.9.51-.72,1-1.45,1.11-1.62,1.36-2a10.14,10.14,0,0,0,.68-1.06c.09-.13.22-.34.3-.43,1-1.62,3.93-5.89,4.18-6.27a2.49,2.49,0,0,0,.56-1.11c.17-.73.13-.9-.43-1.62-.13-.17-.64-.86-1.11-1.45S29,25.85,28.28,25s-1.36-1.84-1.53-2.09c-.3-.47-.9-1.24-2.05-2.73-.25-.3-.64-.86-.89-1.16s-.73-.93-1-1.36-1.06-1.45-1.66-2.22-1.32-1.75-1.62-2.13-.94-1.28-1.45-1.92-1.2-1.58-1.5-2c-.47-.59-.68-.81-.94-.89a1.31,1.31,0,0,0-1.28.34c-.17.3-.21.34-1.4,2.47-.56.94-1.07,1.92-1.24,2.18s-.51.85-.77,1.36-.64,1.11-.77,1.37a6,6,0,0,1-.47.81c-.12.21-.25.51-.34.64-.3.47-1,1.71-1.19,2.13a6.09,6.09,0,0,1-.51.86,4.65,4.65,0,0,0-.47.81,8,8,0,0,0-.47.89,8.87,8.87,0,0,0-.47.81c-.09.17-.68,1.2-1.28,2.26C3.5,27.94,3.41,28.16,3.24,28.5c-.08.17-.38.64-.64,1.06a9.28,9.28,0,0,0-.47.82,8.63,8.63,0,0,1-.47.81L1.24,32v1c0,.9,0,1.07.21,1.32s.64,1,1.11,1.84,1,1.7,1.19,2c.35.55.52.85,1.24,2.09s1,1.71,1.41,2.43c.08.13.21.39.34.64a5.47,5.47,0,0,0,.6.94c.17.3.34.56.34.56s.94,1.62,1.15,2l.26.47a4.3,4.3,0,0,0,.38.64c.13.17.38.64.6,1,.47.81.6,1.07,1.49,2.52.34.6.64,1.11.64,1.15a.36.36,0,0,0,.13.21,4.9,4.9,0,0,1,.34.51c.3.52.9,1.54,1.28,2.27s.51.68,1.2.34ZM14,48a3,3,0,0,1-1.36-1.1c-.09-.17-.22-.43-.3-.56a3.14,3.14,0,0,1-.17-1.49c0-1.2,0-1.24.34-1.84a4.47,4.47,0,0,1,2.47-2.3,3,3,0,0,1,2.26,0,3.39,3.39,0,0,1,2,3.12,3.77,3.77,0,0,1-.39,1.75,5.56,5.56,0,0,1-1.53,2A3.68,3.68,0,0,1,14,48ZM6.44,35.37a3.5,3.5,0,0,1-2-1.84l-.34-.72V31.48c0-1.28,0-1.32.29-1.92a5.3,5.3,0,0,1,.81-1.1,1.83,1.83,0,0,1,1.16-.69,1.84,1.84,0,0,1,1.62,0,3.59,3.59,0,0,1,2.26,2.73,4,4,0,0,1,0,2.22A3.51,3.51,0,0,1,8,35.37a3.51,3.51,0,0,1-1.58,0Zm8-.26a3.77,3.77,0,0,1-2-2.86,2.9,2.9,0,0,1,0-1.7c.34-1.84,1.32-3,2.69-3.25a3,3,0,0,1,3.07,1.37A4.83,4.83,0,0,1,19,31.19a8.13,8.13,0,0,1-.55,2.26l-.26.47A3.32,3.32,0,0,1,17,35a2.46,2.46,0,0,1-1.32.34,1.63,1.63,0,0,1-1.24-.21Zm9-.51a4.3,4.3,0,0,1-1.62-1.54,6,6,0,0,1-.55-2.22,6.1,6.1,0,0,1,.68-2.38,4.09,4.09,0,0,1,1.36-1.28,2.53,2.53,0,0,1,1.28-.26,2.06,2.06,0,0,1,1.28.26,4.17,4.17,0,0,1,2,4.18A4,4,0,0,1,26,34.51a2.21,2.21,0,0,1-1.28.34,1.94,1.94,0,0,1-1.32-.25ZM14.33,21.84a3,3,0,0,1-.68-.3A3.92,3.92,0,0,1,12,17.49a4.41,4.41,0,0,1,2.48-3.28A3.22,3.22,0,0,1,18.77,16a2.68,2.68,0,0,1,.34,1.62,3.45,3.45,0,0,1-.25,1.58,4,4,0,0,1-2,2.39,2.67,2.67,0,0,1-1.36.3,7,7,0,0,1-1.16-.05ZM63.1,55.16c.47-.21,1.06-.42,1.32-.51s.68-.3,1-.43a6.57,6.57,0,0,1,.81-.3,2.66,2.66,0,0,0,.6-.25c.17-.09.73-.3,1.2-.47s1.11-.43,1.36-.55a2.75,2.75,0,0,1,.64-.22,5,5,0,0,0,.6-.25,2.53,2.53,0,0,1,.64-.26,2.86,2.86,0,0,0,.64-.26,2.82,2.82,0,0,1,.64-.25,1.45,1.45,0,0,0,.51-.22c.21-.08.6-.25.85-.34a2.78,2.78,0,0,0,.6-.25,2.43,2.43,0,0,1,.64-.26c1.24-.47,1.79-.68,2.09-.81a2.53,2.53,0,0,1,.43-.17,2.53,2.53,0,0,0,.42-.17,6.59,6.59,0,0,1,.94-.38l1.24-.47c.34-.13.9-.35,1.28-.47s.9-.34,1.19-.47.86-.34,1.2-.47l1.41-.56,1.15-.47c.64-.25.72-.29.72-.64s-.12-.46-2.9-1.74c-.34-.18-1.15-.52-1.75-.82s-1.53-.72-2-1-1-.51-1.16-.59a2.93,2.93,0,0,0-.59-.3c-.17-.09-.94-.47-1.71-.81s-1.66-.81-2-1c-.89-.43-2.43-1.16-4.43-2.14-.9-.42-1.67-.81-1.71-.81a.36.36,0,0,1-.21-.13,3.7,3.7,0,0,0-.86-.38,5.3,5.3,0,0,0-3.15,0,2.73,2.73,0,0,1-.73.21,5.32,5.32,0,0,0-.85.21c-.39.13-1,.3-1.37.39s-1,.25-1.36.34c-1.07.26-2.52.64-3.5.9-2.09.51-2.86.72-3.67.93-.47.13-1.07.26-1.41.35-.64.12-1.53.34-2.77.68-.47.13-1,.25-1.2.3s-.72.17-1.15.3a5.42,5.42,0,0,1-.94.21,3.61,3.61,0,0,0-.81.21,6.48,6.48,0,0,1-1.19.3c-.81.13-1.62.51-1.67.81s.09.6,1.2,1.45c.55.47,1.54,1.24,2.22,1.75l4.78,3.75c.55.43,1.4,1.11,1.87,1.5,1.62,1.28,2.52,2,3.16,2.47.34.26.68.51.77.6A10,10,0,0,0,58.45,55a17.87,17.87,0,0,0,3.32.47,2.88,2.88,0,0,0,1.33-.26Zm-.22-8.66A5,5,0,0,1,60,45.05a2.59,2.59,0,0,1-.77-1.11,2.41,2.41,0,0,1,.59-2.6,2.73,2.73,0,0,1,.56-.47,1.41,1.41,0,0,0,.43-.21,5.83,5.83,0,0,1,2.34-.56,7.38,7.38,0,0,1,3.5,1A4.23,4.23,0,0,1,68,42.62a2.22,2.22,0,0,1-.55,2.73,3.46,3.46,0,0,1-2.35,1.15,3.68,3.68,0,0,1-2.18,0Zm25.81-.13a.69.69,0,0,0-.21-.76c-.47-.17-.68.38-.34.76s.47.3.55,0ZM33.32,31.19a.38.38,0,0,0,.26-.39c0-.47-.69-.68-.86-.3a.86.86,0,0,0,0,.73c.08.13.34.08.64,0ZM57,30.63c0-.21-.47-.3-.47-.08s.09.25.3.25.22,0,.17-.17Zm-1-.85c.26,0,.3-.26,0-.47-.13-.09-.77-.85-1.45-1.66S53,25.9,52.73,25.55,51.66,24.36,51,23.63s-1.4-1.62-1.7-1.91-1-1.11-1.54-1.8-1.11-1.32-1.24-1.45c-.72-.77-1.62-1.79-2.13-2.43-.77-.94-1.75-2-1.88-2.17s-.47-.56-1-1.11-1-1.11-1.11-1.28-.38-.47-.59-.73c-.64-.9-1.54-1.15-4.91-1.49A15.53,15.53,0,0,1,33.19,9c-.43-.08-1.28-.17-1.88-.25S30,8.62,29.82,8.58s-.9-.13-1.49-.22-1.62-.21-2.26-.3-1.67-.21-2.26-.3a18.84,18.84,0,0,1-1.88-.25c-.43-.09-1.28-.17-1.92-.26a19.16,19.16,0,0,1-2-.25c-.73-.13-.81-.13-1,0s0,.59.6,1.36c.26.34.73.94,1,1.37s.93,1.28,1.45,1.92,1.28,1.66,1.75,2.3c1,1.41,1.87,2.56,3,4,.47.6,1.07,1.41,1.32,1.75s.6.81.77,1l1.58,2.13c.17.26.56.73,1.75,2.31.81,1,2.86,3.84,3,4.14.43.68-.56.64,11.6.59,5.93,0,10.92,0,11-.08ZM43.39,26a4.82,4.82,0,0,1-2.82-2.22,2,2,0,0,1-.34-1.32,1.69,1.69,0,0,1,.3-1.19,2.19,2.19,0,0,1,.81-.73A2.84,2.84,0,0,1,43,20.26a3.24,3.24,0,0,1,1.79.3,5,5,0,0,1,2.52,2.52,3.58,3.58,0,0,1,0,1.66A2.2,2.2,0,0,1,46,25.94a2.8,2.8,0,0,1-2.56,0Zm-16-10.15a5,5,0,0,1-3.16-2.9,2.48,2.48,0,0,1,.51-2.56c1.2-1.24,3.58-.9,5.12.72a3.25,3.25,0,0,1,1,1.54,2.64,2.64,0,0,1,0,1.62,2.06,2.06,0,0,1-1.06,1.32,2.32,2.32,0,0,1-1.24.3,9.09,9.09,0,0,1-1.15,0ZM99.74.6a1.45,1.45,0,0,1,.13-.3L100,0V.3c0,.21,0,.3-.13.3Z"/></g></g></svg>