<svg xmlns="http://www.w3.org/2000/svg" viewBox="0 0 88.49 100"><g id="Layer_2" data-name="Layer 2"><g id="Layer_1-2" data-name="Layer 1"><path d="M87.59,48.37Q72.26,25,56.92,1.6a3.14,3.14,0,0,0-4.54-1c-1.11.68-2.21,1.39-3.3,2.1L27.87,16.55,6,30.85a7,7,0,0,0-3,4.31Q1.67,40.59.3,46a8.74,8.74,0,0,0,1.23,7.22Q16.13,75.6,30.73,98c1.45,2.23,3.46,2.65,5.67,1.22l15-9.74L81.34,70a10.33,10.33,0,0,0,4.47-6.21c.63-2.4,1.15-4.84,1.67-7.26a47.33,47.33,0,0,0,1-4.95A5.72,5.72,0,0,0,87.59,48.37Zm-86-1.69c1-3.91,1.95-7.83,3-11.74a5.44,5.44,0,0,1,2.56-3.08q10.15-6.62,20.29-13.25L52,2.62c.23-.15.46-.32.7-.45.61-.32.77,0,.82.51-.16.71-.3,1.38-.47,2-.8,3.22-1.63,6.44-2.4,9.67a4.32,4.32,0,0,1-2,2.79c-4.49,2.9-9,5.83-13.43,8.75L4.52,46c-.67.44-1.35.88-2,1.31-.23.15-.48.33-.76.11S1.56,46.93,1.62,46.68ZM80.94,68.35,45,91.77q-4.65,3-9.28,6.08a2.87,2.87,0,0,1-1.76.66,2.24,2.24,0,0,1-2-1.23q-4.29-6.6-8.6-13.2L9.3,62.46c-2.19-3.35-4.39-6.7-6.57-10.06-1.25-1.93-1-2.85.85-4.09L48.85,18.76c1.31-.85,2-.69,2.87.59q10,15.25,19.91,30.52l10,15.3C82.54,66.61,82.39,67.41,80.94,68.35ZM86.8,52.53c-1,4.08-2,8.14-3,12.21,0,.14-.11.27-.26.62-1.18-1.79-2.25-3.39-3.3-5q-11.07-17-22.15-34c-1.85-2.83-3.68-5.68-5.56-8.5a3.57,3.57,0,0,1-.51-3L54.77,3.76c.11-.44.17-1,.72-1.1s.79.39,1,.77Q71.3,26.08,86.07,48.71A4.72,4.72,0,0,1,86.8,52.53Zm-45.25,26a5,5,0,0,1-4.94,4.94,5,5,0,0,1,0-9.91A5.08,5.08,0,0,1,41.55,78.52ZM25.73,54.28a5,5,0,0,1-4.93,4.94,5,5,0,0,1-.1-9.9A5.07,5.07,0,0,1,25.73,54.28Zm41.65,7.4a4.91,4.91,0,1,1-4.9-5A4.81,4.81,0,0,1,67.38,61.68ZM51.6,37.38a4.94,4.94,0,1,1-5-4.91A4.91,4.91,0,0,1,51.6,37.38Zm15-13.12a1.77,1.77,0,0,1-1.91,2.17A3.18,3.18,0,0,1,63,25.67a8.58,8.58,0,0,1-3.29-5.45,2.09,2.09,0,0,1,.7-2.19,1.85,1.85,0,0,1,2.19.12A8.12,8.12,0,0,1,66.57,24.26ZM82.4,48.86a1.68,1.68,0,0,1-2.66,1.54,8,8,0,0,1-4.24-6.08c0-1.94,1-2.68,2.51-2.14C80.19,43,82.53,46.54,82.4,48.86ZM23.05,26.54a3.87,3.87,0,0,1,.65-1,11.19,11.19,0,0,1,6-3.56,1.33,1.33,0,0,1,1.52.41A1.24,1.24,0,0,1,31,23.85a10.66,10.66,0,0,1-6.57,4.3C23,28.13,22.61,27.52,23.05,26.54ZM6.61,34a10,10,0,0,1,6.92-4.57c1.08-.19,1.59.59,1.18,1.56-.84,2-4.9,4.64-7.06,4.63C6.52,35.56,6,34.88,6.61,34ZM39.53,19a10,10,0,0,1,6.86-4.5c1.13-.2,1.64.59,1.18,1.61-.88,2-4.89,4.58-7,4.58C39.42,20.64,38.91,19.9,39.53,19Z"/></g></g></svg>