<svg xmlns="http://www.w3.org/2000/svg" viewBox="0 0 100 98.55"><defs><style>.cls-1{fill:#020203;}</style></defs><g id="Layer_2" data-name="Layer 2"><g id="Layer_1-2" data-name="Layer 1"><path class="cls-1" d="M99.55,22.77A5.8,5.8,0,0,0,93.72,17l-72.87.48a2.42,2.42,0,0,0-2.4,2.44l.48,72.6a6.05,6.05,0,0,0,6.09,6l67.9-.45A7.12,7.12,0,0,0,100,90.93ZM28.36,32.22A6.57,6.57,0,1,1,34.71,39,6.57,6.57,0,0,1,28.36,32.22Zm10.09,54.6a6.57,6.57,0,1,1,6.8-6.35A6.57,6.57,0,0,1,38.45,86.82Zm21.3-27.25a6.58,6.58,0,1,1,6.8-6.35A6.58,6.58,0,0,1,59.75,59.57ZM73.22,32.4a6.58,6.58,0,1,1,6.35,6.8A6.58,6.58,0,0,1,73.22,32.4ZM83.57,87.49a6.58,6.58,0,1,1,6.8-6.35A6.58,6.58,0,0,1,83.57,87.49ZM16.26,14.38a5,5,0,0,0,3.39,1.28l73.4-.48a2.5,2.5,0,0,0,1.67-4.34L84.62,1.61A6.1,6.1,0,0,0,80.44,0L4.75.5a1.55,1.55,0,0,0-1,2.71Zm54.4-10c3.63-.07,6.6,1.21,6.63,2.86s-2.88,3.05-6.51,3.12-6.61-1.2-6.64-2.85S67,4.44,70.66,4.36ZM33.57,3.57c3.63-.07,6.6,1.21,6.63,2.86s-2.88,3.05-6.51,3.12-6.61-1.21-6.64-2.86S29.93,3.64,33.57,3.57ZM14.44,15.22,2.77,4.82A1.66,1.66,0,0,0,0,6.07L.47,77.41A13.82,13.82,0,0,0,5,87.53L13,94.9a2.44,2.44,0,0,0,4.08-1.82L16.61,20A6.49,6.49,0,0,0,14.44,15.22ZM8.55,57.45c-1.31,0-2.38-3.11-2.38-7s1.07-7,2.38-7,2.38,3.11,2.38,7S9.87,57.45,8.55,57.45Z"/></g></g></svg>