<svg xmlns="http://www.w3.org/2000/svg" viewBox="0 0 96.07 100"><defs><style>.cls-1{fill:#010101;}</style></defs><g id="Layer_2" data-name="Layer 2"><g id="Layer_1-2" data-name="Layer 1"><path class="cls-1" d="M55.84,99.83a2.21,2.21,0,0,0-.68-.21,24.39,24.39,0,0,1-3.83-1.73,18.57,18.57,0,0,1-2.73-1.53c-.42-.26-.9-.57-1.05-.63a34.78,34.78,0,0,1-3-2.2c-.42-.37-1.1-.9-1.57-1.26-2.63-2-4.21-3.42-8.14-7.67a38.28,38.28,0,0,1-5.36-6.72A31.42,31.42,0,0,1,26,71.31c-1.41-4-1.84-5.93-1.62-7.51.05-.52.21-1.52.31-2.25a27.4,27.4,0,0,1,1.79-7.41c.68-1.78.78-2.2.63-2.41a5.13,5.13,0,0,0-1.89-.16,27.89,27.89,0,0,1-6-.84c-.53-.11-1.31-.32-1.84-.42a3.3,3.3,0,0,1-1.05-.37,1.31,1.31,0,0,0-.58-.16,4.07,4.07,0,0,1-1-.21c-.31-.1-.89-.31-1.26-.42a4.48,4.48,0,0,1-1.15-.42,2.08,2.08,0,0,0-.58-.21A38,38,0,0,1,6,45.74C3.43,44.27,2.12,43,1.18,41.12A6,6,0,0,1,.55,39.6a4,4,0,0,0-.27-1A4.71,4.71,0,0,1,.13,36c.15-.1.42.79.42,1.37a2.48,2.48,0,0,0,.26.94,2.45,2.45,0,0,1,.26.84,5.35,5.35,0,0,0,.42,1.11c.84,1.57,1.26,1.83,2,1.15.42-.37.57-.68,1-2.1,1.11-3.47,2.89-8.93,3.42-10.13.26-.69.63-1.63.79-2,.47-1.31.89-2.36,1.15-2.94.16-.32.42-1,.63-1.47a7,7,0,0,1,.58-1.16,8.13,8.13,0,0,0,.58-.94,12.49,12.49,0,0,1,4.88-4.47A9.14,9.14,0,0,1,21,15.12a32.21,32.21,0,0,1,7.72.79c.63.16,1.47.32,1.79.37s.84.16,1.21.26,1.31.32,2.2.53,2.1.42,2.84.63A13.19,13.19,0,0,0,40.4,18c2.31,0,2.42,0,3.37-.42,1.15-.47,1.31-.79.73-1.36a1.56,1.56,0,0,0-.63-.42,1.48,1.48,0,0,1-.63-.27,1.38,1.38,0,0,0-.58-.26.94.94,0,0,1-.52-.26,1.91,1.91,0,0,0-.74-.37c-.21-.05-.37-.16-.37-.31s.53-.27.9,0a6.4,6.4,0,0,0,2.15.63c.32,0,.53.15.89.57s.58.58.74.53.47-.47.73-1c.63-1.2.58-1.57-.52-3.83a11.4,11.4,0,0,0-4.15-4.62,5.29,5.29,0,0,1-.84-.53,7.62,7.62,0,0,0-1.16-.68c-1.31-.68-1.31-.68-3.2-1.57l-1.31-.58a4,4,0,0,0-1-.37c-.1,0-.63-.21-1.26-.42a13.51,13.51,0,0,0-1.79-.63c-.73-.21-1.83-.52-2.52-.79A9.18,9.18,0,0,0,27.33.79,2.85,2.85,0,0,1,26.12.37c-.21-.21-.16-.21.74-.16a9.09,9.09,0,0,1,1.57.26,9.72,9.72,0,0,0,1.16.27,4.14,4.14,0,0,1,.94.31,2.14,2.14,0,0,0,.74.21,3.25,3.25,0,0,1,.89.21c.26.11.79.32,1.1.42A29.13,29.13,0,0,1,36.62,3.2c.32.16,1.16.53,1.89.84a28.88,28.88,0,0,1,3,1.58c5,3,6.82,6.46,6.82,13.44,0,4.36-.36,9.35-.73,10.35A7.48,7.48,0,0,1,46,31c-.84.63-1.84,1.47-2.26,1.84a14.82,14.82,0,0,1-1.36,1c-.53.37-3.73,3.1-4.41,3.78a62.9,62.9,0,0,0-4.15,4.83c-1.26,1.68-3.31,4.73-3.63,5.36a3,3,0,0,1-.31.58A26.54,26.54,0,0,0,28.06,52c-1.26,3.1-2.57,7.51-2.46,8.14,0,.31.68.31,1.15,0s2.21-.32,3.57.1a31,31,0,0,1,8.93,4.47c1,.68,1.47.89,1.84.89.57,0,.94-.21.94-.58s-.26-.63-3.31-3.73c-2.94-2.88-3.83-4.14-4.72-6.4a10.34,10.34,0,0,1,0-5.36,42.66,42.66,0,0,1,2.41-5.2,2.91,2.91,0,0,0,.27-.58,6.8,6.8,0,0,1,.47-.94c.16-.32.42-.74.58-1s.42-.73.68-1.15l.94-1.37a13.75,13.75,0,0,1,1.11-1.42c.36-.42,1-1.26,1.62-1.89,1-1.21,1.53-1.63,1.84-1.52.11,0-.42.68-1.21,1.47a20.17,20.17,0,0,0-3,4,23.45,23.45,0,0,0-2.94,6.35A19.09,19.09,0,0,0,36.31,52a11.83,11.83,0,0,0,1.26,5.62c1.57,3,4.67,7.14,5.46,7.14a.91.91,0,0,0,.58-.37,17.91,17.91,0,0,1,1.84-2.26A9.72,9.72,0,0,1,44,64.59a1.19,1.19,0,0,0-.06,1.26c.42.42,1.11.16,2.21-.84a2.77,2.77,0,0,1,1-.63c.21,0,.68-.21,1.1-.37s.84-.36,1-.42S50,63.28,50.7,63s1.73-.63,2.36-.84,1.47-.52,1.84-.68c.68-.42,1.21-.47,1.21-.16s-.84.9-2,1.16a16.77,16.77,0,0,0-4,1.57,14.64,14.64,0,0,1-1.74.79,2.52,2.52,0,0,0-.84.74,3.11,3.11,0,0,1-1.15.94c-1,.48-1,.74.26,1.63,4.67,3.57,8.25,5.78,10.29,6.46a16.79,16.79,0,0,0,6.62.47c3.31-.42,6.25-2,10.56-5.67.36-.31,1.15-.94,1.68-1.36a32.06,32.06,0,0,0,2.67-2.42l3.1-2.89c.79-.68,1.84-1.68,2.42-2.2s1.57-1.47,2.31-2.1a11.8,11.8,0,0,0,1.68-1.84c1.94-3.21,1.94-6.36-.05-10.56a24.24,24.24,0,0,0-3.94-5.3c-.47-.53-1.58-1.68-2.36-2.57-2.16-2.37-6.36-6.15-6.83-6.2a.93.93,0,0,1-.32-.21,1.85,1.85,0,0,0-.63-.42,7.18,7.18,0,0,1-1-.58,4.91,4.91,0,0,0-.79-.47,4,4,0,0,1-.58-.37c-.42-.31-1.21-.37-1.37-.05a2.1,2.1,0,0,0,.11,1.47,4.82,4.82,0,0,1,.26,1.15,2.9,2.9,0,0,0,.32,1,1.65,1.65,0,0,1,.21.79c0,.26,0,.58.16.63a4.62,4.62,0,0,1,.42.68,2.06,2.06,0,0,0,.42.69,1.51,1.51,0,0,1,.15.73,4.37,4.37,0,0,0,.9,2.31c.31.42.31,1,0,1-.11,0-.26-.21-.37-.58-.16-.57-.63-.84-1-.63-.21.16-.15,1,.06,1.21a3.69,3.69,0,0,1,.63,2.05,4,4,0,0,1-.9,2.36c-.47.68-.52.84-.47,1.42a2.46,2.46,0,0,1-.26,1.42,4,4,0,0,0-.37.94,1,1,0,0,1-.32.48,2.34,2.34,0,0,0-.42,1l-.1.69V50a7.47,7.47,0,0,1,.58-3c.31-.47.31-.74.15-1s-.15-.16-.47,0a8.11,8.11,0,0,1-3.1.84,5.45,5.45,0,0,1-4.09-2A2.63,2.63,0,0,1,62.09,43a2.62,2.62,0,0,1,.42-2A4.64,4.64,0,0,1,65,38.76c.74-.37,1-.37,2.52-.37s1.73,0,2.42.42l.68.42.42-.47c.37-.42.42-.58.37-1.37a2.12,2.12,0,0,0-.21-1.21A1.24,1.24,0,0,1,71,35.6a1.34,1.34,0,0,0-.26-.63,1.24,1.24,0,0,1-.27-.63,1.74,1.74,0,0,0-.26-.73,1.39,1.39,0,0,1-.26-.68,8.12,8.12,0,0,0-1.21-2.58,2.44,2.44,0,0,1-.47-1.26,1.21,1.21,0,0,0-1.11-1.21,1.43,1.43,0,0,1-.68-.21,4.83,4.83,0,0,0-1.21-.36A7.26,7.26,0,0,1,63.83,27a36.31,36.31,0,0,0-4.42-.21c-2.15,0-4-.05-4-.1s.11-.11.27-.21a40,40,0,0,1,8-.11c.42.11,1.16.26,1.68.37a13.3,13.3,0,0,1,2.89.89,47.79,47.79,0,0,1,4.94,2.52,7.17,7.17,0,0,0,1,.63,41,41,0,0,1,5.46,3.84,68.61,68.61,0,0,1,6,5.88,73,73,0,0,1,6.51,8.45c2,3.57,3.89,8.51,3.89,10.14,0,.68-.26.84-.53.31a9,9,0,0,0-1.73-2,3.21,3.21,0,0,0-2.73-.58c-1.94.37-3.57,1.52-7.88,5.72-1.41,1.37-3.15,3.1-3.88,3.78-2,1.89-5.88,6.09-7.25,7.72-2,2.42-3.62,4.83-3.62,5.31S69.18,79,70.76,77c.79-1,2.94-3.21,4.78-5,3-3,4-3.94,6.88-6.51C84,64,87.51,61.13,88.19,60.65A16.69,16.69,0,0,1,90.66,59,3.85,3.85,0,0,1,93,58.66a1.9,1.9,0,0,1,1.53.84,7,7,0,0,1,1,1.21,12.61,12.61,0,0,1,.21,4.72,30.78,30.78,0,0,1-1.62,5.67,66.76,66.76,0,0,1-8,13.71,34.2,34.2,0,0,1-4.36,4.73c-1.41,1.36-2.94,2.78-3.41,3.15s-.89.79-1,.84-.84.68-1.68,1.36-1.73,1.37-1.89,1.53a1.13,1.13,0,0,1-.47.31,5.87,5.87,0,0,0-.84.47,2.89,2.89,0,0,1-1,.48,1.28,1.28,0,0,0-.57.26c-.37.31-1.06.37-1.06.16,0-.06.16-.21.37-.32a6.6,6.6,0,0,1,.63-.26l.63-.32a2.75,2.75,0,0,0,.63-.42.74.74,0,0,1,.37-.21c.11,0,.21-.1.32-.15a14.28,14.28,0,0,1,1.47-1.21c.73-.58,1.36-1.1,1.41-1.16a13.39,13.39,0,0,1,1.37-1.26c.73-.63,1.63-1.42,1.94-1.73A16.5,16.5,0,0,0,81.37,87c.21-.52.47-1,.52-1.1l.21-.42c.05-.1.21-.47.37-.84a5.32,5.32,0,0,0,.37-1c0-.21.15-.47.26-.47.26-.11.21,1,0,1.21a1.58,1.58,0,0,0-.26.78,2.07,2.07,0,0,1-.32.9c-.21.31-.26,1,0,1.1a5,5,0,0,0,1-1.31c.68-1.05.94-1.53.94-1.9a6.73,6.73,0,0,1,.27-1.47,4.25,4.25,0,0,0,0-2.88,3.93,3.93,0,0,1,.37-3,8.11,8.11,0,0,0,.52-1.62,1.44,1.44,0,0,1,.21-.74c.21,0,.11,2-.1,2.73a11.73,11.73,0,0,0-.16,3.36c0,2.63.1,3.05.37,2.89a45.56,45.56,0,0,0,3.2-6,22.45,22.45,0,0,0,1.73-7.87c0-1.58-.52-3.1-1-3.1-.1,0-.31.31-.52.73a19.48,19.48,0,0,1-2.21,3.21,12.58,12.58,0,0,0-.89,1.26,4.88,4.88,0,0,1-.63.52c-.32.21-.79.58-1.05.79a2.56,2.56,0,0,1-.95.47.89.89,0,0,1-.84-.26c-.42-.42-.42-.79,0-1.73a16.83,16.83,0,0,1,2.78-4.36c.58-.68.74-1.1.42-1.1-.63,0-5.82,4-8.87,6.82-2.42,2.26-6.2,6-8.14,8.09-3.47,3.73-4.94,6.3-5.46,9.61-.11.52-.26,1.47-.37,2.15a10.48,10.48,0,0,0,0,4.1c.21.42.16,1.1-.05,1.1,0,0-.16-.21-.21-.52a5.16,5.16,0,0,0-.37-1.11,2.53,2.53,0,0,1-.26-.89,1.39,1.39,0,0,0-.16-.68,5.17,5.17,0,0,1-.31-.79c-.06-.21-.21-.74-.37-1.16C60.52,90.27,60,89,59.78,88.49a2.25,2.25,0,0,1-.26-.69,5.14,5.14,0,0,0-.37-.94c-.21-.47-.47-1-.63-1.37-1.15-2.57-2.83-6-3.46-7.09a29.24,29.24,0,0,0-4.84-6c-1.68-1.68-5.3-5-5.72-5.25s-.79.57-.42,1.1a.82.82,0,0,1,.11.73,3.34,3.34,0,0,0,.26,1.58c.21.63.73,2.41,1.15,4,.9,3.47,1,3.89,1.63,4.78a4.36,4.36,0,0,1,.63,1.84,36.62,36.62,0,0,0,1.94,6.51,2.12,2.12,0,0,1,.27.84,3.55,3.55,0,0,0,1.31,2.15A15.86,15.86,0,0,1,54,93.84c.58,1,.11,1.68-.94,1.63-.53,0-.63,0-.63.26a.94.94,0,0,0,.26.58.77.77,0,0,1,.26.42,5.24,5.24,0,0,0,1.58,1.63,16,16,0,0,1,2.26,1.1,1.12,1.12,0,0,0,.57.16c.11,0,.27,0,.27.16-.27.31-1.21.26-1.74,0ZM52,97.1a2.46,2.46,0,0,0-1-1.31,7,7,0,0,1-.84-1.05,13.46,13.46,0,0,0-.94-1.16,16.13,16.13,0,0,1-2.31-3c-.37-.84-.37-1.26,0-1.68s.68-.36,1.36.11,1.21.1.69-.74a2.75,2.75,0,0,1-.32-.84,1.47,1.47,0,0,0-.21-.63,4.66,4.66,0,0,1-.37-.84c0-.31-.36-1.1-.57-1.83A14.66,14.66,0,0,1,47,82a14.34,14.34,0,0,0-1.37-3.88,4.63,4.63,0,0,1-.26-.89,3.14,3.14,0,0,0-.26-.9,3.75,3.75,0,0,1-.26-.94c-.06-.32-.32-1.11-.53-1.79s-.52-1.52-.63-1.89A13.85,13.85,0,0,0,41.3,67,33.42,33.42,0,0,0,35,63.75,6.93,6.93,0,0,0,32,63.33c-1.63,0-1.89.05-2.42.32a5,5,0,0,0-2.36,3.78,4.17,4.17,0,0,0,0,2.52c.26,1.47.47,2,1.84,4.67,2.47,5,5.36,8.67,12.08,15.6,1,1.1,1.41,1.31,1.84,1a3.74,3.74,0,0,0,.89-1.58,7,7,0,0,1,1.57-2.41c.21-.16.42-.26.42-.16s-.31.79-.68,1.58c-1.52,3.09-1.47,3.78.32,4.83.36.21,1.2.79,1.89,1.31a9.59,9.59,0,0,0,1.41,1,1.9,1.9,0,0,1,.53.31,11.46,11.46,0,0,0,2.62,1.37c0-.11.06-.21.06-.37ZM43.87,84a14.67,14.67,0,0,1-3.15-2.26c-1.26-1.26-2.57-3.31-2.57-3.94a1.11,1.11,0,0,1,.78-.94c1.26-.32,4.42,2.57,5.83,5.35.79,1.47.42,2.16-.89,1.79ZM35.26,72.31a11.64,11.64,0,0,1-4.41-3.88,3.66,3.66,0,0,1-1-2.42c0-.89.37-1.21,1.31-1.1,1.94.31,6,5,6,6.93a1,1,0,0,1-.79.89,2.25,2.25,0,0,1-1.15-.42ZM22.76,49.42A12.88,12.88,0,0,0,29,47c.78-.63.94-.84.63-1.26-1-1.37-1-1.37-1-2.47a2.21,2.21,0,0,1,.52-1.78,3.64,3.64,0,0,1,1.42-1.21,4,4,0,0,1,2.21-.53H34l3.36-3.36c1.84-1.84,3.52-3.62,3.73-3.94a7.28,7.28,0,0,1,.63-.84,11.38,11.38,0,0,0,1.84-4.46,8.29,8.29,0,0,0-.84-2.47,8.84,8.84,0,0,0-2.89-3c-.69-.48-3-1.84-3.1-1.84a11.63,11.63,0,0,1-1.26-.58,23.81,23.81,0,0,0-11.82-2.31c-.79.1-1.78.26-2.2.37-3.31,1.1-4.36,1.57-6.2,2.94a13.08,13.08,0,0,0-3.62,3.83,10.2,10.2,0,0,0-1.42,2.36,2.71,2.71,0,0,1-.26.74,3.07,3.07,0,0,0-.27.68,17.51,17.51,0,0,1-.84,1.84A16.42,16.42,0,0,0,7.37,33.4,3.47,3.47,0,0,1,7,34.5a2.49,2.49,0,0,0-.21.74,2.17,2.17,0,0,1-.21.68,14,14,0,0,0-.79,3,4.94,4.94,0,0,0,.42,3.68c.26.31.31.31,1.1.16A8.88,8.88,0,0,0,9,42.22a4,4,0,0,1,1.52-.37,2.24,2.24,0,0,0,1.26-.31c.42-.26.47-.42.53-.95a3.27,3.27,0,0,1,.68-2.2,3.85,3.85,0,0,1,3.83-1.58A5.64,5.64,0,0,1,19.14,38a2.64,2.64,0,0,0,.26.79,3.73,3.73,0,0,1-1.79,4.67,3.41,3.41,0,0,1-1.78.31,3.17,3.17,0,0,1-2.73-1.1c-.58-.58-.63-.58-1-.42s-.84.26-1.26.37a6,6,0,0,0-2.16,1,8,8,0,0,1-.89.47c-.52.21-.37.68.37,1.42A6.44,6.44,0,0,0,10,46.9c.31,0,.89-.64,1.2-1.32s.53-.79.58-.16c0,.79-.05,1-.37,1.37l-.26.32.32.36c.63.63,4.46,1.68,7.09,1.89a15.75,15.75,0,0,0,4.25.06Zm2.47-11.77a3.73,3.73,0,0,1-1.95-1.15.9.9,0,0,0-.52-.32,6.87,6.87,0,0,0-1.63.74c-1.26.68-2,.84-1.57.37a.64.64,0,0,1,.36-.22.61.61,0,0,0,.37-.21,4.48,4.48,0,0,1,1-.63c1.21-.68,1.42-.94,1.42-1.62a3.86,3.86,0,0,1,2.15-3.15,4.59,4.59,0,0,0,1.94-1.74c.32-.63,1.16-1.41,1.16-1.1s-.11.42-.95,1.47c-.26.32-.21.74.11.79A4.32,4.32,0,0,1,30.06,33c.73,1.52-.11,3.36-1.94,4.31a5.51,5.51,0,0,1-2.89.36Zm9.87-6a3.51,3.51,0,0,1-2.05-2,4.14,4.14,0,0,1,.37-2.78c1.84-2.68,6.2-2.26,7,.63a2.32,2.32,0,0,1,0,1.68,3.74,3.74,0,0,1-2.37,2.41,4,4,0,0,1-3,.06Zm-16-2.89a3.55,3.55,0,0,1-2.52-2.26,2.78,2.78,0,0,1-.16-1.05,4.56,4.56,0,0,1,2.26-3.1,3.58,3.58,0,0,1,2-.37c1.16,0,1.42.06,1.89.37.84.53,1.21.84,1.47,1.52.9,2.05-.68,4.47-3.3,4.94a7,7,0,0,1-.9.16c-.05,0-.42-.11-.78-.21Zm8.87-.9a2.9,2.9,0,0,1,.42-.57c.37-.32.26.21-.1.63s-.58.47-.32-.06ZM68.45,98.94c-.11-.16.36-.42.73-.42s.37.26-.05.42-.58.15-.68,0Zm3.46-7.15c-.47-.52-.52-1-.1-2A12.72,12.72,0,0,1,75,85.18c1.68-1.37,2.52-1.68,3-1.1S78.27,86,77,87.91c-1.78,2.68-3.41,4.2-4.46,4.2a1,1,0,0,1-.58-.32Zm-15.8-7.45A.45.45,0,0,1,56,84a3.66,3.66,0,0,0-.58-.89,6.79,6.79,0,0,1-.58-.84,3.18,3.18,0,0,0-.52-.79c-.32-.42-.63-.89-.79-1.15s-.52-.74-.84-1.16c-.63-.79-1-1.31-.89-1.42s.79.37,1.26.9A18.54,18.54,0,0,1,56,83.13a.86.86,0,0,0,.26.47c.32.27.37.69.16.84a.56.56,0,0,1-.26-.1Zm6.46-16.07c-1.69-.21-3.63-1.68-3.94-3a3.73,3.73,0,0,1,1.47-4A6.27,6.27,0,0,1,63.93,60a4.81,4.81,0,0,1,3.57,1.26,3,3,0,0,1,1.37,2.84A2.24,2.24,0,0,1,68.29,66a5.5,5.5,0,0,1-3.47,2.21,4.37,4.37,0,0,1-2.25,0ZM45.45,61.91a15.47,15.47,0,0,1,1.94-3.3,1.82,1.82,0,0,0,.47-2A4.24,4.24,0,0,1,48.6,54a8.72,8.72,0,0,1,1.57-1.41c1.21-.84,1.26-1,.74-2a1.7,1.7,0,0,1-.11-1.47,7.26,7.26,0,0,0,0-2.2c-.31-2.47-.31-2.58-.16-2.47a1.43,1.43,0,0,1,.21.58.71.71,0,0,0,.48.63c.63.26.79,1.21.42,2.68-.27.94-.21,1.15.47,2.2s1,1.16,1.68,1.16a6.67,6.67,0,0,1,2.47.68,4.82,4.82,0,0,1,2.2,3.36,5.29,5.29,0,0,1-1,2.57A5,5,0,0,1,55,60.13a3.62,3.62,0,0,1-2.31.31,5.46,5.46,0,0,1-3-.89c-.73-.58-1.05-.42-2.25.79-1.42,1.36-1.89,1.78-1.89,1.57ZM76.9,55.3a7.33,7.33,0,0,1-3-1.26,3.65,3.65,0,0,1-1.37-3,2.71,2.71,0,0,1,1.05-2.47A4.61,4.61,0,0,1,76.11,47,5.47,5.47,0,0,1,81,48a3.78,3.78,0,0,1,.26,5.67,2.57,2.57,0,0,1-.84.73.57.57,0,0,0-.37.16,5.93,5.93,0,0,1-3.15.79ZM41.14,52a4.52,4.52,0,0,1-3.73-2.83A4.31,4.31,0,0,1,39,45.06a6.89,6.89,0,0,1,6.67-1A4.08,4.08,0,0,1,48,47.42c0,2.63-3.57,5-6.88,4.62ZM73.23,41.49c-.16-.37-.11-.79.1-.74s.32,1,.11,1c-.06,0-.16-.11-.21-.21ZM54.37,38.86a4.47,4.47,0,0,1-3.1-3.1,2.2,2.2,0,0,1,.06-1.52,4.64,4.64,0,0,1,3.1-3,4.2,4.2,0,0,1,2.31-.32,4.11,4.11,0,0,1,2.2.37,6.18,6.18,0,0,1,2.26,2.1,3.55,3.55,0,0,1-1,4.15,6.12,6.12,0,0,1-5.83,1.31ZM2.86,36.29a19.37,19.37,0,0,1,.31-5,3.72,3.72,0,0,0,.21-.84c0-.32.47-.58.79-.48s.26.42,0,3.26a7.68,7.68,0,0,1-.53,2.73c-.31.52-.52.63-.73.37Zm-1.58-5c.05-.32.16-1.37.32-2.47A11.44,11.44,0,0,1,2,26.52a2.4,2.4,0,0,0,.21-.63.42.42,0,0,1,.15-.37c.21-.16.69.05.79.32a20.3,20.3,0,0,1-.63,4.3c-.16.53-.31,1.11-.37,1.26s-.21.37-.52.42-.42,0-.37-.52Zm52.31-4a1.36,1.36,0,0,1,.73-.16c.47,0,.63.05.47.16s-1.31.15-1.2,0ZM.44,26.89c-.1-.06-.16-.27-.1-.53a26.06,26.06,0,0,0,.52-3.78c.11-1.68.21-1.89.74-1.89s.68.37.63,1.1C2.07,24.1,1.23,27,.76,27l-.32-.15ZM6.27,23a8.88,8.88,0,0,1,.05-2.57c.21-1.53.95-3.73,1.26-3.89a.36.36,0,0,1,.37.1c.16.16.16.53,0,1.74a12.07,12.07,0,0,1-.63,3.52c-.26,1-.73,1.47-1.1,1.1Zm-5-4.1a.29.29,0,0,1,.16-.21.1.1,0,0,1,.16.06.32.32,0,0,1-.16.21c-.11.05-.16,0-.16-.06Zm3.94-.94A14.91,14.91,0,0,1,5.48,14a1.75,1.75,0,0,0,.16-.68,2.88,2.88,0,0,1,.26-.9c.27-.52.37-.63.63-.57s.32.1.27,1.83a7.62,7.62,0,0,1-.27,2.42c-.1.31-.26.84-.31,1.1A2.12,2.12,0,0,1,6,17.8c-.16.21-.63.32-.79.11Zm-3.41-.58c-.21-.21-.11-1.1.15-1.68a2.59,2.59,0,0,0,.27-1,2.07,2.07,0,0,1,.26-.89,1.85,1.85,0,0,0,.26-.68,3.86,3.86,0,0,1,.26-.9c.16-.36.53-1.41.9-2.36A42.58,42.58,0,0,1,7.06,3.36,8.55,8.55,0,0,1,11.47.68,2.86,2.86,0,0,0,12.62.26a1.12,1.12,0,0,1,.79-.21c.32.06.42.11.47.42a.58.58,0,0,0,.37.53,1.39,1.39,0,0,1,.42.26c.16.26-.47.16-.84-.1A2.66,2.66,0,0,0,11.94.79c-.84.26.37,1.21,1.68,1.31a1.9,1.9,0,0,0,1.21-.16c.37-.21.53-.21,1.63.48a5.54,5.54,0,0,0,1.73.73,2.26,2.26,0,0,1,.84.26,3.69,3.69,0,0,0,1,.37c.79.16.63.42-.26.32a19.51,19.51,0,0,1-3.94-1,5.55,5.55,0,0,0-2.26-.42,4.58,4.58,0,0,1-1.63-.26,3.37,3.37,0,0,0-2.68,0A1.93,1.93,0,0,0,8,4.52a9.82,9.82,0,0,0,.74,3,2.4,2.4,0,0,1,.21.63,1.05,1.05,0,0,0,.21.47,1.18,1.18,0,0,1,.21.53c0,.58.84,1.79,2.1,3.05a10.47,10.47,0,0,0,5.14,2.46,2.22,2.22,0,0,1,.84.27c.21.15.16.21-.57.26a13.31,13.31,0,0,1-2,0C12.1,15,10.58,13.55,8.42,9a12.74,12.74,0,0,0-1-1.84C7,6.77,6.64,6.77,6,7.25l-.63.47L5.43,9A5.37,5.37,0,0,1,5,11.71a8.8,8.8,0,0,1-.74,1.68L4,13.71l-.32-.32-.31-.31L3,13.39a3.14,3.14,0,0,0-.42,1,2.24,2.24,0,0,1-.31,1,1.56,1.56,0,0,0-.26.89c.1.89-.06,1.21-.21,1Zm21.05-5.88A8.58,8.58,0,0,1,19.4,9.77c-.84-.74-.95-1-.53-1.47.27-.21.48-.27,1.68-.16a7.18,7.18,0,0,1,4.63,1.79c.63.57.68,1.15.21,1.52a5,5,0,0,1-2.53,0Zm7.2-2.16a9.9,9.9,0,0,1-3.89-1.73c-.57-.52-.63-1-.1-1.36s.79-.21,2.36.21a10,10,0,0,1,2.94,1.26c1.05.73,1.26,1.41.58,1.63a3.84,3.84,0,0,1-1.89,0Zm5.41-2a8,8,0,0,1-2.94-1.32c-.63-.52-.69-.89-.32-1.31s.47-.37,1.26-.37a9.17,9.17,0,0,1,4.68,1.63.76.76,0,0,1-.06,1.37,3.65,3.65,0,0,1-2.62,0ZM24.7.16c-.15-.11-.05-.16.37-.16s.63.05.68.16S25,.37,24.7.16Z"/></g></g></svg>