<svg xmlns="http://www.w3.org/2000/svg" viewBox="0 0 100 96.98"><defs><style>.cls-1{fill:#141515;}</style></defs><g id="Layer_2" data-name="Layer 2"><g id="Layer_1-2" data-name="Layer 1"><path class="cls-1" d="M96.28,15.05,57.53,1.12a25.93,25.93,0,0,0-15.06,0L3.72,15.05C1.41,15.85.06,17.14,0,18.56a1.13,1.13,0,0,0,.05.32S0,19,0,19L.19,73.53a5.65,5.65,0,0,0,3.27,5L49.67,96.91h0A1,1,0,0,0,50,97a1.13,1.13,0,0,0,.32-.06h0L96.62,78.56a5.75,5.75,0,0,0,3.26-5L100,19.05a2.58,2.58,0,0,0,0-.38C100,17.83,99.56,16.23,96.28,15.05ZM34.5,31.42l8,2.45a26,26,0,0,0,7.48,1,26,26,0,0,0,7.48-1L96.24,22a9.56,9.56,0,0,0,1.8-.73L98,73.52a3.87,3.87,0,0,1-2.06,3.26L51,94.58l2-49.46c.14-3.39,2.4-7,5.14-8.17l5.93-2.45a1,1,0,0,0-.73-1.78l-5.94,2.46c-3.43,1.48-6.15,5.72-6.32,9.87l-2,49.58-45-17.85a3.81,3.81,0,0,1-2.05-3.26L2,20.42,41.85,37c2.75,1.18,5,4.77,5.16,8.17l.87,21.19a1,1,0,0,0,1,.92,1,1,0,0,0,.92-1L48.93,45c-.17-4.14-2.89-8.38-6.33-9.86L2,18.37a4.25,4.25,0,0,1,2.35-1.51L43.12,2.92a24.23,24.23,0,0,1,13.76,0L95.64,16.86c2,.7,2.45,1.46,2.44,1.77s-.52,1-2.4,1.55L56.92,32a26,26,0,0,1-13.84,0l-8-2.46a1,1,0,0,0-.56,1.84ZM50,21.25c4.62,0,9.59-1.19,9.59-3.8s-5-3.84-9.59-3.84-9.55,1.2-9.55,3.84S45.38,21.25,50,21.25Zm0-5.72c5,0,7.67,1.36,7.67,1.92S54.87,19.33,50,19.33,42.39,18,42.35,17.45,45,15.53,50,15.53ZM12.77,33.87h0a3.76,3.76,0,0,0-3.82-.08A4.76,4.76,0,0,0,7,38.06c0,3.51,2.15,7.37,4.88,8.8a4.55,4.55,0,0,0,2.09.56A3.37,3.37,0,0,0,15.68,47a4.83,4.83,0,0,0,2-4.32C17.65,39.17,15.51,35.32,12.77,33.87ZM14.69,45.3a2,2,0,0,1-1.93-.14c-2.09-1.09-3.85-4.34-3.85-7.1a3,3,0,0,1,1-2.63,1.45,1.45,0,0,1,.74-.2,2.75,2.75,0,0,1,1.2.34c2.1,1.11,3.86,4.34,3.86,7.06A3.06,3.06,0,0,1,14.69,45.3ZM36,69.8h0a3.81,3.81,0,0,0-3.83-.09A4.78,4.78,0,0,0,30.17,74c0,3.5,2.15,7.37,4.88,8.79a4.43,4.43,0,0,0,2.09.56,3.26,3.26,0,0,0,1.7-.46,4.79,4.79,0,0,0,1.95-4.29C40.79,75.1,38.67,71.24,36,69.8Zm1.9,11.43a1.94,1.94,0,0,1-1.9-.15C33.86,80,32.09,76.74,32.09,74a3,3,0,0,1,1-2.64,1.43,1.43,0,0,1,.74-.19,2.7,2.7,0,0,1,1.21.34c2.07,1.09,3.82,4.34,3.82,7.09A3,3,0,0,1,37.85,81.23ZM24.36,51.84h0a3.83,3.83,0,0,0-3.83-.08,4.78,4.78,0,0,0-2,4.27c0,3.51,2.15,7.37,4.88,8.8a4.55,4.55,0,0,0,2.08.56,3.24,3.24,0,0,0,1.7-.46,4.84,4.84,0,0,0,2-4.33C29.2,57.12,27.08,53.27,24.36,51.84Zm1.89,11.43a1.92,1.92,0,0,1-1.89-.15C22.27,62,20.5,58.78,20.5,56a3,3,0,0,1,1-2.63,1.45,1.45,0,0,1,.74-.2,2.83,2.83,0,0,1,1.21.34c2.07,1.1,3.81,4.33,3.81,7.06A3.06,3.06,0,0,1,26.25,63.27ZM82.73,46.06a3.29,3.29,0,0,0,1.73.47A4.54,4.54,0,0,0,86.57,46c2.73-1.45,4.88-5.31,4.88-8.79a4.77,4.77,0,0,0-2-4.28,3.77,3.77,0,0,0-3.81.09c-2.74,1.43-4.88,5.29-4.88,8.79A4.8,4.8,0,0,0,82.73,46.06Zm3.83-11.37h0a2.58,2.58,0,0,1,1.19-.34,1.38,1.38,0,0,1,.73.19,3,3,0,0,1,1,2.64c0,2.74-1.77,6-3.86,7.09a2,2,0,0,1-1.94.15,3,3,0,0,1-1-2.64C82.71,39,84.47,35.78,86.56,34.69ZM62.49,68.91c-2.74,1.43-4.88,5.29-4.88,8.8A4.79,4.79,0,0,0,59.55,82a3.29,3.29,0,0,0,1.73.48,4.66,4.66,0,0,0,2.11-.56c2.73-1.45,4.88-5.31,4.88-8.8a4.76,4.76,0,0,0-2-4.27A3.77,3.77,0,0,0,62.49,68.91Zm2.82,1.56a3,3,0,0,1,1,2.63c0,2.74-1.77,6-3.86,7.1a2,2,0,0,1-1.94.14,3,3,0,0,1-1-2.63c0-2.76,1.76-6,3.85-7.09h0a2.7,2.7,0,0,1,1.18-.34A1.4,1.4,0,0,1,65.31,70.47Z"/></g></g></svg>