<svg xmlns="http://www.w3.org/2000/svg" viewBox="0 0 100 100"><g id="Layer_2" data-name="Layer 2"><g id="Layer_1-2" data-name="Layer 1"><path d="M100,37.48a1.53,1.53,0,0,1-3,0V34.55a1.53,1.53,0,0,1,3,0Zm-1.52,5.8A1.52,1.52,0,0,0,97,44.8v2.93a1.53,1.53,0,0,0,3,0V44.8A1.52,1.52,0,0,0,98.48,43.28Zm1.52-19a1.53,1.53,0,0,0-3,0v2.93a1.53,1.53,0,1,0,3,0Zm0-8.82V13.33A13.35,13.35,0,0,0,86.67,0H13.33A13.35,13.35,0,0,0,0,13.33V86.67A13.35,13.35,0,0,0,13.33,100H86.67A13.35,13.35,0,0,0,100,86.67V55.05a1.53,1.53,0,0,0-3,0V86.67A10.29,10.29,0,0,1,86.67,97H13.33A10.29,10.29,0,0,1,3.05,86.67V13.33A10.29,10.29,0,0,1,13.33,3.05H86.67A10.29,10.29,0,0,1,97,13.33V17a1.53,1.53,0,1,0,3,0Zm-76.51,0a8,8,0,1,0,8,8A8,8,0,0,0,23.49,15.46Zm0,26.51a8,8,0,1,0,8,8A8,8,0,0,0,23.49,42Zm0,26.51a8,8,0,1,0,8,8A8,8,0,0,0,23.49,68.48ZM50,15.46a8,8,0,1,0,8,8A8,8,0,0,0,50,15.46ZM50,42a8,8,0,1,0,8,8A8,8,0,0,0,50,42Zm0,26.51a8,8,0,1,0,8,8A8,8,0,0,0,50,68.48Zm26.51-53a8,8,0,1,0,8,8A8,8,0,0,0,76.51,15.46Zm0,26.51a8,8,0,1,0,8,8A8,8,0,0,0,76.51,42Zm0,26.51a8,8,0,1,0,8,8A8,8,0,0,0,76.51,68.48Z"/></g></g></svg>