<svg xmlns="http://www.w3.org/2000/svg" viewBox="0 0 94.95 100"><defs><style>.cls-1{fill:#020203;}</style></defs><g id="Layer_2" data-name="Layer 2"><g id="Layer_1-2" data-name="Layer 1"><path class="cls-1" d="M27.31,20.18,12.77,80.32a4.51,4.51,0,0,0,3.33,5.44L74.37,99.85A5.26,5.26,0,0,0,80.73,96l14.1-58.32a4.48,4.48,0,0,0-3.3-5.39L31.35,17.71A3.35,3.35,0,0,0,27.31,20.18ZM74.7,50.45a5.66,5.66,0,1,1,5.66-5.66A5.65,5.65,0,0,1,74.7,50.45ZM61,76.38A5.66,5.66,0,1,1,66.69,82,5.66,5.66,0,0,1,61,76.38ZM45.48,42.91a5.66,5.66,0,1,1,5.65-5.66A5.66,5.66,0,0,1,45.48,42.91ZM31.81,68.83a5.66,5.66,0,1,1,5.65,5.66A5.65,5.65,0,0,1,31.81,68.83Zm-16.55-66L.21,65.11a7.32,7.32,0,0,0,1,5.81l7,10.52A1.55,1.55,0,0,0,11,81L26.15,18.26a4.86,4.86,0,0,0-.63-3.73L17.74,2.41A1.37,1.37,0,0,0,15.26,2.83Zm-2.7,22.81c.82-3,2.59-5.16,4-4.79s1.82,3.12,1,6.14-2.59,5.15-4,4.78S11.74,28.65,12.56,25.64ZM5.46,56.86c.68-3,2.36-5.27,3.74-5s2,3,1.28,6.09-2.36,5.27-3.74,5S4.78,59.91,5.46,56.86ZM29.85,15.72l63.5,15.35a1.14,1.14,0,0,0,1.22-1.74l-6.63-10a11.27,11.27,0,0,0-6.75-4.73L20.82,0a1.33,1.33,0,0,0-1.43,2l7.36,11.46A5.1,5.1,0,0,0,29.85,15.72Zm25.41-1.18c.46-1.71,3.35-2.42,6.45-1.58s5.23,2.91,4.76,4.62S63.12,20,60,19.16,54.79,16.25,55.26,14.54Z"/></g></g></svg>