<svg xmlns="http://www.w3.org/2000/svg" viewBox="0 0 91.59 100"><defs><style>.cls-1{fill:#141515;}</style></defs><g id="Layer_2" data-name="Layer 2"><g id="Layer_1-2" data-name="Layer 1"><path class="cls-1" d="M23.58,20.88c-4.07,0-7.25,2-7.25,4.57S19.51,30,23.58,30s7.29-2,7.29-4.53S27.67,20.88,23.58,20.88Zm0,7.16c-3.13,0-5.32-1.36-5.32-2.59s2.19-2.63,5.32-2.63,5.36,1.39,5.36,2.63S26.74,28,23.58,28ZM68,20.88c-4.09,0-7.29,2-7.29,4.57S63.91,30,68,30s7.26-2,7.26-4.53S72.07,20.88,68,20.88ZM68,28c-3.15,0-5.35-1.36-5.35-2.59s2.29-2.63,5.35-2.63,5.32,1.39,5.32,2.63S71.05,28,68,28Zm20.6-.2a3,3,0,0,0,1.78-2.52,2.35,2.35,0,0,0-1.36-2L48.63.61a6.87,6.87,0,0,0-6.09.23L3,23.06a3,3,0,0,0-1.78,2.48,2.4,2.4,0,0,0,1.35,2.07L43,50.3a5.64,5.64,0,0,0,2.66.59,7.14,7.14,0,0,0,3.41-.83ZM43.91,48.61,3.51,25.92c-.26-.14-.37-.29-.37-.38s.21-.47.79-.79L43.48,2.53a5.4,5.4,0,0,1,2.5-.6,3.53,3.53,0,0,1,1.69.36h0L88.09,25c.22.11.36.25.36.35s-.21.49-.8.82L48.1,48.37A5.08,5.08,0,0,1,43.91,48.61Zm1.86-27.73c-4.06,0-7.25,2-7.25,4.57S41.71,30,45.77,30s7.3-2,7.3-4.53S49.86,20.88,45.77,20.88Zm0,7.16c-3,0-5.31-1.36-5.31-2.59s2.27-2.63,5.31-2.63,5.36,1.39,5.36,2.63S48.93,28,45.77,28ZM41.72,51.7,4.05,30.57a3,3,0,0,0-2.92-.2A2.44,2.44,0,0,0,0,32.57V73.38a6.34,6.34,0,0,0,3.14,5L40.81,99.49a3.46,3.46,0,0,0,1.73.51,2.25,2.25,0,0,0,1.17-.31,2.48,2.48,0,0,0,1.15-2.24V56.69A6.37,6.37,0,0,0,41.72,51.7Zm1.21,45.75h0c0,.29-.07.5-.19.57s-.51.06-1-.21L4.08,76.67a4.46,4.46,0,0,1-2.14-3.29V32.57c0-.26.06-.47.17-.53a.4.4,0,0,1,.2,0,1.68,1.68,0,0,1,.79.26L40.78,53.39a4.47,4.47,0,0,1,2.15,3.3ZM90.46,30.37a3,3,0,0,0-2.92.2L49.86,51.7a6.37,6.37,0,0,0-3.14,5V97.45a2.49,2.49,0,0,0,1.16,2.25,2.34,2.34,0,0,0,1.17.3,3.52,3.52,0,0,0,1.72-.5L88.45,78.36a6.34,6.34,0,0,0,3.14-5V32.57A2.44,2.44,0,0,0,90.46,30.37Zm-3,46.3L49.81,97.81c-.46.27-.82.3-1,.21s-.19-.28-.19-.57V56.69a4.44,4.44,0,0,1,2.15-3.3L88.48,32.26a1.71,1.71,0,0,1,.79-.26.48.48,0,0,1,.21,0c.11.06.17.27.17.53V73.38h0A4.44,4.44,0,0,1,87.5,76.67ZM62.31,77c-2.08-1.18-5.18.5-7.06,3.81s-1.79,6.83.28,8.06a3,3,0,0,0,1.47.37c1.89,0,4.12-1.58,5.6-4.18h0C64.46,81.78,64.34,78.25,62.31,77Zm-1.4,7.11c-1.37,2.41-3.47,3.61-4.41,3.08s-1-3,.42-5.42c1.17-2,2.84-3.22,3.9-3.22a1,1,0,0,1,.51.12C62.26,79.26,62.28,81.7,60.91,84.13ZM82.8,41.19a3.08,3.08,0,0,0-2.44-.28A8.26,8.26,0,0,0,75.75,45C73.85,48.28,74,51.82,76,53a2.89,2.89,0,0,0,1.46.38,4.11,4.11,0,0,0,1-.13,8.32,8.32,0,0,0,4.6-4h0a8.36,8.36,0,0,0,1.17-6A3.16,3.16,0,0,0,82.8,41.19Zm-1.42,7.08A6.57,6.57,0,0,1,78,51.42a1.3,1.3,0,0,1-.95-.05c-1-.57-1-3,.42-5.43a6.61,6.61,0,0,1,3.41-3.16,1.85,1.85,0,0,1,.44-.06,1,1,0,0,1,.54.14,1.3,1.3,0,0,1,.56.83A6.65,6.65,0,0,1,81.38,48.27ZM21.52,58.84a3.16,3.16,0,0,0-2.49.27c-2.08,1.22-2.19,4.68-.28,8,1.48,2.59,3.7,4.18,5.6,4.18A3.09,3.09,0,0,0,25.84,71c2.05-1.22,2.17-4.76.27-8A8.26,8.26,0,0,0,21.52,58.84Zm3.35,10.44c-1,.54-3.05-.66-4.43-3.08s-1.37-4.87-.43-5.42a1,1,0,0,1,.54-.14,1.67,1.67,0,0,1,.47.07,6.53,6.53,0,0,1,3.41,3.16C25.83,66.29,25.8,68.73,24.87,69.28Z"/></g></g></svg>