<svg xmlns="http://www.w3.org/2000/svg" viewBox="0 0 100 98.62"><defs><style>.cls-1{fill:#020203;}</style></defs><g id="Layer_2" data-name="Layer 2"><g id="Layer_1-2" data-name="Layer 1"><path class="cls-1" d="M18.46,20.83l.29,74.45a3.35,3.35,0,0,0,3.36,3.34l74.35-.29A3.54,3.54,0,0,0,100,94.77l-.28-74.84a2.86,2.86,0,0,0-2.88-2.84l-75.33.66A3.08,3.08,0,0,0,18.46,20.83Zm55.7,60.32a6.59,6.59,0,1,1,4.32,8.26A6.6,6.6,0,0,1,74.16,81.15ZM72.83,56a6.59,6.59,0,1,1,4.32,8.26A6.59,6.59,0,0,1,72.83,56ZM72,31a6.59,6.59,0,1,1,4.32,8.26A6.59,6.59,0,0,1,72,31ZM38.21,82a6.59,6.59,0,1,1,4.32,8.26A6.6,6.6,0,0,1,38.21,82ZM36.88,56.82a6.59,6.59,0,1,1,4.32,8.26A6.59,6.59,0,0,1,36.88,56.82Zm-.81-25a6.59,6.59,0,1,1,4.32,8.26A6.58,6.58,0,0,1,36.07,31.82Zm-16-16.3,77.37-.29A.85.85,0,0,0,98,13.75L84.91,1.7A6.4,6.4,0,0,0,80.53,0L4.26.29a1.09,1.09,0,0,0-.74,1.88L16.07,13.94A5.84,5.84,0,0,0,20.09,15.52ZM70.45,4.28c3.64-.09,6.62,1.19,6.66,2.84s-2.88,3.07-6.52,3.15S64,9.08,63.93,7.43,66.81,4.36,70.45,4.28Zm-37.13.66C37,4.86,39.94,6.13,40,7.78s-2.88,3.07-6.52,3.15S26.84,9.75,26.8,8.09,29.68,5,33.32,4.94ZM1.58,2.88A.94.94,0,0,0,0,3.56l.29,76.3a8.15,8.15,0,0,0,2.62,6L14.16,96.16A1.63,1.63,0,0,0,16.9,95l-.29-75.53a5.65,5.65,0,0,0-1.8-4.13Zm6.57,44c2.06,0,3.81,2.94,3.9,6.68s-1.52,6.81-3.59,6.86-3.81-2.95-3.9-6.69S6.08,46.94,8.15,46.9Z"/></g></g></svg>