<svg xmlns="http://www.w3.org/2000/svg" viewBox="0 0 100 98.13"><g id="Layer_2" data-name="Layer 2"><g id="Layer_1-2" data-name="Layer 1"><path d="M54.28,42.51a1.36,1.36,0,0,0-.83-1.63Q29.8,27.82,6.15,14.71c-1.18-.65-1.3-.57-1.42.78Q4.16,22,3.57,28.42q-.72,8-1.45,16.08Q1.4,52.33.69,60.15L0,67.87c-.09.75.39,1,.81,1.27l6.79,4.4,37.2,24.12c1,.66,1.15.59,1.33-.63q1.35-9,2.68-18Q51.54,60.76,54.28,42.51ZM13.74,68.26a3,3,0,0,1-3.47-.88,9.12,9.12,0,0,1-3-7.1c0-1.1.28-2.26,1.44-2.75a3,3,0,0,1,3.21.73A9.47,9.47,0,0,1,15.15,65C15.06,66.22,15.09,67.6,13.74,68.26Zm2.88-31c-1.4.59-2.58-.16-3.52-1.12a9.05,9.05,0,0,1-2.79-7.29c.18-2.4,2.1-3.38,4.09-2a8.62,8.62,0,0,1,3.72,6.76C18.09,35.3,18,36.66,16.62,37.25ZM27.27,73.49c-.16,2.45-2.06,3.44-4.11,2.1a8.67,8.67,0,0,1-3.46-5.37,5.78,5.78,0,0,1,0-3.54A2.16,2.16,0,0,1,23,65.28c2.68,1.35,3.79,3.77,4.25,6.58a7.93,7.93,0,0,1,.06,1h0C27.28,73.06,27.29,73.28,27.27,73.49Zm3.45-30.14a2.29,2.29,0,0,1-3.5,1.36c-2.37-1.32-3.47-3.53-4-6.08a6.51,6.51,0,0,1-.05-2.49c.34-2,2-2.93,3.76-1.85,2.76,1.69,3.75,4.4,4.07,7.44A5.5,5.5,0,0,1,30.72,43.35Zm9.2,38.57c-.25,2.24-2,3.11-3.93,2a9.23,9.23,0,0,1-3.79-8.43c.41-2.17,2.27-3,4.09-1.7A8.81,8.81,0,0,1,40,80.68C40,81.27,40,81.6,39.92,81.92ZM44,50.5c-.41,2.38-2.28,3.16-4.26,1.78-2.42-1.69-4.07-5.66-3.46-8.36.47-2.14,2.09-2.87,3.93-1.65,2.61,1.73,3.58,4.37,3.88,7.19C44,49.92,44,50.21,44,50.5ZM99.16,25.69l-.72.26L82.82,31.56,56.19,41.1c-.62.22-1.08.46-1.19,1.22-.93,6.37-1.89,12.74-2.84,19.11Q49.57,78.77,47,96.09c-.09.65-.61,1.5,0,1.93s1.2-.26,1.79-.51C62.2,91.8,75.58,86.06,89,80.4a3.15,3.15,0,0,0,2.18-2.72c2.11-12.6,4.31-25.19,6.48-37.77q1.16-6.78,2.32-13.56C100.1,25.63,99.77,25.49,99.16,25.69ZM63.74,78.55a10.2,10.2,0,0,1-3.62,7.74,2.64,2.64,0,0,1-3,.77c-1.16-.55-1.21-1.7-1.2-3.35a10.27,10.27,0,0,1,3.85-7.11A2.45,2.45,0,0,1,62.49,76,2.52,2.52,0,0,1,63.74,78.55Zm1.67-23.08c-.85.77-1.91,1.38-3.08.79s-1.17-1.74-1.15-3.39a10.39,10.39,0,0,1,3.8-7,2.49,2.49,0,0,1,2.8-.64,2.43,2.43,0,0,1,1.2,2.5A10.19,10.19,0,0,1,65.41,55.47Zm8.16,12.81a1.86,1.86,0,0,1-2.37-1.16A5.16,5.16,0,0,1,71,65.29a10.41,10.41,0,0,1,3.69-7.49A3.66,3.66,0,0,1,76.07,57a1.84,1.84,0,0,1,2.44,1.22c0,.07,0,.14.07.2C79.63,61.52,76.67,67.34,73.57,68.28Zm12.88,2.77a10.28,10.28,0,0,1-3.7,6.34c-.82.63-1.72,1.2-2.79.67s-1.15-1.67-1.29-2.66a11.06,11.06,0,0,1,3.82-7.75A3.94,3.94,0,0,1,83.62,67a1.89,1.89,0,0,1,2.78,1.35A5.44,5.44,0,0,1,86.45,71.05Zm5.48-31.21a10.47,10.47,0,0,1-3.54,7.34,4.22,4.22,0,0,1-1,.64c-1.68.84-3,.07-3.22-1.85a9.56,9.56,0,0,1,1.4-5.61,8.26,8.26,0,0,1,2.72-3.06c2-1.24,3.52-.42,3.65,1.89C91.94,39.4,91.93,39.62,91.93,39.84ZM6.88,14.28c4.93,2.75,9.87,5.47,14.81,8.21Q37.78,31.4,53.88,40.32a2.24,2.24,0,0,0,2.06.14c5-1.81,9.93-3.57,14.9-5.36q13.68-4.89,27.34-9.81c.35-.12.91-.13.9-.64s-.49-.48-.81-.64Q75.07,12.16,51.86.34A1.93,1.93,0,0,0,50.74,0c-.12,0-.33.07-.54.14L7,13.06c-.33.1-.84.08-.91.48S6.56,14.11,6.88,14.28Zm65,6.37c.13-.8.79-1.08,1.45-1.32a7.66,7.66,0,0,1,2.89-.42,11.83,11.83,0,0,1,6.68,2c.6.43,1.2.94,1.08,1.76a1.86,1.86,0,0,1-1.59,1.46,11.6,11.6,0,0,1-9.56-1.63A1.78,1.78,0,0,1,71.91,20.65ZM60.14,30.51c-.14.87-.91,1.16-1.65,1.42a8.22,8.22,0,0,1-2.7.3,11.65,11.65,0,0,1-5.88-1.38A6.14,6.14,0,0,1,48.65,30c-1.11-1-.93-2.12.47-2.73A9,9,0,0,1,54,26.82,11,11,0,0,1,59,28.65C59.67,29.1,60.28,29.66,60.14,30.51Zm-14-24.43a7.27,7.27,0,0,1,3.19-.52,11.51,11.51,0,0,1,6.6,1.88c.66.46,1.34,1,1.18,1.93s-.93,1.2-1.67,1.38A11.38,11.38,0,0,1,45.82,9C44.53,8.05,44.74,6.77,46.15,6.08Zm-26,7.55c.15-.83.87-1.09,1.57-1.33a7.34,7.34,0,0,1,2.68-.37,12,12,0,0,1,6.7,1.92c.62.45,1.28,1,1.14,1.84a2,2,0,0,1-1.72,1.47,11.63,11.63,0,0,1-9.37-1.62A1.81,1.81,0,0,1,20.14,13.63Z"/></g></g></svg>