<svg xmlns="http://www.w3.org/2000/svg" viewBox="0 0 86.82 100"><g id="Layer_2" data-name="Layer 2"><g id="Layer_1-2" data-name="Layer 1"><path d="M74.21,45.86a3.27,3.27,0,0,0,1.66.44,5.13,5.13,0,0,0,2.56-.78,11.46,11.46,0,0,0,5.26-9.11,3.73,3.73,0,0,0-6-3.49A11.52,11.52,0,0,0,72.39,42,4.14,4.14,0,0,0,74.21,45.86Zm4.22-11.58a3.62,3.62,0,0,1,1.79-.56,1.74,1.74,0,0,1,.88.22,2.7,2.7,0,0,1,1,2.47,10.05,10.05,0,0,1-4.48,7.76A2.22,2.22,0,0,1,74,42,10.08,10.08,0,0,1,78.43,34.28Zm-30.87,27a3.26,3.26,0,0,0,1.66.43,5.11,5.11,0,0,0,2.56-.77A11.46,11.46,0,0,0,57,51.8a3.73,3.73,0,0,0-6-3.49,11.47,11.47,0,0,0-5.26,9.11A4.15,4.15,0,0,0,47.56,61.25Zm4.23-11.59a3.66,3.66,0,0,1,1.78-.56,1.72,1.72,0,0,1,.88.22,2.71,2.71,0,0,1,1,2.48A10.1,10.1,0,0,1,51,59.56a2.69,2.69,0,0,1-2.67.34,2.69,2.69,0,0,1-1-2.48A10.1,10.1,0,0,1,51.79,49.66ZM47.56,92a3.37,3.37,0,0,0,1.66.43,5.2,5.2,0,0,0,2.57-.78,11.48,11.48,0,0,0,5.26-9.11,3.73,3.73,0,0,0-6-3.48,11.46,11.46,0,0,0-5.26,9.11A4.14,4.14,0,0,0,47.56,92Zm4.23-11.59a3.58,3.58,0,0,1,1.78-.57,1.82,1.82,0,0,1,.88.22,2.71,2.71,0,0,1,1,2.48A10.08,10.08,0,0,1,51,90.33a2.69,2.69,0,0,1-2.67.34,2.68,2.68,0,0,1-1-2.47A10.06,10.06,0,0,1,51.79,80.44Zm22.42-3.8a3.26,3.26,0,0,0,1.66.43,5.22,5.22,0,0,0,2.56-.77,11.49,11.49,0,0,0,5.26-9.11,3.73,3.73,0,0,0-6-3.49,11.48,11.48,0,0,0-5.26,9.11A4.17,4.17,0,0,0,74.21,76.64Zm4.22-11.59a3.73,3.73,0,0,1,1.79-.56,1.74,1.74,0,0,1,.88.22,2.7,2.7,0,0,1,1,2.47,10.05,10.05,0,0,1-4.48,7.76A2.22,2.22,0,0,1,74,72.81,10.1,10.1,0,0,1,78.43,65.05Zm8.38-39.66a.79.79,0,0,0-.39-.68L43.79.1A.83.83,0,0,0,43,.1L.39,24.71a.79.79,0,0,0-.39.68H0V74.61a.79.79,0,0,0,.39.68L43,99.9a.87.87,0,0,0,.39.1.9.9,0,0,0,.39-.1L86.43,75.29a.79.79,0,0,0,.39-.68V25.39ZM43.41,1.68,84.47,25.39,51.66,44.33,43.41,49.1,2.34,25.39ZM1.56,26.74,42.63,50.45V97.87L1.56,74.16ZM85.25,74.16,44.19,97.87V50.45L85.25,26.74ZM38.15,28.87a10.59,10.59,0,0,0,5.26,1.28,10.75,10.75,0,0,0,5.26-1.27h0a4.14,4.14,0,0,0,2.4-3.48,4.16,4.16,0,0,0-2.4-3.49,11.49,11.49,0,0,0-10.52,0,4.14,4.14,0,0,0-2.41,3.49A4.13,4.13,0,0,0,38.15,28.87Zm.78-5.62a10.08,10.08,0,0,1,9,0,2.72,2.72,0,0,1,1.63,2.14,2.69,2.69,0,0,1-1.63,2.13,10,10,0,0,1-9,0,2.69,2.69,0,0,1-1.63-2.13A2.72,2.72,0,0,1,38.93,23.25ZM64.8,28.88a11.53,11.53,0,0,0,10.52,0,4.2,4.2,0,0,0,2.41-3.49,4.18,4.18,0,0,0-2.41-3.49,11.49,11.49,0,0,0-10.52,0,4.14,4.14,0,0,0-2.41,3.49A4.18,4.18,0,0,0,64.8,28.88Zm.78-5.63a10.08,10.08,0,0,1,9,0,2.72,2.72,0,0,1,1.63,2.14,2.69,2.69,0,0,1-1.63,2.13h0a10,10,0,0,1-9,0A2.69,2.69,0,0,1,64,25.39,2.72,2.72,0,0,1,65.58,23.25ZM38.15,13.49a10.7,10.7,0,0,0,5.26,1.28,10.75,10.75,0,0,0,5.26-1.28A4.15,4.15,0,0,0,51.07,10a4.16,4.16,0,0,0-2.4-3.49,11.52,11.52,0,0,0-10.52,0h0A4.13,4.13,0,0,0,35.74,10,4.14,4.14,0,0,0,38.15,13.49Zm.78-5.62a10.08,10.08,0,0,1,9,0A2.7,2.7,0,0,1,49.51,10a2.72,2.72,0,0,1-1.62,2.14,10.08,10.08,0,0,1-9,0A2.72,2.72,0,0,1,37.3,10,2.69,2.69,0,0,1,38.93,7.87ZM22,21.9a11.49,11.49,0,0,0-10.52,0,4.16,4.16,0,0,0-2.41,3.49,4.16,4.16,0,0,0,2.41,3.49,10.69,10.69,0,0,0,5.26,1.27A10.75,10.75,0,0,0,22,28.88a4.16,4.16,0,0,0,2.4-3.49A4.16,4.16,0,0,0,22,21.9Zm-.78,5.62a10,10,0,0,1-9,0,2.69,2.69,0,0,1-1.63-2.13,2.72,2.72,0,0,1,1.63-2.14,10.08,10.08,0,0,1,9,0,2.7,2.7,0,0,1,1.62,2.14A2.68,2.68,0,0,1,21.24,27.52ZM48.67,44.26a4.14,4.14,0,0,0,2.4-3.48,4.14,4.14,0,0,0-2.4-3.49,11.49,11.49,0,0,0-10.52,0,4.13,4.13,0,0,0-2.41,3.49,4.13,4.13,0,0,0,2.41,3.48,11.45,11.45,0,0,0,10.52,0Zm-9.74-1.35a2.69,2.69,0,0,1-1.63-2.13,2.72,2.72,0,0,1,1.63-2.14,10.08,10.08,0,0,1,9,0,2.7,2.7,0,0,1,1.62,2.14,2.68,2.68,0,0,1-1.62,2.13A10,10,0,0,1,38.93,42.91ZM22.48,71.39h0a4.13,4.13,0,0,0-4.22-.34,4.17,4.17,0,0,0-1.82,3.83A11.46,11.46,0,0,0,21.7,84a5.25,5.25,0,0,0,2.57.77,3.26,3.26,0,0,0,1.66-.43,4.15,4.15,0,0,0,1.81-3.83A11.47,11.47,0,0,0,22.48,71.39ZM25.15,83a2.71,2.71,0,0,1-2.67-.34A10.1,10.1,0,0,1,18,74.88a2.71,2.71,0,0,1,1-2.48,1.85,1.85,0,0,1,.88-.22,3.58,3.58,0,0,1,1.78.57,10.05,10.05,0,0,1,4.48,7.76A2.68,2.68,0,0,1,25.15,83ZM22.48,40.62h0a4.13,4.13,0,0,0-4.22-.34,4.15,4.15,0,0,0-1.82,3.83,11.46,11.46,0,0,0,5.26,9.11,5.25,5.25,0,0,0,2.57.77,3.23,3.23,0,0,0,1.65-.43,4.16,4.16,0,0,0,1.82-3.83A11.47,11.47,0,0,0,22.48,40.62Zm2.67,11.59a2.74,2.74,0,0,1-2.67-.34A10.07,10.07,0,0,1,18,44.11a2.69,2.69,0,0,1,1-2.48,1.72,1.72,0,0,1,.88-.22,3.73,3.73,0,0,1,1.79.56,10.1,10.1,0,0,1,4.48,7.76A2.73,2.73,0,0,1,25.15,52.21Zm-16-19.28h0a4.15,4.15,0,0,0-4.23-.34,4.14,4.14,0,0,0-1.81,3.83,11.49,11.49,0,0,0,5.26,9.11,5.22,5.22,0,0,0,2.56.77,3.26,3.26,0,0,0,1.66-.43A4.17,4.17,0,0,0,14.42,42,11.46,11.46,0,0,0,9.16,32.93Zm2.66,11.58a2.67,2.67,0,0,1-2.66-.34,10.05,10.05,0,0,1-4.48-7.75,2.69,2.69,0,0,1,1-2.48,1.72,1.72,0,0,1,.88-.22,3.69,3.69,0,0,1,1.78.56A10.07,10.07,0,0,1,12.86,42,2.68,2.68,0,0,1,11.82,44.51ZM9.16,63.7a4.15,4.15,0,0,0-4.23-.34,4.14,4.14,0,0,0-1.81,3.83A11.49,11.49,0,0,0,8.38,76.3a5.22,5.22,0,0,0,2.56.77,3.26,3.26,0,0,0,1.66-.43,4.17,4.17,0,0,0,1.82-3.83A11.46,11.46,0,0,0,9.16,63.7Zm2.66,11.59A2.72,2.72,0,0,1,9.16,75a10.08,10.08,0,0,1-4.48-7.76,2.71,2.71,0,0,1,1-2.48,2.7,2.7,0,0,1,2.66.34,10.07,10.07,0,0,1,4.48,7.76A2.71,2.71,0,0,1,11.82,75.29Zm24,3.8a4.14,4.14,0,0,0-4.22-.35,4.15,4.15,0,0,0-1.82,3.83A11.46,11.46,0,0,0,35,91.68a5.13,5.13,0,0,0,2.56.78A3.37,3.37,0,0,0,39.25,92a4.17,4.17,0,0,0,1.82-3.83A11.46,11.46,0,0,0,35.81,79.09Zm2.66,11.58a2.67,2.67,0,0,1-2.66-.34,10.05,10.05,0,0,1-4.48-7.76,2.68,2.68,0,0,1,1-2.47,1.69,1.69,0,0,1,.88-.22,3.72,3.72,0,0,1,1.78.56,10.1,10.1,0,0,1,4.48,7.76A2.68,2.68,0,0,1,38.47,90.67ZM35.81,48.31A4.18,4.18,0,0,0,31.59,48a4.15,4.15,0,0,0-1.82,3.83A11.46,11.46,0,0,0,35,60.91a5.11,5.11,0,0,0,2.56.77,3.26,3.26,0,0,0,1.66-.43,4.15,4.15,0,0,0,1.82-3.83A11.47,11.47,0,0,0,35.81,48.31ZM38.47,59.9a2.7,2.7,0,0,1-2.66-.34,10.07,10.07,0,0,1-4.48-7.76,2.71,2.71,0,0,1,1-2.48,1.79,1.79,0,0,1,.88-.22,3.72,3.72,0,0,1,1.78.56h0a10.05,10.05,0,0,1,4.48,7.75A2.69,2.69,0,0,1,38.47,59.9Z"/></g></g></svg>