<svg xmlns="http://www.w3.org/2000/svg" viewBox="0 0 100 94.88"><g id="Layer_2" data-name="Layer 2"><g id="Layer_1-2" data-name="Layer 1"><path d="M75.42,40.17a8.64,8.64,0,0,0-4.83-4.59L28.12,19.28a8.68,8.68,0,0,0-11.24,5L.58,66.76A8.71,8.71,0,0,0,5.58,78L48.05,94.3a8.69,8.69,0,0,0,11.24-5L75.6,46.83A8.64,8.64,0,0,0,75.42,40.17ZM73,45.84,56.73,88.31A6,6,0,0,1,49,91.73L6.57,75.43a6,6,0,0,1-3.42-7.69l16.3-42.47a5.94,5.94,0,0,1,7.69-3.42l42.47,16.3A6,6,0,0,1,73,45.84ZM33.61,35.55a5,5,0,1,1-5-5A5,5,0,0,1,33.61,35.55ZM21.83,66.25a5,5,0,1,1-5-5A5,5,0,0,1,21.83,66.25Zm21.24-9.46a5,5,0,1,1-5-5A5,5,0,0,1,43.07,56.79Zm21.24-9.46a5,5,0,1,1-5-5A5,5,0,0,1,64.31,47.33ZM52.53,78a5,5,0,1,1-5-5A5,5,0,0,1,52.53,78ZM98,58a8.47,8.47,0,0,1-5.76,3L76.51,62.44h-.12a1.37,1.37,0,0,1-.13-2.74L92,58.27A5.72,5.72,0,0,0,97.22,52l-4-44A5.75,5.75,0,0,0,87,2.77l-44,4A5.74,5.74,0,0,0,37.74,13l.31,3.46a1.38,1.38,0,1,1-2.74.25L35,13.26A8.49,8.49,0,0,1,42.69,4L86.74,0A8.5,8.5,0,0,1,96,7.73l4,44.05A8.44,8.44,0,0,1,98,58ZM66,21.44a4.85,4.85,0,1,1,4.84-4.84A4.85,4.85,0,0,1,66,21.44ZM83.4,35.92a4.85,4.85,0,1,1,4.85-4.85A4.85,4.85,0,0,1,83.4,35.92Z"/></g></g></svg>