<svg xmlns="http://www.w3.org/2000/svg" viewBox="0 0 84.71 100"><g id="Layer_2" data-name="Layer 2"><g id="Layer_1-2" data-name="Layer 1"><path d="M83.59,27.79c-.83-.4-1.66-.81-2.5-1.19l-9.65-4.39L62,18l-9.7-4.41a4,4,0,0,0-3.08-.14l-2.77.91c-.21.08-.3,0-.35-.19-.16-.72-.34-1.43-.51-2.14-.66-2.74-1.33-5.48-2-8.22C43.42,2.86,43.2,2,43,1.07a.5.5,0,0,0-.41-.44.48.48,0,0,0-.51.29L42,1c-1.43,2.23-2.85,4.46-4.3,6.68a3.1,3.1,0,0,0-.43,2.58c.68,2.71,1.32,5.42,2,8.14a.45.45,0,0,1,0,.3c-.14.32-.28.63-.43,1l-.07,0a2.76,2.76,0,0,1-.08-.27l-2-8.32a1.85,1.85,0,0,0-2.31-1.41l-12.23,3L7.08,16.27,1.18,17.7A1.4,1.4,0,0,0,0,19a1.93,1.93,0,0,0,.11.75q1.13,4.69,2.27,9.4Q5.21,40.75,8,52.43a4.32,4.32,0,0,0,.84,1.67c.12.16.26.31.37.46A7.45,7.45,0,0,1,10.65,60a6.47,6.47,0,0,0,0,1.46,2.92,2.92,0,0,0,.32,1,1.74,1.74,0,0,0,3.05,0,3,3,0,0,0,.37-2.31,9.61,9.61,0,0,0-.9-2.34,7.35,7.35,0,0,1-.8-2.32A2.29,2.29,0,0,1,13,53.73a1.15,1.15,0,0,1,1.21-.49,1.05,1.05,0,0,1,.82.88,5.86,5.86,0,0,1,.1.58c.07.44,0,.89.16,1.32a1.19,1.19,0,0,0,1,1,1.29,1.29,0,0,0,1.32-.73,2.11,2.11,0,0,0,.18-1.48,5.83,5.83,0,0,0-.58-1.5.7.7,0,0,1,.11-.79.62.62,0,0,1,.72-.18,1.62,1.62,0,0,1,1,.9c.12.28.18.58.27.86a2,2,0,0,0,.46.87.82.82,0,0,0,1.37-.28,1.74,1.74,0,0,0,0-1.19c-.08-.3-.17-.6-.23-.9a1.2,1.2,0,0,1,.19-1c.32-.46,1-.64,1.29.1a1.15,1.15,0,0,0,.75.72,1.39,1.39,0,0,0,1.73-.73c0-.11.09-.24.24-.23s.2.14.25.24c.17.29,0,.53-.13.76s-.55.72-.8,1.1A1.82,1.82,0,0,0,24.13,55a1.36,1.36,0,0,0,1.09,1.09,1.22,1.22,0,0,0,1.32-.76,6.23,6.23,0,0,0,.28-.83,1.35,1.35,0,0,1,1.59-.94,1.38,1.38,0,0,1,1,1.6,4.06,4.06,0,0,1-.63,1.44c-.3.45-.61.89-.88,1.36a3.09,3.09,0,0,0-.44,2.22,1.8,1.8,0,0,0,2.2,1.44,2.27,2.27,0,0,0,1.38-1.18,5.28,5.28,0,0,0,.52-1.95,3.6,3.6,0,0,1,.55-1.71,1.16,1.16,0,0,1,1.79-.17,1.58,1.58,0,0,1,.44.72,2.52,2.52,0,0,1-.08,1.58A6.13,6.13,0,0,1,33.2,60.6,13,13,0,0,0,32,62.09a3.72,3.72,0,0,0-.66,2.38A2.05,2.05,0,0,0,34.63,66a2.92,2.92,0,0,0,1.08-1.39,7.74,7.74,0,0,0,.38-2.24,6.18,6.18,0,0,1,.55-2.47,2.26,2.26,0,0,1,1.27-1.14,1.41,1.41,0,0,1,1.45.31,1.1,1.1,0,0,1,0,1.39l-.43.77a2.67,2.67,0,0,0-.36,1.06,1.48,1.48,0,0,0,.73,1.45,1.29,1.29,0,0,0,1.52-.32A2.4,2.4,0,0,0,41.52,62a8,8,0,0,1,.18-1.29A1.06,1.06,0,0,1,43.2,60a1.47,1.47,0,0,1,.66.57,2.48,2.48,0,0,1,.27,1.9,8.29,8.29,0,0,1-.83,2.1,9.46,9.46,0,0,0-.89,2.16,3.53,3.53,0,0,0,.25,2.61,2.27,2.27,0,0,0,3.59.56,3.45,3.45,0,0,0,1-1.84,12.19,12.19,0,0,0,.23-2.33,6.35,6.35,0,0,1,.24-1.62,2.17,2.17,0,0,1,1.18-1.44,1.11,1.11,0,0,1,1.2.13,1,1,0,0,1,.29,1.08A6.05,6.05,0,0,1,50,65.06a3.62,3.62,0,0,0-.44,1.73,1.61,1.61,0,0,0,2.16,1.51,2.1,2.1,0,0,0,1.38-1.62,3.73,3.73,0,0,0,0-1.63c0-.11,0-.23.08-.3s.21,0,.3.09a2.14,2.14,0,0,1,.77,1.94,5.6,5.6,0,0,1-.63,2c-.38.74-.83,1.44-1.14,2.21A4.39,4.39,0,0,0,52,73.44a2,2,0,0,0,3.15,1.31,2.67,2.67,0,0,0,1.06-1.59,6.08,6.08,0,0,0,0-2.44A6.66,6.66,0,0,1,56.12,68a2,2,0,0,1,1.54-1.64,1.1,1.1,0,0,1,1.14.39,1,1,0,0,1,.06,1.15,5,5,0,0,1-.56.88,3.63,3.63,0,0,0-.65,1.34A1.48,1.48,0,0,0,58.83,72a1.53,1.53,0,0,0,1.49-.69,3,3,0,0,0,.41-2.17,8.47,8.47,0,0,1-.15-1.74,1.26,1.26,0,0,1,.32-.83.66.66,0,0,1,.78-.21c.29.16.25.44.21.7a4.49,4.49,0,0,0-.14,1,1.2,1.2,0,0,0,2,.83,1.83,1.83,0,0,0,.56-1.29,7.14,7.14,0,0,0-.2-1.59A1.55,1.55,0,0,1,64.24,65a.41.41,0,0,1,.37-.22.35.35,0,0,1,.33.27,4.28,4.28,0,0,1,.15.51,3.93,3.93,0,0,0,.23.76,1.13,1.13,0,0,0,.74.64A1.26,1.26,0,0,0,67.6,65.8a2.27,2.27,0,0,0-.21-1.21c-.1-.2,0-.28.17-.31a1.34,1.34,0,0,1,.56.06,1.07,1.07,0,0,0,1.36-.88c0-.2.07-.39.1-.59a.62.62,0,0,1,.13-.34,3.77,3.77,0,0,0,.45-.84l2.58-5.63q2.19-4.79,4.37-9.57l4.74-10.36q1.34-2.91,2.66-5.84A1.79,1.79,0,0,0,83.59,27.79Zm-72.44-.54a3,3,0,1,1,0-6,3,3,0,0,1,0,6Zm4.28,17a3,3,0,1,1,3-3A3,3,0,0,1,15.43,44.22ZM49.1,14.3a4.3,4.3,0,0,1,3.37.18l12.34,5.65L77.46,25.9l5.27,2.41.23.11c.13.06.23.13.22.29s-.12.2-.24.24l-.59.21L76,31.26a3.53,3.53,0,0,1-2.67-.14L59.41,24.77l-10.95-5L42.36,17l-.56-.27,2.55-.84C45.93,15.34,47.52,14.84,49.1,14.3ZM41.92,12a.73.73,0,0,1,1.23-.32,3.55,3.55,0,0,1,1.06,1.47,6.55,6.55,0,0,1,.44,1.51c0,.2,0,.32-.22.38l-1.9.62c-.19.07-.27,0-.35-.17a6.84,6.84,0,0,1-.48-2.3A3.34,3.34,0,0,1,41.92,12ZM31.79,34.24c.31.07.35.12.24.36l-2.22,4.85c-.15.33-.17.33-.46.11a3,3,0,0,1-1.18-2.39A3,3,0,0,1,31.79,34.24Zm-7.92-14a3,3,0,1,1,6,0,3,3,0,0,1-6,0ZM59.81,70.38c-.12.47-.41.75-.75.77a.49.49,0,0,1-.56-.5,1.79,1.79,0,0,1,.32-1.09c.27-.42.6-.8.85-1.26A4.72,4.72,0,0,1,59.81,70.38ZM83.7,30.09,76.12,46.71l-5.36,11.7c-.49,1.09-1,2.18-1.49,3.26a3.5,3.5,0,0,1-.25.47,3,3,0,0,0-.38,1c0,.34-.13.38-.45.31a1.69,1.69,0,0,0-1.48.25c-.44.33-.49.53-.25,1a1.85,1.85,0,0,1,.27.91c0,.22-.06.44-.31.48s-.32-.18-.38-.37-.14-.61-.25-.9a1.25,1.25,0,0,0-1.18-.93,1.35,1.35,0,0,0-1.26.92,3,3,0,0,0-.05,1.7,4.76,4.76,0,0,1,.15,1.07,1.19,1.19,0,0,1-.19.61c-.1.15-.23.26-.43.18a.32.32,0,0,1-.2-.39c0-.28.1-.56.14-.84a1.34,1.34,0,0,0-1.18-1.69,1.57,1.57,0,0,0-1.5.74c-.1.15-.18.31-.28.49a2.18,2.18,0,0,0-3.38-.76,3.35,3.35,0,0,0-1,1.42,5.74,5.74,0,0,0-.18,2.82c.08.61.21,1.21.24,1.82a2.2,2.2,0,0,1-.81,2.06,1,1,0,0,1-1.54-.29,1.8,1.8,0,0,1-.18-1.4,7.89,7.89,0,0,1,1-2.36,8.38,8.38,0,0,0,1.16-3,3,3,0,0,0-1.21-2.93A1,1,0,0,0,52.64,64a1.07,1.07,0,0,0-.48,1.12A2.63,2.63,0,0,1,52,66.88a1.21,1.21,0,0,1-.24.35.9.9,0,0,1-1,.21.79.79,0,0,1-.4-.83,2.9,2.9,0,0,1,.33-1.13,7.37,7.37,0,0,0,.54-1.34,1.9,1.9,0,0,0-.65-2.08,2.11,2.11,0,0,0-2.27-.1,3.29,3.29,0,0,0-1.54,2.27,10.5,10.5,0,0,0-.22,2A7.75,7.75,0,0,1,46.39,68a2.51,2.51,0,0,1-.7,1.17,1.39,1.39,0,0,1-2.36-.53A2.74,2.74,0,0,1,43.26,67a7.35,7.35,0,0,1,.61-1.55,13.49,13.49,0,0,0,1-2.27,3.54,3.54,0,0,0-.21-3A2.29,2.29,0,0,0,42.5,59a2,2,0,0,0-1.68,1.51,10.6,10.6,0,0,0-.17,1.26,1.53,1.53,0,0,1-.47,1.06.41.41,0,0,1-.44.12.43.43,0,0,1-.25-.38,1.23,1.23,0,0,1,.16-.77c.22-.4.46-.8.65-1.21a1.82,1.82,0,0,0,0-1.67,2.14,2.14,0,0,0-2.53-1,3.25,3.25,0,0,0-2.16,2.18,9.67,9.67,0,0,0-.44,2.72,5.39,5.39,0,0,1-.3,1.55,2,2,0,0,1-.65.88,1.15,1.15,0,0,1-1.21.23,1.24,1.24,0,0,1-.76-1.11,3,3,0,0,1,.65-2c.36-.52.79-1,1.18-1.47a5.06,5.06,0,0,0,1.25-2.77,2.61,2.61,0,0,0-.92-2.3,2.08,2.08,0,0,0-3.27.81,7.39,7.39,0,0,0-.51,2.07,2.9,2.9,0,0,1-.51,1.51,1,1,0,0,1-1.19.47,1.16,1.16,0,0,1-.63-1.22A3.74,3.74,0,0,1,29,57.9,10.38,10.38,0,0,0,30.08,56a2.48,2.48,0,0,0,0-2.19,2.2,2.2,0,0,0-4,.23c-.11.27-.18.56-.28.83s-.19.35-.43.29a.41.41,0,0,1-.33-.43,1.16,1.16,0,0,1,.27-.76L26,53a1.61,1.61,0,0,0,.32-1.43,1.33,1.33,0,0,1,0-.4,2.66,2.66,0,0,0-.1-1,1.5,1.5,0,0,1,.08-1.08L33.66,33,39.87,19.4l.41-.9a1.38,1.38,0,0,1,1.91-.71L53.48,23l13.4,6.12,5.84,2.66a1.4,1.4,0,0,1,.69,2L67.62,46.44,61.41,60c-.53,1.18-1.07,2.35-1.61,3.53-.18.39-.17.38.26.4a.63.63,0,0,0,.67-.45c1.23-2.72,2.48-5.44,3.72-8.16L70,43.17c1.36-3,2.76-5.93,4.06-8.93a4,4,0,0,1,2.74-2.41c2.16-.65,4.28-1.4,6.42-2.1l.14,0c.13,0,.28-.1.39,0S83.75,30,83.7,30.09ZM64,91a13.32,13.32,0,0,0-3.15-.89,14.9,14.9,0,0,0-4.47-.21,17.4,17.4,0,0,1-2.16.24,25.4,25.4,0,0,1-3.8-.31c-3.15-.47-6.28-1.06-9.44-1.41A71.61,71.61,0,0,0,33,88a47.62,47.62,0,0,0-7.19.52,39.24,39.24,0,0,0-7.41,1.79c-1.72.61-3.37,1.41-5.1,2a2.91,2.91,0,0,0-1,.61,1.64,1.64,0,0,0,0,2.6,3,3,0,0,0,.95.55,20.57,20.57,0,0,0,5,1c1.19.08,2.39.08,3.58.12a12.42,12.42,0,0,1,2.77.39c.86.23,1.68.62,2.54.86A32.32,32.32,0,0,0,38,100a21.22,21.22,0,0,0,4.26-.66c.78-.21,1.55-.46,2.36-.6A45.11,45.11,0,0,1,53,98.51a21.62,21.62,0,0,0,4.75-.32,13.8,13.8,0,0,0,5.67-2.64,5.61,5.61,0,0,0,1.62-1.74A1.79,1.79,0,0,0,65,91.67,2.58,2.58,0,0,0,64,91ZM17.45,95a2.07,2.07,0,0,1-1-.56.88.88,0,0,1,0-1.23,1.72,1.72,0,0,1,.77-.5c2-.63,3.88-1.41,5.9-1.87a39.28,39.28,0,0,1,6.09-.92c1.56-.12,3.12-.17,4.69-.16.6,0,1.2,0,1.8,0v.09c-1,0-1.95,0-2.93,0a39.41,39.41,0,0,0-11.4,1.85c-.89.3-1.78.6-2.69.87a2.28,2.28,0,0,0-1,.6.86.86,0,0,0,0,1.3,2.36,2.36,0,0,0,1.2.6,20.23,20.23,0,0,0,3.7.59A17.83,17.83,0,0,1,17.45,95Zm5-1.92c0,.32.32.43.57.53a15.59,15.59,0,0,0,2.36.56c.43.09.87.15,1.3.27l-1-.12c-.73-.11-1.46-.22-2.18-.35a2.85,2.85,0,0,1-1.13-.41c-.35-.24-.36-.53,0-.79a2.51,2.51,0,0,1,.59-.3s0,0,0,.06C22.69,92.62,22.42,92.73,22.44,93Zm8.73,4.09a28.65,28.65,0,0,1-4.28-1,10.08,10.08,0,0,0-2.79-.42h-.78a17,17,0,0,1,5.75.67,26.81,26.81,0,0,0,5,.94,24.7,24.7,0,0,0,3.44.17A23.79,23.79,0,0,1,31.17,97.13Zm17.38-.37-1.94-.11-1.91-.14c2-.05,4.09,0,6.13.06A7,7,0,0,1,48.55,96.76Zm-4.36-5.51c2.83.09,5.63.46,8.44.75A72.09,72.09,0,0,1,44.19,91.25ZM62,93.69a2.93,2.93,0,0,1-.88.64,11.52,11.52,0,0,1-3.88,1.24h-.11a12.27,12.27,0,0,0,2.88-1,3.91,3.91,0,0,0,1.2-.77c.48-.52.38-1-.27-1.29-.41-.17-.85-.23-1.27-.36a7.61,7.61,0,0,1,2.11.48A.6.6,0,0,1,62,93.69ZM.86,17l.2,0,6.81-1.64L27,10.67l8.17-2A2.89,2.89,0,0,0,37,7.4l1.6-2.5c.87-1.34,1.72-2.68,2.59-4a.53.53,0,0,0,0-.7C41,0,40.79,0,40.54,0L27.46,3.21,7.6,8a5.63,5.63,0,0,0-3.44,2.32c-1,1.46-2,2.95-2.94,4.42L.34,16.07a.53.53,0,0,0,0,.61A.58.58,0,0,0,.86,17ZM15.79,8.71a2.65,2.65,0,0,1,.85-.85A5.18,5.18,0,0,1,19.5,7a2.79,2.79,0,0,1,1.42.29,1,1,0,0,1,.45,1.63A3.08,3.08,0,0,1,20,10.07a5,5,0,0,1-3,.49,2.32,2.32,0,0,1-.78-.26A1.07,1.07,0,0,1,15.79,8.71ZM57.25,81.15a1.92,1.92,0,0,1-.62-1.92,15.2,15.2,0,0,1,.95-2.78c.16-.4.34-.8.51-1.19,0-.06,0-.14.12-.14s.09.07.11.12a23.11,23.11,0,0,1,1.49,4.05,2.6,2.6,0,0,1,0,.28,1.92,1.92,0,0,1-1.1,1.84A1.37,1.37,0,0,1,57.25,81.15Zm-8.51-6.44a.93.93,0,0,1-.65-1,1.68,1.68,0,0,1,.09-.32,11.4,11.4,0,0,1,1-1.7c.07-.11.15-.21.21,0a11.77,11.77,0,0,1,.43,2.06c0,.1,0,.21-.06.32A.89.89,0,0,1,48.74,74.71Zm14.65.42a.92.92,0,0,1-.81-1.08,8.93,8.93,0,0,1,.72-2c.05-.14.14-.16.2,0a8.88,8.88,0,0,1,.73,2A.92.92,0,0,1,63.39,75.13ZM44.51,36.77a3,3,0,0,1-6,0,3,3,0,1,1,6,0ZM57.12,55a3,3,0,1,1-6,0,3,3,0,0,1,3-3A3,3,0,0,1,57.12,55Zm1.69-7.34a3,3,0,1,1,3-3A3,3,0,0,1,58.81,47.69ZM49.22,26.47a3,3,0,0,1-3,3,3,3,0,0,1,0-6A3,3,0,0,1,49.22,26.47Zm11.34,7.91a3,3,0,0,1,3-3,3,3,0,0,1,3,3,3.07,3.07,0,0,1-3,3A3,3,0,0,1,60.56,34.38ZM39.78,47.11a3,3,0,1,1-3-3A3,3,0,0,1,39.78,47.11Zm34.16-2.75c0,.15,0,.3.06.44a6.82,6.82,0,0,1-1,3.05,3.84,3.84,0,0,1-1.08,1.22c-.6.41-1.05.22-1.16-.5a3.34,3.34,0,0,1,.14-1.37,7,7,0,0,1,1.39-2.72,2.81,2.81,0,0,1,.66-.58A.62.62,0,0,1,73.94,44.36ZM66.53,55.9a2.48,2.48,0,0,1,.06.54,6.53,6.53,0,0,1-1.13,3.18,3.58,3.58,0,0,1-.89,1,1.68,1.68,0,0,1-.34.2.56.56,0,0,1-.85-.39,2.44,2.44,0,0,1,0-1.23A6.85,6.85,0,0,1,65,55.94a2,2,0,0,1,.6-.46A.59.59,0,0,1,66.53,55.9Zm14.16-23a6.5,6.5,0,0,1-2,4.13.83.83,0,0,1-.92.27c-.35-.16-.38-.51-.4-.85a5.21,5.21,0,0,1,.47-2.13,5.83,5.83,0,0,1,1.38-2.08c.29-.26.61-.55,1-.36S80.66,32.49,80.69,32.89ZM52.12,17.75a.56.56,0,0,1,.33-.74,2,2,0,0,1,.67-.12,6.5,6.5,0,0,1,4.15,1.95c.23.25.47.56.29.94s-.54.4-.89.41a4.47,4.47,0,0,1-1.58-.29,6.18,6.18,0,0,1-2.62-1.6A1.61,1.61,0,0,1,52.12,17.75Zm13.24,6.14a.57.57,0,0,1,.41-.9,3,3,0,0,1,1.54.08A7,7,0,0,1,70.1,24.5a2.25,2.25,0,0,1,.55.64c.3.51.13.91-.45,1a3.73,3.73,0,0,1-.48,0,6.52,6.52,0,0,1-4.08-1.9A1.47,1.47,0,0,1,65.36,23.89Z"/></g></g></svg>