<svg xmlns="http://www.w3.org/2000/svg" viewBox="0 0 100 99.16"><g id="Layer_2" data-name="Layer 2"><g id="Layer_1-2" data-name="Layer 1"><path d="M94.93,4.18a5.75,5.75,0,0,1-1.44,2.27L77.05,23.18a9.69,9.69,0,0,1-2.54,1.75,38.69,38.69,0,0,0-3.29,11.78A15.44,15.44,0,0,1,72.11,42V84.78a15.34,15.34,0,0,1-.81,5c.89,4.31,3,5.84,5.41,3.32,5.79-5.93,11.63-11.86,17.42-17.8C97.34,72,100,62.88,100,54.94V17.07C100,10.67,97.59,4.48,94.93,4.18ZM79,79.61c-1.52,1.54-2.7-.21-2.7-3.92s1.18-8,2.7-9.48,2.71.21,2.71,3.93S80.51,78.08,79,79.61Zm0-35.73c-1.52,1.54-2.7-.21-2.7-3.88s1.18-7.94,2.7-9.48,2.71.17,2.71,3.88S80.51,42.35,79,43.88ZM91.84,66.42c-1.48,1.54-2.7-.21-2.7-3.88s1.22-7.94,2.7-9.48,2.75.21,2.75,3.88S93.36,64.88,91.84,66.42Zm0-35.73c-1.48,1.58-2.7-.17-2.7-3.88s1.22-7.94,2.7-9.48,2.75.21,2.75,3.93S93.36,29.15,91.84,30.69Zm-21,54.09V42A14.31,14.31,0,0,0,56.63,27.62H14.24A14.33,14.33,0,0,0,0,42V84.78A14.37,14.37,0,0,0,14.24,99.16H56.63A14.35,14.35,0,0,0,70.84,84.78Zm-51.06,5.5a6.68,6.68,0,1,1,6.64-6.65A6.63,6.63,0,0,1,19.78,90.28Zm0-20.23a6.68,6.68,0,1,1,6.64-6.66A6.64,6.64,0,0,1,19.78,70.05Zm0-20.23a6.69,6.69,0,1,1,6.64-6.66A6.64,6.64,0,0,1,19.78,49.82ZM51.06,90.28a6.68,6.68,0,1,1,6.63-6.65A6.63,6.63,0,0,1,51.06,90.28Zm0-20.23a6.68,6.68,0,1,1,6.63-6.66A6.64,6.64,0,0,1,51.06,70.05Zm0-20.23a6.69,6.69,0,1,1,6.63-6.66A6.64,6.64,0,0,1,51.06,49.82ZM.3,35.17A25.75,25.75,0,0,1,3.13,23.56a5.43,5.43,0,0,0,3.8,4.61A15.81,15.81,0,0,0,.3,35.17ZM73.54,95.49a18.25,18.25,0,0,1-9.8,3.2,15.77,15.77,0,0,0,6.76-7C71.05,93.36,72,95,73.54,95.49ZM63.65,28a43.82,43.82,0,0,0,9.09-2.34,43.15,43.15,0,0,0-2.5,8.83A15.74,15.74,0,0,0,63.65,28ZM8.71,27.36a15,15,0,0,1,5.53-1H56.63a15.72,15.72,0,0,1,4.74.72c6.25-.81,12.51-2.51,14.79-4.82,5.45-5.55,11-11.1,16.44-16.69C95.81,2.31,92.35,0,84.53,0H42.14c-7.82,0-17,2.52-20.37,5.55-6.13,5.51-9.34,8.37-15.47,13.87C3.38,22.07,3.51,26.29,8.71,27.36Zm56-20.45c1.6-1.4,5.83-2.56,9.51-2.56s5.32,1.16,3.76,2.56-5.88,2.61-9.51,2.61S63.1,8.37,64.67,6.91ZM62.59,20.7c-1.6,1.41-5.83,2.56-9.51,2.56s-5.32-1.15-3.76-2.56,5.84-2.6,9.51-2.6S64.16,19.25,62.59,20.7Zm-8-6.91c-1.61,1.45-5.84,2.6-9.51,2.6s-5.33-1.15-3.72-2.6,5.83-2.56,9.46-2.56S56.17,12.38,54.61,13.79ZM33.39,6.91C35,5.51,39.22,4.35,42.9,4.35s5.32,1.16,3.72,2.56-5.83,2.61-9.47,2.61S31.78,8.37,33.39,6.91ZM18.05,20.7c1.6-1.45,5.83-2.6,9.51-2.6s5.32,1.15,3.72,2.6-5.84,2.56-9.47,2.56S16.48,22.11,18.05,20.7Z"/></g></g></svg>