<svg xmlns="http://www.w3.org/2000/svg" viewBox="0 0 88.55 100"><defs><style>.cls-1{fill:#020203;}</style></defs><g id="Layer_2" data-name="Layer 2"><g id="Layer_1-2" data-name="Layer 1"><path class="cls-1" d="M70.48,50.12a4.82,4.82,0,1,1-6.66,1.44A4.82,4.82,0,0,1,70.48,50.12ZM48.88,20c.51-.79-.89-2.61-3.13-4s-4.46-2-5-1.17.88,2.61,3.12,4.05S48.36,20.84,48.88,20ZM82,34.85c.51-.8-.89-2.61-3.12-4.06s-4.47-2-5-1.17.88,2.61,3.12,4.05S81.46,35.64,82,34.85ZM65.41,27.46c.51-.79-.88-2.61-3.12-4.05s-4.47-2-5-1.17.88,2.61,3.12,4.05S64.9,28.26,65.41,27.46ZM48.07,76a4.82,4.82,0,1,0,6.67-1.44A4.82,4.82,0,0,0,48.07,76ZM.81,48.8,31,2.17l.41-.69a3,3,0,0,1,4.21-1l1.68,1L82.54,30.75a6.8,6.8,0,0,1,2.89,4l2.5,9.92.33,1.23a8.66,8.66,0,0,1-1.07,6.87l-.46.73L57.78,98.36a3.57,3.57,0,0,1-4.94,1.07L9.38,71.56l-1.9-1.25L7,70a10.42,10.42,0,0,1-4.14-5.69L2.4,62.78.14,52.73A5.08,5.08,0,0,1,.81,48.8Zm86.47-2.06L84.27,35a5.45,5.45,0,0,0-2.35-3.26L35.49,1.83a.63.63,0,0,0-1,.68L37.73,15a3.06,3.06,0,0,0,1.32,1.84L86.43,47.36A.56.56,0,0,0,87.28,46.74ZM7,68.45l46.57,30a2.31,2.31,0,0,0,3.19-.69L86.5,51.61a2.34,2.34,0,0,0-.7-3.24L39.09,18.26a1.66,1.66,0,0,0-2.3.5L6.42,65.86A1.87,1.87,0,0,0,7,68.45ZM1.38,52.68,4.67,65.57a.26.26,0,0,0,.48.07l31-48.12a3,3,0,0,0,.38-2.35L33.42,3a.84.84,0,0,0-1.51-.25l-30,46.5A4.39,4.39,0,0,0,1.38,52.68Zm6-7.46c-1.45,2.24-1.71,4.64-.59,5.36s3.19-.51,4.64-2.74,1.7-4.64.58-5.36S8.83,43,7.39,45.22ZM23.13,20.8c-1.45,2.24-1.71,4.64-.59,5.36s3.2-.51,4.64-2.74,1.7-4.64.58-5.36S24.57,18.57,23.13,20.8Zm14.6,13.94a4.82,4.82,0,1,0,6.66-1.44A4.82,4.82,0,0,0,37.73,34.74ZM22,59.16a4.82,4.82,0,1,0,6.66-1.44A4.83,4.83,0,0,0,22,59.16Z"/></g></g></svg>