<svg xmlns="http://www.w3.org/2000/svg" viewBox="0 0 100 78.3"><defs><style>.cls-1{fill:#020203;}</style></defs><g id="Layer_2" data-name="Layer 2"><g id="Layer_1-2" data-name="Layer 1"><path class="cls-1" d="M77.35,27.61c.3-.68,2-.57,3.74.23s2.94,2,2.63,2.68-2,.57-3.75-.24S77,28.28,77.35,27.61Zm-13-4.46c1.76.8,3.44.91,3.75.23s-.87-1.87-2.63-2.67-3.44-.91-3.75-.24S62.6,22.34,64.36,23.15ZM.38,19l4.46-6.71a6.72,6.72,0,0,1,4-2.79L48.2,0a.54.54,0,0,1,.58.82L43.69,8.77a3.24,3.24,0,0,1-2,1.41L1.06,20A.64.64,0,0,1,.38,19Zm18-7.67c.3,1.09,2.14,1.54,4.11,1s3.33-1.85,3-2.94-2.14-1.54-4.11-1S18.1,10.27,18.39,11.36Zm68.7,40.52c-.67-.31-1.87.87-2.67,2.63s-.91,3.43-.24,3.74,1.87-.87,2.68-2.63S87.77,52.19,87.09,51.88ZM95,37.73c-.67-.3-1.87.87-2.67,2.63s-.91,3.44-.24,3.75,1.87-.87,2.68-2.63S95.71,38,95,37.73ZM78.34,65.65c-.68-.31-1.88.87-2.68,2.63s-.91,3.44-.24,3.74,1.88-.87,2.68-2.62S79,66,78.34,65.65ZM76.68,37.49a3.5,3.5,0,1,0,1.73,4.64A3.5,3.5,0,0,0,76.68,37.49ZM45,52.58a3.5,3.5,0,0,0-4.64,4.64h0A3.5,3.5,0,1,0,45,52.58ZM28,60.36l-15.9,3.7a2,2,0,0,1-2.43-1.48L0,22.92A1.59,1.59,0,0,1,1.21,21l39.55-9.56A2.12,2.12,0,0,1,43.33,13l2.55,10.56.68-1.49L44.07,11.8a3.06,3.06,0,0,1,.4-2.38L49.9,1a.49.49,0,0,1,.89.15l3.86,16,3.82-1.26a4.62,4.62,0,0,1,3.39.19L96.69,31.83l1.67.8a2.89,2.89,0,0,1,1.38,3.8l-.46,1-16.47,36A2.9,2.9,0,0,1,81.13,75l-7.78,2.66-1,.34a5.94,5.94,0,0,1-4.42-.25l-.19-.09L29.2,60.07ZM53,18.54l-2.52.83-1.15.38L56,22.82,86.9,36.92a4,4,0,0,0,2.93.16l8.49-2.81a.34.34,0,0,0,0-.64L61.81,16.93a4.67,4.67,0,0,0-3.39-.18l-3.56,1.17Zm-3.42-1.19A7.17,7.17,0,0,0,50,18.61l2.92-1a7.36,7.36,0,0,0-.22-1.16c-.52-1.92-1.65-3.28-2.52-3S49,15.43,49.56,17.35Zm-12.69,23a3.6,3.6,0,0,0-1.76,6.74l3-6.53A3.61,3.61,0,0,0,36.87,40.4ZM13.15,32.29a3.6,3.6,0,1,0-3.6-3.6A3.61,3.61,0,0,0,13.15,32.29ZM21.86,48.8a3.61,3.61,0,1,0-3.6,3.6A3.6,3.6,0,0,0,21.86,48.8Zm9.9-21.31a3.61,3.61,0,1,0-3.6-3.6A3.6,3.6,0,0,0,31.76,27.49ZM87,39.77a1.66,1.66,0,0,0-.82-2.21L56.3,23.89,49.87,21a1.68,1.68,0,0,0-2.22.83l-.76,1.67-.68,1.48L38.87,41l-3,6.47L31,58.27a1.53,1.53,0,0,0,.75,2l37.18,17a.92.92,0,0,0,1.23-.46ZM98.87,35l-8.8,2.9A3.49,3.49,0,0,0,88,39.78L71,77.05a.22.22,0,0,0,.27.29l9.71-3.21a1.75,1.75,0,0,0,1-.94L99.24,35.43A.31.31,0,0,0,98.87,35Zm-42.71-6.9a3.5,3.5,0,0,0-2.91,6.37,3.32,3.32,0,0,0,.67.23,3.48,3.48,0,0,0,4-2,3.31,3.31,0,0,0,.3-1.05h0a3.53,3.53,0,0,0-.57-2.35A3.48,3.48,0,0,0,56.16,28.11ZM71.09,49.72a3.5,3.5,0,1,0,1.73,4.64A3.51,3.51,0,0,0,71.09,49.72ZM51,40.6h0a3.42,3.42,0,0,0-.46-.26,3.51,3.51,0,0,0-2.91,6.38,3.53,3.53,0,0,0,3.7-.49,3.61,3.61,0,0,0,.8-1c.05-.09.1-.18.14-.27A3.5,3.5,0,0,0,51,40.6ZM65.5,62a3.51,3.51,0,1,0,1.74,4.65A3.51,3.51,0,0,0,65.5,62Z"/></g></g></svg>