<svg xmlns="http://www.w3.org/2000/svg" viewBox="0 0 100 99.01"><defs><style>.cls-1{fill:#020203;}</style></defs><g id="Layer_2" data-name="Layer 2"><g id="Layer_1-2" data-name="Layer 1"><path class="cls-1" d="M0,80.18a5.82,5.82,0,0,0,1.82,4.24l9.46,9.41,2,1.73A14.17,14.17,0,0,0,22.54,99H95.93A4.07,4.07,0,0,0,100,94.94l0-69.11,0-4.68a10,10,0,0,0-3.46-7.61l-1.73-1.49L84.28,2A6.54,6.54,0,0,0,79.77.23L15.59,0,5.42.15A5.44,5.44,0,0,0,.07,5.66l0,1.23ZM95.59,16.1H21.1a7.36,7.36,0,0,1-5-2L4.22,3.13a.76.76,0,0,1,.51-1.31H79.5a5.79,5.79,0,0,1,3.92,1.53L96,15A.63.63,0,0,1,95.59,16.1Zm-76.91,79V20.76a3.07,3.07,0,0,1,3.08-3.07H92.27a6.15,6.15,0,0,1,6.15,6.15v70.6a3,3,0,0,1-3,3H21A2.33,2.33,0,0,1,18.68,95.09ZM1.58,79.81V4.15a.56.56,0,0,1,.94-.41L15,15.33A6.45,6.45,0,0,1,17.1,20V94.4a.87.87,0,0,1-1.46.64L3.19,83.49A5,5,0,0,1,1.58,79.81ZM79.32,24.86a6.45,6.45,0,1,1-6.45,6.45A6.45,6.45,0,0,1,79.32,24.86Zm-41.54,0a6.45,6.45,0,1,1-6.45,6.45A6.45,6.45,0,0,1,37.78,24.86ZM79.32,49.62a6.45,6.45,0,1,1-6.45,6.45A6.45,6.45,0,0,1,79.32,49.62Zm-41.54,0a6.45,6.45,0,1,1-6.45,6.45A6.45,6.45,0,0,1,37.78,49.62ZM79.32,74.38a6.45,6.45,0,1,1-6.45,6.45A6.45,6.45,0,0,1,79.32,74.38Zm-41.54,0a6.45,6.45,0,1,1-6.45,6.45A6.45,6.45,0,0,1,37.78,74.38ZM13.47,70.76c1.36,0,2.47,2.88,2.47,6.45s-1.11,6.45-2.47,6.45S11,80.77,11,77.21,12.1,70.76,13.47,70.76ZM9.34,41c1.36,0,2.47,2.88,2.47,6.45S10.7,53.9,9.34,53.9,6.87,51,6.87,47.45,8,41,9.34,41Zm60-30.72c-3.56,0-6.45-1.11-6.45-2.47s2.89-2.47,6.45-2.47,6.45,1.1,6.45,2.47S72.94,10.28,69.38,10.28Zm-31.6,0c-3.56,0-6.45-1.11-6.45-2.47s2.89-2.47,6.45-2.47,6.45,1.1,6.45,2.47S41.34,10.28,37.78,10.28Zm-30.91,1c1.36,0,2.47,2.88,2.47,6.45s-1.11,6.45-2.47,6.45S4.4,21.25,4.4,17.69,5.51,11.24,6.87,11.24Z"/></g></g></svg>