<svg xmlns="http://www.w3.org/2000/svg" viewBox="0 0 100 99.93"><g id="Layer_2" data-name="Layer 2"><g id="Layer_1-2" data-name="Layer 1"><path d="M98.62,39.35a13.33,13.33,0,0,0-4-4.94c-1.93-1.51-3.88-3-5.82-4.47L53.84,3.15A14.31,14.31,0,0,0,46.5.07a13,13,0,0,0-9,2.33,14.41,14.41,0,0,0-3.13,3.06Q18.59,26.09,2.76,46.67A13.49,13.49,0,0,0,2.77,63a13.93,13.93,0,0,0,2.55,2.35c1.57,1.27,3.2,2.46,4.81,3.69L45.51,96.19c.77.6,1.56,1.19,2.36,1.73a11.92,11.92,0,0,0,8.2,1.94,12.67,12.67,0,0,0,7-2.82,9,9,0,0,0,1.52-1.57c2.52-3.23,5-6.48,7.5-9.74l9.15-11.94h0L97.22,53C100.49,48.71,100.76,44.13,98.62,39.35ZM29.9,60.44a7.49,7.49,0,0,1-10.58,1.48A7.38,7.38,0,0,1,17.8,51.65a7.46,7.46,0,0,1,10.58-1.57A7.58,7.58,0,0,1,29.9,60.44ZM43,18.72a7.54,7.54,0,0,1,10.43-1.47,7.45,7.45,0,1,1-9.07,11.81A7.57,7.57,0,0,1,43,18.72Zm1.14,26.67c2.12-3.3,7.3-3.93,10.41-1.49a7.43,7.43,0,0,1-8.91,11.88C42.11,53.18,41.89,47.83,44.17,45.39ZM56.79,81.32a7.35,7.35,0,0,1-10.42,1.34C43.6,80.88,42.16,76,45,72.21a7.49,7.49,0,0,1,10.34-1.46A7.39,7.39,0,0,1,56.79,81.32ZM82,48.42a7.44,7.44,0,1,1-11.86-9c2.23-3.22,7.12-3.82,10.31-1.55C83.94,40.39,84.41,45.67,82,48.42Z"/></g></g></svg>