<svg xmlns="http://www.w3.org/2000/svg" viewBox="0 0 100 96.92"><g id="Layer_2" data-name="Layer 2"><g id="Layer_1-2" data-name="Layer 1"><path d="M42.08,35.83,22.39,27.66l-19.6-6A7.29,7.29,0,0,1,.08,20.3L.19,74a4.81,4.81,0,0,0,2.72,4.22L50,96.92,47.93,45C47.77,41.23,45.25,37.16,42.08,35.83ZM11.59,45.93C9.11,44.64,7.13,41,7.13,37.83s2-4.7,4.46-3.4S16,39.32,16,42.49,14,47.22,11.59,45.93ZM23.4,64.24C20.92,63,19,59.31,19,56.14s2-4.69,4.45-3.4,4.46,4.89,4.46,8.06S25.84,65.54,23.4,64.24ZM35.22,82.56c-2.48-1.29-4.46-4.93-4.46-8.1s2-4.7,4.46-3.41,4.46,4.89,4.46,8.1S37.66,83.85,35.22,82.56ZM77.37,27.73,58,35.83c-3.18,1.33-5.69,5.4-5.85,9.16L50,96.92,97.17,78.21A4.87,4.87,0,0,0,99.88,74L100,20.26a7.86,7.86,0,0,1-2.75,1.41ZM63.19,81.66c-2.44,1.29-4.45-.24-4.45-3.41s2-6.81,4.45-8.1,4.46.24,4.46,3.41S65.63,80.37,63.19,81.66ZM86.83,45c-2.48,1.29-4.46-.23-4.46-3.4s2-6.81,4.46-8.1,4.45.23,4.45,3.4S89.27,43.74,86.83,45ZM3.14,20.53l39.52,12.1a27.5,27.5,0,0,0,14.68,0l39.52-12.1c4.34-1.33,4-3.79,0-5.24L57.34,1.09a25.31,25.31,0,0,0-14.68,0L3.14,15.29C-.89,16.74-1.2,19.2,3.14,20.53ZM50,13.88c4.8,0,8.75,1.33,8.75,2.94s-4,2.89-8.75,2.89-8.8-1.29-8.8-2.89S45.18,13.88,50,13.88Z"/></g></g></svg>