<svg xmlns="http://www.w3.org/2000/svg" viewBox="0 0 98.99 100"><defs><style>.cls-1{fill:#020203;}</style></defs><g id="Layer_2" data-name="Layer 2"><g id="Layer_1-2" data-name="Layer 1"><path class="cls-1" d="M93,0H17.8a3.49,3.49,0,0,0-2.52,1.08L10.34,6,1,16.18a3.85,3.85,0,0,0-1,2.59V97.85A2.15,2.15,0,0,0,2.15,100l71-.16,7.59.14a3.74,3.74,0,0,0,2.82-1.23l6.8-7.51,7.35-7.74a3.86,3.86,0,0,0,1-2.63L99,10.33l-.16-6.94A3.45,3.45,0,0,0,95.38,0ZM82.89,96.66V20a4.6,4.6,0,0,1,1.23-3.13L96.66,3.38a.29.29,0,0,1,.51.2V79.74a5.14,5.14,0,0,1-1.38,3.51L83.25,96.8A.21.21,0,0,1,82.89,96.66Zm-3.08-78a1.5,1.5,0,0,1,1.5,1.49V98.42H2.68a1.09,1.09,0,0,1-1.09-1.1V19.7a1,1,0,0,1,1-1ZM18.21,1.6H95.05a.46.46,0,0,1,.34.78l-12,13a5.52,5.52,0,0,1-4.07,1.78h-76a.32.32,0,0,1-.24-.54L16.18,2.48A2.79,2.79,0,0,1,18.21,1.6Zm50,77.72a6.45,6.45,0,1,1-6.45-6.45A6.45,6.45,0,0,1,68.23,79.32Zm0-41.53a6.45,6.45,0,1,1-6.45-6.44A6.45,6.45,0,0,1,68.23,37.79ZM51.55,58.56a6.45,6.45,0,1,1-6.45-6.45A6.45,6.45,0,0,1,51.55,58.56ZM86.31,53.3c0-3.56,1.55-6.45,3.46-6.45s3.47,2.89,3.47,6.45-1.55,6.45-3.47,6.45S86.31,56.86,86.31,53.3Zm-57,26a6.45,6.45,0,1,1-6.44-6.45A6.44,6.44,0,0,1,29.35,79.32Zm0-41.53a6.45,6.45,0,1,1-6.44-6.44A6.44,6.44,0,0,1,29.35,37.79Zm44-29.74c0,1.78-2.89,3.22-6.45,3.22s-6.45-1.44-6.45-3.22,2.89-3.23,6.45-3.23S73.32,6.27,73.32,8.05Zm-38.87,0c0,1.78-2.89,3.22-6.45,3.22s-6.45-1.44-6.45-3.22S24.44,4.82,28,4.82,34.45,6.27,34.45,8.05Z"/></g></g></svg>