<svg xmlns="http://www.w3.org/2000/svg" viewBox="0 0 86.81 100"><g id="Layer_2" data-name="Layer 2"><g id="Layer_1-2" data-name="Layer 1"><path d="M9.16,32.93a4.16,4.16,0,0,0-4.22-.35,4.15,4.15,0,0,0-1.82,3.83,11.46,11.46,0,0,0,5.26,9.11,5.11,5.11,0,0,0,2.56.77,3.26,3.26,0,0,0,1.66-.43A4.14,4.14,0,0,0,14.42,42,11.46,11.46,0,0,0,9.16,32.93Zm2.66,11.58a2.67,2.67,0,0,1-2.66-.34,10.05,10.05,0,0,1-4.48-7.76,2.68,2.68,0,0,1,1-2.47,1.69,1.69,0,0,1,.88-.22,3.59,3.59,0,0,1,1.78.56A10.05,10.05,0,0,1,12.86,42,2.68,2.68,0,0,1,11.82,44.51Zm24,34.57a4.18,4.18,0,0,0-4.22-.34,4.17,4.17,0,0,0-1.82,3.83A11.46,11.46,0,0,0,35,91.68a5.14,5.14,0,0,0,2.57.78A3.26,3.26,0,0,0,39.25,92a4.15,4.15,0,0,0,1.82-3.83A11.49,11.49,0,0,0,35.81,79.08Zm2.66,11.59a2.67,2.67,0,0,1-2.66-.34,10.05,10.05,0,0,1-4.48-7.76,2.68,2.68,0,0,1,1-2.47,2.67,2.67,0,0,1,2.66.34,10.05,10.05,0,0,1,4.48,7.76A2.68,2.68,0,0,1,38.47,90.67Zm35.74-44.8a3.26,3.26,0,0,0,1.66.43,5.2,5.2,0,0,0,2.57-.78,11.47,11.47,0,0,0,5.25-9.11,3.72,3.72,0,0,0-6-3.48A11.46,11.46,0,0,0,72.4,42,4.16,4.16,0,0,0,74.21,45.87Zm4.23-11.59a3.56,3.56,0,0,1,1.78-.56,1.74,1.74,0,0,1,.88.22,2.68,2.68,0,0,1,1,2.47,10.08,10.08,0,0,1-4.48,7.76A2.21,2.21,0,0,1,74,42,10,10,0,0,1,78.44,34.28Zm-30.88,27a3.27,3.27,0,0,0,1.66.44,5.17,5.17,0,0,0,2.57-.78,11.48,11.48,0,0,0,5.26-9.11,3.73,3.73,0,0,0-6-3.49,11.49,11.49,0,0,0-5.26,9.11A4.14,4.14,0,0,0,47.56,61.25Zm4.23-11.59a3.66,3.66,0,0,1,1.78-.56,1.85,1.85,0,0,1,.88.22,2.71,2.71,0,0,1,1,2.48A10.1,10.1,0,0,1,51,59.56a2.72,2.72,0,0,1-2.67.34,2.71,2.71,0,0,1-1-2.48A10.08,10.08,0,0,1,51.79,49.66ZM47.56,92a3.37,3.37,0,0,0,1.66.43,5.17,5.17,0,0,0,2.57-.78,11.48,11.48,0,0,0,5.26-9.11,3.73,3.73,0,0,0-6-3.48,11.46,11.46,0,0,0-5.26,9.11A4.16,4.16,0,0,0,47.56,92Zm4.23-11.59a3.58,3.58,0,0,1,1.78-.57,1.75,1.75,0,0,1,.88.23,2.68,2.68,0,0,1,1,2.47A10.08,10.08,0,0,1,51,90.33a2.69,2.69,0,0,1-2.67.34,2.68,2.68,0,0,1-1-2.47A10.05,10.05,0,0,1,51.79,80.44Zm22.42-3.8a3.26,3.26,0,0,0,1.66.43,5.25,5.25,0,0,0,2.57-.77,11.49,11.49,0,0,0,5.25-9.11,3.72,3.72,0,0,0-6-3.49,11.46,11.46,0,0,0-5.26,9.11A4.16,4.16,0,0,0,74.21,76.64Zm4.23-11.59a3.66,3.66,0,0,1,1.78-.56,1.74,1.74,0,0,1,.88.22,2.7,2.7,0,0,1,1,2.48A10.11,10.11,0,0,1,77.66,75,2.22,2.22,0,0,1,74,72.81,10,10,0,0,1,78.44,65.05Zm8.37-39.66a.77.77,0,0,0-.39-.68L43.8.1A.83.83,0,0,0,43,.1L.39,24.71a.79.79,0,0,0-.39.68V74.61a.76.76,0,0,0,.39.67L43,99.89h0a.76.76,0,0,0,.39.1.9.9,0,0,0,.39-.1L86.42,75.28a.74.74,0,0,0,.39-.67V25.39ZM43.41,1.68,84.47,25.39,43.41,49.1,2.34,25.39ZM1.56,26.74,42.63,50.45V97.87L1.56,74.16ZM85.25,74.16,44.19,97.87V50.45L85.25,26.74ZM49.06,17.7a4.15,4.15,0,0,0,2.41,3.48,11.45,11.45,0,0,0,10.52,0A4.15,4.15,0,0,0,64.4,17.7,4.15,4.15,0,0,0,62,14.21a11.49,11.49,0,0,0-10.52,0A4.15,4.15,0,0,0,49.06,17.7Zm3.19-2.14a10.08,10.08,0,0,1,9,0,2.7,2.7,0,0,1,1.63,2.14,2.69,2.69,0,0,1-1.63,2.13,10.08,10.08,0,0,1-9,0,2.69,2.69,0,0,1-1.63-2.13A2.7,2.7,0,0,1,52.25,15.56ZM37.75,33.08a4.13,4.13,0,0,0-2.41-3.48,11.49,11.49,0,0,0-10.52,0,4.15,4.15,0,0,0-2.41,3.48,4.16,4.16,0,0,0,2.41,3.49,10.75,10.75,0,0,0,5.26,1.28,10.72,10.72,0,0,0,5.26-1.28A4.14,4.14,0,0,0,37.75,33.08Zm-3.19,2.14a10.08,10.08,0,0,1-9,0A2.7,2.7,0,0,1,24,33.08,2.69,2.69,0,0,1,25.6,31a9.24,9.24,0,0,1,4.48-1.05A9.21,9.21,0,0,1,34.56,31a2.69,2.69,0,0,1,1.63,2.13A2.7,2.7,0,0,1,34.56,35.22Zm14.11,9a4.14,4.14,0,0,0,2.4-3.48,4.16,4.16,0,0,0-2.4-3.49,11.49,11.49,0,0,0-10.52,0,4.16,4.16,0,0,0-2.41,3.49,4.13,4.13,0,0,0,2.41,3.48,11.45,11.45,0,0,0,10.52,0ZM37.3,40.77a2.7,2.7,0,0,1,1.63-2.13,10.08,10.08,0,0,1,9,0,2.7,2.7,0,0,1,1.62,2.13,2.67,2.67,0,0,1-1.62,2.14,10.08,10.08,0,0,1-9,0A2.69,2.69,0,0,1,37.3,40.77ZM62.39,25.39a4.18,4.18,0,0,0,2.41,3.49,11.53,11.53,0,0,0,10.52,0,4.16,4.16,0,0,0,2.4-3.49,4.16,4.16,0,0,0-2.4-3.49,11.49,11.49,0,0,0-10.52,0A4.18,4.18,0,0,0,62.39,25.39Zm3.19-2.14a10.08,10.08,0,0,1,9,0,2.7,2.7,0,0,1,1.62,2.14,2.7,2.7,0,0,1-1.62,2.14,10.1,10.1,0,0,1-9,0A2.7,2.7,0,0,1,64,25.39,2.72,2.72,0,0,1,65.58,23.25ZM38.15,13.49a10.7,10.7,0,0,0,5.26,1.28,10.75,10.75,0,0,0,5.26-1.28A4.15,4.15,0,0,0,51.07,10a4.16,4.16,0,0,0-2.4-3.49,11.49,11.49,0,0,0-10.52,0A4.16,4.16,0,0,0,35.74,10,4.18,4.18,0,0,0,38.15,13.49Zm.78-5.62a10.08,10.08,0,0,1,9,0A2.68,2.68,0,0,1,49.51,10a2.7,2.7,0,0,1-1.62,2.14,10.08,10.08,0,0,1-9,0A2.7,2.7,0,0,1,37.3,10,2.69,2.69,0,0,1,38.93,7.87ZM24.42,25.39A4.16,4.16,0,0,0,22,21.9a11.49,11.49,0,0,0-10.52,0,4.16,4.16,0,0,0-2.41,3.49,4.16,4.16,0,0,0,2.41,3.49,10.69,10.69,0,0,0,5.26,1.27A10.75,10.75,0,0,0,22,28.88,4.16,4.16,0,0,0,24.42,25.39Zm-3.18,2.14a10.08,10.08,0,0,1-9,0,2.72,2.72,0,0,1-1.63-2.14,2.72,2.72,0,0,1,1.63-2.14,9.18,9.18,0,0,1,4.48-1.05,9.24,9.24,0,0,1,4.48,1.05,2.7,2.7,0,0,1,1.62,2.14A2.7,2.7,0,0,1,21.24,27.53Z"/></g></g></svg>