<svg xmlns="http://www.w3.org/2000/svg" viewBox="0 0 95.81 100"><g id="Layer_2" data-name="Layer 2"><g id="Layer_1-2" data-name="Layer 1"><path d="M76.24,42.7a1.34,1.34,0,0,1,1.89-1.89l1.8,1.8a1.34,1.34,0,0,1-1,2.28A1.33,1.33,0,0,1,78,44.5Zm8.1,8.1a1.34,1.34,0,0,0,1.89-1.89l-1.8-1.8A1.34,1.34,0,0,0,82.54,49ZM71.74,38.2a1.33,1.33,0,1,0,1.88-1.89l-1.8-1.8a1.34,1.34,0,0,0-1.89,1.89ZM93.42,56.11l-1.74-1.75h0l-1-.94a1.34,1.34,0,1,0-1.89,1.89l1,.94h0L91.53,58a5.48,5.48,0,0,1,0,7.76l-30,30a5.49,5.49,0,0,1-7.76,0l-30-30a5.5,5.5,0,0,1,0-7.76l30-30a5.4,5.4,0,0,1,1.78-1.19h0a4.24,4.24,0,0,1,.5-.18h0l.25-.07h0a4.91,4.91,0,0,1,.5-.1h0l.48-.05h.22a5.58,5.58,0,0,1,1.8.27l.11,0A5.5,5.5,0,0,1,61.57,28L64.49,31h0l.94.94a1.32,1.32,0,0,0,.95.4,1.3,1.3,0,0,0,.94-.4,1.33,1.33,0,0,0,0-1.88l-.94-1h0l-2.92-2.92a8.25,8.25,0,0,0-2-1.48l1.2-4.07a7.54,7.54,0,0,0-5.1-9.36L20.59.31a7.55,7.55,0,0,0-9.37,5.1l-5.7,19.3h0L5.14,26a1.34,1.34,0,0,0,.91,1.66,1.21,1.21,0,0,0,.38.06,1.35,1.35,0,0,0,1.28-1l.37-1.28v0l5.7-19.29a4.87,4.87,0,0,1,6-3.28l37,10.91a4.86,4.86,0,0,1,3.29,6.05l-1.18,4-.21,0a8.05,8.05,0,0,0-5.93,1.6l-.07,0-.09.07-.09.08-.08.06-.1.09-.07.06-.11.1-.06.05a1.21,1.21,0,0,1-.16.16h0l-28.2,28.2L6.16,49.16a4.88,4.88,0,0,1-3.29-6l1.06-3.57h0l.38-1.28A1.35,1.35,0,0,0,3.4,36.6a1.33,1.33,0,0,0-1.66.9l-.38,1.28h0l-1,3.56A7.55,7.55,0,0,0,5.4,51.72L21.59,56.5A8.15,8.15,0,0,0,22,67.65l30,30a8.16,8.16,0,0,0,11.54,0l30-30a8.16,8.16,0,0,0,0-11.54ZM63.58,41.46a4.65,4.65,0,1,0-4.65,4.64A4.65,4.65,0,0,0,63.58,41.46ZM48.1,47.65a4.64,4.64,0,1,0,4.64,4.64A4.64,4.64,0,0,0,48.1,47.65ZM32.63,63.12a4.64,4.64,0,1,0,4.64-4.64A4.65,4.65,0,0,0,32.63,63.12Zm45.48,2.15a4.64,4.64,0,1,0-4.64-4.64A4.64,4.64,0,0,0,78.11,65.27ZM67.27,76.11a4.65,4.65,0,1,0-4.64-4.65A4.65,4.65,0,0,0,67.27,76.11ZM56.44,86.94A4.64,4.64,0,1,0,51.8,82.3,4.64,4.64,0,0,0,56.44,86.94ZM35.69,31.47a4.22,4.22,0,1,0-4.22,4.22A4.22,4.22,0,0,0,35.69,31.47ZM4.06,34.37a1.73,1.73,0,0,0,.38.05,1.33,1.33,0,0,0,1.28-1l.57-1.92a1.33,1.33,0,1,0-2.56-.75l-.57,1.92A1.34,1.34,0,0,0,4.06,34.37Z"/></g></g></svg>