<svg xmlns="http://www.w3.org/2000/svg" viewBox="0 0 100 99.86"><g id="Layer_2" data-name="Layer 2"><g id="Layer_1-2" data-name="Layer 1"><path d="M100,8a20.64,20.64,0,0,0-.09-2.61A5.66,5.66,0,0,0,93.81,0L7.09.06C2,.06.2,1.88.19,6.93q0,21.33,0,42.65H0q0,21.8,0,43.6c0,4,2.17,6.41,6.19,6.66.47,0,.95,0,1.43,0H92.44a14.27,14.27,0,0,0,2.61-.19A5.46,5.46,0,0,0,99.78,95a18.29,18.29,0,0,0,.21-3.31Q100,49.83,100,8ZM94.1,90.78c0,3.16,0,3.18-3.19,3.18H9.22c-3.12,0-3.13,0-3.13-3.23V9.28C6.09,6,6.13,6,9.42,6H90.87c3.22,0,3.23,0,3.23,3.37V90.78ZM26.34,9.24A11.34,11.34,0,0,0,15.28,20.4a11.12,11.12,0,0,0,22.23-.1A11.32,11.32,0,0,0,26.34,9.24Zm0,17.63a6.24,6.24,0,0,1-6.42-6.48,6.5,6.5,0,0,1,6.56-6.67,6.88,6.88,0,0,1,6.58,6.56A6.64,6.64,0,0,1,26.33,26.87ZM50,38.77A11.22,11.22,0,0,0,38.91,49.83,11.09,11.09,0,0,0,50,60.88,10.94,10.94,0,0,0,61,49.88,11.11,11.11,0,0,0,50,38.77ZM50,56.4a6.57,6.57,0,1,1,6.54-6.66A6.39,6.39,0,0,1,50,56.4ZM73.6,68.3a11.06,11.06,0,0,0,.07,22.12A11.18,11.18,0,0,0,84.75,79.34,11.3,11.3,0,0,0,73.6,68.3Zm-.17,17.63a6.57,6.57,0,0,1,.16-13.14,6.57,6.57,0,1,1-.16,13.14Z"/></g></g></svg>