<svg xmlns="http://www.w3.org/2000/svg" viewBox="0 0 86.81 100"><g id="Layer_2" data-name="Layer 2"><g id="Layer_1-2" data-name="Layer 1"><path d="M55.23,48a4.2,4.2,0,0,0-4.23.34,11.46,11.46,0,0,0-5.25,9.11,4.14,4.14,0,0,0,1.81,3.83,3.26,3.26,0,0,0,1.66.43,5.09,5.09,0,0,0,2.56-.77A11.46,11.46,0,0,0,57,51.8,4.16,4.16,0,0,0,55.23,48ZM51,59.56a2.7,2.7,0,0,1-2.66.34,2.68,2.68,0,0,1-1-2.47,10.05,10.05,0,0,1,4.48-7.76,3.64,3.64,0,0,1,1.78-.57,1.76,1.76,0,0,1,.89.23,2.7,2.7,0,0,1,1,2.47A10.05,10.05,0,0,1,51,59.56Zm30.88,3.8a4.15,4.15,0,0,0-4.23.34,11.46,11.46,0,0,0-5.26,9.11,4.17,4.17,0,0,0,1.82,3.83,3.26,3.26,0,0,0,1.66.43,5.22,5.22,0,0,0,2.56-.77,11.47,11.47,0,0,0,5.26-9.11A4.14,4.14,0,0,0,81.88,63.36ZM77.65,75A2.22,2.22,0,0,1,74,72.81a10.1,10.1,0,0,1,4.48-7.76,3.73,3.73,0,0,1,1.79-.56,1.74,1.74,0,0,1,.88.22,2.72,2.72,0,0,1,1,2.48A10.08,10.08,0,0,1,77.65,75ZM22.48,56a4.13,4.13,0,0,0-4.22-.34,4.14,4.14,0,0,0-1.82,3.82A11.46,11.46,0,0,0,21.7,68.6a5.17,5.17,0,0,0,2.57.78A3.23,3.23,0,0,0,25.92,69a4.17,4.17,0,0,0,1.82-3.83A11.46,11.46,0,0,0,22.48,56ZM25.15,67.6a2.72,2.72,0,0,1-2.67-.35A10.05,10.05,0,0,1,18,59.49,2.68,2.68,0,0,1,19,57a1.72,1.72,0,0,1,.88-.22,3.73,3.73,0,0,1,1.79.56,10.09,10.09,0,0,1,4.47,7.76A2.73,2.73,0,0,1,25.15,67.6Zm-16-3.9a4.15,4.15,0,0,0-4.23-.34,4.14,4.14,0,0,0-1.81,3.83A11.49,11.49,0,0,0,8.38,76.3a5.22,5.22,0,0,0,2.56.77,3.26,3.26,0,0,0,1.66-.43,4.17,4.17,0,0,0,1.82-3.83A11.46,11.46,0,0,0,9.16,63.7Zm2.66,11.59A2.72,2.72,0,0,1,9.16,75a10.08,10.08,0,0,1-4.48-7.76,2.7,2.7,0,0,1,1-2.48,1.75,1.75,0,0,1,.89-.22,3.72,3.72,0,0,1,1.78.56,10.07,10.07,0,0,1,4.48,7.76A2.71,2.71,0,0,1,11.82,75.29Zm24-27A4.17,4.17,0,0,0,31.58,48a4.16,4.16,0,0,0-1.81,3.83A11.46,11.46,0,0,0,35,60.91a5.11,5.11,0,0,0,2.56.77,3.26,3.26,0,0,0,1.66-.43,4.15,4.15,0,0,0,1.82-3.83A11.49,11.49,0,0,0,35.81,48.31ZM38.47,59.9a2.67,2.67,0,0,1-2.66-.34,10.07,10.07,0,0,1-4.48-7.76,2.73,2.73,0,0,1,1-2.48,1.86,1.86,0,0,1,.89-.22,3.64,3.64,0,0,1,1.78.57,10.05,10.05,0,0,1,4.48,7.75A2.69,2.69,0,0,1,38.47,59.9Zm48-35.18L43.79.1A.83.83,0,0,0,43,.1L.39,24.71a.79.79,0,0,0-.39.68H0V74.61a.79.79,0,0,0,.39.68L43,99.9a.87.87,0,0,0,.39.1.9.9,0,0,0,.39-.1L86.42,75.29a.77.77,0,0,0,.39-.68V25.39A.77.77,0,0,0,86.42,24.72Zm-43-23L84.47,25.39,43.41,49.1l-25-14.42L2.34,25.39ZM1.56,26.74l30.8,17.78,10.27,5.93V97.87L1.56,74.16ZM44.19,97.87V50.45L85.25,26.74V74.16ZM24.82,21.18a10.62,10.62,0,0,0,5.26,1.28,10.64,10.64,0,0,0,5.26-1.28,4.14,4.14,0,0,0,2.4-3.48,4.14,4.14,0,0,0-2.4-3.49,11.46,11.46,0,0,0-10.52,0,4.13,4.13,0,0,0-2.41,3.49A4.15,4.15,0,0,0,24.82,21.18Zm.78-5.62a9.21,9.21,0,0,1,4.48-1.05,9.24,9.24,0,0,1,4.48,1.05,2.69,2.69,0,0,1,1.62,2.14,2.68,2.68,0,0,1-1.62,2.13h0a10.05,10.05,0,0,1-9,0A2.69,2.69,0,0,1,24,17.7,2.7,2.7,0,0,1,25.6,15.56ZM49.06,33.08a4.16,4.16,0,0,0,2.41,3.49,11.45,11.45,0,0,0,10.52,0h0a4.16,4.16,0,0,0,2.41-3.48A4.15,4.15,0,0,0,62,29.6a11.43,11.43,0,0,0-10.52,0A4.15,4.15,0,0,0,49.06,33.08ZM52.25,31a10.08,10.08,0,0,1,9,0,2.69,2.69,0,0,1,1.63,2.14,2.7,2.7,0,0,1-1.63,2.13,10.08,10.08,0,0,1-9,0,2.7,2.7,0,0,1-1.63-2.14A2.69,2.69,0,0,1,52.25,31ZM64.8,28.88a11.43,11.43,0,0,0,10.51,0,4.16,4.16,0,0,0,2.41-3.49,4.18,4.18,0,0,0-2.41-3.49,11.49,11.49,0,0,0-10.52,0,4.16,4.16,0,0,0-2.4,3.49A4.16,4.16,0,0,0,64.8,28.88Zm.78-5.62a9.08,9.08,0,0,1,4.48-1.06,9.17,9.17,0,0,1,4.47,1.05,2.72,2.72,0,0,1,1.63,2.14,2.72,2.72,0,0,1-1.63,2.14h0a10.08,10.08,0,0,1-9,0A2.7,2.7,0,0,1,64,25.39,2.67,2.67,0,0,1,65.58,23.26ZM38.15,13.49a11.43,11.43,0,0,0,10.51,0A4.14,4.14,0,0,0,51.07,10a4.16,4.16,0,0,0-2.41-3.49,11.49,11.49,0,0,0-10.52,0h0A4.14,4.14,0,0,0,35.74,10,4.13,4.13,0,0,0,38.15,13.49Zm.78-5.62a10.08,10.08,0,0,1,9,0A2.68,2.68,0,0,1,49.51,10a2.7,2.7,0,0,1-1.62,2.14,10.08,10.08,0,0,1-9,0A2.72,2.72,0,0,1,37.3,10,2.67,2.67,0,0,1,38.93,7.87ZM22,28.88a4.16,4.16,0,0,0,2.4-3.49A4.16,4.16,0,0,0,22,21.9a11.51,11.51,0,0,0-10.53,0h0a4.16,4.16,0,0,0-2.4,3.49,4.16,4.16,0,0,0,2.4,3.49,10.75,10.75,0,0,0,5.26,1.27A10.76,10.76,0,0,0,22,28.88ZM10.65,25.39a2.68,2.68,0,0,1,1.62-2.13,9.94,9.94,0,0,1,9,0,2.72,2.72,0,0,1,1.62,2.14,2.72,2.72,0,0,1-1.62,2.14,10.1,10.1,0,0,1-9,0A2.72,2.72,0,0,1,10.65,25.39Zm38,11.9a11.51,11.51,0,0,0-10.53,0,4.16,4.16,0,0,0-2.4,3.49,4.16,4.16,0,0,0,2.4,3.49,11.53,11.53,0,0,0,10.52,0,4.18,4.18,0,0,0,2.41-3.49A4.16,4.16,0,0,0,48.67,37.29Zm-.78,5.62h0a10,10,0,0,1-9,0,2.68,2.68,0,0,1-1.62-2.13,2.7,2.7,0,0,1,1.62-2.14,9.24,9.24,0,0,1,4.48-1,9.08,9.08,0,0,1,4.48,1.06,2.69,2.69,0,0,1,1.63,2.13A2.68,2.68,0,0,1,47.89,42.91Z"/></g></g></svg>