<svg xmlns="http://www.w3.org/2000/svg" viewBox="0 0 98.77 100"><defs><style>.cls-1{fill:#020203;}</style></defs><g id="Layer_2" data-name="Layer 2"><g id="Layer_1-2" data-name="Layer 1"><path class="cls-1" d="M5.38,0H4.6A4.49,4.49,0,0,0,.11,4.6L.22,9.47,0,80.21A5.54,5.54,0,0,0,1.48,84l9.93,10.71,1.83,2a10.07,10.07,0,0,0,7.6,3.23l2.62,0,72.13.14a3.17,3.17,0,0,0,3.18-3.17v-75a11.91,11.91,0,0,0-3-7.9l-.87-1L84.33,2a6.35,6.35,0,0,0-4.59-2Zm9.78,96.43L2.86,83.14a4.76,4.76,0,0,1-1.27-3.25v-76a.42.42,0,0,1,.72-.29L14.76,17a4.17,4.17,0,0,1,1.11,2.82V96.15A.41.41,0,0,1,15.16,96.43Zm82-75.74V96.08a2.34,2.34,0,0,1-2.34,2.34H21.49a4,4,0,0,1-4-4V20.92a2.23,2.23,0,0,1,2.24-2.23H95.18A2,2,0,0,1,97.19,20.69ZM83,2.9,95.31,16.18a.55.55,0,0,1-.4.92H18.75a4,4,0,0,1-2.93-1.28L3.38,2.38a.47.47,0,0,1,.35-.79H80A4.06,4.06,0,0,1,83,2.9Zm-46,70a6.45,6.45,0,1,1-6.45,6.45A6.44,6.44,0,0,1,37,72.87Zm0-41.53a6.45,6.45,0,1,1-6.45,6.45A6.44,6.44,0,0,1,37,31.34ZM5,81.17c-1.26,0-2.29-2.89-2.29-6.45s1-6.45,2.29-6.45,2.3,2.89,2.3,6.45S6.29,81.17,5,81.17Zm3.71-24c-1.27,0-2.3-2.89-2.3-6.45s1-6.45,2.3-6.45S11,47.18,11,50.75,10,57.2,8.73,57.2Zm3.63-24c-1.26,0-2.29-2.89-2.29-6.45s1-6.45,2.29-6.45,2.3,2.89,2.3,6.45S13.63,33.22,12.36,33.22Zm63.5,39.65a6.45,6.45,0,1,1-6.45,6.45A6.45,6.45,0,0,1,75.86,72.87Zm0-41.53a6.45,6.45,0,1,1-6.45,6.45A6.44,6.44,0,0,1,75.86,31.34Zm-44-26.53c3.56,0,6.45,1.44,6.45,3.23s-2.89,3.22-6.45,3.22S25.44,9.82,25.44,8,28.33,4.81,31.89,4.81Zm38.88,0c3.56,0,6.45,1.44,6.45,3.23s-2.89,3.22-6.45,3.22S64.32,9.82,64.32,8,67.21,4.81,70.77,4.81Z"/></g></g></svg>