<svg xmlns="http://www.w3.org/2000/svg" viewBox="0 0 92.59 100"><g id="Layer_2" data-name="Layer 2"><g id="Layer_1-2" data-name="Layer 1"><path d="M41.31,27.06c1.06-1.18,3.56-1.58,4.85-1.58s3.79.4,4.84,1.58c-1,1.15-3.55,1.54-4.84,1.54S42.37,28.21,41.31,27.06ZM3,23.39,43.34.73A5.91,5.91,0,0,1,48.54.5L89.77,23.63c1.29.75,1.14,2.05-.43,2.92L49,49.21a6.08,6.08,0,0,1-5.2.23L2.54,26.31C1.25,25.56,1.41,24.26,3,23.39Zm59.41,2.76c0,2,2.85,3.63,6.41,3.63s6.44-1.61,6.44-3.63-2.89-3.67-6.44-3.67S62.38,24.14,62.38,26.15Zm-22.63,0c0,2,2.85,3.63,6.41,3.63s6.41-1.61,6.41-3.63-2.86-3.67-6.41-3.67S39.75,24.14,39.75,26.15Zm-22.67,0c0,2,2.89,3.63,6.45,3.63s6.41-1.61,6.41-3.63-2.85-3.67-6.41-3.67S17.08,24.14,17.08,26.15ZM68.79,28.6c1.29,0,3.83-.39,4.84-1.54-1-1.18-3.55-1.58-4.84-1.58s-3.8.4-4.85,1.58C65,28.21,67.5,28.6,68.79,28.6Zm-45.26,0c1.29,0,3.79-.39,4.84-1.54-1.05-1.18-3.55-1.58-4.84-1.58s-3.83.4-4.85,1.58C19.7,28.21,22.24,28.6,23.53,28.6ZM78.13,46c-.59,1-1.41,3.12-1,4.46,1.33-.32,2.78-2.13,3.32-3.12s1.41-3.12,1-4.5C80.08,43.17,78.67,45,78.13,46Zm14.46-13.7V73.84a5.47,5.47,0,0,1-2.7,4.22L51.47,99.61c-1.44.83-2.65.28-2.65-1.22V56.83a5.5,5.5,0,0,1,2.69-4.23L89.93,31.05C91.41,30.22,92.59,30.77,92.59,32.27ZM62.06,78.42c-1.6-.91-4.22.63-5.86,3.51s-1.68,5.92-.08,6.87,4.22-.63,5.87-3.51S63.63,79.36,62.06,78.42ZM82.93,41.86c-1.56-.94-4.18.64-5.82,3.52S75.43,51.3,77,52.25s4.18-.67,5.83-3.52S84.54,42.77,82.93,41.86ZM57.22,82.52c-.59,1-1.41,3.12-1,4.46,1.33-.31,2.78-2.13,3.32-3.11s1.41-3.12,1-4.47C59.21,79.72,57.76,81.54,57.22,82.52ZM47.64,56.83h0A6.64,6.64,0,0,1,51,51.58L89.34,30a3.68,3.68,0,0,1,1-.39,6.23,6.23,0,0,1-.2-2.21.56.56,0,0,1-.27.16L49.56,50.23a7.21,7.21,0,0,1-6.37.24l-41-23a5.16,5.16,0,0,1,.12,2.13,6,6,0,0,1,.9.39L41.62,51.58A6.63,6.63,0,0,1,45,56.83V98.39a3.71,3.71,0,0,1-.2,1.22,5.6,5.6,0,0,1,3.09,0,4,4,0,0,1-.2-1.26Zm-26.07,4.3c-.35,1.34.47,3.47,1,4.46s2,2.8,3.36,3.12c.35-1.35-.47-3.48-1-4.46S22.94,61.44,21.57,61.13Zm22.2-4.3V98.39c0,1.5-1.21,2-2.66,1.22L2.7,78.06A5.47,5.47,0,0,1,0,73.84V32.27c0-1.5,1.17-2.05,2.66-1.22L41.08,52.6A5.5,5.5,0,0,1,43.77,56.83ZM26,63.65c-1.64-2.88-4.26-4.46-5.86-3.51s-1.56,4,.08,6.87,4.26,4.42,5.86,3.51S27.59,66.5,26,63.65Z"/></g></g></svg>