<svg xmlns="http://www.w3.org/2000/svg" viewBox="0 0 100 90.43"><g id="Layer_2" data-name="Layer 2"><g id="Layer_1-2" data-name="Layer 1"><path d="M37.39,52.22a1.11,1.11,0,0,0-.69-1.35C33.15,48.94,29.63,47,26.1,45L4.18,32.9c-.74-.41-.83-.35-.91.47C3.16,34.67,3,36,2.92,37.26q-.57,6.41-1.15,12.8c-.28,3.12-.57,6.24-.85,9.36-.3,3.34-.6,6.69-.89,10-.14.64.28.85.67,1.1L15.27,80l15.6,10.1c.7.45.8.4.92-.43.26-1.78.52-3.57.79-5.35C34.18,73.59,35.76,62.9,37.39,52.22Zm-27,16.32A1.57,1.57,0,0,1,8,69.79,5,5,0,0,1,5.53,67,7.38,7.38,0,0,1,5,64.47c0-.21.06-.51.13-.8a1.61,1.61,0,0,1,2.65-1.06,6,6,0,0,1,2.58,4.07A4.48,4.48,0,0,1,10.34,68.54ZM12.43,47a1.62,1.62,0,0,1-2.49,1.31c-1.9-.9-3.35-4.25-2.71-6.27a1.58,1.58,0,0,1,2.57-.89,5.78,5.78,0,0,1,2.46,3.47,4.78,4.78,0,0,1,.24,1.55A7.53,7.53,0,0,1,12.43,47Zm6.33,26.72A1.64,1.64,0,0,1,16.24,75a6.25,6.25,0,0,1-2.72-6.15A1.66,1.66,0,0,1,16.35,68a6.1,6.1,0,0,1,2.44,4.39,4.69,4.69,0,0,1,0,.53h0C18.8,73.21,18.8,73.49,18.76,73.76Zm1.53-20.05A2.1,2.1,0,0,1,18,53.06a6.15,6.15,0,0,1-2-5.35,1.63,1.63,0,0,1,2.7-1.22,6.43,6.43,0,0,1,2.65,5.23A2,2,0,0,1,20.29,53.71Zm7.2,25.68a1.59,1.59,0,0,1-2.56,1.23c-1.94-1.14-2.58-3-2.79-5.12,0-.15,0-.3,0-.45.18-1.78,1.58-2.45,3-1.34A5.88,5.88,0,0,1,27.49,79.39ZM30.2,58a1.58,1.58,0,0,1-2.55,1,6,6,0,0,1-2.64-4,4,4,0,0,1,0-2,1.61,1.61,0,0,1,2.56-1.08,5.84,5.84,0,0,1,2.62,3.87c.1.41.13.84.2,1.26A4,4,0,0,1,30.2,58ZM60.36,29.27a2.46,2.46,0,0,0,2.31,1.91c12.21,1.75,24.4,3.6,36.59,5.42.22,0,.48.14.65-.05s0-.48-.08-.7Q93.68,21.43,87.52,7a1.24,1.24,0,0,0-1-.81Q70.91,3.53,55.35.84L50.47,0c-.66,0-.43.42-.32.72C53.56,10.24,57,19.74,60.36,29.27Zm26.4-4.34a7.36,7.36,0,0,1,5.16,2.63,3.07,3.07,0,0,1,.47.85,1.27,1.27,0,0,1-.9,1.81,3.74,3.74,0,0,1-1.85.06,7.22,7.22,0,0,1-4.41-2.49,1.76,1.76,0,0,1-.47-2C85.14,25.05,85.89,25,86.76,24.93ZM78.55,10.08c.39-.8,1.2-.81,2.16-.83a7,7,0,0,1,5.06,2.69,1.69,1.69,0,0,1,.43,1.81,1.67,1.67,0,0,1-1.7.88,7.15,7.15,0,0,1-5.39-2.43A1.84,1.84,0,0,1,78.55,10.08Zm-6.79,5.36c.38-.81,1.2-.8,2-.8A7,7,0,0,1,79,17.32a1.71,1.71,0,0,1,.37,1.89,1.64,1.64,0,0,1-1.67.81,7.1,7.1,0,0,1-5.37-2.45A1.88,1.88,0,0,1,71.76,15.44Zm-.92,8.7a1.58,1.58,0,0,1,.3,1.82c-.45.77-1.24.74-2.31.75A6.93,6.93,0,0,1,63.9,24a1.54,1.54,0,0,1,1.28-2.67A7,7,0,0,1,70.84,24.14Zm-13-17.76a1.72,1.72,0,0,1,1.73-.85A7,7,0,0,1,65,8.2a1.7,1.7,0,0,1,.42,1.88c-.4.82-1.19.82-2,.84a7.09,7.09,0,0,1-5.26-2.67A1.66,1.66,0,0,1,57.82,6.38ZM68,40.62c-4,1.41-7.94,2.84-11.9,4.26L38.82,51.06a1.27,1.27,0,0,0-1,1.16c-.41,3-.88,6-1.32,8.92q-1.65,11-3.28,22c-.34,2.25-.67,4.51-1,6.9.16.69.66.22,1,.09L61.83,77.93a1.26,1.26,0,0,0,.86-1.08c.79-4.7,1.61-9.39,2.42-14.08Q67,52,68.81,41.28C69,40.34,68.91,40.29,68,40.62ZM43.82,78a7.17,7.17,0,0,1-2.35,4.16c-.58.49-1.23,1-2,.61s-.88-1.18-.9-2.18A7.29,7.29,0,0,1,41,75.69a2.64,2.64,0,0,1,1.11-.61,1.27,1.27,0,0,1,1.66.87A3.87,3.87,0,0,1,43.82,78Zm1-16.85a1.66,1.66,0,0,1-1.81.41,1.71,1.71,0,0,1-.87-1.71,7.27,7.27,0,0,1,2.39-5.34l.05,0c.64-.47,1.32-1,2.14-.55s.79,1.21.81,2.18A7.16,7.16,0,0,1,44.83,61.18Zm6.83,8.12a1.82,1.82,0,0,1-1.94.47,1.74,1.74,0,0,1-.87-1.87,7.09,7.09,0,0,1,2.54-5.25c.58-.48,1.25-1,2-.52s.84,1.19.84,2.24A7.24,7.24,0,0,1,51.66,69.3ZM59.6,71A6.91,6.91,0,0,1,57,76.16a1.76,1.76,0,0,1-1.89.38,1.58,1.58,0,0,1-.82-1.66,7,7,0,0,1,2.81-5.64A1.58,1.58,0,0,1,58.87,69a1.71,1.71,0,0,1,.73,1.63Zm1-15.47a1.61,1.61,0,0,1-1.81.35A1.72,1.72,0,0,1,58,54.19a7.34,7.34,0,0,1,2.35-5.34l0,0c.64-.47,1.31-1,2.13-.6s.82,1.23.87,2.21A7.18,7.18,0,0,1,60.59,55.5ZM4.75,32.64,15,38.29l22,12.2a1.72,1.72,0,0,0,1.56.18Q53,45.47,67.42,40.29c.3-.1.77-.11.81-.45s-.45-.46-.74-.61L54.83,32.75,35.73,23A1.38,1.38,0,0,0,35,22.8l-.47.12L4.82,31.78c-.22.07-.57.06-.62.34S4.53,32.51,4.75,32.64ZM49.55,37a1.35,1.35,0,0,1,1.22-1,8.53,8.53,0,0,1,6.15,1,2.73,2.73,0,0,1,.67.6.92.92,0,0,1-.27,1.56,4.59,4.59,0,0,1-2.47.48,7.88,7.88,0,0,1-4.48-1.26C49.89,38.07,49.4,37.69,49.55,37Zm-8.91,7.65a5.87,5.87,0,0,1-2.43.38,8.42,8.42,0,0,1-4-1.09,3.89,3.89,0,0,1-.66-.49c-.78-.75-.64-1.51.37-1.91a6.81,6.81,0,0,1,4.14-.11A6,6,0,0,1,41,42.77C41.72,43.49,41.59,44.19,40.64,44.65ZM31.75,27a6.49,6.49,0,0,1,4.13-.19,6,6,0,0,1,3,1.35c.83.76.71,1.43-.31,1.9a4.7,4.7,0,0,1-2.19.38,8.45,8.45,0,0,1-4.23-1.1,2.94,2.94,0,0,1-.71-.55A1,1,0,0,1,31.75,27ZM14.51,31.45A5,5,0,0,1,17,31.06,7.75,7.75,0,0,1,21,32a2.8,2.8,0,0,1,1.07.92.87.87,0,0,1-.22,1.31,2.54,2.54,0,0,1-1.17.47,8.59,8.59,0,0,1-5.52-.88,3.45,3.45,0,0,1-.89-.68A1,1,0,0,1,14.51,31.45Zm84.72,5.63c-1.41-.22-2.82-.42-4.24-.63L73,33.17c-3.79-.57-7.59-1.11-11.38-1.71-.87-.14-1,.5-1.25,1s.34.64.65.8L70.18,38a2.11,2.11,0,0,1,1.2,2.36l-2.46,14.3q-1.07,6.15-2.12,12.3c-.08.45-.14.84.52.9q5.85.5,11.66,1a.88.88,0,0,0,1-.49c.45-.72.92-1.43,1.39-2.15q9.12-14.07,18.25-28.15C100.12,37.31,100.08,37.2,99.23,37.08Zm-20,24.07a6.13,6.13,0,0,1-4.86,2.72,8.51,8.51,0,0,1-.9-.06,1.67,1.67,0,0,1-1.3-2.7,6.25,6.25,0,0,1,6-2.57A1.6,1.6,0,0,1,79.26,61.15ZM84.41,53a6.12,6.12,0,0,1-4.59,2.45c-1.16,0-2.12-.07-2.51-1a2.2,2.2,0,0,1,.79-2.49A6.29,6.29,0,0,1,83,50.06a1.83,1.83,0,0,1,1.74,1A1.85,1.85,0,0,1,84.41,53ZM90,44.35a6.17,6.17,0,0,1-4.65,2.38c-1.07,0-2-.08-2.41-1a2.15,2.15,0,0,1,.77-2.43,6.36,6.36,0,0,1,4.88-1.93,2,2,0,0,1,1.85,1.08A1.84,1.84,0,0,1,90,44.35ZM38.89,20.84Q43.92,11,49,1.16c.11-.22.17-.49.46-.57.3.12.34.42.43.67l2.1,5.87c2.78,7.76,5.54,15.53,8.36,23.27.3.84-.13,1.34-.48,1.92-.15.26-.4.12-.6,0-1.38-.7-2.77-1.41-4.16-2.1a.81.81,0,0,1-.47-.71,3.69,3.69,0,0,0-.35-1.3c-.44-.91-1.18-1.06-1.84-.3a1,1,0,0,1-1.39.24c-3.88-2-7.77-4-11.66-6C38.43,21.75,38.43,21.74,38.89,20.84Z"/></g></g></svg>