<svg xmlns="http://www.w3.org/2000/svg" viewBox="0 0 94.71 100"><g id="Layer_2" data-name="Layer 2"><g id="Layer_1-2" data-name="Layer 1"><path d="M57.87,48.46c2.84-6,12.57-42,13.34-48C70.88-.07,70.36,0,69.86,0c-3.33.21-6.65.33-10,.67-8.19.85-16.33,2.12-24.44,3.61-5.05.93-10.06,2-15.07,3.18C18,8,15.67,8.84,13.31,9.54l-.2.07a5.31,5.31,0,0,0-3.88,4c-1.28,4.67-2.76,9.29-3.88,14C3.92,33.62,3,39.7,1.93,45.75,1.27,49.39.75,53.05.21,56.69a6.29,6.29,0,0,0,0,3C9.88,57.21,19.43,54.9,29.07,53S48.3,49.77,57.87,48.46ZM34.78,34c1.19-3.8,6-6.63,9.85-5.62,3.07.81,4.14,2.64,3.65,5.43A4,4,0,0,1,47.84,35a9.07,9.07,0,0,1-3.92,3.93,8.55,8.55,0,0,1-6.3.56A4.31,4.31,0,0,1,34.78,34Zm-11.7-6.85A4.6,4.6,0,0,1,20,20.5a9.6,9.6,0,0,1,2.36-2.8,8.05,8.05,0,0,1,7.51-1.8c2.82.69,4.07,2.68,3.26,5.58a8.36,8.36,0,0,1-4.17,4.89A9.65,9.65,0,0,1,23.08,27.12ZM82.87,87.77c-.57-.92-1.06-1.89-1.63-2.82-2.33-3.75-4.64-7.52-7-11.24-1.4-2.19-2.94-4.3-4.4-6.45s-2.73-4.09-4.11-6.13c-1-1.44-1.95-2.88-3-4.29-1.26-1.76-2.57-3.48-3.87-5.22a7.64,7.64,0,0,0-.63-.67A415.27,415.27,0,0,0,.31,62.29a11.93,11.93,0,0,0,1.81,3.55c1.72,2.6,3.39,5.21,5.14,7.79,1.14,1.67,2.38,3.28,3.58,4.91,1,1.39,2.07,2.78,3.11,4.17.82,1.09,1.62,2.21,2.48,3.28,3.11,3.9,6.28,7.75,9.34,11.68a4.52,4.52,0,0,0,3.51,1.85c2.82.17,5.64.48,8.45.48,5.64,0,11.29-.08,16.93-.29a88,88,0,0,0,8.84-.92c3.43-.48,6.85-1.11,10.26-1.71a42,42,0,0,0,8.17-2.14c1-.39,2.08-.65,3.09-1a6.62,6.62,0,0,0,1.17-.73c-.23-.4-.39-.69-.57-1C84.69,90.72,83.76,89.25,82.87,87.77ZM26.21,75.55a8.15,8.15,0,0,1-9.08-2.3,3.94,3.94,0,0,1,1.31-6.36c1.94-1,4-1,6.53,0a6.16,6.16,0,0,1,3.68,3.74,3.15,3.15,0,0,1,.1,2.12A4.13,4.13,0,0,1,26.21,75.55ZM38.27,92.23c-3,1.2-6.85-.25-8.56-2.13a4,4,0,0,1,0-5.3,5.9,5.9,0,0,1,3.49-1.48,7.26,7.26,0,0,1,7.19,3.46C41.79,89.18,40.32,91.41,38.27,92.23ZM40,74.67a7.43,7.43,0,0,1-6.84-3.47c-.15-.38-.33-.78-.47-1.18a3.44,3.44,0,0,1,1.18-3.87,6.7,6.7,0,0,1,4.47-1.37,13.53,13.53,0,0,1,1.57.26A7.08,7.08,0,0,1,44.43,68a4.18,4.18,0,0,1,.67,3.56,4.11,4.11,0,0,1-2.42,2.56A7.06,7.06,0,0,1,40,74.67ZM56,88.29a3.8,3.8,0,0,1-2.06,2.55,7.47,7.47,0,0,1-9.45-2.78,3.49,3.49,0,0,1-.19-3.4,4.05,4.05,0,0,1,3.34-2.46,11.21,11.21,0,0,1,1.3-.11,11.58,11.58,0,0,1,2.38.34,6.85,6.85,0,0,1,3.91,2.51A4,4,0,0,1,56,88.29ZM55.07,72a8.34,8.34,0,0,1-4.58-1.16,7.24,7.24,0,0,1-2.26-2.31c-.15-.38-.33-.78-.47-1.18a3.43,3.43,0,0,1,1.18-3.87l.72-.45a6.1,6.1,0,0,1,3.75-.92c2.46.27,4.68,1,6.14,3.19a4,4,0,0,1-1.75,6.13A7.1,7.1,0,0,1,55.07,72Zm14,16.19a7.68,7.68,0,0,1-7.37-.59,6.54,6.54,0,0,1-2.07-2.2,3.49,3.49,0,0,1-.19-3.4,5.32,5.32,0,0,1,1.3-1.67,3.62,3.62,0,0,1,2-.79,11.59,11.59,0,0,1,1.3-.11c2.47.12,4.69.77,6.3,2.85A3.85,3.85,0,0,1,69.06,88.23Zm25.34-42c-1.51-3.85-2.9-7.74-4.51-11.54C87,27.89,84,21.15,81,14.37a97.61,97.61,0,0,0-6.4-11.59c-.18-.3-.37-.59-.79-1.25-1.15,3-1.4,5.77-2.17,8.39s-1.31,5.2-2,7.8-1.34,5.34-2,8S66.1,31,65.32,33.65,63.83,38.8,63,41.36s-1.71,5.24-2.58,7.93a17.39,17.39,0,0,0,1,1.66c2.08,2.87,4.22,5.71,6.26,8.6,1.34,1.89,2.56,3.86,3.84,5.79,1,1.57,2.1,3.12,3.14,4.7l5.21,8c.24.37.51.71.72,1.08l6.49,11.06a3,3,0,0,0,.47.48c.16-.19.37-.33.4-.49.62-3.13,1.23-6.25,1.79-9.4.66-3.77,1.32-7.56,1.88-11.36.9-6,1.7-12,2.55-18.07.14-1,.26-2,.44-3A3.72,3.72,0,0,0,94.4,46.23ZM73.79,25.43a2.77,2.77,0,0,1,4.22-1,6,6,0,0,1,.67.56c2.11,2,2.44,4.49,2.17,7.17a6,6,0,0,1-1.22,3.2,2.2,2.2,0,0,1-2.27.93,4.8,4.8,0,0,1-3.58-3c-.15-.39-.36-.84-.51-1.32A8.19,8.19,0,0,1,73.79,25.43Zm1.26,27.34A7.61,7.61,0,0,1,74.29,55,2.85,2.85,0,0,1,70,56.13a4.57,4.57,0,0,1-2-2.19,8.76,8.76,0,0,1-.24-8.15,2.79,2.79,0,0,1,4.55-1A5.82,5.82,0,0,1,74.5,47.6,11.36,11.36,0,0,1,75.05,52.77Zm2.52-.44a10.3,10.3,0,0,1-.88-5,7.9,7.9,0,0,1,.48-2.11c1.09-2.57,3.44-2.93,5.3-.84a8,8,0,0,1,2,4.74,7.66,7.66,0,0,1-1,4.58,2.15,2.15,0,0,1-2.9,1.17A5.17,5.17,0,0,1,77.57,52.33ZM86.79,68.8a7.12,7.12,0,0,1-.7,2,2.58,2.58,0,0,1-3.86,1,4.14,4.14,0,0,1-1.79-2,7.92,7.92,0,0,1-.22-7.38,2.52,2.52,0,0,1,4.12-.91,5.3,5.3,0,0,1,1.94,2.54A10.14,10.14,0,0,1,86.79,68.8ZM92,50a5.45,5.45,0,0,1-.55,1.62,2.06,2.06,0,0,1-3.07.8,3.23,3.23,0,0,1-1.43-1.57,6.28,6.28,0,0,1-.18-5.87A2,2,0,0,1,90,44.19a4.26,4.26,0,0,1,1.55,2A8.14,8.14,0,0,1,92,50Z"/></g></g></svg>