<svg xmlns="http://www.w3.org/2000/svg" viewBox="0 0 100 98.1"><defs><style>.cls-1{fill-rule:evenodd;}</style></defs><g id="Layer_2" data-name="Layer 2"><g id="Layer_1-2" data-name="Layer 1"><path class="cls-1" d="M6.6,22.32A1.22,1.22,0,0,1,7.9,21.2h0a7.41,7.41,0,0,0,4.1-.75,6.64,6.64,0,0,0,2.76-2.86,1.21,1.21,0,0,1,2.27.69h0a6.64,6.64,0,0,0,1,3.8,7.31,7.31,0,0,0,3.16,2.71h0a1.21,1.21,0,0,1-.74,2.28c-.7-.06-5.1-.23-6.76,3.67a1.2,1.2,0,0,1-2.29-.68c.5-4.21-3.43-6.27-4-6.53A1.22,1.22,0,0,1,6.6,22.32ZM33.12,6.59c.55.27,4.49,2.32,4,6.54a1.21,1.21,0,0,0,2.3.67c1.66-3.89,6.06-3.72,6.76-3.67a1.21,1.21,0,0,0,.74-2.28h0a7.44,7.44,0,0,1-3.16-2.72,6.69,6.69,0,0,1-.95-3.8h0A1.2,1.2,0,0,0,40.51.66a6.74,6.74,0,0,1-2.77,2.86,7.28,7.28,0,0,1-4.09.74h0a1.21,1.21,0,0,0-.53,2.33ZM49.48,91.41h0a7.44,7.44,0,0,1-3.16-2.72,6.69,6.69,0,0,1-1-3.8h0a1.21,1.21,0,0,0-2.28-.68,6.64,6.64,0,0,1-2.76,2.86,7.28,7.28,0,0,1-4.09.74h0a1.21,1.21,0,0,0-.53,2.33c.55.27,4.49,2.32,4,6.54a1.21,1.21,0,0,0,2.3.67c1.66-3.89,6.05-3.72,6.76-3.67a1.21,1.21,0,0,0,.74-2.28ZM99.32,72.79h0a7.25,7.25,0,0,1-3.16-2.71,6.64,6.64,0,0,1-1-3.8h0a1.2,1.2,0,0,0-2.27-.69,6.64,6.64,0,0,1-2.76,2.86,7.33,7.33,0,0,1-4.1.74h0a1.22,1.22,0,0,0-1.3,1.11,1.2,1.2,0,0,0,.77,1.22c.56.27,4.49,2.33,4,6.54a1.21,1.21,0,0,0,2.3.68c1.66-3.9,6.06-3.73,6.76-3.68a1.2,1.2,0,0,0,.74-2.27ZM56.71,16.63a5,5,0,0,0,0,10.07h0a5,5,0,0,0,3.49-1.41l.07-.07a5,5,0,0,0-3.56-8.59Zm22.47,0a5,5,0,0,0-5,5h0a5.05,5.05,0,0,0,5,5,5,5,0,0,0,3.49-1.41l.07-.07a5,5,0,0,0-3.56-8.59Zm0,27.42a5,5,0,0,0,3.48-1.41l.07-.07a5,5,0,0,0,0-7.12,5,5,0,0,0-7.12,0,5,5,0,0,0,3.56,8.6ZM56.71,34a5,5,0,1,0,3.49,8.66l.07-.07h0A5,5,0,0,0,56.71,34Zm3.56,17.4a5,5,0,1,0-.07,7.19l.07-.07a5,5,0,0,0,0-7.12ZM79.18,49.9a5.05,5.05,0,1,0,3.56,1.48A5,5,0,0,0,79.18,49.9ZM88.7,62.24a6.14,6.14,0,0,1-4.35,1.81H51.55a6.18,6.18,0,0,1-6.16-6.16V18.68a6.18,6.18,0,0,1,6.16-6.16h32.8a6.18,6.18,0,0,1,6.16,6.16V57.89A6.14,6.14,0,0,1,88.7,62.24Zm-24.54-7.3a7.45,7.45,0,1,0-7.45,7.45,7.61,7.61,0,0,0,5.1-2l.17-.15a7.44,7.44,0,0,0,2.18-5.27Zm0-15.93a7.45,7.45,0,1,0-7.45,7.45,7.6,7.6,0,0,0,5.1-2l.17-.16A7.44,7.44,0,0,0,64.16,39Zm0-17.35a7.45,7.45,0,1,0-7.45,7.45,7.6,7.6,0,0,0,5.1-2h0l.17-.16A7.44,7.44,0,0,0,64.16,21.66ZM86.64,54.94a7.46,7.46,0,1,0-2.19,5.27A7.45,7.45,0,0,0,86.64,54.94ZM73.92,44.28a7.42,7.42,0,0,0,5.26,2.18h0a7.6,7.6,0,0,0,5.1-2l.17-.16a7.46,7.46,0,1,0-10.53,0ZM86.64,21.66a7.45,7.45,0,1,0-7.46,7.45,7.6,7.6,0,0,0,5.1-2l.17-.16a7.45,7.45,0,0,0,2.19-5.27Zm-26.22,52a1.21,1.21,0,0,1-.72,1.55l-.09,0L14.31,91.82h0a1.2,1.2,0,0,1-1.55-.72l0-.08L.08,56.43h0a1.22,1.22,0,0,1,.72-1.55l.09,0L43,39.45v8a7.27,7.27,0,0,0-2.41-1.79,7.76,7.76,0,0,0-5.45-.32h0l-.44.16a7.61,7.61,0,0,0-4,3.78,7.76,7.76,0,0,0-.32,5.45v0c.05.15.1.29.16.44a7.44,7.44,0,0,0,9.25,4.29l.22-.07a6.59,6.59,0,0,0,3-1.87v.31a8.54,8.54,0,0,0,.72,3.43,7.91,7.91,0,0,0-2.64.36A18.75,18.75,0,0,0,38.67,63a7.53,7.53,0,0,0-2,2.63,7.73,7.73,0,0,0-.31,5.48,1.72,1.72,0,0,1,.07.21,6.31,6.31,0,0,0,3.87,4.2,7.44,7.44,0,0,0,10.2-9.1,9.82,9.82,0,0,0,1.09.06h6.23l2.64,7.21Zm-41.54-6.5a7.45,7.45,0,0,0,4.44-9.55h0a7.46,7.46,0,0,0-3.86-4.21A7.73,7.73,0,0,0,14,53.1l-.21.07c-2,1.13-3.16,1.64-4.2,3.87-1.47,3.17-.53,5.18,1,7.85a7.45,7.45,0,0,0,8.32,2.28Zm10.48,7a1.72,1.72,0,0,1-.07-.21,6.31,6.31,0,0,0-3.87-4.2,7.45,7.45,0,0,0-9.89,3.62A7.72,7.72,0,0,0,15.29,79c1.13,2,1.63,3.17,3.86,4.2a7.68,7.68,0,0,0,5.48.32l.22-.08A6.3,6.3,0,0,0,29,79.6,7.68,7.68,0,0,0,29.36,74.12Zm9.47-7.49a5,5,0,0,0-.2,3.75l0,.09h0a5,5,0,0,0,6.45,3,5,5,0,0,0,3-6.45,5,5,0,0,0-6.36-3l-.1,0h0A5,5,0,0,0,38.83,66.63ZM27,74.74h0a5,5,0,0,0-9.48,3.36l0,.1h0a5,5,0,0,0,6.36,3l.1,0h0a5,5,0,0,0,3-6.35ZM20.89,62.29a5,5,0,0,0-6.19-6.88l-.1,0h0a5,5,0,0,0-3,6.35l0,.1h0a5,5,0,0,0,9.29.39ZM42,54.57a5,5,0,0,0-6.2-6.88h0l-.16.06a5,5,0,0,0-2.93,6.32v0h0l.06.16h0a5,5,0,0,0,6.32,2.93l.1,0h0A5.07,5.07,0,0,0,42,54.57Z"/></g></g></svg>