<svg xmlns="http://www.w3.org/2000/svg" viewBox="0 0 86.82 100"><g id="Layer_2" data-name="Layer 2"><g id="Layer_1-2" data-name="Layer 1"><path d="M22.48,56a4.13,4.13,0,0,0-4.22-.34,4.14,4.14,0,0,0-1.82,3.82A11.48,11.48,0,0,0,21.7,68.6a5.17,5.17,0,0,0,2.57.78A3.37,3.37,0,0,0,25.93,69a4.16,4.16,0,0,0,1.81-3.83A11.46,11.46,0,0,0,22.48,56ZM25.15,67.6a2.7,2.7,0,0,1-2.67-.35A10.08,10.08,0,0,1,18,59.49,2.68,2.68,0,0,1,19,57a1.74,1.74,0,0,1,.88-.22,3.66,3.66,0,0,1,1.78.56,10.07,10.07,0,0,1,4.48,7.76A2.71,2.71,0,0,1,25.15,67.6ZM86.43,24.71h0L43.8.1A.83.83,0,0,0,43,.1L.39,24.71h0a.79.79,0,0,0-.39.68V74.61a.79.79,0,0,0,.39.68L43,99.9a.78.78,0,0,0,.39.1.87.87,0,0,0,.39-.1L86.43,75.29a.79.79,0,0,0,.39-.68V25.39A.79.79,0,0,0,86.43,24.71Zm-43-23L84.47,25.39,53.67,43.17,43.41,49.1,2.34,25.39ZM1.56,26.74l25,14.45,16.05,9.26V97.87L1.56,74.16V26.74ZM44.19,97.87V50.45L85.26,26.74V74.16Zm11-19.12a4.13,4.13,0,0,0-4.22.34,11.46,11.46,0,0,0-5.26,9.11A4.16,4.16,0,0,0,47.56,92a3.26,3.26,0,0,0,1.66.43,5.17,5.17,0,0,0,2.57-.78,11.48,11.48,0,0,0,5.26-9.11A4.14,4.14,0,0,0,55.23,78.75ZM51,90.33a2.72,2.72,0,0,1-2.67.35,2.73,2.73,0,0,1-1-2.48,10.05,10.05,0,0,1,4.48-7.76,3.69,3.69,0,0,1,1.78-.57,1.82,1.82,0,0,1,.88.22,2.71,2.71,0,0,1,1,2.48A10.08,10.08,0,0,1,51,90.33ZM81.88,32.59a4.13,4.13,0,0,0-4.22.34A11.46,11.46,0,0,0,72.4,42a4.14,4.14,0,0,0,1.81,3.82,3.26,3.26,0,0,0,1.66.43,5.15,5.15,0,0,0,2.57-.77,11.46,11.46,0,0,0,5.26-9.11A4.14,4.14,0,0,0,81.88,32.59ZM77.66,44.17A2.21,2.21,0,0,1,74,42a10.05,10.05,0,0,1,4.48-7.76,3.61,3.61,0,0,1,1.78-.57,1.82,1.82,0,0,1,.88.22,2.71,2.71,0,0,1,1,2.48A10.05,10.05,0,0,1,77.66,44.17Zm-29-15.29a4.18,4.18,0,0,0,2.41-3.49,4.18,4.18,0,0,0-2.41-3.49,11.49,11.49,0,0,0-10.52,0,4.18,4.18,0,0,0-2.41,3.49,4.18,4.18,0,0,0,2.41,3.49,11.53,11.53,0,0,0,10.52,0ZM37.3,25.39a2.72,2.72,0,0,1,1.63-2.14,10.08,10.08,0,0,1,9,0,2.72,2.72,0,0,1,1.63,2.14,2.69,2.69,0,0,1-1.63,2.13,10,10,0,0,1-9,0A2.69,2.69,0,0,1,37.3,25.39ZM22,21.9a11.49,11.49,0,0,0-10.52,0,4.16,4.16,0,0,0-2.41,3.49,4.16,4.16,0,0,0,2.41,3.49,10.72,10.72,0,0,0,5.26,1.28A10.75,10.75,0,0,0,22,28.88a4.18,4.18,0,0,0,2.41-3.49A4.18,4.18,0,0,0,22,21.9Zm-.78,5.63a10.08,10.08,0,0,1-9,0,2.72,2.72,0,0,1-1.63-2.14,2.72,2.72,0,0,1,1.63-2.14,9.21,9.21,0,0,1,4.48-1.05,9.24,9.24,0,0,1,4.48,1.05,2.72,2.72,0,0,1,1.63,2.14A2.72,2.72,0,0,1,21.24,27.53ZM64.8,28.88a11.53,11.53,0,0,0,10.52,0,4.18,4.18,0,0,0,2.41-3.49,4.18,4.18,0,0,0-2.41-3.49,11.49,11.49,0,0,0-10.52,0,4.18,4.18,0,0,0-2.41,3.49A4.18,4.18,0,0,0,64.8,28.88Zm.78-5.63a10.08,10.08,0,0,1,9,0,2.72,2.72,0,0,1,1.63,2.14,2.69,2.69,0,0,1-1.63,2.13,10,10,0,0,1-9,0A2.69,2.69,0,0,1,64,25.39,2.72,2.72,0,0,1,65.58,23.25Z"/></g></g></svg>