<svg xmlns="http://www.w3.org/2000/svg" viewBox="0 0 95.24 100"><g id="Layer_2" data-name="Layer 2"><g id="Layer_1-2" data-name="Layer 1"><path d="M58,4.77a1.39,1.39,0,0,1,1.76-.9L62,4.59a1.4,1.4,0,0,1-.43,2.73,1.29,1.29,0,0,1-.43-.07l-2.22-.72A1.4,1.4,0,0,1,58,4.77Zm8.67,4.28,2.22.73a1.59,1.59,0,0,0,.43.06,1.39,1.39,0,0,0,.43-2.72l-2.22-.73a1.41,1.41,0,0,0-1.76.9A1.39,1.39,0,0,0,66.66,9.05ZM12.22,77.53A1.4,1.4,0,1,0,10,79.18l1.48,2a1.38,1.38,0,0,0,1.13.58,1.4,1.4,0,0,0,1.13-2.22ZM7.05,70.41a1.4,1.4,0,1,0-2.26,1.65l1.47,2a1.4,1.4,0,0,0,1.13.58,1.42,1.42,0,0,0,.83-.27,1.4,1.4,0,0,0,.31-2ZM95.24,35.07V65a1.37,1.37,0,0,1-.27.82L77.32,90.14h0l0,.06,0,0,0,.06,0,0,0,0-.1.08h0l-.06,0,0,0-.07,0h0l-.09,0h0l-.1,0h0L48.05,99.93a1.25,1.25,0,0,1-.43.07,1.29,1.29,0,0,1-.43-.07L18.62,90.65h0l-.11,0h0l-.08,0,0,0-.09-.06h0l-.1-.09h0L18,90.28l0,0L18,90.18v0l0,0-2-2.71v0l-.81-1.11a1.4,1.4,0,1,1,2.26-1.65l.82,1.13v0L19,86.92,31.78,69,23.39,43.14,2.8,36.87V64.56l.55.77A1.4,1.4,0,1,1,1.09,67L.27,65.84v0a.18.18,0,0,1-.05-.07l0,0,0-.08s0,0,0,0l0-.09,0,0,0-.1v0s0-.07,0-.1v0a.28.28,0,0,0,0-.09V35H0a.49.49,0,0,1,0-.12v0s0-.06,0-.09v0a.29.29,0,0,0,0-.09v0h0l.05-.12v0l0-.08,0,0,0-.06,0,0h0L17.92,9.86a1.42,1.42,0,0,1,.7-.51L47.19.07h0l.07,0h.05l.07,0h.55l.08,0,0,0h0l4.8,1.56h0l1.33.44a1.4,1.4,0,0,1-.44,2.73,1.68,1.68,0,0,1-.43-.07L52,4.3h0l-3-1V24.5l22,16,20.55-6.26L75.32,11.87l-.89-.29a1.4,1.4,0,0,1,.86-2.66l1.33.43a1.41,1.41,0,0,1,.75.58L94.92,34.08a1.44,1.44,0,0,1,.26.49A1.46,1.46,0,0,1,95.24,35.07ZM3.68,34.21l20.56,6.26,22-16V3.32l-26.3,8.55Zm22.46,8.33L34.35,67.8H60.9l8.2-25.26L58.52,34.85l-10.9-7.91-10.9,7.92ZM74,88.58l-12.76-18H34.05l-12.75,18,26.32,8.55Zm18.49-24V36.87L71.85,43.14,63.46,69l12.74,18Zm-81.72.24A4.85,4.85,0,0,0,14,64.66a13.83,13.83,0,0,0,1.48-.57,2.36,2.36,0,0,0,.84-.65,2,2,0,0,0,.4-1,1.62,1.62,0,0,0,1.12.65,3.94,3.94,0,0,0,1.65-.25c2.26-.73,3-2.17,2.33-4.33a3.48,3.48,0,0,0-1.63-2.22,3.72,3.72,0,0,0-2.82,0l-.44.16.85,2.63.39-.13.44-.08a1.43,1.43,0,0,1,.54,0c.15,0,.26.18.35.44.13.41-.16.73-.88,1a1.26,1.26,0,0,1-1.07,0,1.57,1.57,0,0,1-.64-.92l-2.27.74a1.3,1.3,0,0,1,.1.24c.23.72-.2,1.26-1.29,1.61l-.31.1c-.38.13-.68.21-.89.26a1.26,1.26,0,0,1-.58,0,.52.52,0,0,1-.36-.38.6.6,0,0,1,.12-.69,2.3,2.3,0,0,1,.85-.44l1.32-.43-.84-2.6-1.33.43A4.21,4.21,0,0,0,9,59.79a3.27,3.27,0,0,0-.08,2.72A3.36,3.36,0,0,0,10.72,64.8Zm74.42-6a13.32,13.32,0,0,0-2.68-1.14,7.48,7.48,0,0,0-3.36-.45A2.34,2.34,0,0,0,77.28,59a1.68,1.68,0,0,0-.08.79,1.63,1.63,0,0,0,.24.65l-1.78-.58,1.18-3.62-2.38-.78-2,6,6.74,2.19L80,61.34c-.7-.22-1-.58-.82-1.06a.54.54,0,0,1,.53-.41,3.37,3.37,0,0,1,1,.19l2.49.81a1.67,1.67,0,0,1,.7.38.6.6,0,0,1,.08.61.56.56,0,0,1-.55.42,3,3,0,0,1-1.06-.2l-1.08-.35-.86,2.64,1.88.61a2.83,2.83,0,0,0,2.5-.18,3.86,3.86,0,0,0,1.53-2.18,3.54,3.54,0,0,0,.11-2.36A3,3,0,0,0,85.14,58.75ZM43.31,47.12a6.84,6.84,0,0,1,1-4,3.68,3.68,0,0,1,3.25-1.4,5.14,5.14,0,0,1,2.62.57A3,3,0,0,1,51.53,44a9,9,0,0,1,.4,3v4.38a20.4,20.4,0,0,1-.3,4,3.68,3.68,0,0,1-1.27,2.21,4.62,4.62,0,0,1-2.91.77,5,5,0,0,1-1.93-.37,3.28,3.28,0,0,1-1.41-1.09,2.88,2.88,0,0,1-.53-1.74V53.33H46.7v.32a4.37,4.37,0,0,0,.15,1.29.63.63,0,0,0,.66.47.9.9,0,0,0,.75-.29,1.52,1.52,0,0,0,.21-.88V51a1.69,1.69,0,0,1-.7.7,2.17,2.17,0,0,1-1.11.26,3.45,3.45,0,0,1-2-.52,2.77,2.77,0,0,1-1-1.57A10.72,10.72,0,0,1,43.31,47.12Zm3.55.64c0,.88.26,1.32.76,1.32s.85-.38.85-1.15v-2c0-.79-.27-1.19-.81-1.19a.6.6,0,0,0-.65.41,4.08,4.08,0,0,0-.15,1.31Zm-4.67,30.7a3.65,3.65,0,0,1-1.35.54v2.12a2.16,2.16,0,0,0,.9-.2,1.81,1.81,0,0,0,.74-.53V90.66H45.3V77.32H43.16A2.43,2.43,0,0,1,42.19,78.46Zm9.12,8.66c.24-.33.53-.7.88-1.13q.73-.9,1.17-1.56a7,7,0,0,0,.74-1.56,6,6,0,0,0,.31-2,3.63,3.63,0,0,0-.92-2.65,3.43,3.43,0,0,0-2.59-.94,3.87,3.87,0,0,0-2.14.51,2.64,2.64,0,0,0-1.08,1.49,8.27,8.27,0,0,0-.31,2.49l0,.83h2.8V81c0-.8.23-1.2.67-1.2a.56.56,0,0,1,.56.31,1.91,1.91,0,0,1,.15.84,4.93,4.93,0,0,1-.28,1.7A6.69,6.69,0,0,1,50.6,84q-.41.6-1.11,1.47c-.45.56-.82,1-1.1,1.46a6.48,6.48,0,0,0-.71,1.39A4.87,4.87,0,0,0,47.4,90v.64h6.91V88.15H50.69A10,10,0,0,1,51.31,87.12ZM67.66,26.34a4.86,4.86,0,0,1,1.23-1.21,6,6,0,0,1,1.38-.71c.46-.17,1-.35,1.76-.54s1.28-.36,1.75-.53a6.14,6.14,0,0,0,1.39-.72,4.66,4.66,0,0,0,1.23-1.2l.37-.51-5.6-4.07-1.47,2L72.63,21a9.22,9.22,0,0,1-1.11.46c-.38.13-.84.26-1.37.4-.75.2-1.37.39-1.87.58a6.69,6.69,0,0,0-1.52.82,6,6,0,0,0-1.41,1.44,3.65,3.65,0,0,0-.83,2.69,3.51,3.51,0,0,0,1.55,2.28,3.87,3.87,0,0,0,2,.84A2.65,2.65,0,0,0,69.85,30a8.1,8.1,0,0,0,1.72-1.83l.46-.69-2.27-1.65-1,1.32c-.46.64-.88.84-1.24.58a.58.58,0,0,1-.27-.58A1.84,1.84,0,0,1,67.66,26.34Zm-1.4-13.06L58.42,24.07l1.73,1.26A2.47,2.47,0,0,1,61.6,25a3.58,3.58,0,0,1,1.42.36l1.24-1.72a2.28,2.28,0,0,0-.85-.37,1.83,1.83,0,0,0-.9,0l6-8.3ZM23.47,22.21a4.87,4.87,0,0,1-1.14-3,3.17,3.17,0,0,1,1.54-2.4,3.2,3.2,0,0,1,2.76-.73,4.9,4.9,0,0,1,2.48,2l.52.71a4.48,4.48,0,0,1,.77,1.51,1.75,1.75,0,0,1-.17,1.28,1.56,1.56,0,0,1,1.18.15,3.49,3.49,0,0,1,1.08,1l.21.29a3.36,3.36,0,0,1,.8,2.58,3.68,3.68,0,0,1-1.62,2.2,3.63,3.63,0,0,1-2.61.85A3.56,3.56,0,0,1,27,27.1a4.62,4.62,0,0,1-.77-1.49,1.54,1.54,0,0,1,.18-1.25,1.72,1.72,0,0,1-1.38-.31,7.74,7.74,0,0,1-1.39-1.55A1.44,1.44,0,0,1,23.47,22.21Zm5.71,3.14a1.89,1.89,0,0,0,.63.58.59.59,0,0,0,.86-.63,1.78,1.78,0,0,0-.36-.77c-.5-.69-.93-.89-1.31-.62S28.68,24.66,29.18,25.35ZM25.6,20.47,26,21a4.57,4.57,0,0,0,.82.92.57.57,0,0,0,.75,0,.57.57,0,0,0,.21-.66,2.82,2.82,0,0,0-.46-.92l-.24-.3L27,20l-.23-.34c-.52-.71-1-.93-1.36-.64S25.08,19.76,25.6,20.47Z"/></g></g></svg>