<svg xmlns="http://www.w3.org/2000/svg" viewBox="0 0 100 89.8"><g id="Layer_2" data-name="Layer 2"><g id="Layer_1-2" data-name="Layer 1"><path d="M0,89.8H69.1V20H0ZM34.53,45.66a9.25,9.25,0,1,1-9.14,9.27A9.24,9.24,0,0,1,34.53,45.66ZM70.22,20V89.8L100,70.93V1.13Zm7,56.25C75.43,77.4,74,74.9,74,70.62s1.46-8.62,3.3-9.75,3.25,1.36,3.25,5.59S79.06,75.09,77.27,76.26Zm7.86-23.07c-1.83,1.13-3.3-1.37-3.3-5.64s1.47-8.62,3.3-9.8,3.26,1.4,3.26,5.64S86.93,52,85.13,53.19ZM93,30.11c-1.84,1.14-3.3-1.36-3.3-5.64s1.46-8.62,3.3-9.79,3.25,1.4,3.25,5.63S94.79,28.94,93,30.11ZM29.78,0,0,18.88H69.1L98.91,0Zm1.31,14.34c-1.8,1.13-6.71,2.08-10.9,2.08s-6.18-1-4.35-2.08,6.71-2.08,10.9-2.08S32.92,13.16,31.09,14.34Zm26-4.92c-1.84,1.17-6.71,2.12-10.94,2.12S40,10.59,41.83,9.42s6.71-2.08,10.9-2.08S58.88,8.28,57.08,9.42Zm26-4.88c-1.83,1.17-6.7,2.08-10.94,2.08S66,5.71,67.79,4.54s6.7-2.08,10.94-2.08S84.87,3.4,83.07,4.54Z"/></g></g></svg>