<svg xmlns="http://www.w3.org/2000/svg" viewBox="0 0 86.81 100"><g id="Layer_2" data-name="Layer 2"><g id="Layer_1-2" data-name="Layer 1"><path d="M22.48,56a4.16,4.16,0,0,0-4.22-.35,4.17,4.17,0,0,0-1.82,3.83A11.46,11.46,0,0,0,21.7,68.6a5.17,5.17,0,0,0,2.57.78,3.27,3.27,0,0,0,1.66-.44,4.14,4.14,0,0,0,1.81-3.82A11.46,11.46,0,0,0,22.48,56Zm2.67,11.58a2.69,2.69,0,0,1-2.67-.34A10.08,10.08,0,0,1,18,59.49,2.68,2.68,0,0,1,19,57a1.72,1.72,0,0,1,.88-.22,3.66,3.66,0,0,1,1.78.56,10.07,10.07,0,0,1,4.48,7.76A2.68,2.68,0,0,1,25.15,67.59ZM64.79,28.88a11.53,11.53,0,0,0,10.52,0,4.16,4.16,0,0,0,2.41-3.49,4.16,4.16,0,0,0-2.41-3.49,11.49,11.49,0,0,0-10.52,0,4.16,4.16,0,0,0-2.4,3.49A4.16,4.16,0,0,0,64.79,28.88Zm.78-5.63a10.08,10.08,0,0,1,9,0,2.72,2.72,0,0,1,1.63,2.14,2.69,2.69,0,0,1-1.63,2.13,10,10,0,0,1-9,0A2.7,2.7,0,0,1,64,25.39,2.7,2.7,0,0,1,65.57,23.25ZM38.15,13.49a10.7,10.7,0,0,0,5.26,1.28,10.75,10.75,0,0,0,5.26-1.28A4.15,4.15,0,0,0,51.07,10a4.14,4.14,0,0,0-2.4-3.48,11.46,11.46,0,0,0-10.52,0A4.13,4.13,0,0,0,35.74,10,4.16,4.16,0,0,0,38.15,13.49Zm.77-5.62a10,10,0,0,1,9,0A2.69,2.69,0,0,1,49.51,10a2.72,2.72,0,0,1-1.63,2.14,10.08,10.08,0,0,1-9,0A2.7,2.7,0,0,1,37.3,10,2.7,2.7,0,0,1,38.92,7.87ZM22,21.9a11.49,11.49,0,0,0-10.52,0,4.16,4.16,0,0,0-2.41,3.49,4.15,4.15,0,0,0,2.41,3.48,10.59,10.59,0,0,0,5.26,1.28A10.64,10.64,0,0,0,22,28.87a4.15,4.15,0,0,0,2.41-3.48A4.2,4.2,0,0,0,22,21.9Zm-.78,5.62a10,10,0,0,1-9,0,2.69,2.69,0,0,1-1.63-2.13,2.72,2.72,0,0,1,1.63-2.14,10.08,10.08,0,0,1,9,0,2.72,2.72,0,0,1,1.63,2.14A2.71,2.71,0,0,1,21.24,27.52ZM48.67,44.26a4.15,4.15,0,0,0,2.4-3.48,4.14,4.14,0,0,0-2.4-3.49,11.46,11.46,0,0,0-10.52,0,4.13,4.13,0,0,0-2.41,3.49,4.13,4.13,0,0,0,2.41,3.48,11.45,11.45,0,0,0,10.52,0Zm-9.74-1.35a2.7,2.7,0,0,1-1.63-2.13,2.69,2.69,0,0,1,1.63-2.14,10.08,10.08,0,0,1,9,0,2.67,2.67,0,0,1,1.62,2.14,2.69,2.69,0,0,1-1.62,2.13A10.08,10.08,0,0,1,38.93,42.91ZM86.81,25.39h0a.79.79,0,0,0-.39-.68L43.79.1A.83.83,0,0,0,43,.1L.39,24.71a.79.79,0,0,0-.39.68H0V74.61a.79.79,0,0,0,.39.68L43,99.89h0a.82.82,0,0,0,.4.1.94.94,0,0,0,.39-.1L86.42,75.29a.79.79,0,0,0,.39-.68V25.4ZM43.41,1.68,84.47,25.39,43.41,49.1,2.34,25.39ZM1.56,26.74,42.62,50.45V97.87L1.56,74.16ZM85.25,74.16,44.18,97.87V50.45l41.07-23.7ZM60.88,69a3.26,3.26,0,0,0,1.66.43,5.25,5.25,0,0,0,2.57-.77,11.49,11.49,0,0,0,5.26-9.11,3.73,3.73,0,0,0-6-3.49,11.46,11.46,0,0,0-5.26,9.11A4.16,4.16,0,0,0,60.88,69Zm4.23-11.59a3.69,3.69,0,0,1,1.78-.56,1.69,1.69,0,0,1,.88.22,2.68,2.68,0,0,1,1,2.47,10.05,10.05,0,0,1-4.48,7.76,2.21,2.21,0,0,1-3.7-2.13A10.07,10.07,0,0,1,65.11,57.36Zm9.1-11.49a3.26,3.26,0,0,0,1.66.43,5.22,5.22,0,0,0,2.56-.77,11.49,11.49,0,0,0,5.26-9.11,3.73,3.73,0,0,0-6-3.49A11.47,11.47,0,0,0,72.39,42,4.17,4.17,0,0,0,74.21,45.87Zm4.22-11.59a3.72,3.72,0,0,1,1.78-.56,1.75,1.75,0,0,1,.89.22,2.72,2.72,0,0,1,1,2.48,10.08,10.08,0,0,1-4.48,7.76A2.22,2.22,0,0,1,74,42,10.07,10.07,0,0,1,78.43,34.28Zm-30.87,27a3.37,3.37,0,0,0,1.66.43,5.13,5.13,0,0,0,2.56-.78A11.46,11.46,0,0,0,57,51.8a3.72,3.72,0,0,0-6-3.48,11.43,11.43,0,0,0-5.26,9.11A4.14,4.14,0,0,0,47.56,61.26Zm4.22-11.59a3.64,3.64,0,0,1,1.78-.57,1.76,1.76,0,0,1,.89.23,2.7,2.7,0,0,1,1,2.47A10.05,10.05,0,0,1,51,59.56a2.67,2.67,0,0,1-2.66.34,2.68,2.68,0,0,1-1-2.47A10.05,10.05,0,0,1,51.78,49.67ZM47.56,92a3.26,3.26,0,0,0,1.66.43,5.13,5.13,0,0,0,2.56-.78A11.45,11.45,0,0,0,57,82.58a3.72,3.72,0,0,0-6-3.49,11.43,11.43,0,0,0-5.26,9.11A4.14,4.14,0,0,0,47.56,92Zm4.22-11.59a3.72,3.72,0,0,1,1.78-.56,1.75,1.75,0,0,1,.89.22,2.68,2.68,0,0,1,1,2.47A10.05,10.05,0,0,1,51,90.33a2.67,2.67,0,0,1-2.66.34,2.68,2.68,0,0,1-1-2.47A10.05,10.05,0,0,1,51.78,80.44Zm22.43-3.8a3.26,3.26,0,0,0,1.66.43,5.22,5.22,0,0,0,2.56-.77,11.47,11.47,0,0,0,5.26-9.11,3.73,3.73,0,0,0-6-3.49,11.47,11.47,0,0,0-5.26,9.11A4.17,4.17,0,0,0,74.21,76.64Zm4.22-11.59a3.72,3.72,0,0,1,1.78-.56,1.75,1.75,0,0,1,.89.22,2.73,2.73,0,0,1,1,2.48A10.07,10.07,0,0,1,77.65,75a2.67,2.67,0,0,1-2.66.34,2.71,2.71,0,0,1-1-2.48A10.07,10.07,0,0,1,78.43,65.05Z"/></g></g></svg>