<svg xmlns="http://www.w3.org/2000/svg" viewBox="0 0 100 89.88"><g id="Layer_2" data-name="Layer 2"><g id="Layer_1-2" data-name="Layer 1"><path d="M97.34,24.38l-1.06-.5Q84.69,18.6,73.1,13.32L44.85.53A5.27,5.27,0,0,0,41,.24c-3.69,1.13-7.39,2.21-11.06,3.38-2.71.85-5,2.19-6.25,5-2.47,5.54-5,11-7.52,16.56q-7.75,17-15.52,34c-1.39,3-.42,5.65,2.63,7.06,4.14,1.93,8.31,3.82,12.46,5.72l36.85,16.9a12.67,12.67,0,0,0,4.76,1.1,14,14,0,0,0,4.42-.81c3.53-1.21,7-2.45,10.59-3.59a5.25,5.25,0,0,0,3.32-3Q84.22,63.71,92.83,45c2.26-4.92,4.52-9.84,6.71-14.79A4.16,4.16,0,0,0,97.34,24.38ZM28.79,6.28c.05-.81,1.05-.73,1.65-.94,3.13-1.07,6.27-2.1,9.41-3.14a6.43,6.43,0,0,1,2.61-.46,5.49,5.49,0,0,1,2.68.58L77.24,17c6.14,2.79,12.28,5.57,18.4,8.39.54.25,1.46.27,1.4,1.11s-.94.68-1.48.87c-3.44,1.17-6.9,2.27-10.32,3.47a5.21,5.21,0,0,1-4.13-.19q-12.48-5.76-25-11.43Q43.22,13.34,30.36,7.45C29.76,7.17,28.73,7.15,28.79,6.28Zm26.36,81.6a2.86,2.86,0,0,1-1.31-.33L17,70.74Q10.62,67.86,4.3,65c-2-.93-2.83-2.2-2.64-4.06a6,6,0,0,1,.61-1.84q10.94-24,21.88-47.93c.33-.74.66-1.48,1-2.21.67-1.36,1.29-1.59,2.65-1l14.41,6.59L76.63,30.23,80.53,32c1.26.57,1.4.92.83,2.18q-3,6.72-6.12,13.45L59.68,81.77c-.67,1.47-1.34,3-2,4.42A2.69,2.69,0,0,1,55.15,87.88ZM98,29.71Q88.27,51.07,78.51,72.42q-2,4.42-4,8.85a5.21,5.21,0,0,1-3.28,3c-3.73,1.21-7.45,2.46-11.17,3.69a4.32,4.32,0,0,1-.53.15c-.89,0-.81-.47-.56-1l3.5-7.7Q72.38,57.53,82.3,35.72A6.2,6.2,0,0,1,86.42,32c3.54-1,7-2.28,10.54-3.43.38-.12.83-.41,1.17,0S98.17,29.33,98,29.71ZM25.74,54.34a5.16,5.16,0,1,1-5.17-5.15A5.24,5.24,0,0,1,25.74,54.34Zm16.62-3.8a5.3,5.3,0,0,1-5.13-5.19,5.17,5.17,0,1,1,5.13,5.19ZM55.09,67.69A5.29,5.29,0,0,1,50,72.91a5.17,5.17,0,1,1-.11-10.33A5.26,5.26,0,0,1,55.09,67.69ZM38.24,26.87a5.18,5.18,0,0,1-5.19,5.19,5.17,5.17,0,0,1,.05-10.33A5.18,5.18,0,0,1,38.24,26.87Zm24.17,18.5a5.12,5.12,0,1,1,5.19-5A5.07,5.07,0,0,1,62.41,45.37ZM75.81,71.7a8.91,8.91,0,0,1-3,6.07,2.12,2.12,0,0,1-2.4.59,2.17,2.17,0,0,1-1.07-2.24,8.77,8.77,0,0,1,2.81-6.31,2.24,2.24,0,0,1,2.56-.71C75.74,69.58,75.74,70.59,75.81,71.7ZM88.28,43.53a8.53,8.53,0,0,1-2.67,6.55,2.29,2.29,0,0,1-2.61.84c-1-.48-1.09-1.51-1.09-2.87a8.61,8.61,0,0,1,3.15-6,1.94,1.94,0,0,1,2.15-.48A2,2,0,0,1,88.28,43.53ZM56.09,15.36a2,2,0,0,1,1.51-3.14c.32-.05.65-.05,1.12-.08a8.14,8.14,0,0,1,6,3.13c1.26,1.66.63,3.16-1.42,3.53C61,19.22,57.23,17.43,56.09,15.36Z"/></g></g></svg>