<svg xmlns="http://www.w3.org/2000/svg" viewBox="0 0 87.53 100"><g id="Layer_2" data-name="Layer 2"><g id="Layer_1-2" data-name="Layer 1"><path d="M87.51,31.76A7.64,7.64,0,0,0,86,27c-.28-.36-.62-.67-.85-.92-.51-.27-.9-.52-1.29-.75-2.92-1.71-5.87-3.41-8.78-5.14-1.74-1-3.42-2.16-5.16-3.19s-3.51-2-5.26-3-3.37-2-5.05-3L53.2,7.18c-1.74-1-3.45-2.11-5.21-3.11-2-1.13-3.87-2.4-5.94-3.39-2.74-1.32-5-.61-7.23,1.18-1.26,1-2.51,2.08-3.75,3.13L28.26,7.4C26,9.28,23.74,11.14,21.51,13c-1.89,1.6-3.72,3.25-5.59,4.87-.69.6-1.41,1.15-2.12,1.73-2,1.66-4.1,3.23-6,5A23.71,23.71,0,0,0,3.64,29.3a14.08,14.08,0,0,0-2.21,5,34.44,34.44,0,0,0-.54,4.85c-.18,4.7-.26,9.4-.38,14.1L.15,67.12C.12,68.43.09,69.73,0,71a11.88,11.88,0,0,0,1.14,5.5,5.4,5.4,0,0,0,2.67,2.74c2.26,1.14,4.51,2.33,6.78,3.48,2.55,1.29,5.14,2.55,7.68,3.87,2.2,1.14,4.36,2.34,6.55,3.49,1.09.58,2.21,1.12,3.32,1.66,2.1,1,4.22,2.06,6.31,3.14,2.66,1.37,5.34,2.72,7.93,4.21a6.34,6.34,0,0,0,6.36,0c1.57-.79,3.06-1.73,4.56-2.66,4.89-3,9.8-6,14.62-9.08,3.89-2.5,7.69-5.14,11.5-7.77a35.75,35.75,0,0,0,4.47-3.78,6.32,6.32,0,0,0,1.73-3.45,58.42,58.42,0,0,0,1.12-8.94c.29-6.06.55-12.13.71-18.2C87.58,40.78,87.51,36.27,87.51,31.76Zm-84.39,44A8,8,0,0,1,2,71.37c.12-3.92.22-7.84.33-11.75.19-7.18.4-14.36.59-21.54A14.2,14.2,0,0,1,6,29.4,35.55,35.55,0,0,1,10.48,25c1.89-1.69,3.9-3.26,5.86-4.87.76-.62,1.53-1.21,2.27-1.85,1.92-1.65,3.81-3.36,5.74-5s3.72-3.07,5.58-4.6l2.71-2.26C34.1,5.23,35.53,4,37,2.83A6.33,6.33,0,0,1,38.77,2a1.79,1.79,0,0,1,1.81.47,2.9,2.9,0,0,1,1,1.62,11.76,11.76,0,0,1,.29,2.11c.1,3.08.13,6.14.21,9.21.09,3.79.2,7.58.3,11.36,0,1.77.1,3.53.14,5.3.08,2.8.11,5.61.24,8.42a14.06,14.06,0,0,1-1,6.11A21.47,21.47,0,0,1,38,52a2.43,2.43,0,0,1-.29.26c-1.95,1.4-3.92,2.81-5.86,4.23-2.78,2-5.56,4.09-8.34,6.13L17,67.42c-2.14,1.59-4.27,3.2-6.43,4.77a35.16,35.16,0,0,1-4.76,3.08A3.17,3.17,0,0,1,3.12,75.75Zm79.29-1.34a11.75,11.75,0,0,1-3.33,3c-4.36,3.07-8.77,6.11-13.26,9-5.32,3.41-10.74,6.66-16.13,10a16.47,16.47,0,0,1-2.43,1.26A4.09,4.09,0,0,1,43,97.18a4.53,4.53,0,0,0-.84-.52q-5.29-2.75-10.6-5.45c-2.27-1.16-4.55-2.27-6.82-3.4-1-.5-2-1-3-1.51-2.14-1.12-4.25-2.27-6.39-3.37C12.26,81.33,9.1,79.77,6,78.17c-.16-.08-.25-.29-.37-.44.06-.07.08-.15.13-.17A35.84,35.84,0,0,0,13,73c2.84-2.07,5.64-4.2,8.47-6.28,2.1-1.55,4.21-3.07,6.31-4.61,2.89-2.12,5.75-4.26,8.64-6.37,2.16-1.58,4.38-3.09,5.78-5.47.29-.5.75-.55,1.37-.2,1.64.94,3.27,1.92,4.89,2.89,1.84,1.11,3.67,2.25,5.52,3.35s3.71,2.16,5.56,3.25c2.19,1.29,4.36,2.61,6.56,3.89,1.51.9,3,1.77,4.56,2.67,1.9,1.13,3.77,2.32,5.67,3.46s3.93,2.31,5.9,3.48a4.61,4.61,0,0,1,.69.52C82.7,73.86,82.58,74.15,82.41,74.41Zm3.06-33.66c0,6.86-.18,13.7-.61,20.54-.2,3-.58,6-.89,9a1,1,0,0,1-.64,1,9.43,9.43,0,0,1-.94-.44c-1-.56-1.89-1.15-2.84-1.72-1.52-.9-3.06-1.75-4.57-2.66-2-1.17-3.88-2.4-5.83-3.58-2.12-1.27-4.26-2.52-6.39-3.78l-8.41-5c-.62-.36-1.27-.67-1.89-1-2.13-1.26-4.25-2.54-6.39-3.79a6.91,6.91,0,0,1-2.34-1.82c.12-.43.24-.85.38-1.29A15.57,15.57,0,0,0,44.84,41c-.1-2.87-.22-5.73-.32-8.6-.05-1.5-.08-3-.11-4.51,0-3.85-.07-7.7-.16-11.55S44,8.47,43.85,4.56A2.69,2.69,0,0,1,44.07,4c.62.41,1.09.74,1.59,1,1.81,1.06,3.62,2.07,5.42,3.14,1.57.92,3.12,1.88,4.68,2.82,1.89,1.15,3.78,2.31,5.69,3.44,1.74,1,3.51,2,5.26,3,2.36,1.38,4.7,2.79,7.05,4.2.34.2.66.43,1,.62,1.79,1.07,3.59,2.14,5.36,3.23,1.22.75,2.42,1.54,3.62,2.32a3.73,3.73,0,0,1,1.66,2.76,14.72,14.72,0,0,1,.12,1.76C85.51,35.13,85.48,38,85.47,40.75Zm-26.34,33a4.59,4.59,0,0,1-1.48,6.06,6.2,6.2,0,0,1-5.77.47,5.84,5.84,0,0,1-3.64-5.09A4.38,4.38,0,0,1,49.48,72a10.64,10.64,0,0,1,.91-.69A6.31,6.31,0,0,1,59.13,73.75ZM35,74.41a4.69,4.69,0,0,1-1.9,5.94A6.82,6.82,0,0,1,26,79.73a5.2,5.2,0,0,1-2-5.12c.43-2.23,2.1-3.38,4.21-3.82A6.56,6.56,0,0,1,35,74.41ZM69,38.13A3.25,3.25,0,0,1,68,40.93,4.75,4.75,0,0,1,64.89,42a8.25,8.25,0,0,1-4.34-1.48A7.41,7.41,0,0,1,58,36.68a3.83,3.83,0,0,1,3-4.67,6.8,6.8,0,0,1,5.64,1.56A5.84,5.84,0,0,1,69,38.13Zm.73-12.71a3.23,3.23,0,0,1-1.09,2.8,4.74,4.74,0,0,1-3.06,1.1,8.36,8.36,0,0,1-4.34-1.47A7.46,7.46,0,0,1,58.77,24a3.83,3.83,0,0,1,3-4.66,6.81,6.81,0,0,1,5.64,1.55A5.86,5.86,0,0,1,69.77,25.42ZM68.26,51.69a3.25,3.25,0,0,1-1.08,2.8,4.77,4.77,0,0,1-3.07,1.1,8.36,8.36,0,0,1-4.34-1.47,7.38,7.38,0,0,1-2.5-3.89,3.82,3.82,0,0,1,3-4.66A6.82,6.82,0,0,1,66,47.12,5.88,5.88,0,0,1,68.26,51.69ZM27.28,26a5.94,5.94,0,0,1-.68-2.83,10.5,10.5,0,0,1,1.18-4.5,5.78,5.78,0,0,1,2.35-2.54c1.72-1.08,3.45-.46,4.16,1.62a4.4,4.4,0,0,1,.18,1,9.59,9.59,0,0,1-1.67,6.45,4.65,4.65,0,0,1-3.46,2A2,2,0,0,1,27.28,26Zm-17.81,12a9.08,9.08,0,0,1,1.44-6,4.7,4.7,0,0,1,3.64-2.37A2,2,0,0,1,16,30a3.77,3.77,0,0,1,1.28,2.77,9.84,9.84,0,0,1-1.65,6.24,5.49,5.49,0,0,1-2.33,1.88,2.44,2.44,0,0,1-3.49-1.47A6.56,6.56,0,0,1,9.47,37.94ZM26,45.69a9.42,9.42,0,0,1,.79-4.2,8.06,8.06,0,0,1,2.62-3.36,2.6,2.6,0,0,1,4.31,1.72,9.08,9.08,0,0,1-1.89,7.7A4,4,0,0,1,29.58,49a2.36,2.36,0,0,1-2.74-1A4.25,4.25,0,0,1,26,45.69ZM8.89,59.82a9,9,0,0,1,2-6.54,4.38,4.38,0,0,1,2.37-1.64,2.4,2.4,0,0,1,2.59.89,4.27,4.27,0,0,1,.86,2.35,8.64,8.64,0,0,1-1.86,6.2,7.34,7.34,0,0,1-.74.91A3.5,3.5,0,0,1,11,63.06c-1.31-.34-1.74-1.46-2-2.66C8.94,60.21,8.91,60,8.89,59.82Z"/></g></g></svg>