<svg xmlns="http://www.w3.org/2000/svg" viewBox="0 0 86.81 100"><g id="Layer_2" data-name="Layer 2"><g id="Layer_1-2" data-name="Layer 1"><path d="M86.81,25.39a.77.77,0,0,0-.39-.68L43.8.1A.83.83,0,0,0,43,.1L.39,24.71h0a.79.79,0,0,0-.39.68V74.61a.79.79,0,0,0,.39.67L43,99.89h0a.87.87,0,0,0,.39.1.9.9,0,0,0,.39-.1L86.42,75.29a.77.77,0,0,0,.39-.68V25.39ZM43.41,1.68,84.47,25.39,43.41,49.09,22.93,37.27,2.34,25.39ZM1.56,26.74l9.56,5.52L42.63,50.45V97.86L1.56,74.15V26.74ZM85.25,74.16,44.19,97.87V50.45L85.25,26.74ZM38.15,13.49a10.7,10.7,0,0,0,5.26,1.28,10.75,10.75,0,0,0,5.26-1.28A4.16,4.16,0,0,0,51.07,10a4.16,4.16,0,0,0-2.4-3.49,11.49,11.49,0,0,0-10.52,0A4.16,4.16,0,0,0,35.74,10,4.16,4.16,0,0,0,38.15,13.49Zm.78-5.62h0a10,10,0,0,1,9,0A2.7,2.7,0,0,1,49.51,10a2.72,2.72,0,0,1-1.62,2.14,10.05,10.05,0,0,1-9,0A2.69,2.69,0,0,1,37.3,10,2.69,2.69,0,0,1,38.93,7.87Zm9.74,29.41a11.52,11.52,0,0,0-10.52,0,4.16,4.16,0,0,0-2.41,3.49,4.16,4.16,0,0,0,2.41,3.49,11.45,11.45,0,0,0,10.52,0h0a4.15,4.15,0,0,0,2.4-3.49A4.16,4.16,0,0,0,48.67,37.28Zm-.78,5.63a10.08,10.08,0,0,1-9,0,2.69,2.69,0,0,1-1.63-2.14,2.7,2.7,0,0,1,1.63-2.13,10.08,10.08,0,0,1,9,0,2.7,2.7,0,0,1,1.63,2.14A2.73,2.73,0,0,1,47.89,42.91Zm13,26a3.23,3.23,0,0,0,1.65.44,5.14,5.14,0,0,0,2.57-.78h0a11.46,11.46,0,0,0,5.26-9.11,3.73,3.73,0,0,0-6-3.49,11.49,11.49,0,0,0-5.26,9.12A4.12,4.12,0,0,0,60.89,68.94Zm4.22-11.58a3.59,3.59,0,0,1,1.78-.56,1.69,1.69,0,0,1,.88.22,2.68,2.68,0,0,1,1,2.47,10.05,10.05,0,0,1-4.48,7.76,2.22,2.22,0,0,1-3.7-2.13A10.05,10.05,0,0,1,65.11,57.36Zm9.1,19.28a3.26,3.26,0,0,0,1.66.43,5.22,5.22,0,0,0,2.56-.77,11.49,11.49,0,0,0,5.26-9.12,3.73,3.73,0,0,0-6-3.48,11.46,11.46,0,0,0-5.26,9.11A4.19,4.19,0,0,0,74.21,76.64Zm4.23-11.59a3.66,3.66,0,0,1,1.78-.56,1.74,1.74,0,0,1,.88.22,2.7,2.7,0,0,1,1,2.47,10.05,10.05,0,0,1-4.48,7.76A2.21,2.21,0,0,1,74,72.81,10.11,10.11,0,0,1,78.44,65.05Zm-30.88-3.8a3.26,3.26,0,0,0,1.66.43,5.15,5.15,0,0,0,2.57-.77,11.46,11.46,0,0,0,5.26-9.11,3.73,3.73,0,0,0-6-3.49h0a11.46,11.46,0,0,0-5.26,9.11A4.12,4.12,0,0,0,47.56,61.25Zm4.22-11.59a2.74,2.74,0,0,1,2.67-.34,2.71,2.71,0,0,1,1,2.48A10.05,10.05,0,0,1,51,59.56a2.7,2.7,0,0,1-2.66.34,2.69,2.69,0,0,1-1-2.48A10.11,10.11,0,0,1,51.78,49.66ZM9.16,48.31A4.13,4.13,0,0,0,4.94,48,4.13,4.13,0,0,0,3.12,51.8a11.47,11.47,0,0,0,5.26,9.11,5.22,5.22,0,0,0,2.57.77,3.23,3.23,0,0,0,1.65-.43,4.17,4.17,0,0,0,1.82-3.83A11.46,11.46,0,0,0,9.16,48.31ZM11.82,59.9a2.71,2.71,0,0,1-2.66-.35A10.05,10.05,0,0,1,4.68,51.8a2.7,2.7,0,0,1,1-2.48,1.72,1.72,0,0,1,.88-.22,3.69,3.69,0,0,1,1.78.56,10.08,10.08,0,0,1,4.48,7.76A2.71,2.71,0,0,1,11.82,59.9Zm24,3.8a4.13,4.13,0,0,0-4.22-.34,4.12,4.12,0,0,0-1.82,3.82A11.49,11.49,0,0,0,35,76.3a5.22,5.22,0,0,0,2.57.77,3.36,3.36,0,0,0,1.65-.43,4.17,4.17,0,0,0,1.82-3.83A11.46,11.46,0,0,0,35.81,63.7Zm2.66,11.58a2.67,2.67,0,0,1-2.66-.34,10.05,10.05,0,0,1-4.48-7.76,2.68,2.68,0,0,1,1-2.47,1.7,1.7,0,0,1,.88-.23,3.72,3.72,0,0,1,1.78.57,10.05,10.05,0,0,1,4.48,7.76A2.68,2.68,0,0,1,38.47,75.28Zm-2.66-27A4.13,4.13,0,0,0,31.59,48a4.16,4.16,0,0,0-1.82,3.83A11.49,11.49,0,0,0,35,60.91a5.22,5.22,0,0,0,2.57.77,3.25,3.25,0,0,0,1.65-.43,4.15,4.15,0,0,0,1.82-3.83A11.46,11.46,0,0,0,35.81,48.31ZM38.47,59.9a2.72,2.72,0,0,1-2.66-.34,10.08,10.08,0,0,1-4.48-7.76,2.7,2.7,0,0,1,1-2.48,1.69,1.69,0,0,1,.88-.22,3.66,3.66,0,0,1,1.78.56,10.08,10.08,0,0,1,4.48,7.76A2.71,2.71,0,0,1,38.47,59.9Zm-29.31-27a4.18,4.18,0,0,0-4.22-.34,4.15,4.15,0,0,0-1.82,3.83,11.46,11.46,0,0,0,5.26,9.11,5.12,5.12,0,0,0,2.57.77,3.23,3.23,0,0,0,1.65-.43A4.15,4.15,0,0,0,14.42,42,11.49,11.49,0,0,0,9.16,32.92Zm2.66,11.59a2.7,2.7,0,0,1-2.66-.34,10.07,10.07,0,0,1-4.48-7.76,2.68,2.68,0,0,1,1-2.47,1.72,1.72,0,0,1,.88-.23,3.69,3.69,0,0,1,1.78.56A10.09,10.09,0,0,1,12.86,42,2.69,2.69,0,0,1,11.82,44.51ZM9.16,63.69a4.15,4.15,0,0,0-4.22-.33,4.12,4.12,0,0,0-1.82,3.82A11.49,11.49,0,0,0,8.38,76.3a5.22,5.22,0,0,0,2.56.77,3.37,3.37,0,0,0,1.66-.43,4.17,4.17,0,0,0,1.82-3.83A11.49,11.49,0,0,0,9.16,63.69Zm2.66,11.59a2.67,2.67,0,0,1-2.66-.34,10.05,10.05,0,0,1-4.48-7.76,2.68,2.68,0,0,1,1-2.47,1.72,1.72,0,0,1,.88-.23,3.61,3.61,0,0,1,1.78.57,10.05,10.05,0,0,1,4.48,7.76A2.68,2.68,0,0,1,11.82,75.28Zm24,3.8a4.13,4.13,0,0,0-4.22-.34,4.14,4.14,0,0,0-1.82,3.83A11.47,11.47,0,0,0,35,91.68a5.22,5.22,0,0,0,2.57.77A3.25,3.25,0,0,0,39.25,92a4.17,4.17,0,0,0,1.82-3.83A11.47,11.47,0,0,0,35.81,79.08Zm2.66,11.59a2.72,2.72,0,0,1-2.66-.34,10.08,10.08,0,0,1-4.48-7.76,2.71,2.71,0,0,1,1-2.48,1.69,1.69,0,0,1,.88-.22,3.69,3.69,0,0,1,1.78.56,10.07,10.07,0,0,1,4.48,7.76A2.71,2.71,0,0,1,38.47,90.67Z"/></g></g></svg>