<svg xmlns="http://www.w3.org/2000/svg" viewBox="0 0 83.72 100"><g id="Layer_2" data-name="Layer 2"><g id="Layer_1-2" data-name="Layer 1"><path d="M83.72,25.8v-.06s0,0,0-.07v0s0,0,0-.07h0s0-.06,0-.08h0l0-.08h0a1.27,1.27,0,0,0-.44-.63h0l-.07-.05h0l-.07,0h0l0,0h0L42.56.19a1.4,1.4,0,0,0-1.4,0L.69,24.65h0l0,0h0l-.07,0h0l-.06.05h0l0,0,0,0,0,0v0l0,.05h0a.1.1,0,0,1,0,.05v0l0,.06h0l0,.06v0l0,.06h0l0,.06v0a.19.19,0,0,1,0,.07v0s0,0,0,.06v0s0,0,0,.06v0s0,0,0,.06v0s0,0,0,.06V74.17a1.38,1.38,0,0,0,.65,1.16L41.16,99.8l0,0,0,0,.07,0,.07,0,.06,0,0,0,.08,0h.6l.08,0,0,0,.06,0,.06,0,.08,0,0,0,0,0L83.07,75.33a1.38,1.38,0,0,0,.65-1.16V25.8ZM41.86,2.93l37.89,22.9L41.86,48.72,4,25.83ZM2.7,73.41V28.22L40.51,51.07V96.25L2.7,73.41ZM43.21,96.25V51.07L81,28.22V73.41ZM69.46,51.82,57.13,74a1.36,1.36,0,0,1-1.18.69,1.33,1.33,0,0,1-.66-.17,1.35,1.35,0,0,1-.52-1.84L67.1,50.5a1.35,1.35,0,0,1,2.36,1.32ZM31.59,72.71a1.44,1.44,0,0,1-.66.17,1.35,1.35,0,0,1-1.18-.7L17.42,50a1.35,1.35,0,0,1,2.37-1.31L32.11,70.87A1.35,1.35,0,0,1,31.59,72.71Zm-7.31,1.74a1.36,1.36,0,0,1-.52,1.84,1.36,1.36,0,0,1-1.84-.52L9.59,53.61A1.35,1.35,0,1,1,12,52.29Zm3.34-55.92A1.34,1.34,0,0,1,29,17.18H54.75a1.35,1.35,0,1,1,0,2.7H29A1.34,1.34,0,0,1,27.62,18.53Zm0,7.3A1.34,1.34,0,0,1,29,24.48H54.75a1.35,1.35,0,1,1,0,2.7H29A1.35,1.35,0,0,1,27.62,25.83Zm28.48,7.3a1.35,1.35,0,0,1-1.35,1.35H29a1.36,1.36,0,0,1,0-2.71H54.75A1.35,1.35,0,0,1,56.1,33.13Z"/></g></g></svg>