<svg xmlns="http://www.w3.org/2000/svg" viewBox="0 0 100 100"><g id="Layer_2" data-name="Layer 2"><g id="Layer_1-2" data-name="Layer 1"><path d="M92.94,0H7.25C1.94,0,0,1.89,0,7.13Q0,49.85,0,92.57C0,97.9,2.07,100,7.35,100q42.72,0,85.45,0c5.14,0,7.2-2.1,7.2-7.28V7C100,1.86,98.14,0,92.94,0ZM91,94.13c-13.77-.1-27.53,0-41.3,0-13.6,0-27.21-.06-40.81.06-2.47,0-3.06-.78-3-3.14.07-27.29,0-54.58,0-81.87,0-3.2,0-3.22,3.16-3.22H91c3.1,0,3.13,0,3.13,3.26,0,27.29,0,54.58.06,81.87C94.14,93.46,93.44,94.15,91,94.13ZM73.67,68.38a11.08,11.08,0,1,0,0,22.16,11.08,11.08,0,0,0,0-22.16ZM74,86a6.58,6.58,0,1,1,6.27-6.71A6.4,6.4,0,0,1,74,86ZM26.42,9.21A11.32,11.32,0,0,0,15.27,20.28,11.08,11.08,0,1,0,26.42,9.21Zm-.19,17.66a6.59,6.59,0,1,1,6.71-6.52A6.4,6.4,0,0,1,26.23,26.87Z"/></g></g></svg>