<svg xmlns="http://www.w3.org/2000/svg" viewBox="0 0 99.01 100"><g id="Layer_2" data-name="Layer 2"><g id="Layer_1-2" data-name="Layer 1"><path d="M92.17,0H6.8A6.84,6.84,0,0,0,0,6.86V93.13A6.85,6.85,0,0,0,6.8,100H92.17A6.88,6.88,0,0,0,99,93.13V6.86A6.88,6.88,0,0,0,92.17,0ZM49.48,93A42.75,42.75,0,0,1,7,50C7,26.28,26,7,49.48,7a43,43,0,0,1,0,85.92ZM70.65,15A38.25,38.25,0,0,0,16.06,50a38.52,38.52,0,0,0,38.31,38.7,37.66,37.66,0,0,0,16.28-3.67,41.17,41.17,0,0,0,0-70.1ZM34.2,76.78a7.06,7.06,0,1,1,7-7A7,7,0,0,1,34.2,76.78Zm0-19.72a7.06,7.06,0,1,1,7-7A7,7,0,0,1,34.2,57.06Zm0-19.72a7,7,0,1,1,7-7A7,7,0,0,1,34.2,37.34ZM64.81,76.78a7.06,7.06,0,1,1,7-7A7,7,0,0,1,64.81,76.78Zm0-19.72a7.06,7.06,0,1,1,7-7A7,7,0,0,1,64.81,57.06Zm0-19.72a7,7,0,1,1,7-7A7,7,0,0,1,64.81,37.34Z"/></g></g></svg>