<svg xmlns="http://www.w3.org/2000/svg" viewBox="0 0 100 77.53"><defs><style>.cls-1{fill:#141515;}</style></defs><g id="Layer_2" data-name="Layer 2"><g id="Layer_1-2" data-name="Layer 1"><path class="cls-1" d="M33.26,71.9a28,28,0,0,0,0-55.9,28,28,0,0,0,0,55.9Zm0-54A26.06,26.06,0,1,1,7.47,44,26,26,0,0,1,33.26,17.89ZM21.11,37.32a5.58,5.58,0,0,0,4-1.67,5.73,5.73,0,0,0,0-8,5.6,5.6,0,0,0-8,0,5.73,5.73,0,0,0,0,8A5.58,5.58,0,0,0,21.11,37.32ZM18.47,29a3.69,3.69,0,0,1,5.28,0,3.76,3.76,0,1,1-5.28,0Zm27,8.36h0a5.58,5.58,0,0,0,4-1.67,5.73,5.73,0,0,0,0-8,5.62,5.62,0,0,0-4-1.67h0a5.61,5.61,0,0,0-4,1.67,5.73,5.73,0,0,0,0,8A5.57,5.57,0,0,0,45.45,37.32ZM42.81,29a3.67,3.67,0,0,1,2.64-1.11h0A3.68,3.68,0,0,1,48.09,29a3.81,3.81,0,0,1,0,5.36,3.73,3.73,0,0,1-2.64,1.11h0a3.71,3.71,0,0,1-2.64-1.11A3.81,3.81,0,0,1,42.81,29ZM21.11,61.9a5.58,5.58,0,0,0,4-1.67,5.72,5.72,0,0,0,0-8,5.6,5.6,0,0,0-8,0,5.72,5.72,0,0,0,0,8A5.58,5.58,0,0,0,21.11,61.9Zm-2.64-8.36a3.69,3.69,0,0,1,5.28,0,3.76,3.76,0,1,1-5.28,0Zm14.81-3.93h0a5.58,5.58,0,0,0,4-1.67,5.73,5.73,0,0,0,0-8,5.61,5.61,0,0,0-4-1.66h0a5.61,5.61,0,0,0-4,1.66,5.73,5.73,0,0,0,0,8A5.58,5.58,0,0,0,33.28,49.61Zm-2.64-8.36a3.65,3.65,0,0,1,2.64-1.11h0a3.67,3.67,0,0,1,2.64,1.11,3.81,3.81,0,0,1,0,5.36,3.67,3.67,0,0,1-2.64,1.11h0a3.67,3.67,0,0,1-2.64-1.11A3.81,3.81,0,0,1,30.64,41.25ZM45.45,61.9h0a5.58,5.58,0,0,0,4-1.67,5.72,5.72,0,0,0,0-8,5.58,5.58,0,0,0-4-1.67h0a5.57,5.57,0,0,0-4,1.67,5.72,5.72,0,0,0,0,8A5.57,5.57,0,0,0,45.45,61.9Zm-2.64-8.36a3.67,3.67,0,0,1,2.64-1.11h0a3.68,3.68,0,0,1,2.64,1.11,3.81,3.81,0,0,1,0,5.36A3.68,3.68,0,0,1,45.45,60h0a3.67,3.67,0,0,1-2.64-1.11A3.81,3.81,0,0,1,42.81,53.54ZM99.61.18A1,1,0,0,0,99,0H34.31A.9.9,0,0,0,34,0L.67,10.37l-.05,0-.13.07-.17.11-.1.11a.91.91,0,0,0-.11.16.78.78,0,0,0,0,.14.71.71,0,0,0,0,.21.19.19,0,0,0,0,.08V76.59a.94.94,0,0,0,1,.94H65.62a.84.84,0,0,0,.27,0L99.33,67.17a1,1,0,0,0,.67-.91V1A1,1,0,0,0,99.61.18ZM64.67,75.64H1.89V12.22H64.67Zm.8-65.32H7.2L34.45,1.89H92.72ZM98.11,65.56,66.56,75.31V12L98.11,2.23Zm-22.84-.21a8.18,8.18,0,0,0,4.92,1.7,8.05,8.05,0,0,0,2.44-.38C90.75,64.18,97.12,50,97.12,34.49c0-10.26-3-18.81-7.68-22.31a8,8,0,0,0-7.36-1.32C74,13.35,67.59,27.49,67.59,43,67.59,53.3,70.53,61.85,75.27,65.35Zm7.36-52.68a6.11,6.11,0,0,1,5.68,1c4.27,3.15,6.91,11.12,6.91,20.79,0,14.52-5.9,28.15-13.14,30.37a6.13,6.13,0,0,1-5.69-1C72.13,60.68,69.48,52.71,69.48,43,69.48,28.52,75.38,14.89,82.63,12.67ZM75.81,34.14c1.11-.08,2.13-1,2.8-2.56,1.07-2.41,1-5.74,0-7.56a2.5,2.5,0,0,0-2.27-1.37c-1.13.06-2.14,1-2.85,2.53h0c-1.05,2.43-1,5.76.06,7.57a2.52,2.52,0,0,0,2.17,1.38Zm-.7-2.37c-.78-1.29-.75-3.95.06-5.82.43-.95.93-1.4,1.23-1.41s.45.31.54.46c.77,1.28.75,4-.06,5.83-.41.94-.91,1.4-1.2,1.42S75.3,32.08,75.11,31.77Zm11,21.75a2.52,2.52,0,0,0,2.17,1.38h.15c1.11-.08,2.13-1,2.8-2.55,1.07-2.42,1-5.75-.06-7.57a2.49,2.49,0,0,0-2.26-1.37c-1.13.07-2.14,1-2.85,2.53h0C85,48.39,85,51.71,86.11,53.52Zm1.68-6.81c.42-.94.93-1.39,1.23-1.41s.45.32.54.46c.77,1.28.74,4-.06,5.83-.41.95-.91,1.4-1.2,1.42s-.38-.17-.57-.47C87,51.25,87,48.58,87.79,46.71Zm-8-3.56A2.47,2.47,0,0,0,82,44.52h.13c1.13-.07,2.14-1,2.85-2.54,1.07-2.46,1-5.72,0-7.59v0A2.53,2.53,0,0,0,82.57,33c-1.11.08-2.13,1-2.8,2.52C78.66,38,78.69,41.34,79.82,43.15Zm1.67-6.84c.42-.93.92-1.38,1.22-1.4h0c.23,0,.45.3.55.45a7.51,7.51,0,0,1-.06,5.85c-.43.95-.94,1.41-1.23,1.42s-.45-.31-.55-.47C80.63,40.89,80.66,38.16,81.49,36.31ZM74.81,5.19c-.08-.91-.19-2-13.87-2.16C49.14,3,34.61,3.84,28.55,5c-1.95.38-3.56.79-3.44,2,.08.91.18,2,13.84,2.12H41c11.32,0,24.55-.84,30.33-1.95C73.32,6.83,74.92,6.42,74.81,5.19ZM39,7.26h0c-4.84,0-8-.22-9.85-.43,6.08-1.13,20.25-2,31.81-1.91a97.48,97.48,0,0,1,9.93.46C64.72,6.53,50.49,7.37,39,7.26Z"/></g></g></svg>