<svg xmlns="http://www.w3.org/2000/svg" viewBox="0 0 100 77.88"><g id="Layer_2" data-name="Layer 2"><g id="Layer_1-2" data-name="Layer 1"><path d="M60.64,40.57,47.18,3.41A5.15,5.15,0,0,0,40.57.31L3.41,13.77a5.16,5.16,0,0,0-3.1,6.61L13.77,57.54A5.16,5.16,0,0,0,18.62,61a4.93,4.93,0,0,0,1.76-.32L57.54,47.18A5.16,5.16,0,0,0,60.64,40.57ZM16.27,27.62a4.87,4.87,0,1,1,2.91-6.23A4.87,4.87,0,0,1,16.27,27.62Zm8.43,23.3a4.87,4.87,0,1,1,2.92-6.24A4.88,4.88,0,0,1,24.7,50.92Zm7.43-15.87a4.87,4.87,0,1,1,2.92-6.24A4.87,4.87,0,0,1,32.13,35.05Zm7.43-15.86A4.87,4.87,0,1,1,42.48,13,4.88,4.88,0,0,1,39.56,19.19ZM48,42.48a4.87,4.87,0,1,1,2.91-6.23A4.87,4.87,0,0,1,48,42.48ZM95.86,28.92,57.11,21.11l-.35,0,6.69,18.47A8.15,8.15,0,0,1,58.56,50L45.05,54.88l-1.82,9a5.17,5.17,0,0,0,4,6.08L86,77.78a5.17,5.17,0,0,0,6.08-4L99.9,35A5.16,5.16,0,0,0,95.86,28.92ZM61.75,60.11a4.87,4.87,0,1,1-3.81-5.73A4.86,4.86,0,0,1,61.75,60.11Zm14.58-9.7a4.87,4.87,0,1,1-3.81-5.73A4.86,4.86,0,0,1,76.33,50.41Zm14.59-9.7A4.87,4.87,0,1,1,87.11,35,4.87,4.87,0,0,1,90.92,40.71Z"/></g></g></svg>