<svg xmlns="http://www.w3.org/2000/svg" viewBox="0 0 79.84 77.54"><defs><style>.cls-1{fill-rule:evenodd;}</style></defs><g id="Layer_2" data-name="Layer 2"><g id="Layer_1-2" data-name="Layer 1"><path class="cls-1" d="M31.46,15.73A15.73,15.73,0,1,1,15.73,0,15.73,15.73,0,0,1,31.46,15.73ZM64.11,31.46A15.73,15.73,0,1,0,48.38,15.73,15.73,15.73,0,0,0,64.11,31.46ZM15.73,46.08A15.73,15.73,0,1,0,31.46,61.81,15.73,15.73,0,0,0,15.73,46.08Zm48.38,0A15.73,15.73,0,1,0,79.84,61.81,15.73,15.73,0,0,0,64.11,46.08Z"/></g></g></svg>