<svg xmlns="http://www.w3.org/2000/svg" viewBox="0 0 100 99.99"><g id="Layer_2" data-name="Layer 2"><g id="Layer_1-2" data-name="Layer 1"><path d="M49.86,100Q28.41,100,7,100C1.93,100,0,98.09,0,93.1Q0,49.95,0,6.8C0,2,2,0,6.82,0H92.88C97.93,0,100,2.05,100,7.06q0,43,0,86.06c0,4.95-2,6.87-7,6.87Q71.44,100,49.86,100Zm0-39.87a10.12,10.12,0,1,0-10-10.06A10.25,10.25,0,0,0,49.89,60.12ZM63.63,20.56a10,10,0,1,0,20-.18,10,10,0,1,0-20,.18ZM36.37,79.66a10,10,0,1,0-10.23,10A10.06,10.06,0,0,0,36.37,79.66Zm-20-59.26a10,10,0,1,0,20,.15,10,10,0,1,0-20-.15ZM83.62,79.56A10,10,0,1,0,73.5,89.69,10,10,0,0,0,83.62,79.56Z"/></g></g></svg>