<svg xmlns="http://www.w3.org/2000/svg" viewBox="0 0 100 99.18"><defs><style>.cls-1{fill:#141515;}</style></defs><g id="Layer_2" data-name="Layer 2"><g id="Layer_1-2" data-name="Layer 1"><path class="cls-1" d="M51,35.69a7.59,7.59,0,1,0,7.55,7.61A7.57,7.57,0,0,0,51,35.69Zm0,13.09a5.5,5.5,0,1,1,5.46-5.48A5.45,5.45,0,0,1,51,48.78ZM20.41,75.32A7.59,7.59,0,1,0,28,82.92,7.56,7.56,0,0,0,20.41,75.32Zm0,13.08a5.5,5.5,0,1,1,5.46-5.47A5.45,5.45,0,0,1,20.41,88.4ZM51,55.51a7.59,7.59,0,1,0,7.55,7.6A7.56,7.56,0,0,0,51,55.51Zm0,13.08a5.5,5.5,0,1,1,5.46-5.48A5.45,5.45,0,0,1,51,68.59Zm0,6.73a7.59,7.59,0,1,0,7.55,7.6A7.56,7.56,0,0,0,51,75.32ZM51,88.4a5.5,5.5,0,1,1,5.46-5.47A5.45,5.45,0,0,1,51,88.4ZM20.41,55.51A7.59,7.59,0,1,0,28,63.11,7.56,7.56,0,0,0,20.41,55.51Zm0,13.08a5.5,5.5,0,1,1,5.46-5.48A5.45,5.45,0,0,1,20.41,68.59Zm0-32.9A7.59,7.59,0,1,0,28,43.3,7.57,7.57,0,0,0,20.41,35.69Zm0,13.09a5.5,5.5,0,1,1,5.46-5.48A5.45,5.45,0,0,1,20.41,48.78ZM94.9,4.3a3.09,3.09,0,0,0-1-.22,3,3,0,0,0-.2-.85C92.6.56,87.71,0,83.81,0H42.3C34.43,0,25.17,2.56,21.66,5.7l-7.57,6.79L6.51,19.28a8.07,8.07,0,0,0-.8.86C1.79,24.24-.08,30.76.32,39A15.19,15.19,0,0,0,0,42.13V84.05A15.08,15.08,0,0,0,15,99.18H56.5a14.68,14.68,0,0,0,4-.56,18.47,18.47,0,0,0,2.06.11,18.69,18.69,0,0,0,12.52-4.48A5,5,0,0,0,76.9,93q4.21-4.32,8.45-8.63l8.6-8.8c3.39-3.51,6-12.61,6-20.7V17.76C100,12.17,98.09,5.6,94.9,4.3ZM7.32,21.47h0a5.55,5.55,0,0,1,.58-.62l7.57-6.79,7.57-6.79C26.18,4.46,35,2.09,42.3,2.09H83.81c5.66,0,7.68,1.22,8,1.94a1.26,1.26,0,0,1-.31,1.12h0c-2.83,2.91-5.43,5.53-8,8.15s-5.2,5.25-8,8.15a7.76,7.76,0,0,0-.58.67C72,24.94,61.39,27,53.72,27H12.22c-.37,0-.73,0-1.07,0a4.78,4.78,0,0,1-.53-.06l-.43-.05c-.21,0-.4-.08-.6-.12l-.27-.06a4.59,4.59,0,0,1-.56-.18l-.21-.07a4.3,4.3,0,0,1-.48-.23l-.19-.09a3.77,3.77,0,0,1-.39-.26l-.17-.13A2.65,2.65,0,0,1,7,25.46a1.07,1.07,0,0,1-.14-.16A2.3,2.3,0,0,1,6.68,25l-.1-.18a1.42,1.42,0,0,1-.1-.29s0,0,0-.05A3.46,3.46,0,0,1,7.32,21.47Zm65.36,4.35a1.11,1.11,0,0,0-.07.16l-.21.49-.3.75-.14.36c-.12.33-.24.66-.35,1a1.72,1.72,0,0,0-.07.21,42.54,42.54,0,0,0-1.45,5.66.51.51,0,0,1,0,.13c0,.3-.11.6-.16.9l-.16-.3c-.08-.17-.17-.33-.26-.49s-.29-.48-.44-.72-.19-.31-.3-.46-.33-.46-.51-.68l-.32-.42c-.2-.23-.4-.45-.61-.67L67,31.4q-.39-.39-.81-.75l-.2-.17a12.78,12.78,0,0,0-1.1-.84l-.27-.17-.9-.55c-.14-.08-.29-.15-.44-.22l-.59-.31.14,0L64,28.18l.11,0,1.14-.22.19,0,1.17-.25.21-.05c.79-.18,1.57-.37,2.31-.58l.2-.06,1.06-.32.17,0,1-.34.07,0c.33-.12.65-.24,1-.37Zm-68.1-.37a5.51,5.51,0,0,0,3.78,3.17l0,0A15.1,15.1,0,0,0,3.06,33l0,0c-.19.25-.38.51-.55.77A23.76,23.76,0,0,1,4.58,25.45Zm55.51,71.1s0,0-.06,0a12.56,12.56,0,0,1-3.53.52H15a13,13,0,0,1-12.9-13V42.13a12.9,12.9,0,0,1,.26-2.58s0-.08,0-.13a13,13,0,0,1,7.21-9.09l0,0c.28-.13.57-.24.85-.35l.26-.1.76-.24.43-.11.67-.15.64-.1c.17,0,.34-.05.52-.06A12.09,12.09,0,0,1,15,29.13H56.5a12.94,12.94,0,0,1,12.86,13V84.05c0,.41,0,.8-.06,1.19,0,.18,0,.36-.07.53s0,.39-.09.59-.09.48-.15.71a2.29,2.29,0,0,1-.07.28A13.05,13.05,0,0,1,60.09,96.55ZM65,96.46a15.18,15.18,0,0,0,5.06-6.15,6.67,6.67,0,0,0,2.11,3.56A16.46,16.46,0,0,1,65,96.46ZM97.91,54.84h0c0,7.37-2.5,16.18-5.46,19.25s-5.72,5.85-8.59,8.78L75.4,91.52a3.07,3.07,0,0,1-1.14.81h0a.78.78,0,0,1-.21,0h0a.8.8,0,0,1-.58-.19c-.63-.47-1.33-1.81-1.71-4.2a.06.06,0,0,1,0,0l-.09-.61c0-.09,0-.17,0-.25s0-.31,0-.48,0-.28,0-.43,0-.23,0-.36l0-.59c0-.09,0-.17,0-.26,0-.29,0-.59,0-.91V42.13q0-.68,0-1.35c0-.17,0-.33,0-.5s0-.58.06-.88,0-.41,0-.62,0-.5.07-.76l.09-.7.09-.67c0-.27.08-.53.12-.79l.09-.56c.05-.3.11-.59.16-.88l.09-.45.21-1c0-.1,0-.2.07-.3.09-.37.18-.73.28-1.09l0-.12a23.63,23.63,0,0,1,3.5-8l8-8.16q4-4,8-8.13A6.85,6.85,0,0,0,93,6.55a1.16,1.16,0,0,1,.76-.39.75.75,0,0,1,.31.07c1.79.73,3.8,5.82,3.8,11.53Zm-5.19-3.29a2.2,2.2,0,0,0-2.49.71h0c-1.65,1.72-3,6.11-3,10,0,2.87.71,4.74,2,5.25a1.72,1.72,0,0,0,.71.14,2.41,2.41,0,0,0,1.74-.86c1.68-1.69,3-6.09,3-10C94.7,53.94,94,52.08,92.72,51.55Zm-2.5,13.81a2.25,2.25,0,0,0-.21.2c-.2-.22-.64-1.12-.64-3.28,0-3.65,1.21-7.36,2.35-8.55a2.48,2.48,0,0,1,.24-.22c.18.19.65,1.07.65,3.29C92.61,60.47,91.38,64.18,90.22,65.36ZM76.65,45.46a1.7,1.7,0,0,0,.71.15,2.49,2.49,0,0,0,1.78-.87c1.65-1.71,2.94-6.11,2.94-10,0-2.88-.7-4.75-2-5.26a2.17,2.17,0,0,0-2.47.73c-1.68,1.7-3,6-3,10C74.69,42.24,75,44.8,76.65,45.46Zm2.48-13.8h0l.22-.2c.19.22.63,1.12.63,3.28,0,3.66-1.22,7.38-2.34,8.55-.12.12-.21.18-.24.21-.18-.21-.63-1.11-.63-3.28C76.78,36.52,78,32.81,79.13,31.66Zm1,32.76a2.17,2.17,0,0,0-2.46.72C75.8,67,74.7,71.7,74.7,75.15c0,2,.33,4.63,2,5.29a1.74,1.74,0,0,0,.71.15,2.49,2.49,0,0,0,1.78-.87c1.65-1.71,2.94-6.11,2.94-10C82.08,68,81.82,65.11,80.1,64.42ZM77.65,78.26c-.12.12-.21.18-.24.22-.18-.22-.63-1.13-.63-3.33,0-3.69,1.22-7.4,2.35-8.54h0a2.69,2.69,0,0,1,.21-.2c.19.22.64,1.13.64,3.32C80,73.31,78.75,77.11,77.65,78.26ZM89.26,32.58a1.88,1.88,0,0,0,.7.14,2.42,2.42,0,0,0,1.75-.89c1.68-1.69,3-6.07,3-10,0-2.89-.7-4.77-2-5.29a2.17,2.17,0,0,0-2.49.71h0c-1.65,1.71-3,6.11-3,10C87.27,29,87.53,31.9,89.26,32.58Zm2.46-13.84c.12-.12.21-.18.23-.21.19.19.66,1.09.66,3.33,0,3.64-1.23,7.34-2.4,8.52a.88.88,0,0,1-.23.2,6,6,0,0,1-.62-3.29C89.36,23.7,90.6,19.91,91.72,18.74ZM68,11.41c3.41,0,8.08-1.06,10-2.81a2.1,2.1,0,0,0,.84-2.41c-.6-1.59-3.14-1.93-5.17-1.93-3.84,0-8.23,1.22-10,2.79a2.16,2.16,0,0,0-.79,2.45C63.48,11.08,66,11.41,68,11.41Zm-3-2.81c1.24-1.08,5-2.25,8.62-2.25a6.55,6.55,0,0,1,3.11.53l-.18.17C75.42,8.15,71.7,9.32,68,9.32a6.24,6.24,0,0,1-3.15-.54A.79.79,0,0,1,65.05,8.6ZM37.42,11.41c3.41,0,8.07-1.06,10-2.81a2.12,2.12,0,0,0,.84-2.41c-.6-1.59-3.15-1.93-5.17-1.93-3.89,0-8.28,1.22-10,2.78a2.13,2.13,0,0,0-.82,2.44C32.83,11.08,35.39,11.41,37.42,11.41Zm-3-2.82c1.17-1.06,5-2.24,8.61-2.24a6.55,6.55,0,0,1,3.11.53L46,7.05c-1.18,1.1-4.9,2.27-8.56,2.27a6.45,6.45,0,0,1-3.17-.54ZM47.84,23c.6,1.59,3.15,1.92,5.18,1.92,3.84,0,8.23-1.22,10-2.79a2.11,2.11,0,0,0,.78-2.43c-.62-1.59-3.16-1.93-5.17-1.93-3.93,0-8.23,1.21-10,2.82A2.1,2.1,0,0,0,47.84,23Zm2.2-.86c1.22-1.1,5-2.28,8.61-2.28a6.27,6.27,0,0,1,3.15.55.78.78,0,0,1-.16.17c-1.23,1.09-5,2.25-8.62,2.25a6.48,6.48,0,0,1-3.14-.53ZM22.4,24.87c3.86,0,8.24-1.22,10-2.78a2.13,2.13,0,0,0,.82-2.44C32.58,18.06,30,17.72,28,17.72c-3.93,0-8.24,1.21-10,2.82A2.11,2.11,0,0,0,17.21,23C17.82,24.54,20.37,24.87,22.4,24.87Zm-3-2.78c1.21-1.1,5-2.28,8.61-2.28a6.34,6.34,0,0,1,3.12.54,1.42,1.42,0,0,1-.18.19c-1.18,1.06-5,2.24-8.57,2.24a6.44,6.44,0,0,1-3.14-.53A1.17,1.17,0,0,1,19.42,22.09ZM40,16.22c.61,1.59,3.14,1.92,5.16,1.92,3.93,0,8.23-1.21,10-2.82a2.1,2.1,0,0,0,.8-2.41C55.4,11.33,52.86,11,50.83,11c-3.87,0-8.24,1.22-10,2.78A2.14,2.14,0,0,0,40,16.22Zm2.22-.9c1.17-1.06,5-2.24,8.57-2.24a6.48,6.48,0,0,1,3.14.53s-.09.1-.16.16c-1.22,1.1-5,2.28-8.61,2.28a6.39,6.39,0,0,1-3.13-.54Z"/></g></g></svg>