<svg xmlns="http://www.w3.org/2000/svg" viewBox="0 0 86.81 100"><g id="Layer_2" data-name="Layer 2"><g id="Layer_1-2" data-name="Layer 1"><path d="M22.48,56h0a4.13,4.13,0,0,0-4.22-.34,4.15,4.15,0,0,0-1.82,3.83,11.45,11.45,0,0,0,5.26,9.1,5.17,5.17,0,0,0,2.57.78A3.26,3.26,0,0,0,25.93,69a4.16,4.16,0,0,0,1.81-3.83A11.46,11.46,0,0,0,22.48,56ZM25.15,67.6a2.72,2.72,0,0,1-2.67-.35A10.05,10.05,0,0,1,18,59.5,2.69,2.69,0,0,1,19,57a1.72,1.72,0,0,1,.88-.22,3.73,3.73,0,0,1,1.79.56,10.1,10.1,0,0,1,4.48,7.76A2.73,2.73,0,0,1,25.15,67.6Zm-16-34.67h0a4.13,4.13,0,0,0-4.22-.34,4.13,4.13,0,0,0-1.82,3.83,11.49,11.49,0,0,0,5.26,9.11,5.22,5.22,0,0,0,2.56.77,3.26,3.26,0,0,0,1.66-.43A4.17,4.17,0,0,0,14.42,42,11.46,11.46,0,0,0,9.16,32.93Zm2.66,11.58a2.67,2.67,0,0,1-2.66-.34,10.05,10.05,0,0,1-4.48-7.75,2.69,2.69,0,0,1,1-2.48,1.69,1.69,0,0,1,.88-.22,3.66,3.66,0,0,1,1.78.56A10.07,10.07,0,0,1,12.86,42,2.68,2.68,0,0,1,11.82,44.51Zm24,34.57a4.18,4.18,0,0,0-4.22-.34,4.15,4.15,0,0,0-1.82,3.83A11.46,11.46,0,0,0,35,91.68a5.14,5.14,0,0,0,2.57.78A3.36,3.36,0,0,0,39.25,92a4.17,4.17,0,0,0,1.82-3.83A11.49,11.49,0,0,0,35.81,79.08Zm2.66,11.6a2.7,2.7,0,0,1-2.66-.35h0a10.05,10.05,0,0,1-4.48-7.76,2.68,2.68,0,0,1,1-2.47,1.69,1.69,0,0,1,.88-.22,3.69,3.69,0,0,1,1.78.56,10.07,10.07,0,0,1,4.48,7.76A2.71,2.71,0,0,1,38.47,90.68Zm-.32-61.8a11.53,11.53,0,0,0,10.52,0h0a4.16,4.16,0,0,0,2.4-3.49,4.16,4.16,0,0,0-2.4-3.49,11.51,11.51,0,0,0-10.53,0,4.16,4.16,0,0,0-2.4,3.49A4.16,4.16,0,0,0,38.15,28.88Zm.78-5.62a9.08,9.08,0,0,1,4.48-1.06,9.24,9.24,0,0,1,4.48,1.05,2.72,2.72,0,0,1,1.62,2.14,2.7,2.7,0,0,1-1.62,2.14,10.08,10.08,0,0,1-9,0,2.7,2.7,0,0,1-1.63-2.14A2.69,2.69,0,0,1,38.93,23.26ZM64.8,28.88a11.45,11.45,0,0,0,10.52,0,4.15,4.15,0,0,0,2.4-3.49,4.16,4.16,0,0,0-2.4-3.49,11.51,11.51,0,0,0-10.53,0,4.16,4.16,0,0,0-2.4,3.49A4.18,4.18,0,0,0,64.8,28.88Zm.78-5.62a9.08,9.08,0,0,1,4.48-1.06,9.24,9.24,0,0,1,4.48,1.05,2.7,2.7,0,0,1,1.62,2.14,2.7,2.7,0,0,1-1.62,2.14h0a10.1,10.1,0,0,1-9,0A2.72,2.72,0,0,1,64,25.39,2.69,2.69,0,0,1,65.58,23.26ZM38.15,13.49a10.7,10.7,0,0,0,5.26,1.28,10.75,10.75,0,0,0,5.26-1.28A4.15,4.15,0,0,0,51.07,10a4.16,4.16,0,0,0-2.4-3.49,11.48,11.48,0,0,0-10.53,0A4.14,4.14,0,0,0,35.74,10,4.13,4.13,0,0,0,38.15,13.49Zm.78-5.62a10.08,10.08,0,0,1,9,0A2.7,2.7,0,0,1,49.51,10a2.72,2.72,0,0,1-1.62,2.14,10.1,10.1,0,0,1-9,0A2.7,2.7,0,0,1,37.3,10,2.69,2.69,0,0,1,38.93,7.87ZM22,21.9a11.49,11.49,0,0,0-10.52,0h0a4.16,4.16,0,0,0-2.41,3.49,4.16,4.16,0,0,0,2.41,3.49,10.68,10.68,0,0,0,5.25,1.27A10.69,10.69,0,0,0,22,28.88a4.16,4.16,0,0,0,2.41-3.49A4.16,4.16,0,0,0,22,21.9Zm-.78,5.63a10.08,10.08,0,0,1-9,0,2.72,2.72,0,0,1-1.63-2.14,2.72,2.72,0,0,1,1.63-2.14,10.11,10.11,0,0,1,9,0,2.72,2.72,0,0,1,1.62,2.14A2.72,2.72,0,0,1,21.24,27.53Zm27.43,9.76a11.49,11.49,0,0,0-10.52,0,4.18,4.18,0,0,0-2.41,3.49,4.15,4.15,0,0,0,2.41,3.48,10.59,10.59,0,0,0,5.26,1.28,10.75,10.75,0,0,0,5.26-1.27,4.16,4.16,0,0,0,2.4-3.49A4.16,4.16,0,0,0,48.67,37.29Zm-.78,5.62h0a10,10,0,0,1-9,0,2.69,2.69,0,0,1-1.63-2.13,2.72,2.72,0,0,1,1.63-2.14,10,10,0,0,1,9,0,2.68,2.68,0,0,1,1.62,2.13A2.68,2.68,0,0,1,47.89,42.91ZM86.42,24.72,43.8.1A.83.83,0,0,0,43,.1L.39,24.71a.79.79,0,0,0-.39.68H0V74.61a.79.79,0,0,0,.39.68L43,99.9a.87.87,0,0,0,.39.1.9.9,0,0,0,.39-.1L86.42,75.29a.77.77,0,0,0,.39-.68V25.39A.77.77,0,0,0,86.42,24.72Zm-43-23L84.47,25.39,43.41,49.1,29.78,41.23,2.34,25.39ZM1.56,26.74,42.63,50.45V97.87L1.56,74.16ZM44.19,97.87V50.45L85.25,26.74V74.16ZM68.55,71.05a4.18,4.18,0,0,0-4.22.34h0a11.47,11.47,0,0,0-5.26,9.11,4.15,4.15,0,0,0,1.82,3.83,3.25,3.25,0,0,0,1.65.43A5.22,5.22,0,0,0,65.11,84a11.46,11.46,0,0,0,5.26-9.11A4.15,4.15,0,0,0,68.55,71.05ZM64.33,82.64a2.22,2.22,0,0,1-3.7-2.14,10.07,10.07,0,0,1,4.48-7.76,2.22,2.22,0,0,1,3.7,2.14A10.07,10.07,0,0,1,64.33,82.64Zm4.22-42.36a4.16,4.16,0,0,0-4.22.34h0a11.47,11.47,0,0,0-5.26,9.11,4.17,4.17,0,0,0,1.82,3.83,3.25,3.25,0,0,0,1.65.43,5.22,5.22,0,0,0,2.57-.77,11.46,11.46,0,0,0,5.26-9.11A4.15,4.15,0,0,0,68.55,40.28ZM64.33,51.87a2.22,2.22,0,0,1-3.7-2.14A10.07,10.07,0,0,1,65.11,42a2.22,2.22,0,0,1,3.7,2.14A10.07,10.07,0,0,1,64.33,51.87ZM55.23,48a4.18,4.18,0,0,0-4.22.34,11.47,11.47,0,0,0-5.26,9.11,4.14,4.14,0,0,0,1.81,3.83,3.26,3.26,0,0,0,1.66.43,5.15,5.15,0,0,0,2.57-.77,11.48,11.48,0,0,0,5.26-9.11A4.17,4.17,0,0,0,55.23,48ZM51,59.56a2.69,2.69,0,0,1-2.67.34,2.68,2.68,0,0,1-1-2.47,10.05,10.05,0,0,1,4.48-7.76h0a3.58,3.58,0,0,1,1.78-.57,1.82,1.82,0,0,1,.88.22,2.71,2.71,0,0,1,1,2.48A10.1,10.1,0,0,1,51,59.56Zm4.22,19.18a4.16,4.16,0,0,0-4.22.35,11.46,11.46,0,0,0-5.26,9.11A4.16,4.16,0,0,0,47.56,92a3.37,3.37,0,0,0,1.66.43,5.17,5.17,0,0,0,2.57-.78,11.48,11.48,0,0,0,5.26-9.11A4.17,4.17,0,0,0,55.23,78.74ZM51,90.33h0a2.72,2.72,0,0,1-2.67.35,2.71,2.71,0,0,1-1-2.48,10.05,10.05,0,0,1,4.48-7.76,3.69,3.69,0,0,1,1.78-.57,1.72,1.72,0,0,1,.88.23,2.68,2.68,0,0,1,1,2.47A10.08,10.08,0,0,1,51,90.33Zm30.87-27a4.13,4.13,0,0,0-4.22.34,11.46,11.46,0,0,0-5.26,9.11,4.16,4.16,0,0,0,1.81,3.83,3.26,3.26,0,0,0,1.66.43,5.22,5.22,0,0,0,2.57-.77h0a11.49,11.49,0,0,0,5.26-9.11A4.15,4.15,0,0,0,81.88,63.36ZM77.66,75A2.22,2.22,0,0,1,74,72.81a10.08,10.08,0,0,1,4.49-7.76,3.66,3.66,0,0,1,1.78-.56,1.72,1.72,0,0,1,.88.22,2.7,2.7,0,0,1,1,2.48A10.11,10.11,0,0,1,77.66,75Zm4.22-42.36a4.13,4.13,0,0,0-4.22.34h0A11.46,11.46,0,0,0,72.4,42a4.16,4.16,0,0,0,1.81,3.83,3.26,3.26,0,0,0,1.66.43,5.22,5.22,0,0,0,2.57-.77,11.49,11.49,0,0,0,5.26-9.11A4.15,4.15,0,0,0,81.88,32.59ZM77.66,44.17A2.22,2.22,0,0,1,74,42a10.06,10.06,0,0,1,4.49-7.76,2.67,2.67,0,0,1,2.66-.34,2.7,2.7,0,0,1,1,2.48A10.08,10.08,0,0,1,77.66,44.17Z"/></g></g></svg>