<svg xmlns="http://www.w3.org/2000/svg" viewBox="0 0 68.64 100"><defs><style>.cls-1{fill-rule:evenodd;}</style></defs><g id="Layer_2" data-name="Layer 2"><g id="Layer_1-2" data-name="Layer 1"><path class="cls-1" d="M28.05,14A14,14,0,1,1,14,0,14,14,0,0,1,28.05,14ZM14,36.29a14,14,0,1,0,14,14A14,14,0,0,0,14,36.29ZM14,72a14,14,0,1,0,14,14A14,14,0,0,0,14,72Zm40.59-43.9a14,14,0,1,0-14-14A14,14,0,0,0,54.61,28.05Zm0,8.24a14,14,0,1,0,14,14A14,14,0,0,0,54.61,36.29Zm0,35.66a14,14,0,1,0,14,14A14,14,0,0,0,54.61,72Z"/></g></g></svg>