<svg xmlns="http://www.w3.org/2000/svg" viewBox="0 0 99.03 100"><defs><style>.cls-1{fill:#141515;}</style></defs><g id="Layer_2" data-name="Layer 2"><g id="Layer_1-2" data-name="Layer 1"><path class="cls-1" d="M91.27,0H7.72A7.76,7.76,0,0,0,0,7.79V92.21A7.76,7.76,0,0,0,7.72,100H91.27A7.78,7.78,0,0,0,99,92.21V7.79A7.78,7.78,0,0,0,91.27,0Zm5.62,92.21a5.64,5.64,0,0,1-5.62,5.65H7.72a5.62,5.62,0,0,1-5.58-5.65V7.79A5.62,5.62,0,0,1,7.72,2.14H91.27a5.64,5.64,0,0,1,5.62,5.65ZM49.49,6.89C26,6.89,6.82,26.24,6.82,50S26,93.11,49.49,93.11A43,43,0,0,0,92.21,50C92.21,26.24,73.05,6.89,49.49,6.89Zm0,84.08C27.14,91,9,72.6,9,50S27.14,9,49.49,9a41,41,0,0,1,0,81.94Zm-15-29.65a8,8,0,1,0,7.89,8A8,8,0,0,0,34.54,61.32Zm0,13.82a5.84,5.84,0,1,1,5.75-5.82A5.79,5.79,0,0,1,34.54,75.14ZM64.49,61.32a8,8,0,1,0,7.89,8A8,8,0,0,0,64.49,61.32Zm0,13.82a5.84,5.84,0,1,1,5.75-5.82A5.81,5.81,0,0,1,64.49,75.14Zm0-52.38a8,8,0,1,0,7.89,8A8,8,0,0,0,64.49,22.76Zm0,13.78a5.82,5.82,0,1,1,5.75-5.82A5.81,5.81,0,0,1,64.49,36.54ZM34.54,42a8,8,0,1,0,7.89,8A8,8,0,0,0,34.54,42Zm0,13.82A5.84,5.84,0,1,1,40.29,50,5.79,5.79,0,0,1,34.54,55.84Zm0-33.08a8,8,0,1,0,7.89,8A7.93,7.93,0,0,0,34.54,22.76Zm0,13.78a5.82,5.82,0,1,1,5.75-5.82A5.79,5.79,0,0,1,34.54,36.54ZM64.49,42a8,8,0,1,0,7.89,8A8,8,0,0,0,64.49,42Zm0,13.82A5.84,5.84,0,1,1,70.24,50,5.81,5.81,0,0,1,64.49,55.84Z"/></g></g></svg>