<svg xmlns="http://www.w3.org/2000/svg" viewBox="0 0 86.81 100"><g id="Layer_2" data-name="Layer 2"><g id="Layer_1-2" data-name="Layer 1"><path d="M60.88,68.94a3.27,3.27,0,0,0,1.66.44,5.14,5.14,0,0,0,2.57-.78,11.46,11.46,0,0,0,5.26-9.11,3.73,3.73,0,0,0-6-3.49,11.49,11.49,0,0,0-5.26,9.12A4.14,4.14,0,0,0,60.88,68.94Zm4.23-11.58a3.56,3.56,0,0,1,1.78-.56,1.69,1.69,0,0,1,.88.22,2.68,2.68,0,0,1,1,2.47,10.05,10.05,0,0,1-4.48,7.76,2.22,2.22,0,0,1-3.7-2.13A10.05,10.05,0,0,1,65.11,57.36Zm-29.3-9A4.17,4.17,0,0,0,31.58,48a4.16,4.16,0,0,0-1.81,3.83A11.46,11.46,0,0,0,35,60.91a5.11,5.11,0,0,0,2.56.77,3.26,3.26,0,0,0,1.66-.43,4.15,4.15,0,0,0,1.82-3.83A11.49,11.49,0,0,0,35.81,48.31ZM38.47,59.9a2.7,2.7,0,0,1-2.66-.34,10.07,10.07,0,0,1-4.48-7.76,2.73,2.73,0,0,1,1-2.48,1.86,1.86,0,0,1,.89-.22,3.61,3.61,0,0,1,1.78.57,10.05,10.05,0,0,1,4.48,7.76A2.68,2.68,0,0,1,38.47,59.9Zm-29.31-27a4.13,4.13,0,0,0-4.22-.34,4.12,4.12,0,0,0-1.82,3.82,11.44,11.44,0,0,0,5.26,9.11,5.13,5.13,0,0,0,2.56.78,3.26,3.26,0,0,0,1.66-.43A4.17,4.17,0,0,0,14.42,42,11.46,11.46,0,0,0,9.16,32.93Zm2.66,11.59a2.7,2.7,0,0,1-2.66-.35,10.05,10.05,0,0,1-4.48-7.76,2.7,2.7,0,0,1,1-2.47,1.75,1.75,0,0,1,.89-.22,3.72,3.72,0,0,1,1.78.56A10.07,10.07,0,0,1,12.86,42,2.71,2.71,0,0,1,11.82,44.52ZM9.16,63.7a4.15,4.15,0,0,0-4.23-.34,4.15,4.15,0,0,0-1.81,3.83A11.47,11.47,0,0,0,8.38,76.3a5.22,5.22,0,0,0,2.56.77,3.26,3.26,0,0,0,1.66-.43,4.16,4.16,0,0,0,1.82-3.83A11.47,11.47,0,0,0,9.16,63.7Zm2.66,11.59a2.7,2.7,0,0,1-2.66-.35,10.05,10.05,0,0,1-4.48-7.75,2.73,2.73,0,0,1,1-2.48,1.75,1.75,0,0,1,.89-.22,3.69,3.69,0,0,1,1.78.56,10.07,10.07,0,0,1,4.48,7.76A2.71,2.71,0,0,1,11.82,75.29Zm24,3.8a4.18,4.18,0,0,0-4.23-.35,4.16,4.16,0,0,0-1.81,3.83A11.46,11.46,0,0,0,35,91.68a5.13,5.13,0,0,0,2.56.78A3.27,3.27,0,0,0,39.25,92a4.15,4.15,0,0,0,1.82-3.83A11.45,11.45,0,0,0,35.81,79.09Zm2.66,11.58a2.67,2.67,0,0,1-2.66-.34,10.07,10.07,0,0,1-4.48-7.76,2.7,2.7,0,0,1,1-2.47,1.76,1.76,0,0,1,.89-.23,3.64,3.64,0,0,1,1.78.57,10.05,10.05,0,0,1,4.48,7.75A2.69,2.69,0,0,1,38.47,90.67ZM86.81,25.39a.79.79,0,0,0-.39-.68L43.8.1A.83.83,0,0,0,43,.1L.39,24.71a.79.79,0,0,0-.39.68H0V74.61a.79.79,0,0,0,.39.68L43,99.9a.87.87,0,0,0,.39.1.9.9,0,0,0,.39-.1L86.42,75.29a.79.79,0,0,0,.39-.68V25.39ZM43.41,1.68,84.47,25.39,43.41,49.09,2.34,25.39ZM1.56,26.74,42.63,50.45V97.87L1.56,74.16ZM85.25,74.16,44.19,97.87V50.45L85.25,26.74ZM38.15,28.88a10.69,10.69,0,0,0,5.26,1.27,10.86,10.86,0,0,0,5.26-1.27h0a4.14,4.14,0,0,0,2.4-3.48,4.14,4.14,0,0,0-2.4-3.49,11.51,11.51,0,0,0-10.53,0,4.14,4.14,0,0,0-2.4,3.49A4.16,4.16,0,0,0,38.15,28.88Zm.78-5.63a10.08,10.08,0,0,1,9,0,2.71,2.71,0,0,1,1.62,2.14,2.68,2.68,0,0,1-1.62,2.13,10.1,10.1,0,0,1-9,0,2.68,2.68,0,0,1-1.62-2.13A2.72,2.72,0,0,1,38.93,23.25ZM64.8,28.88a10.69,10.69,0,0,0,5.26,1.27,10.86,10.86,0,0,0,5.26-1.27h0a4.14,4.14,0,0,0,2.4-3.48,4.16,4.16,0,0,0-2.41-3.49,11.43,11.43,0,0,0-10.52,0,4.15,4.15,0,0,0-2.4,3.49A4.16,4.16,0,0,0,64.8,28.88Zm.78-5.63a10.06,10.06,0,0,1,9,0,2.72,2.72,0,0,1,1.63,2.14,2.68,2.68,0,0,1-1.62,2.13,10.1,10.1,0,0,1-9,0A2.7,2.7,0,0,1,64,25.39,2.72,2.72,0,0,1,65.58,23.25ZM38.15,13.49a10.7,10.7,0,0,0,5.26,1.28,10.75,10.75,0,0,0,5.26-1.28A4.16,4.16,0,0,0,51.07,10a4.13,4.13,0,0,0-2.41-3.48,11.46,11.46,0,0,0-10.52,0A4.16,4.16,0,0,0,35.74,10,4.16,4.16,0,0,0,38.15,13.49Zm.78-5.62h0a10,10,0,0,1,9,0A2.69,2.69,0,0,1,49.51,10a2.68,2.68,0,0,1-1.62,2.13,10,10,0,0,1-9,0A2.68,2.68,0,0,1,37.3,10,2.69,2.69,0,0,1,38.93,7.87ZM22,21.9a11.49,11.49,0,0,0-10.52,0,4.14,4.14,0,0,0-2.41,3.49,4.16,4.16,0,0,0,2.41,3.49,10.69,10.69,0,0,0,5.26,1.27A10.75,10.75,0,0,0,22,28.88a4.16,4.16,0,0,0,2.4-3.49A4.15,4.15,0,0,0,22,21.9Zm-.78,5.62a10,10,0,0,1-9,0,2.67,2.67,0,0,1-1.63-2.13,2.7,2.7,0,0,1,1.63-2.14,9.18,9.18,0,0,1,4.48-1.05,9.24,9.24,0,0,1,4.48,1.05,2.7,2.7,0,0,1,1.62,2.14A2.68,2.68,0,0,1,21.24,27.52ZM48.67,44.26h0a4.15,4.15,0,0,0,2.4-3.49,4.16,4.16,0,0,0-2.4-3.49,11.51,11.51,0,0,0-10.53,0,4.14,4.14,0,0,0-2.4,3.48,4.16,4.16,0,0,0,2.4,3.49,11.47,11.47,0,0,0,10.53,0ZM37.3,40.77a2.7,2.7,0,0,1,1.62-2.13,10.08,10.08,0,0,1,9,0,2.69,2.69,0,0,1,1.63,2.13,2.72,2.72,0,0,1-1.63,2.14,10.08,10.08,0,0,1-9,0A2.71,2.71,0,0,1,37.3,40.77Z"/></g></g></svg>