<svg xmlns="http://www.w3.org/2000/svg" viewBox="0 0 88.43 100"><g id="Layer_2" data-name="Layer 2"><g id="Layer_1-2" data-name="Layer 1"><path d="M88.43,48.34a7.93,7.93,0,0,0-.18-1.94q-1.38-5.57-2.75-11.13a7.42,7.42,0,0,0-3.3-4.56q-17-11.12-34-22.25c-4-2.59-7.89-5.19-11.87-7.74-2-1.26-3.64-.84-4.88,1.05Q16.28,24.9,1.11,48a6.16,6.16,0,0,0-.92,5c.71,2.89,1.37,5.8,1.93,8.73a12.73,12.73,0,0,0,6,8.9c6.39,4,12.68,8.21,19,12.32l25,16.2a4.14,4.14,0,0,0,2.06.79,4,4,0,0,0,3.74-2.15Q65.27,86.43,72.73,75q7.15-11,14.32-21.94A8.28,8.28,0,0,0,88.43,48.34ZM5,65.2a1.72,1.72,0,0,1-.41-1c-.93-3.7-1.8-7.42-2.79-11.11a5.35,5.35,0,0,1,.79-4.59q8.19-12.47,16.32-25l13-20c.25-.38.45-.91,1-.85s.67.66.79,1.13c.93,3.68,1.83,7.36,2.79,11A3.71,3.71,0,0,1,35.92,18Q28.14,29.9,20.37,41.8L5.71,64.28A2.33,2.33,0,0,1,5,65.2ZM85.73,52.45,75.53,68.06,56.69,97c-1.22,1.88-2.2,2.1-4.09.87L10.06,70c-.88-.58-1.78-1.14-2.66-1.73-1.25-.85-1.44-1.71-.61-3C8.37,62.85,10,60.41,11.57,58L36.74,19.39c.82-1.26,1.61-1.43,2.88-.6q18.32,11.94,36.61,23.9l9,5.86a2.23,2.23,0,0,1,1.26,2A3.18,3.18,0,0,1,85.73,52.45Zm1-5.08c-.39.29-.7,0-1-.25q-15-9.76-30-19.55L39.59,17A3.4,3.4,0,0,1,38,15Q36.53,9,35.05,3.1c-.11-.42-.28-.87.3-1a2,2,0,0,1,1,.45L54.59,14.46q13.3,8.68,26.62,17.36a6.32,6.32,0,0,1,2.93,4c.84,3.53,1.76,7,2.64,10.58C86.86,46.73,87.08,47.11,86.74,47.37Zm-40-9.89a5,5,0,1,1-5-5A5.05,5.05,0,0,1,46.76,37.48ZM30.94,61.66a5,5,0,1,1-5-5A5.05,5.05,0,0,1,30.94,61.66Zm41.71-7.37a5,5,0,0,1-5.1,5,4.95,4.95,0,1,1,5.1-5ZM56.84,78.58a5,5,0,0,1-9.91,0,5,5,0,1,1,9.91,0ZM12.89,44.63a7.8,7.8,0,0,1-4.27,5.85c-1.38.69-2.47,0-2.54-1.61a8.17,8.17,0,0,1,4.29-6.64C11.94,41.6,12.92,42.34,12.89,44.63Zm9-20.72A8,8,0,0,1,26,18.08c1.54-.83,2.79,0,2.68,1.74a7.61,7.61,0,0,1-4,6.3C23.06,27.06,21.87,26.22,21.92,23.91Zm59.94,10c.5,1,0,1.84-1.1,1.66a9.84,9.84,0,0,1-6.94-4.53c-.59-.93-.09-1.66,1.22-1.67a10.29,10.29,0,0,1,5.07,2.51A6.33,6.33,0,0,1,81.86,33.94ZM48.77,18.67c.31.46.66,1,.29,1.55a1.37,1.37,0,0,1-1.61.42,11.23,11.23,0,0,1-6.22-4,2.31,2.31,0,0,1-.28-.48c-.51-1.07-.12-1.71,1-1.7a4.38,4.38,0,0,1,1.71.41A10.84,10.84,0,0,1,48.77,18.67Zm16.46,7.55c.3.43.59.94.26,1.47a1.26,1.26,0,0,1-1.5.44,10.74,10.74,0,0,1-6.46-4.21,1.35,1.35,0,0,1-.24-1.48c.24-.45.68-.5,1.27-.49a7.11,7.11,0,0,1,.95.2A10.77,10.77,0,0,1,65.23,26.22Z"/></g></g></svg>