<svg xmlns="http://www.w3.org/2000/svg" viewBox="0 0 100 98.55"><defs><style>.cls-1{fill:#020203;}</style></defs><g id="Layer_2" data-name="Layer 2"><g id="Layer_1-2" data-name="Layer 1"><path class="cls-1" d="M0,90.93A7.12,7.12,0,0,0,7.08,98.1l67.9.45a6.05,6.05,0,0,0,6.09-6l.48-72.6a2.42,2.42,0,0,0-2.4-2.44L6.28,17A5.8,5.8,0,0,0,.45,22.77ZM65.29,39a6.58,6.58,0,1,1,6.35-6.8A6.57,6.57,0,0,1,65.29,39ZM54.75,80.47a6.58,6.58,0,1,1,6.8,6.35A6.57,6.57,0,0,1,54.75,80.47ZM33.45,53.22a6.58,6.58,0,1,1,6.8,6.35A6.59,6.59,0,0,1,33.45,53.22Zm-13-14a6.58,6.58,0,1,1,6.35-6.8A6.58,6.58,0,0,1,20.43,39.2ZM9.63,81.14a6.58,6.58,0,1,1,6.8,6.35A6.59,6.59,0,0,1,9.63,81.14ZM96.27,3.21a1.55,1.55,0,0,0-1-2.71L19.56,0a6.1,6.1,0,0,0-4.18,1.61L5.28,10.84A2.5,2.5,0,0,0,7,15.18l73.4.48a5,5,0,0,0,3.39-1.28ZM35.86,7.49c0,1.65-3,2.93-6.64,2.85s-6.55-1.46-6.51-3.12,3-2.93,6.63-2.86S35.89,5.83,35.86,7.49ZM73,6.69c0,1.65-3,2.93-6.64,2.86S59.76,8.08,59.8,6.43s3-2.93,6.63-2.86S73,5,73,6.69ZM83.39,20l-.48,73.06A2.44,2.44,0,0,0,87,94.9L95,87.53a13.82,13.82,0,0,0,4.49-10.12L100,6.07a1.66,1.66,0,0,0-2.77-1.25L85.56,15.22A6.49,6.49,0,0,0,83.39,20ZM89.07,50.5c0-3.84,1.06-7,2.38-7s2.38,3.11,2.38,7-1.07,7-2.38,7S89.07,54.34,89.07,50.5Z"/></g></g></svg>