<svg xmlns="http://www.w3.org/2000/svg" viewBox="0 0 100 87.73"><g id="Layer_2" data-name="Layer 2"><g id="Layer_1-2" data-name="Layer 1"><path d="M99.93,30.77c-.17,6.2-.71,12.39-.48,18.6.2,5.3,0,10.62.52,15.92a5.32,5.32,0,0,1-3.64,5.85c-10.22,4.21-20,9.31-30.16,13.75a31.63,31.63,0,0,1-13.4,2.83A40.27,40.27,0,0,1,40,85.22c-5.62-2-10.85-4.9-16.37-7.1A101.88,101.88,0,0,1,6.85,69.63a34.77,34.77,0,0,1-4.63-3.3,6.49,6.49,0,0,1-2.22-5c0-3.8.3-7.58.34-11.38Q.49,35.22,1.58,20.58c.06-.83.25-1.66.39-2.49a4.57,4.57,0,0,1,2.92-3.7c.66-.28,1.3-.6,2-.83l35-11.84.36-.13a19.73,19.73,0,0,1,17.09.74C64.46,5,70.2,6.25,75.52,8.51c6.21,2.65,12.41,5.34,18.69,7.81,4,1.57,5,4.8,5.44,8.52A40.54,40.54,0,0,1,99.93,30.77ZM52.55,19.82a5.63,5.63,0,0,0,2.37-.41,3.18,3.18,0,0,0,2.14-3.59A2.84,2.84,0,0,0,54.65,13a8.57,8.57,0,0,0-5.91.56,2.91,2.91,0,0,0-.35,5.14A6.52,6.52,0,0,0,52.55,19.82ZM27.42,49.18a3.59,3.59,0,0,0-3.7-3.89,3.8,3.8,0,0,0-4.11,3.84,3.85,3.85,0,0,0,4,4.11C26,53.25,27.43,51.69,27.42,49.18Zm6.71,21.06A3.88,3.88,0,0,0,38,66.09C38,63.76,36.42,62,34.4,62c-2.24,0-3.87,1.9-3.89,4.55C30.49,68.91,31.77,70.23,34.13,70.24ZM14.42,37.31c2.34,0,4.38-1.67,4.34-3.51A3.59,3.59,0,0,0,15,30.25a3.47,3.47,0,0,0-3.77,3.65C11.24,36,12.45,37.32,14.42,37.31ZM72.25,46.1a3.37,3.37,0,0,0-3.67-3.32A3.25,3.25,0,0,0,65,46.16a3.63,3.63,0,0,0,7.25-.06ZM65.71,69.41A3.5,3.5,0,0,0,69.34,73a3.08,3.08,0,0,0,3.14-3.36,3.19,3.19,0,0,0-3.31-3.38A3.12,3.12,0,0,0,65.71,69.41Zm-17-37.29a301.08,301.08,0,0,0-36-12C24.61,24.29,36.36,29.1,48.7,32.12ZM90.43,57.36c-2.16,0-3.68,1.41-3.65,3.34s1.36,3.48,2.82,3.49C91.33,64.2,93,62,93,59.7,93,58.07,92.22,57.35,90.43,57.36ZM85.71,39.14c0,2,1,3,2.77,3s3.2-1.62,3.19-3.8c0-1.77-.93-2.76-2.58-2.77A3.22,3.22,0,0,0,85.71,39.14ZM62.1,32.6c8.44-1.29,24.23-6.25,27.17-8.53C83.75,25.08,65.19,30.9,62.1,32.6ZM53.68,42A370,370,0,0,0,53,81.11C53.26,68.07,54,55,53.68,42Z"/></g></g></svg>