<svg xmlns="http://www.w3.org/2000/svg" viewBox="0 0 100 86.85"><defs><style>.cls-1{fill:#020203;}</style></defs><g id="Layer_2" data-name="Layer 2"><g id="Layer_1-2" data-name="Layer 1"><path class="cls-1" d="M18.51,46.21l39.3,37.14a3.72,3.72,0,0,0,5.26-.16L99,44.82a3.76,3.76,0,0,0-.17-5.33L60.27,3.42a3.51,3.51,0,0,0-5,.17L18.42,43A2.27,2.27,0,0,0,18.51,46.21ZM85.42,36.06a4.87,4.87,0,1,1-6.5,2.3A4.86,4.86,0,0,1,85.42,36.06ZM72,49a4.87,4.87,0,1,1-6.5,2.3A4.87,4.87,0,0,1,72,49ZM59,62.15a4.87,4.87,0,1,1-6.5,2.3A4.88,4.88,0,0,1,59,62.15Zm7.35-44.63a4.87,4.87,0,1,1-6.49,2.3A4.88,4.88,0,0,1,66.37,17.52ZM53,30.48a4.87,4.87,0,1,1-6.5,2.3A4.87,4.87,0,0,1,53,30.48ZM40,43.61a4.87,4.87,0,1,1-6.49,2.3A4.88,4.88,0,0,1,40,43.61ZM13.66,45.54l-12.17.05A1,1,0,0,0,.8,47.37L40.57,84.59a8.17,8.17,0,0,0,5.55,2.21l10.16,0a1.28,1.28,0,0,0,.88-2.21L16.63,46.7A4.32,4.32,0,0,0,13.66,45.54ZM36.3,73.14c.85-.88,3.11-.07,5,1.81s2.8,4.11,1.94,5-3.11.07-5-1.81S35.45,74,36.3,73.14Zm-19.78-19c.85-.88,3.11-.07,5,1.81s2.8,4.11,1.94,5-3.1.07-5-1.81S15.67,55,16.52,54.1Zm-2.87-9.93a4.23,4.23,0,0,0,3.06-1.33L54.94,2A1.15,1.15,0,0,0,54.1.05L43.68,0a8.3,8.3,0,0,0-6.1,2.63L.28,42.48A1,1,0,0,0,1,44.23Zm13.8-26c1.93-2,4.38-2.73,5.47-1.66s.42,3.53-1.5,5.51S27,24.77,25.94,23.7,25.52,20.17,27.45,18.19Z"/></g></g></svg>