<svg xmlns="http://www.w3.org/2000/svg" viewBox="0 0 100 68.15"><defs><style>.cls-1{fill:#020203;}</style></defs><g id="Layer_2" data-name="Layer 2"><g id="Layer_1-2" data-name="Layer 1"><path class="cls-1" d="M98.14,24.85l-1.68-.74L63.34,8.94a2.52,2.52,0,0,0-1.85-.11l-9.36,3.08-.44.15a2.47,2.47,0,0,0-1.43,1.3l-.92,2L40.74,2.15l-.3-.45A3.8,3.8,0,0,0,35.22.6l-1.8,1.14L4,21a3.4,3.4,0,0,0-1.46,2.05L.48,31,.06,32.85a2.14,2.14,0,0,0,.31,1.7l.92,1.36L21.08,66.3a3.61,3.61,0,0,0,5,1l17.61-11.5L68.81,67.22l.49.24a6.83,6.83,0,0,0,5.21.32l1.62-.56L82.4,65.1a2.55,2.55,0,0,0,1.46-1.33L99.72,29h0A3.11,3.11,0,0,0,98.14,24.85ZM52.64,12.62l9-3a1.91,1.91,0,0,1,1.41.08l35.1,16a.52.52,0,0,1-.06,1L90,29.37a2.33,2.33,0,0,1-1.72-.09L52.62,13A.22.22,0,0,1,52.64,12.62ZM38.07,1.6a.64.64,0,0,1,1.16-.19l9.7,14.87.53.81,4.45,6.81,3.62,5.54,2.59,4a2.36,2.36,0,0,1,.32,1.88l-.18.71L59.2,40.28l-1,3.87a.32.32,0,0,1-.58.1L45.54,25.69,45,24.88,36.27,11.49A2.06,2.06,0,0,1,36,9.87ZM1.1,32.12l2.2-8.79a2.79,2.79,0,0,1,1.17-1.64L36.28.94a.62.62,0,0,1,.94.67l-2,8.13A2.1,2.1,0,0,1,34.28,11L1.5,32.41A.26.26,0,0,1,1.1,32.12Zm42.5,22.8-.81.53-16.85,11a3.17,3.17,0,0,1-4.39-.92l-20.2-31a.91.91,0,0,1,.26-1.26L34.26,12a1.16,1.16,0,0,1,1.59.34l8.76,13.42.53.81L57.21,45.06A.83.83,0,0,1,57,46.2ZM72.16,66.25a1.56,1.56,0,0,1-2,.76L44.48,55.32,56.2,47.7l1.24-.82a4,4,0,0,0,1.66-2.32l.35-1.33.46-2a3,3,0,0,0,.85.57,3.32,3.32,0,1,0,.47-6.21l0-.1A3.16,3.16,0,0,0,60.83,33l-2.64-4a3.25,3.25,0,0,0,.8-1.09,3.32,3.32,0,0,0-4.38-4.41l-4.74-7.26.94-2.08a.94.94,0,0,1,1.24-.47L87.85,30a.78.78,0,0,1,.38,1ZM99.34,27.86l-16.1,35.3a2.31,2.31,0,0,1-1.38,1.24l-8.53,2.83a.39.39,0,0,1-.48-.53l16-35.13A2.88,2.88,0,0,1,90.57,30l8.27-2.73A.41.41,0,0,1,99.34,27.86ZM78.45,36.75a3.32,3.32,0,1,1-1.64-4.4A3.32,3.32,0,0,1,78.45,36.75ZM71.13,17.57c.4-.9,2.09-1,3.76-.24s2.69,2.1,2.28,3-2.09,1-3.76.25S70.72,18.46,71.13,17.57ZM70.14,55a3.32,3.32,0,1,1-1.64-4.4A3.32,3.32,0,0,1,70.14,55ZM92,40c-.76,1.67-2,2.72-2.89,2.33s-.89-2-.13-3.7,2-2.72,2.89-2.34S92.72,38.36,92,40Zm-8.3,18.21c-.76,1.67-2.06,2.72-2.89,2.34s-.89-2-.13-3.71,2-2.72,2.88-2.34S84.42,56.57,83.66,58.24ZM17.36,35a3.32,3.32,0,1,1-4.6-1A3.33,3.33,0,0,1,17.36,35Zm17.9-11.68a3.32,3.32,0,1,1-4.59-1A3.31,3.31,0,0,1,35.26,23.36ZM4.79,23.6c-.36-.55.6-1.8,2.13-2.81S10,19.42,10.35,20s-.6,1.8-2.14,2.8S5.14,24.14,4.79,23.6Zm11.38-5.15c-.36-.55.6-1.8,2.13-2.81s3.07-1.37,3.43-.82-.6,1.8-2.14,2.8S16.52,19,16.17,18.45Zm11.36-5.18c-.36-.55.6-1.8,2.13-2.8s3.07-1.37,3.43-.83-.6,1.8-2.14,2.8S27.88,13.82,27.53,13.27ZM28.3,51.8a3.32,3.32,0,1,1-4.6-1A3.32,3.32,0,0,1,28.3,51.8ZM46.72,41.53a3.32,3.32,0,0,1-1.48,3.18,3.1,3.1,0,0,1-.87.4,3.32,3.32,0,1,1,1.83-5A3.27,3.27,0,0,1,46.72,41.53Zm-4.23-26c-1-1.54-1.2-3.19-.43-3.69s2.21.34,3.21,1.88,1.19,3.18.42,3.68S43.49,17.05,42.49,15.51ZM53.43,32.27c-1-1.53-1.2-3.19-.43-3.69a.81.81,0,0,1,.29-.12,3,3,0,0,1,2.44,1.35,6.42,6.42,0,0,1,.48.65c1,1.53,1.19,3.18.42,3.68S54.43,33.81,53.43,32.27Z"/></g></g></svg>