<svg xmlns="http://www.w3.org/2000/svg" viewBox="0 0 86.82 100"><g id="Layer_2" data-name="Layer 2"><g id="Layer_1-2" data-name="Layer 1"><path d="M38.15,28.87a10.62,10.62,0,0,0,5.26,1.28,10.75,10.75,0,0,0,5.26-1.27,4.16,4.16,0,0,0,2.4-3.49,4.16,4.16,0,0,0-2.4-3.49,11.49,11.49,0,0,0-10.52,0,4.14,4.14,0,0,0-2.41,3.49A4.13,4.13,0,0,0,38.15,28.87Zm.78-5.62h0a10.08,10.08,0,0,1,9,0,2.72,2.72,0,0,1,1.62,2.14,2.68,2.68,0,0,1-1.62,2.13,10,10,0,0,1-9,0,2.69,2.69,0,0,1-1.63-2.13A2.72,2.72,0,0,1,38.93,23.25ZM11.5,28.87a10.62,10.62,0,0,0,5.26,1.28A10.75,10.75,0,0,0,22,28.88a4.16,4.16,0,0,0,2.4-3.49A4.16,4.16,0,0,0,22,21.9a11.49,11.49,0,0,0-10.52,0,4.14,4.14,0,0,0-2.41,3.49A4.15,4.15,0,0,0,11.5,28.87Zm.78-5.62h0a9.21,9.21,0,0,1,4.48-1.05,9.24,9.24,0,0,1,4.48,1.05,2.7,2.7,0,0,1,1.62,2.14,2.68,2.68,0,0,1-1.62,2.13,10,10,0,0,1-9,0,2.69,2.69,0,0,1-1.63-2.13A2.72,2.72,0,0,1,12.28,23.25ZM64.8,28.88a11.53,11.53,0,0,0,10.52,0h0a4.16,4.16,0,0,0,2.4-3.49,4.16,4.16,0,0,0-2.4-3.49,11.49,11.49,0,0,0-10.52,0,4.14,4.14,0,0,0-2.41,3.49A4.18,4.18,0,0,0,64.8,28.88Zm.78-5.63a10.08,10.08,0,0,1,9,0,2.7,2.7,0,0,1,1.62,2.14,2.68,2.68,0,0,1-1.62,2.13,9.92,9.92,0,0,1-9,0A2.72,2.72,0,0,1,64,25.39,2.72,2.72,0,0,1,65.58,23.25Zm20.84,1.46L43.8.1A.83.83,0,0,0,43,.1L.39,24.71a.79.79,0,0,0-.39.68V74.61a.77.77,0,0,0,.39.67L43,99.9a.87.87,0,0,0,.39.1.9.9,0,0,0,.39-.1L86.43,75.28a.77.77,0,0,0,.39-.67V25.39A.82.82,0,0,0,86.42,24.71Zm-43-23L84.47,25.39,43.41,49.1,17.62,34.21,2.34,25.39ZM1.56,26.74l11.16,6.45L42.63,50.45V97.87L1.56,74.16V26.74ZM44.19,97.87V50.45l13.54-7.82L85.25,26.74V74.16ZM68.55,55.66a4.16,4.16,0,0,0-4.22.35,11.46,11.46,0,0,0-5.26,9.11A4.17,4.17,0,0,0,60.89,69a3.25,3.25,0,0,0,1.65.43,5.22,5.22,0,0,0,2.57-.77,11.49,11.49,0,0,0,5.26-9.12A4.15,4.15,0,0,0,68.55,55.66Zm-4.22,11.6a2.22,2.22,0,0,1-3.7-2.14,10.05,10.05,0,0,1,4.48-7.76,3.69,3.69,0,0,1,1.78-.56,1.69,1.69,0,0,1,.88.22,2.7,2.7,0,0,1,1,2.48A10.08,10.08,0,0,1,64.33,67.26ZM81.88,32.59a4.13,4.13,0,0,0-4.22.34A11.46,11.46,0,0,0,72.4,42a4.17,4.17,0,0,0,1.82,3.83,3.23,3.23,0,0,0,1.65.43,5.22,5.22,0,0,0,2.57-.77,11.48,11.48,0,0,0,5.26-9.12A4.14,4.14,0,0,0,81.88,32.59ZM77.66,44.17A2.21,2.21,0,0,1,74,42a10.05,10.05,0,0,1,4.48-7.76,3.69,3.69,0,0,1,1.78-.57,1.72,1.72,0,0,1,.88.23,2.68,2.68,0,0,1,1,2.47A10.05,10.05,0,0,1,77.66,44.17ZM55.23,48a4.18,4.18,0,0,0-4.22.34,11.49,11.49,0,0,0-5.26,9.11,4.15,4.15,0,0,0,1.81,3.83,3.27,3.27,0,0,0,1.66.44,5.17,5.17,0,0,0,2.57-.78,11.46,11.46,0,0,0,5.26-9.11A4.17,4.17,0,0,0,55.23,48ZM51,59.56a2.69,2.69,0,0,1-2.67.34,2.7,2.7,0,0,1-1-2.48,10.05,10.05,0,0,1,4.48-7.75,3.58,3.58,0,0,1,1.78-.57,1.72,1.72,0,0,1,.88.22,2.71,2.71,0,0,1,1,2.48A10.05,10.05,0,0,1,51,59.56Zm4.22,19.19a4.13,4.13,0,0,0-4.22.34,11.46,11.46,0,0,0-5.26,9.11A4.16,4.16,0,0,0,47.56,92a3.37,3.37,0,0,0,1.66.43,5.17,5.17,0,0,0,2.57-.78,11.46,11.46,0,0,0,5.26-9.11A4.14,4.14,0,0,0,55.23,78.75ZM51,90.33a2.69,2.69,0,0,1-2.67.34,2.68,2.68,0,0,1-1-2.47,10.05,10.05,0,0,1,4.48-7.76,3.69,3.69,0,0,1,1.78-.57,1.72,1.72,0,0,1,.88.23,2.68,2.68,0,0,1,1,2.47A10.05,10.05,0,0,1,51,90.33Zm30.87-27a4.13,4.13,0,0,0-4.22.34,11.46,11.46,0,0,0-5.26,9.11,4.17,4.17,0,0,0,1.82,3.83,3.23,3.23,0,0,0,1.65.43,5.22,5.22,0,0,0,2.57-.77,11.47,11.47,0,0,0,5.26-9.11A4.16,4.16,0,0,0,81.88,63.36ZM77.66,75A2.22,2.22,0,0,1,74,72.81a10.07,10.07,0,0,1,4.48-7.76,3.66,3.66,0,0,1,1.78-.56,1.72,1.72,0,0,1,.88.22,2.7,2.7,0,0,1,1,2.48A10.08,10.08,0,0,1,77.66,75ZM9.16,48.31A4.18,4.18,0,0,0,4.94,48,4.15,4.15,0,0,0,3.12,51.8a11.46,11.46,0,0,0,5.26,9.11,5.12,5.12,0,0,0,2.57.77,3.25,3.25,0,0,0,1.65-.43,4.15,4.15,0,0,0,1.82-3.83A11.49,11.49,0,0,0,9.16,48.31ZM11.82,59.9a2.67,2.67,0,0,1-2.66-.34A10.07,10.07,0,0,1,4.68,51.8a2.71,2.71,0,0,1,1-2.48,1.79,1.79,0,0,1,.88-.22,3.69,3.69,0,0,1,1.78.56,10.08,10.08,0,0,1,4.48,7.76A2.69,2.69,0,0,1,11.82,59.9Zm24,3.8a4.15,4.15,0,0,0-4.22-.34,4.15,4.15,0,0,0-1.82,3.83A11.46,11.46,0,0,0,35,76.3a5.22,5.22,0,0,0,2.56.77,3.26,3.26,0,0,0,1.66-.43,4.16,4.16,0,0,0,1.82-3.83A11.47,11.47,0,0,0,35.81,63.7Zm2.66,11.59A2.72,2.72,0,0,1,35.81,75a10.07,10.07,0,0,1-4.48-7.76,2.71,2.71,0,0,1,1-2.48,1.69,1.69,0,0,1,.88-.22,3.66,3.66,0,0,1,1.78.56,10.09,10.09,0,0,1,4.48,7.77A2.7,2.7,0,0,1,38.47,75.29Zm-2.66-27A4.18,4.18,0,0,0,31.59,48a4.15,4.15,0,0,0-1.82,3.83A11.46,11.46,0,0,0,35,60.91a5.13,5.13,0,0,0,2.56.78,3.27,3.27,0,0,0,1.66-.44,4.15,4.15,0,0,0,1.82-3.83A11.49,11.49,0,0,0,35.81,48.31ZM38.47,59.9a2.67,2.67,0,0,1-2.66-.34,10.05,10.05,0,0,1-4.48-7.76,2.71,2.71,0,0,1,1-2.48,1.79,1.79,0,0,1,.88-.22,3.69,3.69,0,0,1,1.78.56,10.08,10.08,0,0,1,4.48,7.76A2.69,2.69,0,0,1,38.47,59.9Zm-29.31-27a4.13,4.13,0,0,0-4.22-.34,4.14,4.14,0,0,0-1.82,3.82,11.44,11.44,0,0,0,5.26,9.11A5.14,5.14,0,0,0,11,46.3a3.25,3.25,0,0,0,1.65-.43A4.17,4.17,0,0,0,14.42,42,11.46,11.46,0,0,0,9.16,32.93Zm2.66,11.59a2.71,2.71,0,0,1-2.66-.35,10.05,10.05,0,0,1-4.48-7.76,2.68,2.68,0,0,1,1-2.47,1.7,1.7,0,0,1,.88-.23,3.72,3.72,0,0,1,1.78.57A10.07,10.07,0,0,1,12.86,42,2.71,2.71,0,0,1,11.82,44.52ZM9.16,63.7a4.13,4.13,0,0,0-4.22-.34,4.15,4.15,0,0,0-1.82,3.83A11.46,11.46,0,0,0,8.38,76.3a5.22,5.22,0,0,0,2.57.77,3.25,3.25,0,0,0,1.65-.43,4.16,4.16,0,0,0,1.82-3.83A11.47,11.47,0,0,0,9.16,63.7Zm2.66,11.59A2.7,2.7,0,0,1,9.16,75a10.07,10.07,0,0,1-4.48-7.76,2.71,2.71,0,0,1,1-2.48,1.69,1.69,0,0,1,.88-.22,3.69,3.69,0,0,1,1.78.56,10.09,10.09,0,0,1,4.48,7.77A2.7,2.7,0,0,1,11.82,75.29Zm24,3.8a4.13,4.13,0,0,0-4.22-.34,4.12,4.12,0,0,0-1.82,3.82A11.49,11.49,0,0,0,35,91.69a5.22,5.22,0,0,0,2.57.77A3.36,3.36,0,0,0,39.25,92a4.17,4.17,0,0,0,1.82-3.83A11.46,11.46,0,0,0,35.81,79.09Zm2.66,11.58a2.67,2.67,0,0,1-2.66-.34,10.05,10.05,0,0,1-4.48-7.76,2.68,2.68,0,0,1,1-2.47,1.69,1.69,0,0,1,.88-.22,3.69,3.69,0,0,1,1.78.56,10.05,10.05,0,0,1,4.48,7.76A2.68,2.68,0,0,1,38.47,90.67Z"/></g></g></svg>