<svg xmlns="http://www.w3.org/2000/svg" viewBox="0 0 100 97.03"><defs><style>.cls-1{fill-rule:evenodd;}</style></defs><g id="Layer_2" data-name="Layer 2"><g id="Layer_1-2" data-name="Layer 1"><path class="cls-1" d="M0,17.61a17.61,17.61,0,1,1,17.61,17.6A17.6,17.6,0,0,1,0,17.61Zm82.39,17.6a17.61,17.61,0,1,0-17.6-17.6A17.6,17.6,0,0,0,82.39,35.21ZM49.55,31.7a17.61,17.61,0,1,0,17.6,17.61A17.61,17.61,0,0,0,49.55,31.7ZM17.61,61.82a17.61,17.61,0,1,0,17.6,17.6A17.6,17.6,0,0,0,17.61,61.82Zm64.78,0A17.61,17.61,0,1,0,100,79.42,17.6,17.6,0,0,0,82.39,61.82Z"/></g></g></svg>