<svg xmlns="http://www.w3.org/2000/svg" viewBox="0 0 100 89.81"><g id="Layer_2" data-name="Layer 2"><g id="Layer_1-2" data-name="Layer 1"><path d="M99.92,47.55l-22-44.11A.77.77,0,0,0,77.25,3L28,0h0L28,0a.7.7,0,0,0-.36.11.92.92,0,0,0-.26.22L.13,41.47a.8.8,0,0,0,0,.79l22,44.11h0a.77.77,0,0,0,.66.44l49.21,3H72a.8.8,0,0,0,.66-.35l27.2-41.12A.79.79,0,0,0,100,48,.82.82,0,0,0,99.92,47.55Zm-23.23-43L97.88,47,50.5,44.14,29.32,1.67ZM27.9,2.38,49.08,44.85,23,84.3l-.08.13L1.71,42ZM71.6,88.2,24.22,85.31,48,49.37l2.41-3.64,47.37,2.89ZM38.87,3.79a4.18,4.18,0,0,0-3.94,1.59A4.17,4.17,0,0,0,35,9.63a11.47,11.47,0,0,0,8.8,5.82l.43,0a4,4,0,0,0,3.52-1.6,4.17,4.17,0,0,0-.09-4.26A11.49,11.49,0,0,0,38.87,3.79ZM46.43,13a2.68,2.68,0,0,1-2.53.88,10.08,10.08,0,0,1-7.47-4.95,2.7,2.7,0,0,1-.18-2.67,2.5,2.5,0,0,1,2.19-.89h.34a10.06,10.06,0,0,1,7.47,5A2.7,2.7,0,0,1,46.43,13Zm41.9,31.92h.43a4,4,0,0,0,3.52-1.6,4.19,4.19,0,0,0-.08-4.26,11.53,11.53,0,0,0-8.8-5.82,4.22,4.22,0,0,0-4,1.59,4.19,4.19,0,0,0,.08,4.26A11.52,11.52,0,0,0,88.33,44.91Zm-7.56-9.2A2.5,2.5,0,0,1,83,34.82h.34a10.05,10.05,0,0,1,7.47,4.94A2.69,2.69,0,0,1,91,42.45a2.69,2.69,0,0,1-2.52.87A10.07,10.07,0,0,1,81,38.38,2.7,2.7,0,0,1,80.77,35.71ZM40.31,52h.2A4.25,4.25,0,0,0,44,49.82a11.5,11.5,0,0,0,.65-10.53,4.19,4.19,0,0,0-3.36-2.63,4.12,4.12,0,0,0-3.64,2.2A11.53,11.53,0,0,0,37,49.39,4.15,4.15,0,0,0,40.31,52ZM38.93,39.74a2.76,2.76,0,0,1,2.13-1.49h.09a2.7,2.7,0,0,1,2,1.75,10.08,10.08,0,0,1-.55,9,2.76,2.76,0,0,1-2.22,1.49,2.7,2.7,0,0,1-2-1.75A10.08,10.08,0,0,1,38.93,39.74ZM26.55,24.44h.2a4.28,4.28,0,0,0,3.45-2.21,11.53,11.53,0,0,0,.64-10.53,4.15,4.15,0,0,0-3.35-2.62,4.17,4.17,0,0,0-3.65,2.2,11.53,11.53,0,0,0-.64,10.53A4.18,4.18,0,0,0,26.55,24.44ZM25.17,12.16a2.76,2.76,0,0,1,2.13-1.49h.09a2.7,2.7,0,0,1,2,1.75,10.06,10.06,0,0,1-.55,8.94,2.66,2.66,0,0,1-2.22,1.5,2.7,2.7,0,0,1-2-1.75A10.08,10.08,0,0,1,25.17,12.16ZM10.48,34.79A4.17,4.17,0,0,0,6.84,37,11.5,11.5,0,0,0,6.2,47.52a4.17,4.17,0,0,0,3.35,2.63h.19A4.24,4.24,0,0,0,13.19,48a11.47,11.47,0,0,0,.64-10.53A4.15,4.15,0,0,0,10.48,34.79Zm1.39,12.28a2.7,2.7,0,0,1-2.22,1.49c-.77,0-1.49-.67-2-1.75a10.09,10.09,0,0,1,.54-8.94h0a2.76,2.76,0,0,1,2.12-1.5h.1c.76,0,1.48.66,2,1.75A10.09,10.09,0,0,1,11.87,47.07ZM23.5,77.73A4.28,4.28,0,0,0,27,75.53,11.55,11.55,0,0,0,27.59,65a4.15,4.15,0,0,0-3.35-2.62,4.17,4.17,0,0,0-3.64,2.2A11.47,11.47,0,0,0,20,75.1a4.19,4.19,0,0,0,3.35,2.63Zm-2.12-3.34a10,10,0,0,1,.54-8.94A2.77,2.77,0,0,1,24.05,64h.09a2.7,2.7,0,0,1,2,1.75,10.11,10.11,0,0,1-.54,9h0a2.72,2.72,0,0,1-2.23,1.49C22.64,76.09,21.92,75.47,21.38,74.39Zm27.4-13.85a11.53,11.53,0,0,0-9.44,4.7,3.75,3.75,0,0,0,3.13,6.28h.47a11.61,11.61,0,0,0,9-4.72,3.75,3.75,0,0,0-3.13-6.27Zm1.8,5.39a10,10,0,0,1-8,4,2.21,2.21,0,0,1-1.9-3.81,10.14,10.14,0,0,1,7.65-4h.37a2.21,2.21,0,0,1,1.9,3.81Zm22.65,7.46h.48a11.57,11.57,0,0,0,9-4.72,3.75,3.75,0,0,0-3.13-6.27,11.53,11.53,0,0,0-9.44,4.71,3.75,3.75,0,0,0,3.13,6.27ZM71.42,68a10.19,10.19,0,0,1,7.65-4h.37a2.74,2.74,0,0,1,2.41,1.18,2.7,2.7,0,0,1-.51,2.63,10,10,0,0,1-8,4,2.2,2.2,0,0,1-1.9-3.8Zm10.31-7.46h.48a11.57,11.57,0,0,0,9-4.72h0A3.75,3.75,0,0,0,88,49.56a11.57,11.57,0,0,0-9.44,4.71,3.75,3.75,0,0,0,3.13,6.27Zm-1.8-5.4a10.18,10.18,0,0,1,7.65-4H88a2.72,2.72,0,0,1,2.4,1.18,2.72,2.72,0,0,1-.5,2.63,10,10,0,0,1-8,4,2.67,2.67,0,0,1-2.4-1.18A2.67,2.67,0,0,1,79.93,55.14ZM47.84,52.39A3.75,3.75,0,0,0,51,58.66l.48,0a11.6,11.6,0,0,0,9-4.72,4.21,4.21,0,0,0,.6-4.22,4.19,4.19,0,0,0-3.73-2.06A11.57,11.57,0,0,0,47.84,52.39Zm9-3.13h.37a2.67,2.67,0,0,1,2.4,1.18,2.67,2.67,0,0,1-.5,2.63,10,10,0,0,1-8,4,2.7,2.7,0,0,1-2.4-1.18,2.72,2.72,0,0,1,.5-2.63A10.16,10.16,0,0,1,56.81,49.26ZM40.27,73.39a11.46,11.46,0,0,0-9.44,4.71A3.75,3.75,0,0,0,34,84.37h.48a11.59,11.59,0,0,0,9-4.72,3.75,3.75,0,0,0-3.13-6.27Zm1.81,5.39a10,10,0,0,1-8,4A2.21,2.21,0,0,1,32.16,79a10.14,10.14,0,0,1,7.65-4h.37a2.21,2.21,0,0,1,1.9,3.81ZM61,84.19a4.19,4.19,0,0,0,3.73,2l.47,0a11.61,11.61,0,0,0,9-4.72A3.75,3.75,0,0,0,71,75.26,11.58,11.58,0,0,0,61.59,80,4.18,4.18,0,0,0,61,84.19Zm1.92-3.34a10.16,10.16,0,0,1,7.65-4h.37a2.21,2.21,0,0,1,1.9,3.81,10,10,0,0,1-8,4,2.21,2.21,0,0,1-1.9-3.81Z"/></g></g></svg>