<svg xmlns="http://www.w3.org/2000/svg" viewBox="0 0 100 87.2"><g id="Layer_2" data-name="Layer 2"><g id="Layer_1-2" data-name="Layer 1"><path d="M99,45c-.82-.9-1.67-1.79-2.47-2.71q-6.7-7.76-13.39-15.5l-20-23.13a5.88,5.88,0,0,0-3.77-2.08L49.13.15a9.83,9.83,0,0,0-8.74,2.54c-.93.89-1.93,1.7-2.9,2.55L19.31,21.14Q10.6,28.76,1.89,36.39a4.81,4.81,0,0,0-.61,7.08q7.84,9,15.74,18C23,68.27,29,75.09,35,82c1.85,2.12,3.92,3.84,6.8,4.17,3.67.43,7.37.72,11.05,1.06a7,7,0,0,0,4.92-1.75l8.4-7.27L86.35,60.66C90.51,57,94.68,53.44,98.8,49.78A3.13,3.13,0,0,0,99,45ZM48.87,1.89c3.16.3,6.32.69,9.48,1A6.23,6.23,0,0,1,62.51,5.2q7.77,9,15.57,17.87,9.65,11.07,19.28,22.17c.23.26.65.51.43.93s-.64.23-1,.19c-3.62-.38-7.24-.8-10.86-1.16a5.64,5.64,0,0,1-3.88-2l-6.88-7.9q-7.82-9-15.62-17.93Q53.14,10,46.72,2.59c-.21-.24-.51-.44-.56-.87A8.79,8.79,0,0,1,48.87,1.89ZM36.54,81.8,11.53,53q-4.62-5.3-9.25-10.58a3.5,3.5,0,0,1-1-2.14,3.26,3.26,0,0,1,1.24-2.53l9.08-7.91L29.48,14.3,42.37,3.08c1.13-1,2-.94,3,.18q7,8,14,16.08L72.66,34.57q3.93,4.5,7.84,9c1.24,1.43,1.17,2.48-.24,3.71l-20.65,18Q50,73.63,40.43,82C38.87,83.36,37.89,83.34,36.54,81.8ZM97.2,49.16l-20.62,18L57.74,83.56a7.77,7.77,0,0,1-5.54,2l-7.67-.82-3-.3c-.35,0-.71,0-.83-.45s.21-.54.43-.74l14-12.19,19.4-16.88c2.42-2.11,4.87-4.2,7.26-6.35,1.49-1.33,3.22-1.31,5-1.12l9.95,1.08c.44,0,1.07-.06,1.22.41S97.51,48.89,97.2,49.16Zm-36.4-7.6a4.88,4.88,0,1,1,4.93,4.91A5,5,0,0,1,60.8,41.56ZM45.67,23.49a5,5,0,0,1-4.89-5,4.88,4.88,0,1,1,4.89,5ZM31.93,35.42a4.88,4.88,0,1,1,4.92-4.91A5,5,0,0,1,31.93,35.42ZM43.16,65.51a4.88,4.88,0,1,1-4.88-4.92A4.88,4.88,0,0,1,43.16,65.51Zm13.65-12A4.83,4.83,0,1,1,52,48.65,4.8,4.8,0,0,1,56.81,53.5Zm-33.67-11a4.81,4.81,0,0,1-4.87,4.79,4.84,4.84,0,1,1,4.87-4.79ZM92,49.61a3.69,3.69,0,0,1-.73,1.87,10.56,10.56,0,0,1-4.67,3.87,3.81,3.81,0,0,1-1,.29c-.91.1-1.39-.42-1.27-1.33a3.36,3.36,0,0,1,.6-1.43A10.84,10.84,0,0,1,89.42,49a3.18,3.18,0,0,1,1.69-.34A.94.94,0,0,1,92,49.61ZM74.3,62.94C74,65.1,70,68.57,67.82,68.59c-1,0-1.4-.52-1.17-1.48a5.76,5.76,0,0,1,1.53-2.48,9.07,9.07,0,0,1,4.62-3C73.85,61.38,74.46,62,74.3,62.94ZM55.87,74.83a3.37,3.37,0,0,1-.61,1.54,10.55,10.55,0,0,1-5,4.12,1.55,1.55,0,0,1-1.81-.14c-.55-.56-.29-1.23,0-1.79a9.84,9.84,0,0,1,5.67-4.81C55.2,73.39,55.89,73.84,55.87,74.83ZM75.18,27.68c-.1-.91.4-1.4,1.31-1.26a3.1,3.1,0,0,1,1,.37A10.33,10.33,0,0,1,82,31.89a4.75,4.75,0,0,1,.22.87c0,1.13-.52,1.53-1.44,1.32a3.44,3.44,0,0,1-1.18-.51,11,11,0,0,1-4-4.48A4.17,4.17,0,0,1,75.18,27.68ZM60.1,10.87c-.2-.58-.35-1.23.21-1.7a1.46,1.46,0,0,1,1.73,0,10.1,10.1,0,0,1,4.81,5.55,3,3,0,0,1,.13.64c0,1-.55,1.42-1.44,1.22a4.93,4.93,0,0,1-1.93-1A10.15,10.15,0,0,1,60.1,10.87Z"/></g></g></svg>