<svg xmlns="http://www.w3.org/2000/svg" viewBox="0 0 86.82 100"><g id="Layer_2" data-name="Layer 2"><g id="Layer_1-2" data-name="Layer 1"><path d="M51.08,25.39a4.18,4.18,0,0,0-2.41-3.49,11.49,11.49,0,0,0-10.52,0,4.16,4.16,0,0,0-2.41,3.49,4.16,4.16,0,0,0,2.41,3.49,11.51,11.51,0,0,0,10.51,0A4.17,4.17,0,0,0,51.08,25.39Zm-3.19,2.14a10.08,10.08,0,0,1-9,0,2.72,2.72,0,0,1-1.63-2.14,2.72,2.72,0,0,1,1.63-2.14,10.06,10.06,0,0,1,9,0,2.72,2.72,0,0,1,1.63,2.14A2.68,2.68,0,0,1,47.89,27.53Zm38.54-2.82h0L43.8.1A.83.83,0,0,0,43,.1L.39,24.71a.79.79,0,0,0-.39.68V74.61a.79.79,0,0,0,.39.68L43,99.9a.76.76,0,0,0,.39.1.9.9,0,0,0,.39-.1L86.43,75.29a.79.79,0,0,0,.39-.68V25.39A.81.81,0,0,0,86.43,24.71Zm-43-23L84.47,25.39,53.68,43.17,43.41,49.1,2.34,25.39ZM1.56,26.74,42.63,50.45V97.87L1.56,74.16ZM44.19,97.87V50.45L85.25,26.74V74.16ZM81.88,32.58a4.16,4.16,0,0,0-4.22.35A11.46,11.46,0,0,0,72.4,42a4.16,4.16,0,0,0,1.81,3.82,3.26,3.26,0,0,0,1.66.43,5.12,5.12,0,0,0,2.57-.77,11.46,11.46,0,0,0,5.26-9.11A4.17,4.17,0,0,0,81.88,32.58ZM77.66,44.17A2.21,2.21,0,0,1,74,42a10.05,10.05,0,0,1,4.48-7.76,3.61,3.61,0,0,1,1.78-.57,1.79,1.79,0,0,1,.88.22,2.71,2.71,0,0,1,1,2.48A10.05,10.05,0,0,1,77.66,44.17ZM55.23,78.75a4.13,4.13,0,0,0-4.22.34,11.46,11.46,0,0,0-5.26,9.11A4.16,4.16,0,0,0,47.56,92a3.37,3.37,0,0,0,1.66.43,5.17,5.17,0,0,0,2.57-.78,11.46,11.46,0,0,0,5.26-9.11A4.14,4.14,0,0,0,55.23,78.75ZM51,90.33a2.7,2.7,0,0,1-2.66.35,2.71,2.71,0,0,1-1-2.48,10.07,10.07,0,0,1,4.47-7.76,3.75,3.75,0,0,1,1.78-.57,1.86,1.86,0,0,1,.89.22,2.71,2.71,0,0,1,1,2.48A10,10,0,0,1,51,90.33Zm-15.19-42A4.18,4.18,0,0,0,31.59,48a4.15,4.15,0,0,0-1.82,3.83A11.47,11.47,0,0,0,35,60.91a5.22,5.22,0,0,0,2.57.77,3.25,3.25,0,0,0,1.65-.43,4.15,4.15,0,0,0,1.82-3.83A11.49,11.49,0,0,0,35.81,48.31ZM38.47,59.9a2.67,2.67,0,0,1-2.66-.34,10.07,10.07,0,0,1-4.48-7.76,2.71,2.71,0,0,1,1-2.48,1.69,1.69,0,0,1,.88-.22,3.58,3.58,0,0,1,1.78.57,10.05,10.05,0,0,1,4.48,7.75A2.7,2.7,0,0,1,38.47,59.9Zm-29.31-27a4.18,4.18,0,0,0-4.23-.35,4.16,4.16,0,0,0-1.81,3.83,11.46,11.46,0,0,0,5.26,9.11,5.11,5.11,0,0,0,2.56.77,3.26,3.26,0,0,0,1.66-.43A4.14,4.14,0,0,0,14.42,42,11.46,11.46,0,0,0,9.16,32.93Zm2.66,11.58a2.67,2.67,0,0,1-2.66-.34,10.05,10.05,0,0,1-4.48-7.76,2.73,2.73,0,0,1,1-2.48,1.86,1.86,0,0,1,.89-.22,3.61,3.61,0,0,1,1.78.57A10.05,10.05,0,0,1,12.86,42,2.68,2.68,0,0,1,11.82,44.51ZM9.16,63.7a4.13,4.13,0,0,0-4.22-.34,4.13,4.13,0,0,0-1.82,3.83A11.47,11.47,0,0,0,8.38,76.3a5.22,5.22,0,0,0,2.56.77,3.26,3.26,0,0,0,1.66-.43,4.17,4.17,0,0,0,1.82-3.83A11.46,11.46,0,0,0,9.16,63.7Zm2.66,11.59A2.7,2.7,0,0,1,9.16,75a10.07,10.07,0,0,1-4.48-7.76,2.71,2.71,0,0,1,1-2.48,1.69,1.69,0,0,1,.88-.22,3.69,3.69,0,0,1,1.78.56,10.07,10.07,0,0,1,4.48,7.76A2.71,2.71,0,0,1,11.82,75.29Zm24,3.8a4.13,4.13,0,0,0-4.22-.34,4.12,4.12,0,0,0-1.82,3.82A11.46,11.46,0,0,0,35,91.68a5.14,5.14,0,0,0,2.57.78A3.36,3.36,0,0,0,39.25,92a4.17,4.17,0,0,0,1.82-3.83A11.46,11.46,0,0,0,35.81,79.09Zm2.66,11.58a2.67,2.67,0,0,1-2.66-.34,10.05,10.05,0,0,1-4.48-7.76,2.68,2.68,0,0,1,1-2.47,1.69,1.69,0,0,1,.88-.22,3.66,3.66,0,0,1,1.78.56,10.07,10.07,0,0,1,4.48,7.76A2.68,2.68,0,0,1,38.47,90.67Z"/></g></g></svg>