<svg xmlns="http://www.w3.org/2000/svg" viewBox="0 0 46.93 100"><defs><style>.cls-1{fill:#020203;}</style></defs><g id="Layer_2" data-name="Layer 2"><g id="Layer_1-2" data-name="Layer 1"><path class="cls-1" d="M46.59,46.71l-6.28.38a1.91,1.91,0,0,0-1.35.68L32.24,55.7l-.39-.53,6.21-7.33A1.33,1.33,0,0,0,37.91,46L27.7,37.32l-.46-.4-8.87-7.5a.93.93,0,0,0-1.32.1L9.93,37.93l-8-19.18a.65.65,0,0,1,.34-.85L25.77,8.05a1,1,0,0,1,1.37.57L37,32.05a.74.74,0,0,1-.4,1l-3.23,1.35-3-2.54h0a2.18,2.18,0,0,0,.76-2.64,2.19,2.19,0,0,0-4-.11h0l-.78-.66A1.62,1.62,0,0,0,25.16,28L19,28.3a.37.37,0,0,0-.22.65l9.08,7.7.46.39L38.9,46a2,2,0,0,0,1.45.48l5.87-.35a.35.35,0,0,0,.21-.62L33.79,34.77l1.78-.8,1.21-.48a2.78,2.78,0,0,0,1.48-1.38L39,30.52l1.73-3.91a2.49,2.49,0,0,0,0-1.95L31.83,3.22,30.71.61A1,1,0,0,0,29.39.08L26.66,1.21l-21.36,9A2.46,2.46,0,0,0,4,11.44l-1.47,3L1.36,17.16a2.13,2.13,0,0,0,0,1.68l.58,1.34,7.6,18.21L.21,49.4a.89.89,0,0,0,.1,1.25L15.87,63.83,8.49,69.22a2.44,2.44,0,0,0-1,1.49l-1,4.93-.22,1.23a2.19,2.19,0,0,0,.4,1.72L8.55,81.1,22,99.45a1.33,1.33,0,0,0,1.87.29L41.89,86.56l2.55-1.87a3.33,3.33,0,0,0,1.27-2l.49-2.2L46.81,77a2.69,2.69,0,0,0-.48-2L35.68,60.42,46.85,47.24A.32.32,0,0,0,46.59,46.71Zm-13.3-9.22c-.44.56-1.61.35-2.61-.45a3.69,3.69,0,0,1-.68-.69,3,3,0,0,1-.3-.46,1.22,1.22,0,0,1,0-1.3c.41-.52,1.46-.38,2.42.3l.19.15.28.24C33.36,36.05,33.69,37,33.29,37.49ZM30,1.17a.21.21,0,0,1,.38,0l9.94,23.77a1.7,1.7,0,0,1,0,1.38L37.92,31.5a.34.34,0,0,1-.62,0L27.55,8.18a2.18,2.18,0,0,1,0-1.75ZM2,17l2.49-5.47a1.63,1.63,0,0,1,.87-.84L29.29.71a.15.15,0,0,1,.19.2L27.09,6.19a2.57,2.57,0,0,1-1.32,1.28L2.3,17.29A.2.2,0,0,1,2,17ZM12,50.21a2.26,2.26,0,1,1,.49-3.16A2.26,2.26,0,0,1,12,50.21Zm15-6a2.26,2.26,0,1,1-.49,3.16A2.27,2.27,0,0,1,26.93,44.18ZM21.79,54.71a2.26,2.26,0,1,1-3.16-.49A2.28,2.28,0,0,1,21.79,54.71ZM16.84,37.52a2.21,2.21,0,0,1,.77-1,2.18,2.18,0,0,1,.42-.24,2.26,2.26,0,0,1,2.79,3.33,2.25,2.25,0,0,1-.55.56,2.25,2.25,0,0,1-3.16-.49A2.25,2.25,0,0,1,16.84,37.52ZM7,76.49,8,71A2.34,2.34,0,0,1,9,69.55l7.34-5.36,13-9.51a.32.32,0,0,1,.5.32l-.65,3.37-.25,1.27-.19,1a1.59,1.59,0,0,1-.62,1l-2.23,1.63-2.18,1.6-3.56,2.6L7.36,76.75A.26.26,0,0,1,7,76.49Zm36.86,8L23.87,99a1.25,1.25,0,0,1-1.75-.27L7.24,78.4a.73.73,0,0,1,.16-1l13.14-9.6,1.65-1.21L24.37,65l4-2.92a.5.5,0,0,1,.71.11l.37.51,1.15,1.57.85,1.16L44.09,82.74A1.23,1.23,0,0,1,43.82,84.46Zm2-9.31a2.56,2.56,0,0,1,.45,2l-1,5.29a.31.31,0,0,1-.56.13L31.81,65,31,63.92l-1.22-1.68L29.61,62a1.91,1.91,0,0,1-.33-1.48l.34-1.73.25-1.27.46-2.35a.41.41,0,0,1,.73-.16l.43.59.39.53,3.44,4.71Zm-6-21.25C39,54.87,38,55.37,37.56,55s-.17-1.43.61-2.41,1.77-1.48,2.22-1.12S40.56,52.92,39.78,53.9ZM10.3,22a2.2,2.2,0,1,1,1.18-2.88A2.2,2.2,0,0,1,10.3,22ZM24.55,13.6a2.2,2.2,0,1,1-2.88-1.18A2.2,2.2,0,0,1,24.55,13.6Zm-13.87,15a2.2,2.2,0,1,1,2.88,1.18A2.21,2.21,0,0,1,10.68,28.56Zm14.25-8.35a2.2,2.2,0,1,1-1.18,2.88A2.2,2.2,0,0,1,24.93,20.21ZM35.44,26c-.47-1.12-.5-2.17-.07-2.35s1.15.58,1.62,1.7.5,2.18.08,2.36S35.91,27.13,35.44,26Zm-2.62-9.9c-.47-1.12-.5-2.18-.07-2.36s1.15.59,1.62,1.71.5,2.17.07,2.35S33.29,17.23,32.82,16.11Zm-25.37-4c-.18-.43.59-1.16,1.71-1.63s2.17-.5,2.35-.07-.58,1.16-1.7,1.62S7.63,12.5,7.45,12.07Zm10-4.16c-.18-.43.58-1.16,1.7-1.63s2.18-.5,2.35-.07-.58,1.15-1.7,1.62S17.58,8.33,17.4,7.91ZM29.68,6.42c-.47-1.12-.51-2.18-.08-2.36s1.16.59,1.63,1.71.5,2.17.07,2.35S30.14,7.54,29.68,6.42ZM17.78,78.05a2.2,2.2,0,1,1-3.07-.48A2.2,2.2,0,0,1,17.78,78.05ZM29.22,69.7a2.2,2.2,0,1,1-3.07-.48A2.19,2.19,0,0,1,29.22,69.7Zm-2.36,8.77A2.2,2.2,0,1,1,23.78,78,2.19,2.19,0,0,1,26.86,78.47ZM15.77,67.7c-.39-.53.09-1.54,1.08-2.25a3,3,0,0,1,.54-.33c.82-.42,1.61-.45,1.93,0s.13.9-.26,1.44a3.51,3.51,0,0,1-.82.81C17.26,68.07,16.15,68.22,15.77,67.7Zm9.84,21.06a2.2,2.2,0,1,1-3.08-.48A2.2,2.2,0,0,1,25.61,88.76ZM37.05,80.4A2.2,2.2,0,1,1,34,79.93,2.21,2.21,0,0,1,37.05,80.4ZM35.51,63c.71,1,.89,2.06.41,2.42s-1.47-.14-2.19-1.13a3.85,3.85,0,0,1-.51-.92c-.26-.66-.24-1.25.1-1.5a1,1,0,0,1,1.09.1A3.75,3.75,0,0,1,35.51,63Zm6,12c-.72-1-.9-2.06-.41-2.42s1.47.14,2.19,1.12.9,2.07.41,2.43S42.27,75.94,41.55,75Z"/></g></g></svg>