<svg xmlns="http://www.w3.org/2000/svg" viewBox="0 0 96.24 100"><defs><style>.cls-1{fill:#010101;}</style></defs><g id="Layer_2" data-name="Layer 2"><g id="Layer_1-2" data-name="Layer 1"><path class="cls-1" d="M96.19,79c0-3.54,0-7.1,0-10.65q0-10.63,0-21.28t0-21.29V23.37a.72.72,0,0,0-.72-.72,8.85,8.85,0,0,0-2.31.82l-2.36,1-4.91,2-9.84,3.95q-9.82,3.93-19.63,7.88l-4.84,2c-.63.25-1.45.43-1.64,1.19a4.35,4.35,0,0,0,0,1.08c0,.45,0,.9,0,1.34,0,3.51,0,7,0,10.53,0,7.09,0,14.2,0,21.3s0,14.11,0,21.16v2.44a.65.65,0,0,0,.2.49.61.61,0,0,0,.72.2c1.56-.53,3.05-1.22,4.58-1.84l4.87-2c3.25-1.3,6.53-2.58,9.77-3.88,6.51-2.64,13-5.3,19.54-7.89,1.6-.63,3.18-1.26,4.79-1.87.66-.26,1.43-.44,1.71-1.16A5.67,5.67,0,0,0,96.19,79Zm-28.45.88a8.3,8.3,0,0,1-2.94,6.17c-2.06,1.74-4.77.87-5.22-1.79a7.74,7.74,0,0,1,2.84-7.58,3.32,3.32,0,0,1,2.63-.86,2.7,2.7,0,0,1,2,1.46A4.81,4.81,0,0,1,67.74,79.88Zm0-28A8.3,8.3,0,0,1,64.8,58c-2.06,1.74-4.77.87-5.22-1.79a7.74,7.74,0,0,1,2.84-7.58,3.32,3.32,0,0,1,2.63-.86,2.7,2.7,0,0,1,2,1.46A4.81,4.81,0,0,1,67.74,51.84ZM88.46,71.45a8.25,8.25,0,0,1-2.93,6.17c-2.07,1.74-4.78.87-5.23-1.79a7.73,7.73,0,0,1,2.84-7.58,3.3,3.3,0,0,1,2.64-.86,2.68,2.68,0,0,1,2,1.46A4.56,4.56,0,0,1,88.46,71.45Zm0-28a8.25,8.25,0,0,1-2.93,6.17c-2.07,1.74-4.78.87-5.23-1.8a7.72,7.72,0,0,1,2.84-7.57,3.35,3.35,0,0,1,2.64-.87,2.72,2.72,0,0,1,2,1.47A4.52,4.52,0,0,1,88.46,43.41ZM44.65,40.15l-2.39-1c-6.5-2.64-13-5.25-19.54-7.87S9.79,26.09,3.31,23.53L1,22.63a.63.63,0,0,0-.64.12.65.65,0,0,0-.28.46.08.08,0,0,1,0,0h0v.13q0,10.42,0,20.84c0,7.06,0,14.12,0,21.17,0,3.51,0,7,0,10.53,0,.9,0,1.8,0,2.71v1.25a5.32,5.32,0,0,0,0,1.26c.17.78.91,1,1.56,1.23s1.6.63,2.39,1q9.74,3.93,19.47,7.83T43.09,99l2.3.92c.44.18.92-.28.92-.7q0-10.38,0-20.77,0-10.65.05-21.3l0-10.56c0-.9,0-1.81,0-2.71V42.66a5.79,5.79,0,0,0,0-1.25C46.16,40.59,45.31,40.41,44.65,40.15ZM13.22,49.91a2.48,2.48,0,0,1-2.93.31,7.51,7.51,0,0,1-3.78-4.84,6.3,6.3,0,0,1-.12-3.84c.78-2.31,2.77-3,4.77-1.59a8,8,0,0,1,3.28,5.52,9.85,9.85,0,0,1,.11,1A4.17,4.17,0,0,1,13.22,49.91ZM35.86,87.53a2.46,2.46,0,0,1-2.92.31A7.48,7.48,0,0,1,29.16,83,6.3,6.3,0,0,1,29,79.16c.77-2.32,2.76-3,4.76-1.59a7.94,7.94,0,0,1,3.28,5.52,9.85,9.85,0,0,1,.11,1A4.11,4.11,0,0,1,35.86,87.53Zm20.3-53.24,18.61-7.16C81,24.77,87.17,22.37,93.37,20l2.3-.89a.75.75,0,0,0,.18-1.36,14,14,0,0,0-2.2-.87L91.35,16,86.7,14.23c-3.11-1.15-6.21-2.33-9.32-3.5L58.67,3.66C55.53,2.48,52.41,1.25,49.26.12a2.92,2.92,0,0,0-2.14.24c-.77.28-1.56.57-2.33.87L40.12,3q-9.3,3.51-18.59,7c-6.2,2.32-12.4,4.68-18.6,7L.6,17.88a.71.71,0,0,0-.27.18.68.68,0,0,0-.27.54.49.49,0,0,1,0,.12.76.76,0,0,0,.54.72c6.2,2.29,12.35,4.76,18.53,7.14l18.63,7.15c3.07,1.18,6.14,2.45,9.24,3.56A2.94,2.94,0,0,0,49.12,37l2.35-.89C53,35.49,54.6,34.9,56.16,34.29ZM65,15.37a4.81,4.81,0,0,1,2.33-1.11,12.74,12.74,0,0,1,7.46.33,4.88,4.88,0,0,1,1.45,1c1.57,1.52-2.35,2.68-3.23,2.84a15.49,15.49,0,0,1-2.54.24,10.32,10.32,0,0,1-4.22-.75,5.14,5.14,0,0,1-1.19-.71A1.11,1.11,0,0,1,65,15.37Zm-2.77,4.81a4.53,4.53,0,0,1,1.45,1,.92.92,0,0,1,0,1.42c-1,1.11-2.86,1.42-4.29,1.58a11.6,11.6,0,0,1-1.44.09,10.4,10.4,0,0,1-4.22-.76,5,5,0,0,1-1.2-.72,1.1,1.1,0,0,1,0-1.82,4.74,4.74,0,0,1,2.32-1.11A12.9,12.9,0,0,1,62.26,20.18ZM43.74,7.66a4.77,4.77,0,0,1,2.33-1.11,12.71,12.71,0,0,1,7.45.33,4.8,4.8,0,0,1,1.46,1c1.56,1.52-2.35,2.69-3.24,2.84a15.27,15.27,0,0,1-2.53.24A10.32,10.32,0,0,1,45,10.19a4.75,4.75,0,0,1-1.19-.71A1.1,1.1,0,0,1,43.74,7.66ZM29.12,20.78a5.62,5.62,0,0,1-3.26,1.41,14.48,14.48,0,0,1-2.48.25,10.46,10.46,0,0,1-4.22-.76A4.81,4.81,0,0,1,18,21a1.12,1.12,0,0,1,0-1.83A4.76,4.76,0,0,1,20.25,18a12.71,12.71,0,0,1,7.45.33,4.6,4.6,0,0,1,1.46,1A1,1,0,0,1,29.12,20.78Zm7.51-4.24a10.46,10.46,0,0,1-4.22-.76,4.78,4.78,0,0,1-1.19-.72,1.11,1.11,0,0,1,0-1.82,4.74,4.74,0,0,1,2.32-1.11,12.74,12.74,0,0,1,7.46.33,4.88,4.88,0,0,1,1.45,1,.93.93,0,0,1,0,1.43c-1,1.11-2.86,1.41-4.29,1.58A11.48,11.48,0,0,1,36.63,16.54Zm13.8,11.94a5.65,5.65,0,0,1-3.26,1.41,14.48,14.48,0,0,1-2.48.26,10.64,10.64,0,0,1-4.22-.76,5,5,0,0,1-1.19-.72,1.12,1.12,0,0,1-.05-1.83,4.72,4.72,0,0,1,2.32-1.1,12.74,12.74,0,0,1,7.46.33,4.69,4.69,0,0,1,1.46,1A1,1,0,0,1,50.43,28.48Z"/></g></g></svg>