<svg xmlns="http://www.w3.org/2000/svg" viewBox="0 0 100 60.41"><defs><style>.cls-1{fill:#010101;}</style></defs><g id="Layer_2" data-name="Layer 2"><g id="Layer_1-2" data-name="Layer 1"><path class="cls-1" d="M34.63,2.34A23.5,23.5,0,0,0,13,3C4.09,8.64,1.49,14.88,1.49,14.88c-4,7.68,1.35,17.44,1.35,17.44C6,41.67,15.06,48.16,15.06,48.16c11.55,4.3,19.29-.48,19.29-.48A31.91,31.91,0,0,0,49.14,30c.77-8.11-3.62-15.14-3.62-15.14A28.08,28.08,0,0,0,34.63,2.34ZM7.79,36.85c-.64.32-1.77-.64-2.53-2.14s-.85-3-.21-3.3,1.77.63,2.52,2.14S8.43,36.53,7.79,36.85Zm3.65-.48c-.75.38-2-.54-2.72-2s-.76-3,0-3.4,2,.54,2.72,2S12.18,36,11.44,36.37ZM15,35.66c-.75.37-2-.54-2.72-2s-.76-3,0-3.39,2,.53,2.72,2S15.76,35.28,15,35.66Zm-1.37-21.1c-1.78,0-3.22-1-3.22-2.17s1.44-2.17,3.22-2.17,3.22,1,3.22,2.17S15.43,14.56,13.65,14.56Zm7.14-8a2.5,2.5,0,0,1,2.73,2.17,2.5,2.5,0,0,1-2.73,2.17,2.49,2.49,0,0,1-2.72-2.17A2.49,2.49,0,0,1,20.79,6.54Zm1.12,15.8c-1.78,0-3.22-1-3.22-2.17S20.13,18,21.91,18s3.23,1,3.23,2.17S23.69,22.34,21.91,22.34ZM25.14,4.8a2.49,2.49,0,0,1,2.72-2.17A2.49,2.49,0,0,1,30.58,4.8,2.49,2.49,0,0,1,27.86,7,2.49,2.49,0,0,1,25.14,4.8Zm5.24,31.54c-1.49,1.15-3.23,1.37-3.9.51s0-2.51,1.46-3.65,3.23-1.38,3.9-.51S31.86,35.19,30.38,36.34ZM29.05,18.9c-1.77,0-3.2-1.1-3.2-2.45S27.28,14,29.05,14s3.2,1.1,3.2,2.46S30.81,18.9,29.05,18.9Zm4.49-6.51a2.49,2.49,0,0,1,2.72-2.17A2.49,2.49,0,0,1,39,12.39a2.49,2.49,0,0,1-2.72,2.17A2.49,2.49,0,0,1,33.54,12.39Zm8.25,27.06c-1.48,1.14-3.23,1.37-3.9.5s0-2.5,1.46-3.65,3.23-1.37,3.9-.5S43.27,38.3,41.79,39.45ZM95.15,19.24C82.84,7.11,71.86,9.69,71.86,9.69a15.89,15.89,0,0,0-12.6,7.45c-6.37,5.77-8.49,16.77-8.49,16.77a17.25,17.25,0,0,0,3.91,15.4C59.36,55.8,71,60.09,71,60.09c10.31,1.44,15.18-2.48,15.18-2.48C96.11,50,99.93,32.94,99.93,32.94A17.33,17.33,0,0,0,95.15,19.24ZM61.74,50.31c-.68.84-2.38.6-3.81-.55s-2-2.75-1.38-3.6,2.38-.59,3.81.55S62.41,49.47,61.74,50.31Zm0-9.26c-.68.84-2.38.6-3.81-.55s-2-2.75-1.38-3.59,2.38-.6,3.81.55S62.41,40.21,61.74,41.05Zm5.72,7.64c-.67.84-2.37.59-3.81-.55s-2-2.76-1.37-3.6,2.38-.59,3.81.55S68.14,47.85,67.46,48.69Zm5.73,7.59c-.67.84-2.38.59-3.81-.55s-2-2.76-1.37-3.6,2.38-.59,3.81.55S73.87,55.44,73.19,56.28Zm.24-9.5c-.67.84-2.38.59-3.81-.55s-2-2.76-1.37-3.6,2.38-.59,3.81.55S74.1,45.94,73.43,46.78Zm1.73-21.7c-1.77,0-3.2-1.1-3.2-2.45s1.43-2.46,3.2-2.46,3.2,1.1,3.2,2.46S76.93,25.08,75.16,25.08Zm13.39,27.1c-.78,1.55-1.9,2.56-2.5,2.26s-.44-1.8.34-3.35,1.91-2.57,2.5-2.27S89.34,50.63,88.55,52.18ZM89,42.94c-.78,1.55-1.94,2.54-2.58,2.21s-.53-1.84.26-3.39,1.94-2.55,2.58-2.22S89.79,41.38,89,42.94Zm6.78.41c-.78,1.55-1.9,2.56-2.5,2.26s-.44-1.8.34-3.35,1.91-2.56,2.5-2.26S96.57,41.8,95.78,43.35Zm.76-9.05c-.78,1.55-1.94,2.54-2.58,2.21s-.52-1.84.26-3.39,1.94-2.55,2.58-2.22S97.33,32.75,96.54,34.3Z"/></g></g></svg>