<svg xmlns="http://www.w3.org/2000/svg" viewBox="0 0 86.81 100"><g id="Layer_2" data-name="Layer 2"><g id="Layer_1-2" data-name="Layer 1"><path d="M35.81,48.31A4.17,4.17,0,0,0,31.58,48a4.16,4.16,0,0,0-1.81,3.83A11.46,11.46,0,0,0,35,60.91a5.11,5.11,0,0,0,2.56.77,3.26,3.26,0,0,0,1.66-.43,4.15,4.15,0,0,0,1.82-3.83A11.49,11.49,0,0,0,35.81,48.31ZM38.47,59.9a2.7,2.7,0,0,1-2.66-.34,10.07,10.07,0,0,1-4.48-7.76,2.71,2.71,0,0,1,1-2.48,1.86,1.86,0,0,1,.89-.22,3.64,3.64,0,0,1,1.78.57,10.05,10.05,0,0,1,4.48,7.75A2.69,2.69,0,0,1,38.47,59.9Zm-29.31-27a4.13,4.13,0,0,0-4.22-.34,4.12,4.12,0,0,0-1.82,3.82,11.48,11.48,0,0,0,5.26,9.12,5.22,5.22,0,0,0,2.56.77,3.26,3.26,0,0,0,1.66-.43A4.17,4.17,0,0,0,14.42,42,11.46,11.46,0,0,0,9.16,32.93Zm2.66,11.59a2.7,2.7,0,0,1-2.66-.35,10.05,10.05,0,0,1-4.48-7.76,2.68,2.68,0,0,1,1-2.47,1.69,1.69,0,0,1,.88-.22,3.69,3.69,0,0,1,1.78.56A10.07,10.07,0,0,1,12.86,42,2.71,2.71,0,0,1,11.82,44.52ZM9.16,63.7a4.15,4.15,0,0,0-4.22-.34,4.14,4.14,0,0,0-1.82,3.83A11.46,11.46,0,0,0,8.38,76.3a5.22,5.22,0,0,0,2.56.77,3.26,3.26,0,0,0,1.66-.43,4.16,4.16,0,0,0,1.82-3.83A11.46,11.46,0,0,0,9.16,63.7Zm2.66,11.59a2.7,2.7,0,0,1-2.66-.35,10.05,10.05,0,0,1-4.48-7.75,2.71,2.71,0,0,1,1-2.48,1.69,1.69,0,0,1,.88-.22,3.69,3.69,0,0,1,1.78.56,10.07,10.07,0,0,1,4.48,7.76A2.71,2.71,0,0,1,11.82,75.29Zm24,3.79a4.2,4.2,0,0,0-4.23-.34,4.16,4.16,0,0,0-1.81,3.83A11.46,11.46,0,0,0,35,91.68a5.13,5.13,0,0,0,2.56.78A3.27,3.27,0,0,0,39.25,92a4.15,4.15,0,0,0,1.82-3.83A11.49,11.49,0,0,0,35.81,79.08Zm2.66,11.59a2.67,2.67,0,0,1-2.66-.34,10.07,10.07,0,0,1-4.48-7.76,2.68,2.68,0,0,1,1-2.47,1.76,1.76,0,0,1,.89-.23,3.64,3.64,0,0,1,1.78.57,10.05,10.05,0,0,1,4.48,7.75A2.69,2.69,0,0,1,38.47,90.67Zm30.08-35a4.13,4.13,0,0,0-4.22.34,11.47,11.47,0,0,0-5.26,9.11,4.13,4.13,0,0,0,1.82,3.83,3.2,3.2,0,0,0,1.65.43,5.22,5.22,0,0,0,2.57-.77,11.47,11.47,0,0,0,5.26-9.11A4.17,4.17,0,0,0,68.55,55.66ZM64.33,67.25a2.72,2.72,0,0,1-2.67.34,2.72,2.72,0,0,1-1-2.48,10.08,10.08,0,0,1,4.48-7.76,3.66,3.66,0,0,1,1.78-.56,1.72,1.72,0,0,1,.88.22,2.71,2.71,0,0,1,1,2.48A10.07,10.07,0,0,1,64.33,67.25ZM81.88,32.58a4.15,4.15,0,0,0-4.23.34A11.49,11.49,0,0,0,72.39,42a4.15,4.15,0,0,0,1.82,3.83,3.25,3.25,0,0,0,1.65.43,5.12,5.12,0,0,0,2.57-.77,11.46,11.46,0,0,0,5.26-9.11A4.16,4.16,0,0,0,81.88,32.58ZM77.65,44.17A2.22,2.22,0,0,1,74,42a10.05,10.05,0,0,1,4.48-7.75,3.64,3.64,0,0,1,1.78-.57,1.86,1.86,0,0,1,.89.22,2.73,2.73,0,0,1,1,2.48A10.07,10.07,0,0,1,77.65,44.17ZM55.23,48a4.17,4.17,0,0,0-4.23.34,11.46,11.46,0,0,0-5.26,9.11,4.17,4.17,0,0,0,1.82,3.83,3.26,3.26,0,0,0,1.66.43,5.19,5.19,0,0,0,2.56-.77A11.47,11.47,0,0,0,57,51.8,4.16,4.16,0,0,0,55.23,48ZM51,59.56a2.7,2.7,0,0,1-2.66.34,2.71,2.71,0,0,1-1-2.48,10.05,10.05,0,0,1,4.48-7.76,3.72,3.72,0,0,1,1.78-.56,1.75,1.75,0,0,1,.89.22,2.72,2.72,0,0,1,1,2.48A10.07,10.07,0,0,1,51,59.56Zm4.23,19.18a4.15,4.15,0,0,0-4.23.34,11.46,11.46,0,0,0-5.26,9.11A4.17,4.17,0,0,0,47.56,92a3.26,3.26,0,0,0,1.66.43,5.19,5.19,0,0,0,2.56-.77A11.47,11.47,0,0,0,57,82.57,4.17,4.17,0,0,0,55.23,78.74ZM51,90.33a2.7,2.7,0,0,1-2.66.34,2.71,2.71,0,0,1-1-2.48,10.07,10.07,0,0,1,4.48-7.76,3.72,3.72,0,0,1,1.78-.56,1.75,1.75,0,0,1,.89.22,2.73,2.73,0,0,1,1,2.48A10.07,10.07,0,0,1,51,90.33Zm30.88-27a4.15,4.15,0,0,0-4.23.34,11.46,11.46,0,0,0-5.26,9.11,4.17,4.17,0,0,0,1.82,3.83,3.36,3.36,0,0,0,1.65.43,5.14,5.14,0,0,0,2.57-.78,11.46,11.46,0,0,0,5.26-9.11A4.14,4.14,0,0,0,81.88,63.36ZM77.65,74.94A2.22,2.22,0,0,1,74,72.81a10.05,10.05,0,0,1,4.48-7.76,3.64,3.64,0,0,1,1.78-.57,1.76,1.76,0,0,1,.89.23,2.7,2.7,0,0,1,1,2.47A10.05,10.05,0,0,1,77.65,74.94Zm8.77-50.23L43.8.1A.83.83,0,0,0,43,.1L.39,24.71a.79.79,0,0,0-.39.68H0V74.61a.79.79,0,0,0,.39.68L43,99.9a.87.87,0,0,0,.39.1.9.9,0,0,0,.39-.1s0,0,0,0L86.42,75.28a.79.79,0,0,0,.39-.67V25.39A.79.79,0,0,0,86.42,24.71Zm-43-23L84.47,25.39,53.67,43.17,43.4,49.1,2.34,25.39ZM1.56,26.74,42.62,50.45V97.87L1.56,74.16ZM44.18,97.86V50.45L69.17,36l16.08-9.28V74.15ZM37.75,17.69a4.18,4.18,0,0,0-2.41-3.49,11.52,11.52,0,0,0-10.52,0,4.18,4.18,0,0,0-2.41,3.49,4.18,4.18,0,0,0,2.41,3.49,10.75,10.75,0,0,0,5.26,1.28,10.75,10.75,0,0,0,5.26-1.28h0A4.15,4.15,0,0,0,37.75,17.69Zm-3.19,2.14a10.08,10.08,0,0,1-9,0A2.69,2.69,0,0,1,24,17.69a2.7,2.7,0,0,1,1.63-2.13,9.21,9.21,0,0,1,4.48-1.05,9.24,9.24,0,0,1,4.48,1.05,2.71,2.71,0,0,1,1.62,2.14A2.66,2.66,0,0,1,34.56,19.83Zm14.5,13.25a4.18,4.18,0,0,0,2.41,3.49,11.45,11.45,0,0,0,10.52,0,4.16,4.16,0,0,0,2.4-3.49A4.14,4.14,0,0,0,62,29.6a11.46,11.46,0,0,0-10.52,0A4.18,4.18,0,0,0,49.06,33.08Zm3.19-2.14a10,10,0,0,1,9,0,2.68,2.68,0,0,1,1.62,2.13,2.68,2.68,0,0,1-1.62,2.13h0a10.05,10.05,0,0,1-9,0,2.69,2.69,0,0,1-1.63-2.13A2.72,2.72,0,0,1,52.25,30.94ZM64.8,28.88a11.51,11.51,0,0,0,10.51,0,4.16,4.16,0,0,0,2.41-3.49,4.16,4.16,0,0,0-2.41-3.49,11.43,11.43,0,0,0-10.52,0,4.15,4.15,0,0,0-2.4,3.49A4.16,4.16,0,0,0,64.8,28.88Zm.78-5.63a10.06,10.06,0,0,1,9,0,2.72,2.72,0,0,1,1.63,2.14,2.69,2.69,0,0,1-1.63,2.13,10.08,10.08,0,0,1-9,0A2.7,2.7,0,0,1,64,25.39,2.72,2.72,0,0,1,65.58,23.25ZM38.14,13.49a11.45,11.45,0,0,0,10.52,0A4.16,4.16,0,0,0,51.07,10a4.13,4.13,0,0,0-2.41-3.48,11.46,11.46,0,0,0-10.52,0A4.16,4.16,0,0,0,35.74,10,4.16,4.16,0,0,0,38.14,13.49Zm.78-5.62h0a10,10,0,0,1,9,0A2.69,2.69,0,0,1,49.51,10a2.72,2.72,0,0,1-1.63,2.14,10.05,10.05,0,0,1-9,0A2.68,2.68,0,0,1,37.3,10,2.68,2.68,0,0,1,38.92,7.87ZM22,21.9a11.51,11.51,0,0,0-10.53,0,4.15,4.15,0,0,0-2.4,3.49,4.13,4.13,0,0,0,2.41,3.48,10.59,10.59,0,0,0,5.26,1.28A10.68,10.68,0,0,0,22,28.88a4.18,4.18,0,0,0,2.41-3.49A4.15,4.15,0,0,0,22,21.9Zm-.78,5.62a10,10,0,0,1-9,0,2.67,2.67,0,0,1-1.63-2.13,2.7,2.7,0,0,1,1.62-2.14,9.24,9.24,0,0,1,4.48-1.05,9.18,9.18,0,0,1,4.48,1.05,2.72,2.72,0,0,1,1.63,2.14A2.68,2.68,0,0,1,21.24,27.52ZM48.67,44.26h0a4.15,4.15,0,0,0,2.4-3.49,4.16,4.16,0,0,0-2.4-3.49,11.51,11.51,0,0,0-10.53,0,4.14,4.14,0,0,0-2.4,3.48,4.16,4.16,0,0,0,2.4,3.49,11.47,11.47,0,0,0,10.53,0ZM37.3,40.77a2.7,2.7,0,0,1,1.62-2.13,10.08,10.08,0,0,1,9,0,2.69,2.69,0,0,1,1.63,2.13,2.72,2.72,0,0,1-1.63,2.14,10.08,10.08,0,0,1-9,0A2.71,2.71,0,0,1,37.3,40.77Z"/></g></g></svg>