<svg xmlns="http://www.w3.org/2000/svg" viewBox="0 0 100 86.07"><g id="Layer_2" data-name="Layer 2"><g id="Layer_1-2" data-name="Layer 1"><path d="M50.23,43c0,10.09-.76,20.14-1.67,30.18-.3,3.35-.41,6.71-.61,10.06,0,.54-.07,1.08-.09,1.62,0,1-.45,1.24-1.44,1.09a56.24,56.24,0,0,1-10.69-2.87c-6.88-2.5-13.35-5.92-20.06-8.8C11.85,72.68,8,71.16,4.11,69.7S0,67.79,0,63.66c0-3.45.51-6.88.27-10.33C-.07,48.4.07,43.46.12,38.52.16,34.66.38,30.81.5,27a28.47,28.47,0,0,0-.12-5.22,7.82,7.82,0,0,1,0-1.37c0-2.44.72-3,2.95-2,5.54,2.41,11.36,4,17.13,5.65Q33,27.68,45.82,30.62c3.71.85,4.31,1.53,4.4,5.32C50.28,38.3,50.23,40.67,50.23,43ZM19.28,49.32c0,2.21.92,3.34,2.76,3.36a3.3,3.3,0,0,0,3.48-3.25,2.84,2.84,0,0,0-3.14-3.17A2.8,2.8,0,0,0,19.28,49.32ZM37.43,70.58a3.39,3.39,0,0,0-3.17-3.35,2.74,2.74,0,0,0-2.95,2.7,3.64,3.64,0,0,0,3.31,3.68A2.92,2.92,0,0,0,37.43,70.58Zm2-31.58a3.08,3.08,0,0,0-3-3.17,2.72,2.72,0,0,0-2.95,2.68c0,1.74,1.64,3.56,3.18,3.55A2.83,2.83,0,0,0,39.48,39ZM10.35,33.46A2.66,2.66,0,0,0,13,30.53a2.72,2.72,0,0,0-2.88-2.89A2.55,2.55,0,0,0,7.36,30.3,3.12,3.12,0,0,0,10.35,33.46ZM8.54,58.66c-1.63,0-2.67.88-2.63,2.18,0,1.57,1.81,3.45,3.24,3.44,1.21,0,2.38-1.54,2.33-3.06A2.72,2.72,0,0,0,8.54,58.66ZM49.89,80.38c.22-8,.75-15.91,1.17-23.86.32-6.13.72-12.27.13-18.41a8.43,8.43,0,0,1,0-.87c-.09-4.35.3-5.12,4.57-6a244.8,244.8,0,0,0,24.13-6.54c5.39-1.7,10.72-3.53,16.08-5.31,1.41-.47,1.94-.25,2.45,1.16a17.71,17.71,0,0,1,.88,5.14c.38,7.13.89,14.26.68,21.39-.14,5,.19,10-.61,14.91a21.83,21.83,0,0,1-.66,2.65,6.44,6.44,0,0,1-3.61,4.06,64.09,64.09,0,0,1-8,3c-7,2.29-13.7,5.52-20.46,8.49a129.92,129.92,0,0,1-15,5.7c-1.51.44-1.65.33-1.67-1.24C49.88,83.2,49.89,81.79,49.89,80.38ZM73.32,53.27a2.58,2.58,0,0,0-2.69-2.76,2.82,2.82,0,0,0-2.9,2.92,3,3,0,0,0,2.93,3C72.26,56.36,73.33,55.12,73.32,53.27ZM83.45,51.7c1.9,0,3.22-.94,3.26-2.33a2.85,2.85,0,0,0-3.08-2.87,2.8,2.8,0,0,0-3,2.89C80.58,50.94,81.52,51.69,83.45,51.7ZM49,0a15.8,15.8,0,0,1,6.65,1.3C62.29,4,69.21,5.65,76,7.83A102.11,102.11,0,0,1,94.4,15.32a8.09,8.09,0,0,1,.76.42c.36.25,1,.33.93.88s-.6.51-1,.69A98.05,98.05,0,0,1,79.46,23c-7.58,2.18-15.21,4.22-22.69,6.72a14,14,0,0,1-8.81.15c-9.7-3-19.67-4.87-29.38-7.77C13.37,20.52,8.17,18.93,3.09,17c-.36-.14-.95-.15-1-.62s.58-.51.94-.68A249.73,249.73,0,0,1,43.28,1.05,16.32,16.32,0,0,1,49,0ZM52.62,14A2.68,2.68,0,0,0,50,11.19c-1.69,0-2.94.92-3,2.32a3,3,0,0,0,2.9,3A2.52,2.52,0,0,0,52.62,14ZM71,14.2a2.66,2.66,0,0,0-2.7-2.53c-1.6,0-2.85.93-2.87,2.14a2.87,2.87,0,0,0,2.8,2.63A2.46,2.46,0,0,0,71,14.2Zm-43.27-.53A2.31,2.31,0,0,0,29.51,16a2.46,2.46,0,0,0,2.89-1.14c.58-.93,1.18-2,.29-3s-2-.69-3-.41A2.4,2.4,0,0,0,27.77,13.67Z"/></g></g></svg>