<svg xmlns="http://www.w3.org/2000/svg" viewBox="0 0 86.83 100"><g id="Layer_2" data-name="Layer 2"><g id="Layer_1-2" data-name="Layer 1"><path d="M86.43,24.71s0,0,0,0L43.8.1A.83.83,0,0,0,43,.1L.42,24.7h0a.79.79,0,0,0-.39.68V74.6a.79.79,0,0,0,.39.68L43,99.89s0,0,0,0a.9.9,0,0,0,.39.1.87.87,0,0,0,.39-.1L86.43,75.28a.76.76,0,0,0,.4-.67V25.38A.82.82,0,0,0,86.43,24.71Zm-43-23L84.47,25.39,43.41,49.09,2.35,25.38ZM1.56,26.74,42.63,50.46V97.87L1.56,74.15ZM44.19,97.87V50.46L85.26,26.74V74.16ZM55.24,78.74a4.2,4.2,0,0,0-4.23.34,11.49,11.49,0,0,0-5.26,9.12A4.12,4.12,0,0,0,47.57,92a3.21,3.21,0,0,0,1.65.44,5.14,5.14,0,0,0,2.57-.78,11.46,11.46,0,0,0,5.26-9.11A4.16,4.16,0,0,0,55.24,78.74ZM51,90.33a2.67,2.67,0,0,1-2.66.34,2.68,2.68,0,0,1-1-2.47,10.05,10.05,0,0,1,4.48-7.76,3.59,3.59,0,0,1,1.78-.56,1.69,1.69,0,0,1,.88.22,2.68,2.68,0,0,1,1,2.47A10.05,10.05,0,0,1,51,90.33ZM81.89,32.58a4.15,4.15,0,0,0-4.23.34A11.48,11.48,0,0,0,72.4,42a4.16,4.16,0,0,0,1.82,3.83,3.26,3.26,0,0,0,1.66.43,5.19,5.19,0,0,0,2.56-.77,11.47,11.47,0,0,0,5.26-9.11A4.15,4.15,0,0,0,81.89,32.58ZM77.66,44.17A2.22,2.22,0,0,1,74,42a10.1,10.1,0,0,1,4.48-7.76,3.73,3.73,0,0,1,1.79-.56,1.74,1.74,0,0,1,.88.22,2.7,2.7,0,0,1,1,2.48A10.07,10.07,0,0,1,77.66,44.17ZM64.8,28.88a11.45,11.45,0,0,0,10.52,0h0a4.16,4.16,0,0,0,2.41-3.49,4.16,4.16,0,0,0-2.41-3.49,11.49,11.49,0,0,0-10.52,0,4.18,4.18,0,0,0-2.41,3.49A4.2,4.2,0,0,0,64.8,28.88Zm.78-5.62a10,10,0,0,1,9,0,2.69,2.69,0,0,1,1.63,2.13,2.7,2.7,0,0,1-1.63,2.14,10.08,10.08,0,0,1-9,0A2.72,2.72,0,0,1,64,25.39,2.73,2.73,0,0,1,65.58,23.26ZM38.15,13.49a11.45,11.45,0,0,0,10.52,0A4.16,4.16,0,0,0,51.08,10a4.18,4.18,0,0,0-2.41-3.49,11.49,11.49,0,0,0-10.52,0A4.18,4.18,0,0,0,35.74,10,4.15,4.15,0,0,0,38.15,13.49Zm.78-5.62h0a9.13,9.13,0,0,1,4.48-1,9.1,9.1,0,0,1,4.48,1A2.69,2.69,0,0,1,49.52,10a2.72,2.72,0,0,1-1.63,2.14,10.08,10.08,0,0,1-9,0A2.72,2.72,0,0,1,37.3,10,2.69,2.69,0,0,1,38.93,7.87Zm-27.43,21a10.72,10.72,0,0,0,5.26,1.28A10.75,10.75,0,0,0,22,28.88a4.16,4.16,0,0,0,2.4-3.49A4.16,4.16,0,0,0,22,21.9a11.49,11.49,0,0,0-10.52,0,4.16,4.16,0,0,0-2.41,3.49A4.16,4.16,0,0,0,11.5,28.88Zm.78-5.62h0a9.18,9.18,0,0,1,4.48-1.05,9.24,9.24,0,0,1,4.48,1.05,2.7,2.7,0,0,1,1.62,2.14,2.7,2.7,0,0,1-1.62,2.14,10.08,10.08,0,0,1-9,0,2.72,2.72,0,0,1-1.63-2.14A2.69,2.69,0,0,1,12.28,23.26Zm25.87,21a11.53,11.53,0,0,0,10.52,0,4.18,4.18,0,0,0,2.41-3.49,4.18,4.18,0,0,0-2.41-3.49,11.49,11.49,0,0,0-10.52,0,4.18,4.18,0,0,0-2.41,3.49A4.18,4.18,0,0,0,38.15,44.27Zm.78-5.63a10.08,10.08,0,0,1,9,0,2.72,2.72,0,0,1,1.63,2.14,2.69,2.69,0,0,1-1.63,2.13h0a10.05,10.05,0,0,1-9,0,2.69,2.69,0,0,1-1.63-2.13A2.72,2.72,0,0,1,38.93,38.64ZM9.16,48.31A4.16,4.16,0,0,0,4.94,48a4.15,4.15,0,0,0-1.82,3.83A11.46,11.46,0,0,0,8.38,60.9a5.14,5.14,0,0,0,2.57.78,3.25,3.25,0,0,0,1.65-.43,4.17,4.17,0,0,0,1.82-3.83A11.46,11.46,0,0,0,9.16,48.31ZM11.82,59.9a2.71,2.71,0,0,1-2.66-.35,10.05,10.05,0,0,1-4.48-7.76,2.71,2.71,0,0,1,1-2.48,1.79,1.79,0,0,1,.88-.22,3.61,3.61,0,0,1,1.78.57,10.05,10.05,0,0,1,4.48,7.76A2.71,2.71,0,0,1,11.82,59.9Zm24,3.79a4.18,4.18,0,0,0-4.22-.34,4.17,4.17,0,0,0-1.82,3.83A11.49,11.49,0,0,0,35,76.3a5.25,5.25,0,0,0,2.57.77,3.27,3.27,0,0,0,1.66-.44,4.14,4.14,0,0,0,1.81-3.83A11.49,11.49,0,0,0,35.81,63.69Zm2.67,11.59a2.69,2.69,0,0,1-2.67-.34,10.1,10.1,0,0,1-4.48-7.76,2.71,2.71,0,0,1,1-2.48,1.85,1.85,0,0,1,.88-.22,3.58,3.58,0,0,1,1.78.57,10.05,10.05,0,0,1,4.48,7.75A2.68,2.68,0,0,1,38.48,75.28Zm-2.67-27A4.13,4.13,0,0,0,31.59,48a4.14,4.14,0,0,0-1.82,3.82A11.49,11.49,0,0,0,35,60.91a5.28,5.28,0,0,0,2.57.77,3.26,3.26,0,0,0,1.66-.43,4.16,4.16,0,0,0,1.81-3.83A11.46,11.46,0,0,0,35.81,48.31ZM38.48,59.9a2.72,2.72,0,0,1-2.67-.35,10.08,10.08,0,0,1-4.48-7.76,2.68,2.68,0,0,1,1-2.47,1.72,1.72,0,0,1,.88-.22,3.56,3.56,0,0,1,1.78.56,10.05,10.05,0,0,1,4.48,7.76A2.71,2.71,0,0,1,38.48,59.9Zm-29.32-27a4.13,4.13,0,0,0-4.22-.34A4.12,4.12,0,0,0,3.12,36.4a11.49,11.49,0,0,0,5.26,9.12,5.22,5.22,0,0,0,2.57.77,3.25,3.25,0,0,0,1.65-.43A4.17,4.17,0,0,0,14.42,42,11.46,11.46,0,0,0,9.16,32.92Zm2.66,11.59a2.71,2.71,0,0,1-2.66-.35A10.05,10.05,0,0,1,4.68,36.4a2.68,2.68,0,0,1,1-2.47,1.69,1.69,0,0,1,.88-.22,3.69,3.69,0,0,1,1.78.56A10.07,10.07,0,0,1,12.86,42,2.71,2.71,0,0,1,11.82,44.51ZM9.16,63.69a4.13,4.13,0,0,0-4.22-.34,4.15,4.15,0,0,0-1.82,3.83,11.46,11.46,0,0,0,5.26,9.11,5.12,5.12,0,0,0,2.57.77,3.25,3.25,0,0,0,1.65-.43,4.15,4.15,0,0,0,1.82-3.83A11.49,11.49,0,0,0,9.16,63.69Zm2.66,11.59a2.67,2.67,0,0,1-2.66-.34,10.07,10.07,0,0,1-4.48-7.76,2.71,2.71,0,0,1,1-2.48,1.79,1.79,0,0,1,.88-.22A3.69,3.69,0,0,1,8.38,65a10.09,10.09,0,0,1,4.48,7.77A2.68,2.68,0,0,1,11.82,75.28Zm24,3.8a4.18,4.18,0,0,0-4.22-.34,4.17,4.17,0,0,0-1.82,3.83A11.46,11.46,0,0,0,35,91.68a5.17,5.17,0,0,0,2.57.78A3.27,3.27,0,0,0,39.26,92a4.14,4.14,0,0,0,1.81-3.83A11.47,11.47,0,0,0,35.81,79.08Zm2.67,11.59a2.72,2.72,0,0,1-2.67-.34,10.1,10.1,0,0,1-4.48-7.76,2.71,2.71,0,0,1,1-2.48,1.85,1.85,0,0,1,.88-.22,3.66,3.66,0,0,1,1.78.56,10.08,10.08,0,0,1,4.48,7.76A2.71,2.71,0,0,1,38.48,90.67Z"/></g></g></svg>