<svg xmlns="http://www.w3.org/2000/svg" viewBox="0 0 100 99.17"><defs><style>.cls-1{fill:#141515;}</style></defs><g id="Layer_2" data-name="Layer 2"><g id="Layer_1-2" data-name="Layer 1"><path class="cls-1" d="M33.41,12.86c2.47,0,5.25-1,5.52-2.9a2.12,2.12,0,0,0-.48-1.74A5.48,5.48,0,0,0,34.3,6.78c-2.33,0-5,.93-5.5,2.71a2,2,0,0,0,.35,1.81C29.88,12.28,31.47,12.86,33.41,12.86Zm.89-4c1.67,0,2.55.55,2.61.8s-1.36,1.17-3.5,1.17c-1.68,0-2.56-.54-2.64-.73C30.9,9.65,32.25,8.83,34.3,8.83ZM49.88,27.44a6.86,6.86,0,0,0,5-1.82,2.9,2.9,0,0,0,.85-2.22c-.11-2.12-2.63-3.72-5.86-3.72s-5.8,1.6-5.91,3.72a3,3,0,0,0,.9,2.26A7,7,0,0,0,49.88,27.44Zm0-5.71c2.19,0,3.77.94,3.81,1.8a.92.92,0,0,1-.3.7,5,5,0,0,1-3.51,1.16,5.1,5.1,0,0,1-3.52-1.15,1,1,0,0,1-.34-.73C46.07,22.67,47.73,21.73,49.88,21.73Zm0-8.87a6.31,6.31,0,0,0,4.46-1.5A2.14,2.14,0,0,0,55,9.74c-.06-1.72-2.2-3-5.09-3s-5,1.23-5.13,3a2.2,2.2,0,0,0,.67,1.64A6.29,6.29,0,0,0,49.88,12.86Zm0-4c2,0,3,.79,3,1s-1.08,1-3,1-3-.75-3.08-1S47.91,8.83,49.88,8.83Zm16.47,4c1.94,0,3.53-.58,4.26-1.56A2,2,0,0,0,71,9.49c-.53-1.78-3.16-2.71-5.5-2.71A5.56,5.56,0,0,0,61.31,8.2,2.15,2.15,0,0,0,60.79,10C61.13,11.84,63.91,12.86,66.35,12.86Zm-.89-4c2.05,0,3.4.82,3.53,1.2-.08.23-1,.77-2.64.77-2.18,0-3.49-.9-3.54-1.17S63.76,8.83,65.46,8.83ZM63.72,21.37a2.77,2.77,0,0,0-.66,2.27c.39,2.13,3.27,3.8,6.55,3.8a5.9,5.9,0,0,0,4.7-1.85,2.72,2.72,0,0,0,.51-2.42c-.57-2-3.35-3.49-6.48-3.49A6.12,6.12,0,0,0,63.72,21.37Zm9.12,2.34a.66.66,0,0,1-.16.63,4,4,0,0,1-3.08,1.05c-2.52,0-4.36-1.26-4.51-2.09a.69.69,0,0,1,.19-.6,4.17,4.17,0,0,1,3.06-1C70.66,21.73,72.57,22.79,72.84,23.71ZM30.11,27.44c3.34,0,6.21-1.68,6.54-3.8A2.73,2.73,0,0,0,36,21.38a6.05,6.05,0,0,0-4.63-1.7c-3.12,0-5.9,1.5-6.47,3.49a2.7,2.7,0,0,0,.47,2.41A5.86,5.86,0,0,0,30.11,27.44Zm-3.2-3.7c.27-.95,2.19-2,4.5-2a4.08,4.08,0,0,1,3.05,1,.67.67,0,0,1,.17.6c-.13.83-2,2.09-4.52,2.09a3.89,3.89,0,0,1-3.06-1.05A.63.63,0,0,1,26.91,23.74ZM98.66,38.56C97,28.93,93.93,21.38,89.05,14.81,85.61,6.28,69.64,0,49.88,0S14,6.33,10.63,14.93c-5,6.68-8.07,14.55-9.71,24.72-2.55,7.56.23,20.67,7.81,33.89C15.72,85.77,25.26,95,33,97.09a12.15,12.15,0,0,0,2.43.42A65.9,65.9,0,0,0,50,99.17a63.3,63.3,0,0,0,14.37-1.65,13.29,13.29,0,0,0,2.6-.43C74.77,95,84.33,85.77,91.32,73.54,99.24,59.66,101.88,45.9,98.66,38.56Zm-86.59-21c0-.11,0-.22,0-.33l.06-.33a6.7,6.7,0,0,1,.37-1.15.89.89,0,0,0,0-.14C15.68,8,31.5,2.05,49.88,2.05c20.5,0,37.81,7.43,37.81,16.23a6.93,6.93,0,0,1-.2,1.63C85.51,28,69.09,34.5,49.88,34.5,29.36,34.5,12,27.07,12,18.28A6.12,6.12,0,0,1,12.07,17.54ZM38.63,95l-.17.06a6.84,6.84,0,0,1-3,.33s-.08,0-.13,0a12.63,12.63,0,0,1-1.81-.33c-7.27-2-16.32-10.81-23.05-22.59-7-12.29-9.87-25.06-7.7-32,0,0,0-.08.06-.12a7.74,7.74,0,0,1,2.59-4c.17-.12.34-.24.52-.35a5.52,5.52,0,0,1,.69-.34l.22-.08a4.48,4.48,0,0,1,.52-.16l.26-.07.53-.1.28,0a5.49,5.49,0,0,1,.58,0H9.3a9,9,0,0,1,1.14.08l.23,0a10.18,10.18,0,0,1,1.24.26c7.27,2,16.32,10.81,23,22.57a73.91,73.91,0,0,1,4.35,8.93c5.18,12.75,5.52,24.36.14,27.51A6,6,0,0,1,38.63,95Zm1.91,1.35.29-.19.39-.26.29-.24.35-.3a3.57,3.57,0,0,0,.27-.28l.33-.33.24-.31.3-.37c.07-.11.14-.22.22-.33s.18-.27.26-.41.13-.24.19-.36.17-.29.24-.45.11-.25.17-.38.14-.31.21-.48.09-.27.14-.41l.18-.51.12-.43.15-.55.09-.45c0-.19.09-.38.12-.58s0-.3.07-.45.07-.42.09-.64,0-.29,0-.44.05-.45.06-.69,0-.3,0-.44,0-.49,0-.74v-.43c0-.26,0-.52,0-.79s0-.27,0-.41,0-.56,0-.85l0-.37c0-.31,0-.62-.07-.94,0-.11,0-.22,0-.33,0-.33-.07-.67-.11-1,0-.09,0-.19,0-.28,0-.37-.11-.73-.17-1.1,0-.08,0-.15,0-.23-.07-.39-.14-.78-.22-1.18a.59.59,0,0,0,0-.13c-.09-.44-.18-.87-.28-1.31h0a70.31,70.31,0,0,0-7.6-18.8h0C29.75,45,20.22,35.75,12.45,33.66A12.78,12.78,0,0,0,9,33.22a8.36,8.36,0,0,0-4,1.1,7.06,7.06,0,0,0-1,.71l0,0a51,51,0,0,1,6.15-15.62c0,.12,0,.25.07.38s.05.29.08.44a4.27,4.27,0,0,0,.13.48c0,.14.07.28.12.42a4.14,4.14,0,0,0,.19.49c0,.14.09.27.15.4s.17.34.25.51.12.25.19.37.22.38.34.57.11.19.18.28c.18.28.39.56.6.84l.18.2c.16.21.33.41.51.62l.3.3c.15.17.31.33.48.49l.35.33.5.45.4.33.52.42.45.33.56.4c.16.11.32.22.49.32s.38.26.58.38l.53.32.62.36c.18.11.37.21.56.31l.65.35.6.29.68.33c.2.1.41.19.63.28l.71.32.66.27.74.29.69.26.78.28.71.24.81.26.74.23.83.24.77.21.86.23.79.19.89.21.81.18.92.19.83.16,1,.17.84.14,1,.15.85.12,1,.13L40,36l1.05.11.86.08,1.11.09c.28,0,.56.05.84.06l1.18.07.8,0,1.32,0,.7,0,2,0q1,0,2,0l.7,0,1.32,0,.8,0,1.18-.07c.28,0,.56,0,.84-.06l1.11-.09.86-.08L59.78,36l.86-.11,1-.13.85-.12,1-.15.84-.14,1-.17.83-.16.91-.19.82-.18.88-.21.8-.19.85-.23.78-.21.82-.24.75-.23.79-.26.73-.25.76-.27.71-.27.71-.28.69-.28.68-.3.66-.3.65-.31.63-.32.61-.32.6-.33.57-.34.57-.34.54-.35.53-.36c.17-.11.34-.24.5-.36s.34-.24.5-.37l.46-.37.47-.38.42-.38.43-.4.38-.39c.13-.14.26-.27.38-.41A4.47,4.47,0,0,0,87,25c.12-.13.24-.27.34-.4l.32-.44c.15-.21.3-.43.44-.65s.25-.39.36-.6.13-.27.2-.4.16-.31.23-.47l.17-.42c.06-.16.12-.32.17-.47s.08-.29.13-.44.09-.31.12-.47a3.39,3.39,0,0,0,.08-.44,2.93,2.93,0,0,0,.07-.41A50.71,50.71,0,0,1,95.8,34.81a6,6,0,0,0-.75-.49,9.46,9.46,0,0,0-7.43-.67c-.49.13-1,.29-1.48.47a22.51,22.51,0,0,0-2.53,1.16c-.37.19-.74.4-1.11.62C77,39.16,71.05,45.18,66,52.76q-1.42,2.15-2.75,4.44c-.31.54-.61,1.09-.91,1.63L61.75,60l-.25.47L61,61.54c-.08.18-.17.36-.26.53-.19.38-.36.77-.54,1.15l-.22.46-.56,1.26-.15.34c-.2.48-.4,1-.59,1.42l-.06.16c-.19.47-.37.94-.55,1.4l-.06.17c-.19.5-.37,1-.54,1.49a.25.25,0,0,0,0,.07c-4.09,11.78-3.8,21.9,1.26,25.85l.1.08.46.31.23.16A61.8,61.8,0,0,1,40.54,96.39Zm49-23.87C82.8,84.29,73.74,93.16,66.46,95.1a10.54,10.54,0,0,1-2.25.37,6.78,6.78,0,0,1-3.65-.81,6.37,6.37,0,0,1-1.14-.87,7.21,7.21,0,0,1-.94-1.16,8.54,8.54,0,0,1-.74-1.41c-2.79-6.66-.05-20.1,7.31-33a79.59,79.59,0,0,1,4.32-6.71c6-8.35,13-14.33,18.78-15.87a10.75,10.75,0,0,1,1.68-.32l.2,0,.58,0a6.41,6.41,0,0,1,3.41.82l.08.06a4.38,4.38,0,0,1,.59.4l.32.28.36.36c.08.09.16.17.23.26a6.33,6.33,0,0,1,.56.77l.06.1c.16.27.32.57.47.88C99.72,45.74,97,59.4,89.54,72.52ZM81.33,62.34a2.78,2.78,0,0,0-1.26-1.76A2.69,2.69,0,0,0,78,60.3a6.63,6.63,0,0,0-3.76,3.26v0c-1.55,2.77-1.4,5.61.34,6.61a2.62,2.62,0,0,0,1.28.33c1.55,0,3.33-1.26,4.55-3.37A6.64,6.64,0,0,0,81.33,62.34ZM78.6,66.11c-1.07,1.85-2.51,2.59-3,2.3s-.61-2,.43-3.82a4.68,4.68,0,0,1,2.48-2.29.68.68,0,0,1,.55,0,.87.87,0,0,1,.32.52A4.58,4.58,0,0,1,78.6,66.11Zm10.28-21a2.71,2.71,0,0,0-2.09-.23A6.76,6.76,0,0,0,83,48.16h0c-1.54,2.69-1.39,5.58.32,6.56a2.51,2.51,0,0,0,1.34.37,3.11,3.11,0,0,0,.79-.1,6.73,6.73,0,0,0,3.73-3.27C90.76,49,90.61,46.11,88.88,45.12Zm-1.46,5.59A4.72,4.72,0,0,1,85,53a.71.71,0,0,1-.58,0c-.52-.3-.62-2,.42-3.77a4.82,4.82,0,0,1,2.49-2.32.72.72,0,0,1,.54,0C88.36,47.19,88.45,48.87,87.42,50.71Zm.36,15.44a2.71,2.71,0,0,0-2.09-.23,6.76,6.76,0,0,0-3.76,3.27v0c-1.52,2.72-1.38,5.56.35,6.61a2.6,2.6,0,0,0,1.28.33c1.55,0,3.33-1.27,4.56-3.39C89.66,70,89.51,67.15,87.78,66.15Zm-1.45,5.59c-1.07,1.85-2.52,2.59-3,2.31s-.65-2,.4-3.84a4.73,4.73,0,0,1,2.5-2.3.65.65,0,0,1,.53,0C87.26,68.23,87.36,69.9,86.33,71.74ZM71.25,76a2.79,2.79,0,0,0-2.16-.21A6.64,6.64,0,0,0,65.42,79a6.72,6.72,0,0,0-1,4.88,2.73,2.73,0,0,0,1.27,1.73A2.51,2.51,0,0,0,67,86a3,3,0,0,0,.87-.13,6.61,6.61,0,0,0,3.67-3.25C73.11,79.89,73,77,71.25,76Zm-1.49,5.61a4.66,4.66,0,0,1-2.43,2.3.85.85,0,0,1-.59,0,.75.75,0,0,1-.3-.48A4.75,4.75,0,0,1,67.2,80h0a4.7,4.7,0,0,1,2.44-2.3,1.64,1.64,0,0,1,.32,0,.53.53,0,0,1,.26.06C70.74,78.05,70.83,79.73,69.76,81.57ZM66.29,65.18a2.61,2.61,0,0,0,1.29.33,3.37,3.37,0,0,0,.87-.12,6.63,6.63,0,0,0,3.67-3.26c1.57-2.72,1.45-5.54-.27-6.57a2.74,2.74,0,0,0-2.17-.26A6.54,6.54,0,0,0,66,58.56C64.43,61.25,64.56,64.15,66.29,65.18Zm1.48-5.6h0a4.58,4.58,0,0,1,2.43-2.28,1.06,1.06,0,0,1,.29,0,.58.58,0,0,1,.3.07c.52.31.6,2-.45,3.79a4.66,4.66,0,0,1-2.44,2.3.78.78,0,0,1-.58,0C66.8,63.09,66.71,61.41,67.77,59.58ZM13.3,44.9a2.75,2.75,0,0,0-2.16.22,2.72,2.72,0,0,0-1.26,1.73,6.68,6.68,0,0,0,1,4.87A6.53,6.53,0,0,0,14.53,55a3.36,3.36,0,0,0,.82.11,2.48,2.48,0,0,0,1.34-.37c1.73-1,1.85-3.9.28-6.57A6.63,6.63,0,0,0,13.3,44.9ZM15.63,53a.7.7,0,0,1-.58,0,4.57,4.57,0,0,1-2.43-2.29,4.75,4.75,0,0,1-.76-3.33.73.73,0,0,1,.3-.48.53.53,0,0,1,.28-.07,1.44,1.44,0,0,1,.31.05,4.66,4.66,0,0,1,2.44,2.3v0C16.29,51.05,16.11,52.69,15.63,53Zm6.48,7.34a2.81,2.81,0,0,0-2.15.25c-1.73,1-1.88,3.88-.33,6.58,1.22,2.12,3,3.38,4.57,3.38a2.61,2.61,0,0,0,1.31-.34c1.72-1,1.85-3.92.29-6.61A6.54,6.54,0,0,0,22.11,60.31Zm2.37,8.09c-.51.3-2-.46-3.07-2.28s-.94-3.48-.4-3.79a.51.51,0,0,1,.28-.07,1.13,1.13,0,0,1,.3,0A4.54,4.54,0,0,1,24,64.58v0C25.08,66.42,25,68.1,24.48,68.4ZM34.62,79C33,76.27,30.53,75,28.79,76s-1.9,3.84-.34,6.63a6.76,6.76,0,0,0,3.76,3.27A3.21,3.21,0,0,0,33,86a2.37,2.37,0,0,0,1.27-.34,2.82,2.82,0,0,0,1.29-1.76,6.68,6.68,0,0,0-1-4.86Zm-1,4.33a.82.82,0,0,1-.33.52.67.67,0,0,1-.52,0,4.73,4.73,0,0,1-2.49-2.3c-1-1.85-.95-3.53-.43-3.82a.51.51,0,0,1,.28-.07c.65,0,1.84.77,2.75,2.36A4.67,4.67,0,0,1,33.58,83.34Z"/></g></g></svg>