<svg xmlns="http://www.w3.org/2000/svg" viewBox="0 0 85.22 100"><g id="Layer_2" data-name="Layer 2"><g id="Layer_1-2" data-name="Layer 1"><path d="M85.21,86.7c-.14-1.77-.27-3.53-.41-5.3-.24-3.06-.49-6.12-.73-9.18-.18-2.35-.35-4.7-.54-7-.2-2.6-.41-5.2-.61-7.8-.17-2.1-.32-4.21-.48-6.31a1.73,1.73,0,0,0-2-1.66l-1.64.12-4,.31-5,.39c-1.31.1-2.63.19-3.94.31a1.51,1.51,0,0,1-1.12-.25c-1.1-.79-2.25-1.52-3.38-2.27-.27-.18-.27-.18,0-.38L76.31,36.32l3.44-2.6a.57.57,0,0,0,.25-.65.55.55,0,0,0-.53-.42l-4.74-.41c-1.21-.1-2.42-.19-3.63-.32a2.62,2.62,0,0,0-1.88.49L67,34.12,55,43.19c-.44.33-.32.33-.78,0-.3-.2-.3-.2,0-.42l10.2-7.74,3.74-2.82a1.23,1.23,0,0,0,.27-2l-.8-1.06L56.79,14.93l-10-13.18a1.65,1.65,0,0,0-2.5-.34L33.83,9.35l-17.3,13.1a2.11,2.11,0,0,0-.45,3.24l4.1,5.41a.38.38,0,0,1,0,.53c-.65.95-1.28,1.92-1.93,2.88Q12.81,42.75,7.31,51,3.91,56.11.49,61.23a2.26,2.26,0,0,0,.68,3.39L17.54,75.54l13.32,8.89a3,3,0,0,0,2.22.49l3.47-.56c.26,0,.39,0,.41.3,0,.92.14,1.84.21,2.76.1,1.33.2,2.65.31,4,.12,1.65.25,3.3.38,5L38,98.47a.52.52,0,0,0,.35.49.51.51,0,0,0,.58-.15,3.83,3.83,0,0,0,.28-.29c1.79-2,3.58-4,5.38-6A3.13,3.13,0,0,0,45.44,90c-.13-1.38-.22-2.76-.33-4.14s-.23-2.78-.33-4.17a1.19,1.19,0,0,1,0-.77c.18-.28.37-.56.56-.83h.07c0,.47.07,1,.11,1.43l.33,4.17c.09,1.25.18,2.5.29,3.74a1.89,1.89,0,0,0,1.69,1.68,5.35,5.35,0,0,0,1,0L53,90.76l4-.31,5-.39,4-.31,5-.38,3.94-.31,5-.39,3.94-.31a1.82,1.82,0,0,0,.76-.16A1.42,1.42,0,0,0,85.21,86.7Zm-21.11-46a5.67,5.67,0,0,1,2.34-2.34A3.58,3.58,0,0,1,68,37.75c.9,0,1.22.42,1,1.15a3.84,3.84,0,0,1-1.11,1.64,5.52,5.52,0,0,1-2.69,1.54.92.92,0,0,1-1.13-1.42ZM58.58,27.28a3.1,3.1,0,1,1-3.12,3.06A3.08,3.08,0,0,1,58.58,27.28ZM43.42,10a3.1,3.1,0,1,1-3.11,3.09A3.08,3.08,0,0,1,43.42,10Zm-.37,16.55a3.13,3.13,0,0,1,3.12,3.19,3.11,3.11,0,1,1-3.12-3.19ZM25.91,22.67a3.11,3.11,0,1,1-3.11,3.1A3.13,3.13,0,0,1,25.91,22.67ZM.77,62.43c-.06-.11,0-.18.08-.26l2.63-3.94Q12.24,45.09,21,32a1.89,1.89,0,0,1,1.36-.87c2.79-.43,5.58-.89,8.38-1.34l.14,0c.1,0,.2,0,.26.09a.24.24,0,0,1-.06.24l-.88,1.32Q20.79,45.49,11.38,59.6a3.52,3.52,0,0,1-2.52,1.64c-2.55.38-5.1.81-7.65,1.22l-.23,0C.91,62.49.82,62.51.77,62.43ZM41,87.41a.81.81,0,0,1-1.46.19,3,3,0,0,1-.51-.83,6.47,6.47,0,0,1-.47-2.45.28.28,0,0,1,.28-.33c.68-.1,1.37-.21,2-.33.21,0,.3,0,.34.24a6.12,6.12,0,0,1,.16,1.51A4,4,0,0,1,41,87.41Zm-.36-4.56L32.84,84.1a1.9,1.9,0,0,1-1.43-.32l-5.79-3.86-6.37-4.25-7.43-5-10.47-7-.12-.08c-.08-.07-.23-.09-.18-.23s.15-.1.24-.11L3,63c2.14-.34,4.29-.69,6.44-1a3.62,3.62,0,0,1,2.63.73L41.41,82.36c.12.08.26.13.34.29A8.8,8.8,0,0,1,40.65,82.85Zm17.12,1.81a3.11,3.11,0,1,1,3.14-3.11A3.13,3.13,0,0,1,57.77,84.66ZM54.84,65.88C55.47,65,56.09,64,56.7,63.1c.43-.63.86-1.26,1.27-1.9.13-.19.22-.23.39,0a3.06,3.06,0,0,1,.76,3.19,3,3,0,0,1-2.45,2.11l-.31,0h-.2A4.06,4.06,0,0,1,55,66.27C54.75,66.18,54.7,66.1,54.84,65.88Zm8.58-14.36L56,62.72,47.79,75,43.3,81.69c-.34.51-.54.55-1.06.21L12.62,62.15a1.43,1.43,0,0,1-.46-2.21c1.58-2.39,3.18-4.77,4.77-7.16L31.77,30.52l.13-.2c.34-.48.64-.54,1.12-.22l9.47,6.32L63.12,50.17c.29.19.54.39.52.78A1,1,0,0,1,63.42,51.52Zm6.43,10.27A3.13,3.13,0,1,1,73,65,3.15,3.15,0,0,1,69.85,61.79ZM74.58,83.1A3.15,3.15,0,0,1,71.47,80a3.13,3.13,0,0,1,6.26,0A3.14,3.14,0,0,1,74.58,83.1ZM51.6,6.75q4.59,6.08,9.2,12.14l8.26,10.92a3.33,3.33,0,0,0,2.56,1.36c1.23.09,2.45.22,3.68.32l3.56.31a.82.82,0,0,0,.73-1.34l-.12-.16q-2.61-3.45-5.23-6.91l-9.3-12.27-6.8-9A3.46,3.46,0,0,0,55.77.74C54.86.62,54,.55,53,.45,51.59.31,50.15.17,48.7,0a1,1,0,0,0-1.12.46,1,1,0,0,0,.15,1.17ZM62,13.92a.47.47,0,0,1,.62-.46,2.81,2.81,0,0,1,1.27.71,8.07,8.07,0,0,1,2.33,3.15,1.87,1.87,0,0,1,.17,1.07c-.07.3-.19.4-.57.39a1.49,1.49,0,0,1-.61-.23,7.56,7.56,0,0,1-3.11-3.89A1.71,1.71,0,0,1,62,13.92ZM84,89.16a1.76,1.76,0,0,1-.23,0h-.29L78,89.62l-5.64.43-6.36.5L60.36,91l-7,.55c-2.06.16-4.12.31-6.18.48a2.78,2.78,0,0,0-1.9.94c-1.31,1.44-2.6,2.89-3.9,4.34l-1.59,1.8a.52.52,0,0,0-.1.61.55.55,0,0,0,.55.3l.72-.06,3.37-.25,4.81-.38,4-.31,4.95-.39,3.25-.25L66.15,98l4.14-.31c1.66-.13,3.32-.29,5-.38a6,6,0,0,0,4.37-2c1.37-1.52,2.78-3,4.17-4.52.2-.22.41-.43.6-.66a.55.55,0,0,0,.1-.62A.57.57,0,0,0,84,89.16ZM67.41,95a2.25,2.25,0,0,1-.84.78A5.32,5.32,0,0,1,64,96.4,4.38,4.38,0,0,1,62,96a1.2,1.2,0,0,1-.27-2.13,4,4,0,0,1,2-.89,5.07,5.07,0,0,1,2.65.15,2.1,2.1,0,0,1,.89.57A1,1,0,0,1,67.41,95ZM55.16,52.26a3.13,3.13,0,0,1-6.26,0A3.13,3.13,0,0,1,52,49.12,3.16,3.16,0,0,1,55.16,52.26ZM42,71.91a3.13,3.13,0,1,1-3.14-3.13A3.18,3.18,0,0,1,42,71.91Zm-6.6-27.56a3.11,3.11,0,1,1,3.2-3A3.1,3.1,0,0,1,35.44,44.35ZM32.1,51.09A3.13,3.13,0,1,1,29,48,3.11,3.11,0,0,1,32.1,51.09Zm16.48,11A3.11,3.11,0,1,1,45.47,59,3.12,3.12,0,0,1,48.58,62.08ZM25.52,60.94a3.11,3.11,0,1,1-3.08-3.15A3.13,3.13,0,0,1,25.52,60.94ZM13.41,49.17a1.57,1.57,0,0,1,0-.86,6.74,6.74,0,0,1,2.48-3.68,2.85,2.85,0,0,1,.45-.25c.6-.25,1,0,1,.68A4.22,4.22,0,0,1,17,46.62a7.15,7.15,0,0,1-1.92,2.53,2.11,2.11,0,0,1-.91.48A.58.58,0,0,1,13.41,49.17ZM4.55,60.31a1.77,1.77,0,0,1,.06-.94A7,7,0,0,1,7,55.88a2.48,2.48,0,0,1,.49-.3c.67-.32,1.09,0,1.09.85a3.9,3.9,0,0,1-.43,1.4,6.8,6.8,0,0,1-2.2,2.7,1.63,1.63,0,0,1-.6.27A.59.59,0,0,1,4.55,60.31Zm18.36-22a1.82,1.82,0,0,1,.06-.77A7,7,0,0,1,25.35,34a2.25,2.25,0,0,1,.47-.28c.68-.32,1.09,0,1.09.85a4.53,4.53,0,0,1-.68,1.88,6.62,6.62,0,0,1-1.71,2,2.11,2.11,0,0,1-.78.42A.61.61,0,0,1,22.91,38.34Zm-4.09,33a.63.63,0,0,1-.62.9,2.39,2.39,0,0,1-1-.15,7.09,7.09,0,0,1-3.27-2.27,1.82,1.82,0,0,1-.41-.79.6.6,0,0,1,.63-.79,1.34,1.34,0,0,1,.2,0,4.33,4.33,0,0,1,1.88.6,6.64,6.64,0,0,1,2.31,2A2,2,0,0,1,18.82,71.35Zm12.49,8.24c.27.63,0,1-.73,1a4.58,4.58,0,0,1-2-.67,6.74,6.74,0,0,1-2.19-1.85,1.66,1.66,0,0,1-.35-.76.57.57,0,0,1,.52-.72,1.54,1.54,0,0,1,.77,0A6.75,6.75,0,0,1,31,79.09,1.89,1.89,0,0,1,31.31,79.59Z"/></g></g></svg>