<svg xmlns="http://www.w3.org/2000/svg" viewBox="0 0 100 100"><g id="Layer_2" data-name="Layer 2"><g id="Layer_1-2" data-name="Layer 1"><path d="M92.57,0H7.42A7.42,7.42,0,0,0,0,7.42V92.58A7.42,7.42,0,0,0,7.42,100H92.57A7.43,7.43,0,0,0,100,92.58V7.42A7.43,7.43,0,0,0,92.57,0ZM24.75,85.11a9.86,9.86,0,1,1,9.86-9.86A9.85,9.85,0,0,1,24.75,85.11Zm0-25.25A9.86,9.86,0,1,1,34.61,50,9.85,9.85,0,0,1,24.75,59.86Zm0-25.25a9.86,9.86,0,1,1,9.86-9.86A9.86,9.86,0,0,1,24.75,34.61Zm50.5,50.5a9.86,9.86,0,1,1,9.85-9.86A9.85,9.85,0,0,1,75.25,85.11Zm0-25.25A9.86,9.86,0,1,1,85.1,50,9.85,9.85,0,0,1,75.25,59.86Zm0-25.25a9.86,9.86,0,1,1,9.85-9.86A9.86,9.86,0,0,1,75.25,34.61Z"/></g></g></svg>