<svg xmlns="http://www.w3.org/2000/svg" viewBox="0 0 100 90.83"><g id="Layer_2" data-name="Layer 2"><g id="Layer_1-2" data-name="Layer 1"><path d="M68.66,39c-2.56-1.3-5.13-2.6-7.68-3.91L36.32,22.5a1.93,1.93,0,0,0-1-.27l-.77.21L23.94,25.59,4.34,31.44A1.36,1.36,0,0,0,3.27,32.8c-.22,2.81-.49,5.62-.74,8.43-.42,4.53-.85,9.06-1.26,13.59S.49,64.08,0,68.71A2.05,2.05,0,0,0,1.1,70.92Q16.25,80.7,31.38,90.54a1.52,1.52,0,0,0,1.58.13L62.31,78.14a1.7,1.7,0,0,0,1.1-1.4q3.07-18,6.17-35.91C69.77,39.72,69.65,39.49,68.66,39ZM7.87,32.63l26.94-8a1.41,1.41,0,0,1,1.12.1q11.3,5.79,22.62,11.57c2.1,1.08,4.21,2.13,6.31,3.2a2.19,2.19,0,0,1,.89.61l-5.49,2c-7.15,2.57-14.3,5.12-21.44,7.7a1.53,1.53,0,0,1-1.38-.08Q24.72,42.58,12,35.54L7.31,33C7.43,32.67,7.68,32.69,7.87,32.63Zm24.05,52c-.13.89-.31,1.77-.39,2.67-.06.67-.28.63-.75.32l-10.6-6.88Q11.51,75.08,2.83,69.47a1.2,1.2,0,0,1-.61-1.32c.35-3.46.66-6.93,1-10.39Q3.78,51.4,4.34,45c.29-3.3.59-6.59.89-9.89.08-.79.1-.82.81-.42Q12.63,38.35,19.21,42q8.47,4.68,16.93,9.38c.35.19.73.35.62.77-.42,2.84-.84,5.58-1.24,8.33Zm34.16-36Q63.77,62,61.47,75.38a1.39,1.39,0,0,1-.91,1.18q-9.62,4.06-19.21,8.18L34.5,87.67c-.24.1-.5.33-.74.19s-.07-.49,0-.74q2-13.47,4-26.93c.38-2.55.78-5.1,1.14-7.65.08-.58.48-.73.92-.89l9.83-3.52,16.85-6c.27-.1.67-.41.69.19C66.79,44.42,66.44,46.49,66.08,48.55Zm33.73-12Q93.57,22,87.37,7.42a1.74,1.74,0,0,0-1.44-1.16Q67.9,3.17,49.88.05a1.26,1.26,0,0,0-1.64.84L38,20.93c-.52,1-.52,1,.47,1.55s.89.49,1.35-.42L46.94,8.14l2.16-4.2a1.25,1.25,0,0,1,.39.67l4,11.2,5.4,15.06c.13.37.29.75,0,1.11-.43.58-.22.91.37,1.15.25.1.48.25.72.36s.43.16.52-.06c.3-.73.88-.52,1.42-.44l26.14,3.9,8.16,1.2c.88.14.89.16.41.9s-.89,1.39-1.34,2.09Q87,53.92,78.7,66.77a1.13,1.13,0,0,1-1.22.64c-3.32-.33-6.64-.62-10-.9-1.4-.11-1.38-.08-1.59,1.33-.08.52.09.71.59.75,3.82.34,7.65.67,11.48,1a1.94,1.94,0,0,0,2-1q9.78-15.16,19.63-30.29A1.69,1.69,0,0,0,99.81,36.57ZM96.48,36l-6.43-1L68.82,31.85l-6.93-1a1.07,1.07,0,0,1-1-.78Q56.14,16.68,51.33,3.35C51,2.43,51,2.42,52,2.58l23,4c3.21.56,6.42,1.13,9.64,1.66a1.3,1.3,0,0,1,1.12.86q3.9,9.23,7.85,18.41c1.11,2.6,2.21,5.2,3.33,7.79C97.13,35.76,97.1,36,96.48,36ZM81.92,43.81a6.36,6.36,0,0,1,5.88-2.46c1.67.37,2.24,1.71,1.26,3.13a6.3,6.3,0,0,1-4.88,2.66l-.74,0C81.51,46.86,80.85,45.44,81.92,43.81ZM76.49,57.9a3.44,3.44,0,0,1,1,.17,1.8,1.8,0,0,1,1.13,2.76,5,5,0,0,1-2,2,6.94,6.94,0,0,1-3.28,1c-.93-.07-1.92-.16-2.39-1.16A2.3,2.3,0,0,1,71.68,60,6.39,6.39,0,0,1,76.49,57.9Zm5.87-8.06a1.85,1.85,0,0,1,1.28,3,6.24,6.24,0,0,1-5,2.76c-.37,0-.64,0-.9-.09a1.9,1.9,0,0,1-1.39-3.1A6.34,6.34,0,0,1,82.36,49.84Zm-37-30.64a7.89,7.89,0,0,1,1.2-6.61A1.44,1.44,0,0,1,48,11.85c.67.09.94.63,1.16,1.18a5.33,5.33,0,0,1,.26,2.09,7.58,7.58,0,0,1-1.32,4.55c-.37.53-.82,1-1.55.9S45.54,19.82,45.38,19.2Zm6.49,10.1c-.17-.09-.36-.21-.26-.45a1.81,1.81,0,0,1,1.17-1,1.05,1.05,0,0,1,1.2.46,3.83,3.83,0,0,1,.64,1.75c0,.45-.16.6-.57.39C53.32,30.07,52.59,29.69,51.87,29.3ZM31,55.7a4.41,4.41,0,0,1,0,1.88,1.87,1.87,0,0,1-3,1.36,5.62,5.62,0,0,1-2.27-2.77,6.41,6.41,0,0,1-.54-2.41,8,8,0,0,1,.16-1,1.83,1.83,0,0,1,2.93-1.21A6.07,6.07,0,0,1,31,55.7Zm-11,16.49a11,11,0,0,1-.16,1.15,1.83,1.83,0,0,1-2.83,1.23,6.28,6.28,0,0,1-2.79-6.26A1.79,1.79,0,0,1,17,67,6.16,6.16,0,0,1,19.93,72.19Zm2.28-21.77a4.11,4.11,0,0,1,0,2.09,1.81,1.81,0,0,1-2.81,1.24,5.19,5.19,0,0,1-2.25-2.51,6.74,6.74,0,0,1-.69-2.86,8.58,8.58,0,0,1,.14-.88,1.81,1.81,0,0,1,2.85-1.26A6,6,0,0,1,22.21,50.42Zm-8.65-5.48a4.36,4.36,0,0,1,.19,1.44c0,.24,0,.49-.06.72a1.91,1.91,0,0,1-3.19,1.36A6.24,6.24,0,0,1,8,44.27a4.21,4.21,0,0,1,0-1.66c.34-1.68,1.64-2.28,3.1-1.38A6,6,0,0,1,13.56,44.94Zm-3.05,18.5a6.34,6.34,0,0,1,1.21,3.69c0,.27,0,.54-.05.8a1.84,1.84,0,0,1-2.9,1.47,5.92,5.92,0,0,1-2.84-4.69,5.14,5.14,0,0,1,0-1.24,1.88,1.88,0,0,1,3-1.52A4.7,4.7,0,0,1,10.51,63.44ZM28.36,77.73c0,.12,0,.25,0,.37a2.13,2.13,0,0,1-1.14,2.05,2.07,2.07,0,0,1-2.3-.45,6.06,6.06,0,0,1-2.31-5.62c.23-1.79,1.63-2.4,3.14-1.39A6.14,6.14,0,0,1,28.36,77.73ZM63.14,50.4a7.21,7.21,0,0,1-2.61,5,2,2,0,0,1-2.27.54,2.1,2.1,0,0,1-1-2.21,7.41,7.41,0,0,1,2.31-5,1.37,1.37,0,0,1,.23-.19c.71-.49,1.43-1,2.34-.57S63.12,49.35,63.14,50.4ZM47.79,55.8A7.31,7.31,0,0,1,45.12,61a2,2,0,0,1-2.16.52,2,2,0,0,1-1-2,7,7,0,0,1,2.67-5.46,1.92,1.92,0,0,1,2.21-.49C47.65,54,47.74,54.86,47.79,55.8ZM44.27,76.62a7.29,7.29,0,0,1-2.72,5c-1.54,1.2-2.9.59-3.13-1.35a7.19,7.19,0,0,1,3.21-6C43.12,73.5,44.27,74.38,44.27,76.62Zm7-7.4a1.66,1.66,0,0,1-1.92.21c-.8-.5-.88-1.35-.92-2.29a7.24,7.24,0,0,1,2.8-5.23c1.55-1.14,3-.53,3,1.39A6.73,6.73,0,0,1,51.28,69.22Zm8.07-.12a4.17,4.17,0,0,1,.07,2.16,7.61,7.61,0,0,1-2.26,4.08l0,0c-.7.58-1.47,1.1-2.39.7s-1-1.33-1-2.63a7.24,7.24,0,0,1,2.51-4.77,3.05,3.05,0,0,1,1.06-.62A1.54,1.54,0,0,1,59.35,69.1ZM49.08,37.41a1.42,1.42,0,0,1,1.19-1.15,7.72,7.72,0,0,1,6.85,1.19c1.15.82.92,2-.41,2.5a5.23,5.23,0,0,1-2.15.31,8.11,8.11,0,0,1-4.67-1.4A1.61,1.61,0,0,1,49.08,37.41ZM14.83,33.79a1.2,1.2,0,0,1,.41-2,5.24,5.24,0,0,1,2.84-.47,7.68,7.68,0,0,1,4.36,1.44c1.15.9,1,2-.37,2.54a5.24,5.24,0,0,1-2.15.32,8.76,8.76,0,0,1-4.19-1.07A3,3,0,0,1,14.83,33.79ZM36.5,41.15A8.26,8.26,0,0,1,41,42.51,1.61,1.61,0,0,1,41.85,44a1.48,1.48,0,0,1-1.25,1.18A7.74,7.74,0,0,1,33.82,44c-1.14-.81-.91-2,.39-2.5A7.08,7.08,0,0,1,36.5,41.15Zm-5-11.63a1.18,1.18,0,0,1,.35-2A4.48,4.48,0,0,1,34.07,27a8.73,8.73,0,0,1,4.32,1,4.48,4.48,0,0,1,.84.58c1,.88.8,1.9-.43,2.37a7.65,7.65,0,0,1-5.27-.17A4.56,4.56,0,0,1,31.51,29.52ZM83.06,16a7.39,7.39,0,0,1-5.32-2.75,1.92,1.92,0,0,1-.46-2.09,1.91,1.91,0,0,1,2-1,7.13,7.13,0,0,1,5.58,2.72A1.88,1.88,0,0,1,85.24,15C84.81,15.82,84,16,83.06,16Zm-4.87,2.05a2,2,0,0,1,.45,2.17,1.92,1.92,0,0,1-2,1,6.92,6.92,0,0,1-5.67-3c-1-1.43-.28-2.77,1.48-2.88h.43A7.31,7.31,0,0,1,78.19,18.05Zm-15.63-5.7a7.22,7.22,0,0,1-4.89-2.64,3.22,3.22,0,0,1-.51-1,1.5,1.5,0,0,1,1-2.07,4.21,4.21,0,0,1,2.17-.05,7.57,7.57,0,0,1,3.92,2.1,2.09,2.09,0,0,1,.2.22,2.31,2.31,0,0,1,.68,2.39C64.9,12,64.1,12.37,62.56,12.35Zm8.08,12.89a1.61,1.61,0,0,1-1.32,2.42A7.11,7.11,0,0,1,63,24.81a1.88,1.88,0,0,1-.24-2c.47-.8,1.3-.86,2.51-.85a7.17,7.17,0,0,1,4.83,2.53A3,3,0,0,1,70.64,25.24Zm20.3,3a1.82,1.82,0,0,1,.35,2,1.89,1.89,0,0,1-1.85.94,7.09,7.09,0,0,1-5.57-2.56,3,3,0,0,1-.4-.6,1.66,1.66,0,0,1,1.37-2.6c.24,0,.49,0,.73,0A7,7,0,0,1,90.94,28.23Z"/></g></g></svg>