<svg xmlns="http://www.w3.org/2000/svg" viewBox="0 0 100 91.58"><g id="Layer_2" data-name="Layer 2"><g id="Layer_1-2" data-name="Layer 1"><path d="M98.22,33.55C96.59,31.27,95,29,93.29,26.72c-1.9-2.48-3.91-4.85-5.86-7.29-.75-.92-1.46-1.87-2.2-2.8-1.36-1.71-2.69-3.45-4.1-5.11-1.83-2.14-3.73-4.21-5.6-6.31-.5-.56-1-1.12-1.51-1.66A30.66,30.66,0,0,0,71.8,1.23a4.64,4.64,0,0,0-4-1.16A104.65,104.65,0,0,0,56,2.4,161.71,161.71,0,0,0,32.65,11c-1.47.67-2.95,1.34-4.45,2a8.34,8.34,0,0,0-3.27,2.44C23.43,17.22,22,19.1,20.56,21c-1.25,1.64-2.5,3.28-3.66,5-1.59,2.32-3.13,4.66-4.53,7.09-1.87,3.24-3.84,6.42-5.68,9.68-1,1.78-1.9,3.65-2.81,5.5-1,2.12-2.07,4.27-3.09,6.4-.08.17-.19.33-.27.5A3.85,3.85,0,0,0,.9,59.53c1,1.3,2,2.57,3.05,3.8q3.43,4,7.22,7.63c1.79,1.73,3.43,3.62,5,5.35,1.28,1.06,2.44,2,3.59,3s2.24,1.81,3.29,2.79a61.47,61.47,0,0,0,5.65,4.65q2.31,1.74,4.66,3.45a6.81,6.81,0,0,0,4.38,1.4c3.43-.15,6.88-.15,10.3-.44C54,90.64,59.91,90,65.81,89.34c2.79-.32,5.56-.82,8.33-1.35a26.68,26.68,0,0,0,3.76-1.15,4.93,4.93,0,0,0,2.41-2,79.6,79.6,0,0,0,5.82-10.24q3.16-6.36,6-12.88a178.42,178.42,0,0,0,7.12-19.12c.14-.48.29-1,.41-1.44A8.7,8.7,0,0,0,98.22,33.55Zm.79,6c-.36,1.32-.73,2.65-1.14,4A181.11,181.11,0,0,1,91.3,61.2c-2.37,5.57-4.92,11-7.75,16.39-1,1.82-1.93,3.63-3,5.42a6.84,6.84,0,0,1-4.53,3.55,150.58,150.58,0,0,1-20,2.87c-3.92.38-7.85.66-11.78,1q-3.07.24-6.18.38a5.39,5.39,0,0,1-3.69-1.08c-1.32-1-2.72-2-4.06-3a73.29,73.29,0,0,1-7-5.9c-.58-.56-1.25-1-1.86-1.57l-5.09-4.34c-3.12-3.16-5.92-6-8.75-8.84a57.85,57.85,0,0,1-6.25-7.46,2.49,2.49,0,0,1-.22-2.78c1.47-3.31,3.09-6.54,4.8-9.73S9.33,40,11.09,36.94q1.79-3.06,3.68-6.08c1.22-1.95,2.42-3.93,3.77-5.8,2.09-2.89,4.3-5.69,6.46-8.52.26-.35.56-.66.84-1a6,6,0,0,1,2.24-1.64c3.51-1.46,7-3.05,10.49-4.5A138,138,0,0,1,59.88,2.31,73.94,73.94,0,0,1,68.39.93a3,3,0,0,1,2.73.92c.77.82,1.6,1.59,2.35,2.42s1.38,1.62,2.07,2.42c1.77,2,3.56,4,5.3,6.06,1.54,1.81,3,3.67,4.51,5.5q1.61,2,3.17,3.95c2,2.56,4,5.12,6,7.71a45.31,45.31,0,0,1,4.06,5.83A4.8,4.8,0,0,1,99,39.52Zm-32.53,1.2a6.48,6.48,0,0,1,2.07,6.94,8.16,8.16,0,0,1-.81,1.89c-1.61,2.54-3.26,3.73-6.77,3a7.08,7.08,0,0,1-2.21-1c-3.55-2.22-4.18-7-1.07-10.35A8.14,8.14,0,0,1,59.29,40,6.24,6.24,0,0,1,66.48,40.72Zm26.59-.61A4.73,4.73,0,0,1,91.55,43a5.4,5.4,0,0,1-7.76-1,6.9,6.9,0,0,1-.6-6.75,4.74,4.74,0,0,1,5.43-2.53A8.78,8.78,0,0,1,90.73,34,6.45,6.45,0,0,1,93.07,40.11ZM84.24,64.85a5.77,5.77,0,0,1-1.86,3.57c-3.14,2.79-7.8,1.3-9.46-1.2A8.5,8.5,0,0,1,72.19,59c.88-2.23,4.27-4,6.63-3.07a10.23,10.23,0,0,1,2.56,1.44A7.91,7.91,0,0,1,84.24,64.85ZM69.49,20.13a4.72,4.72,0,0,1,5.43-2.52A8.15,8.15,0,0,1,77,18.79a6.43,6.43,0,0,1,2.34,6.15,4.71,4.71,0,0,1-1.52,2.93,5.4,5.4,0,0,1-7.76-1A6.9,6.9,0,0,1,69.49,20.13ZM29,29.32A13,13,0,0,1,30.1,27.4a8,8,0,0,1,3.54-2.1,6.53,6.53,0,0,1,3.69-.18,1.84,1.84,0,0,1,1.7,2.1,5.75,5.75,0,0,1-.3,1.83A5.64,5.64,0,0,1,38,30.53a6.39,6.39,0,0,1-6.28,2.92C29.39,33.13,28.23,31.57,29,29.32ZM44.79,47.94c-.07-.44-.19-.69-.11-.84,1.33-2.32,2.68-4.63,4-7s2.85-4.83,4.24-7.27q2.73-4.8,5.38-9.63c1.36-2.45,2.67-4.92,4-7.39.83-1.53,1.69-3,2.5-4.59C66.1,8.9,67.3,6.51,68.55,4.13c.12-.23.27-.57.74-.39A1.84,1.84,0,0,1,69,5.14C68.28,6.58,67.55,8,66.79,9.46c-1.58,3-3.13,6-4.74,8.92s-3.25,5.9-4.9,8.84q-2.71,4.8-5.46,9.59c-1.66,2.86-3.33,5.72-5,8.55A11.52,11.52,0,0,1,44.79,47.94Zm31,36c.1.11.09.31.19.69a4.38,4.38,0,0,1-.74-.4c-1-1-2-2.08-3-3.14-.68-.74-1.33-1.5-2-2.24-2.18-2.4-4.37-4.8-6.54-7.22S59.19,66.5,56.86,64,52,58.89,49.63,56.35a40.73,40.73,0,0,1-3.41-4.12c.41-.38.66-.14.85.07,2.92,3.09,5.85,6.18,8.75,9.28,1.36,1.46,2.69,3,4,4.43l5.7,6.22c.17.19.31.4.47.59.73.86,1.46,1.72,2.2,2.57C70.74,78.25,73.26,81.11,75.76,84ZM41.17,49.53C36.14,51,5.12,56.91,2.1,57c.09-.57.43-.57.73-.62,1.42-.26,2.84-.5,4.24-.78,4.54-.9,9.07-1.83,13.6-2.73l16.56-3.26c1.22-.24,2.46-.44,3.69-.63a3,3,0,0,1,.79.14C41.44,49.31,41.33,49.48,41.17,49.53Zm-11,16.09c-2.82,1-5.25.1-7.51-1.56a8,8,0,0,1-.71-.72,4.91,4.91,0,0,1-1.12-2.27,4.29,4.29,0,0,1,0-1.75,3.79,3.79,0,0,1,2.74-2.91,8.62,8.62,0,0,1,7.29,1.39,1.63,1.63,0,0,1,.22.17,4.64,4.64,0,0,1,1.48,2A5.36,5.36,0,0,1,33,61.73,3.9,3.9,0,0,1,30.19,65.62ZM40.43,76.93a7.68,7.68,0,0,1-3.5.32,11.36,11.36,0,0,1-3.82-1.41,5.17,5.17,0,0,1-1.38-1.08,5.71,5.71,0,0,1-1-1.67,3.74,3.74,0,0,1-.26-1.36,3.65,3.65,0,0,1,1-2.82,5.18,5.18,0,0,1,3.79-1.3A7.85,7.85,0,0,1,40.61,70l.29.27a9.37,9.37,0,0,1,.78.76,4.12,4.12,0,0,1,1,2.1,1.55,1.55,0,0,1,0,.23A3.3,3.3,0,0,1,40.43,76.93ZM51.58,83.2c1.24,2.34.49,4.19-2.08,4.81a7.59,7.59,0,0,1-7-1.9l-.3-.27a10.3,10.3,0,0,1-1-1.24,3.42,3.42,0,0,1-.35-2.71,2.8,2.8,0,0,1,1-1.56,4.41,4.41,0,0,1,3.83-1,12.59,12.59,0,0,1,3.43,1.43A6.26,6.26,0,0,1,51.58,83.2Z"/></g></g></svg>