<svg xmlns="http://www.w3.org/2000/svg" viewBox="0 0 100 95.37"><g id="Layer_2" data-name="Layer 2"><g id="Layer_1-2" data-name="Layer 1"><path d="M99.66,46.09c-1.31-3.35-2.56-6.74-4-10.05Q93.2,30.45,90.45,25a83.76,83.76,0,0,0-4.19-7.29Q83,12.54,79.46,7.56A48,48,0,0,0,74,1.23a5.15,5.15,0,0,0-.89-.6A2.86,2.86,0,0,0,70.45.12a7.67,7.67,0,0,0-1.19,0c-5.58,1.39-11.18,2.7-16.72,4.22-6.9,1.88-13.75,4-20.63,5.91a4.58,4.58,0,0,0-2,1.2c-1,1-2,2-2.92,3-.69.73-1.35,1.48-2,2.21-2.74,2.84-5.57,5.59-8.19,8.54-4.61,5.2-9.36,10.29-13.46,15.93L1.69,43.43A5.21,5.21,0,0,0,.25,48.79H.31a3.82,3.82,0,0,0,.23.51c1.38,2.67,2.64,5.42,4.19,8q4.88,8.06,10,15.94c3.1,4.75,6.42,9.35,9.85,13.87,1.7,2.24,3.59,4.29,5.36,6.47a4.56,4.56,0,0,0,4.22,1.77c1.27-.1,2.54-.22,3.79-.41,3.18-.48,6.35-1,9.51-1.52,2.1-.37,4.21-.76,6.28-1.3,6.87-1.75,13.71-3.56,20.56-5.37a7.39,7.39,0,0,0,2.33-.85h0s1.94-1.08,3-1.8a1.73,1.73,0,0,0,.2-.14l.09-.07s0,0,0,0a6.82,6.82,0,0,0,1-1.33c1.23-1.9,2.43-3.84,3.62-5.77.87-1.42,1.76-2.83,2.59-4.28,1.6-2.77,3.16-5.57,4.72-8.37.69-1.22,1.36-2.45,2-3.69q2.09-4,4.15-8c.46-.89.91-1.78,1.4-2.64A4.12,4.12,0,0,0,99.66,46.09ZM44.32,15.83a3.19,3.19,0,0,1,.36-1.23,11,11,0,0,1,.69-1.08c.22-.22.43-.45.65-.66a4.79,4.79,0,0,1,.68-.6,12.1,12.1,0,0,1,2.53-1.4,6.49,6.49,0,0,1,2.86-.41,2.67,2.67,0,0,1,1.94.93,2.06,2.06,0,0,1,.31,2,3.88,3.88,0,0,1-.29.67,8.07,8.07,0,0,1-6.69,4.14,3,3,0,0,1-.79,0c-.27-.05-.53-.11-.79-.18a2,2,0,0,1-1.12-.77A2.18,2.18,0,0,1,44.32,15.83ZM15.43,37.38a1.88,1.88,0,0,1-.37-.7,2.53,2.53,0,0,1-.11-.89,2.69,2.69,0,0,1,.09-.7,2.25,2.25,0,0,1,.25-.64,10.73,10.73,0,0,1,.64-1,8.44,8.44,0,0,1,2.41-2.22,9.91,9.91,0,0,1,4.23-1.35,1.7,1.7,0,0,1,.39,0,5.85,5.85,0,0,1,1.18.22,2.24,2.24,0,0,1,1.61,3.08,11.55,11.55,0,0,1-.91,1.62c-.53.51-.93,1-1.39,1.33A8.89,8.89,0,0,1,19.56,38a9.85,9.85,0,0,1-1.73.16c-.29,0-.59,0-.9,0a2.33,2.33,0,0,1-.46-.08A2.12,2.12,0,0,1,15.43,37.38Zm21.89,51a6.68,6.68,0,0,1-1.19.15,7.94,7.94,0,0,1-5-1.76A12.29,12.29,0,0,1,29.56,85a8.27,8.27,0,0,1-.76-1.36,6,6,0,0,1-.5-2.37,4,4,0,0,1,.89-2.68,3.5,3.5,0,0,1,1.07-.87,3.92,3.92,0,0,1,1.41-.48,6.4,6.4,0,0,1,1.44-.08,5.2,5.2,0,0,1,.69.07,5.51,5.51,0,0,1,.89.22,8.66,8.66,0,0,1,3,1.67,7.79,7.79,0,0,1,.66.62,6.73,6.73,0,0,1,1.07,1.38,6.65,6.65,0,0,1,.94,3.46A3.53,3.53,0,0,1,37.32,88.41Zm3.17-13.26a7.07,7.07,0,0,1-5.74-1.77,9.63,9.63,0,0,1-.93-.76,7.94,7.94,0,0,1-1.5-2.1A6.93,6.93,0,0,1,31.68,68a4.25,4.25,0,0,1,0-.8,3.83,3.83,0,0,1,.83-2,3.45,3.45,0,0,1,.51-.5,3.9,3.9,0,0,1,1.3-.71,5.17,5.17,0,0,1,.8-.18,7,7,0,0,1,2.51.1,7.23,7.23,0,0,1,1.5.53,8.06,8.06,0,0,1,.71.39,9.73,9.73,0,0,1,1.35,1,8.24,8.24,0,0,1,1.05,1.09,7.4,7.4,0,0,1,.8,1.23,7,7,0,0,1,.55,1.51,7.62,7.62,0,0,1,.22,1.39A4,4,0,0,1,40.49,75.15ZM47.41,58a4.25,4.25,0,0,1-.44,1.3,3.91,3.91,0,0,1-2.72,1.94,7.83,7.83,0,0,1-8.76-5.9,5.1,5.1,0,0,1,.13-3.16A3.68,3.68,0,0,1,38.7,50,7.32,7.32,0,0,1,40,50a5.16,5.16,0,0,1,1.25.16,8.5,8.5,0,0,1,2.22.91c.34.2.67.41,1,.61a9.69,9.69,0,0,1,2.09,2.52,6.36,6.36,0,0,1,1,3.09A4.4,4.4,0,0,1,47.41,58ZM64.68,69.44c-1.33-1.83-2.68-3.65-4-5.5s-2.59-3.72-3.85-5.6-2.5-3.78-3.74-5.68-2.45-3.81-3.67-5.73S47,43.1,45.85,41.25a26.26,26.26,0,0,0-4.41.22L16,42.72c2.71-.48,5.42-.94,8.14-1.32,6.89-1,13.74-2.18,20.7-2.61.26,0,.52-.09.94-.15,1.86-3.22,3.71-6.54,5.68-9.79s4.06-6.44,6.12-9.63Q59.26,16.58,61,14L49.5,36.66l-.35.59c-.47.81-.86,1.65-1.34,2.6a.3.3,0,0,0,0,.08l0,.09,0-.07.14.25L47.81,40,67.48,73.31C66.53,72,65.61,70.73,64.68,69.44Zm16.75-25.3a6.55,6.55,0,0,1-.24,1.46,3.9,3.9,0,0,1-1,1.71,3,3,0,0,1-2.66,1.57,5.16,5.16,0,0,1-1.06-.1,3.93,3.93,0,0,1-1-.31,3.72,3.72,0,0,1-1.54-1.4,12.82,12.82,0,0,1-.8-1.39,7.24,7.24,0,0,1-.79-3.38,7.75,7.75,0,0,1,.85-3.37,3.77,3.77,0,0,1,3-2,5.61,5.61,0,0,1,.71,0L77,37a2.76,2.76,0,0,1,1.15.39A7,7,0,0,1,79,38a6.24,6.24,0,0,1,1.21,1.32,7.35,7.35,0,0,1,1.23,4.32C81.45,43.81,81.44,44,81.43,44.14Z"/></g></g></svg>