<svg xmlns="http://www.w3.org/2000/svg" viewBox="0 0 100 93.16"><g id="Layer_2" data-name="Layer 2"><g id="Layer_1-2" data-name="Layer 1"><path d="M51.69,56.85a14,14,0,0,0,1.51.61c4.89,1.4,9.76,2.89,14.74,3.94,4.49,1,8.93,2.11,13.41,3.13,3.13.72,6.29,1.38,9.45,2,2.94.6,5.9,1.14,9.2,1.78,0-1.24,0-2.24,0-3.22A137,137,0,0,0,98,50.87c-1-5.34-2-10.69-3.13-16s-2.39-10.76-4-16c-.44-1.43-.76-2.91-1.26-4.32-.6-1.69-1.29-3.34-2-5a3.56,3.56,0,0,0-2.46-1.93c-2.42-.67-4.81-1.43-7.26-2C74,4.77,70.18,4,66.3,3.29c-2.32-.43-4.67-.7-7-1C55.87,1.84,52.46,1.44,49,1c-3.13-.37-6.27-.71-9.4-1a7.56,7.56,0,0,0-1.33.11C41.19,9.55,43.82,18.89,46,28.34S50.08,47.2,51.69,56.85ZM86.9,42.92c.22.39.48.83.7,1.27a6.57,6.57,0,0,1,0,6,3.58,3.58,0,0,1-3.63,2.18,6.8,6.8,0,0,1-5.26-2.88,18.66,18.66,0,0,1-1.27-2.23,6.69,6.69,0,0,1,0-6.37,3.53,3.53,0,0,1,3-2.08,5.88,5.88,0,0,1,2.31.32A6.59,6.59,0,0,1,86.9,42.92ZM71.63,21c.92-2.73,3.22-3.91,6-2.75a8.62,8.62,0,0,1,5.25,9.41,4.23,4.23,0,0,1-5.69,3.62,8.7,8.7,0,0,1-4.87-4.1A8.33,8.33,0,0,1,71.63,21ZM69.82,37.37c.21.4.46.83.69,1.28a6.54,6.54,0,0,1-.05,6,3.54,3.54,0,0,1-3.62,2.18,6.76,6.76,0,0,1-5.26-2.87A18.28,18.28,0,0,1,60.3,41.7a6.69,6.69,0,0,1,0-6.37,3.55,3.55,0,0,1,3.05-2.08,5.88,5.88,0,0,1,2.31.31A6.64,6.64,0,0,1,69.82,37.37ZM54.63,14.23a3.55,3.55,0,0,1,3-2.08,5.88,5.88,0,0,1,2.31.31,6.64,6.64,0,0,1,4.17,3.81c.21.39.47.83.7,1.27a6.54,6.54,0,0,1,0,6,3.54,3.54,0,0,1-3.62,2.18,6.76,6.76,0,0,1-5.26-2.87,16,16,0,0,1-1.29-2.23A6.69,6.69,0,0,1,54.63,14.23Zm-31,62.3c2.31-1.57,4.56-3.23,6.83-4.84.88-.62,1.76-1.23,2.63-1.86,1.39-1,2.8-2,4.17-3,1.77-1.34,3.51-2.71,5.27-4.07l5.28-4,.7-.5a1.74,1.74,0,0,0,.67-1.89c-.63-3.22-1.16-6.46-1.79-9.69-1-4.83-1.89-9.67-3-14.48-.93-4.17-2-8.32-3.08-12.47-.65-2.56-1.29-5.13-2-7.67-1-3.35-2-6.69-3-10-.11-.39-.18-.8-.24-1.1a1.5,1.5,0,0,0-1.73.32c-1.75,1.13-3.49,2.27-5.17,3.48-2,1.42-3.91,2.89-5.83,4.39q-3.72,2.89-7.39,5.86c-2.45,2-4.88,4-7.27,6s-4.73,4.15-7.08,6.25a4,4,0,0,0-1.4,3c0,3.15-.23,6.31-.13,9.45C.22,45,.48,50.38.94,55.72c.31,3.49,1,6.94,1.57,10.39.46,2.61,1.11,5.18,1.63,7.76A73.57,73.57,0,0,0,7.27,84.13a16.7,16.7,0,0,0,1.19,2.18,22.33,22.33,0,0,0,4.61-2.72C16.58,81.23,20.11,78.91,23.6,76.53ZM36.36,40.59A4,4,0,0,1,37.77,43a8.28,8.28,0,0,1-2.09,7.93c-2.16,2.19-5.07,1.81-6.76-1.25a4.26,4.26,0,0,1-.48-1.22,8.31,8.31,0,0,1,2.14-7.55A4,4,0,0,1,36.36,40.59ZM24.12,19.43a4.72,4.72,0,0,1,2.41-2.52c1.53-1.33,4.41-.25,5.38,1.44a8.2,8.2,0,0,1-2,9.88A3.68,3.68,0,0,1,28,29a4.21,4.21,0,0,1-4.52-3.13A8.66,8.66,0,0,1,24.12,19.43Zm-4,16.2a7.82,7.82,0,0,1,.94-.91c2.49-1.45,5.23-.53,6,1.8a8.1,8.1,0,0,1-1.65,8.22,3.9,3.9,0,0,1-6.7-1.45A7.79,7.79,0,0,1,20.16,35.63ZM7.48,38.72a8.41,8.41,0,0,1,1-7,5.29,5.29,0,0,1,1.7-1.59,3.73,3.73,0,0,1,5.38,1.35,7.52,7.52,0,0,1-1.87,9.16A3.94,3.94,0,0,1,7.48,38.72Zm6.44,14.52a7.08,7.08,0,0,1,.94-.91c2.49-1.45,5.23-.53,6,1.8a8.08,8.08,0,0,1-1.65,8.21,3.9,3.9,0,0,1-6.7-1.44A7.79,7.79,0,0,1,13.92,53.24Zm79.6,16.23c-2.81-.55-5.64-1-8.44-1.65-7.26-1.64-14.58-3.08-21.76-5.12-3.72-1.06-7.47-2-11.19-3.11a2.4,2.4,0,0,0-2.51.62c-1.73,1.49-3.57,2.86-5.38,4.25-1.31,1-2.66,1.94-4,2.94-1.83,1.39-3.6,2.84-5.45,4.18-2.44,1.77-4.91,3.46-7.38,5.18q-4.15,2.86-8.34,5.7c-1.19.81-2.39,1.56-3.59,2.35l-4.46,2.93a3.53,3.53,0,0,0,.86.49q6.28.9,12.56,1.75c3.19.43,6.39.88,9.6,1.23,5.55.6,11.12,1.12,16.67,1.67a7.6,7.6,0,0,1,1.07.09c2.24.56,4.21-.16,6.17-1.17,1.59-.83,3.25-1.51,4.87-2.25,2.15-1,4.3-2,6.44-3s4.12-2,6.2-3c1.55-.75,3.15-1.38,4.68-2.18,4.45-2.35,8.89-4.7,13.26-7.16,1.73-1,3.29-2.26,5.38-3.71l-3-.55C95.06,69.83,94.3,69.62,93.52,69.47ZM40.08,82.94A4.09,4.09,0,0,1,37.93,85a7.56,7.56,0,0,1-6.51.81C28.76,85,28.55,82.7,30.07,81a7.36,7.36,0,0,1,5.16-2.24,5.72,5.72,0,0,1,3.9.82A2.46,2.46,0,0,1,40.08,82.94Zm17.75-3.85A4.93,4.93,0,0,1,55.51,82a10.12,10.12,0,0,1-5.25,1.14,5.32,5.32,0,0,1-2.83-.89,2.38,2.38,0,0,1-1.13-3,3.59,3.59,0,0,1,1.1-1.8,8.48,8.48,0,0,1,7.4-2,6,6,0,0,1,2,.83A2.2,2.2,0,0,1,57.83,79.09ZM76,76a15.56,15.56,0,0,1-2,1.87,9.8,9.8,0,0,1-6.09,1,4.86,4.86,0,0,1-1.78-.66,2.83,2.83,0,0,1-1.25-3.84,4.9,4.9,0,0,1,2.32-2.43,9.3,9.3,0,0,1,6.44-.88,4.89,4.89,0,0,1,1.4.51A2.78,2.78,0,0,1,76,76Z"/></g></g></svg>