<svg xmlns="http://www.w3.org/2000/svg" viewBox="0 0 99.95 100"><g id="Layer_2" data-name="Layer 2"><g id="Layer_1-2" data-name="Layer 1"><path d="M98.87,47.92a14.44,14.44,0,0,0-2.27-3.51Q85.53,31.28,74.49,18.13,69,11.62,63.55,5.12a13.28,13.28,0,0,0-4.78-3.86A13,13,0,0,0,48.32,1a9.51,9.51,0,0,0-2.68,1.53c-.74.63-1.51,1.23-2.26,1.85L24.78,20,5.63,36.09c-.61.5-1.19,1-1.79,1.56a11.27,11.27,0,0,0-3.5,6.27,12.56,12.56,0,0,0,.81,8.21,16.21,16.21,0,0,0,2.48,3.81Q17.28,72.16,30.91,88.38c1.77,2.1,3.52,4.2,5.28,6.31a15.52,15.52,0,0,0,3.35,3.07,13.1,13.1,0,0,0,15.8-.88c4.1-3.36,8.12-6.82,12.17-10.22l27.41-23a13.44,13.44,0,0,0,4.26-6A13.15,13.15,0,0,0,98.87,47.92Zm-70.5,3a7.38,7.38,0,0,1-10.29-1,7.55,7.55,0,0,1,1-10.61,7.36,7.36,0,0,1,10.28,1.14A7.22,7.22,0,0,1,28.37,50.94ZM44.91,17.6a7.38,7.38,0,0,1,10.5.85,7.64,7.64,0,0,1-1,10.63c-2.92,2.33-7.93,2.14-10.29-1A7.31,7.31,0,0,1,44.91,17.6Zm.18,27.77c3.41-2.67,7.57-2.31,10.63.87,2.63,3.76,2,7.72-1.07,10.49s-8.54,1.8-10.29-.92C41.69,53.34,42.12,47.7,45.09,45.37Zm9.87,37A7.41,7.41,0,0,1,45.53,71,7.41,7.41,0,0,1,55,82.37ZM81,60.54c-3,2.7-8.55,1.8-10.29-.92-2.67-2.48-2.24-8.12.72-10.44A7.57,7.57,0,0,1,82,50.05C84.65,53.81,84,57.77,81,60.54Z"/></g></g></svg>