<svg xmlns="http://www.w3.org/2000/svg" viewBox="0 0 100 99.01"><defs><style>.cls-1{fill:#020203;}</style></defs><g id="Layer_2" data-name="Layer 2"><g id="Layer_1-2" data-name="Layer 1"><path class="cls-1" d="M99.91,6.89l0-1.23A5.44,5.44,0,0,0,94.58.15L84.41,0,20.23.23A6.54,6.54,0,0,0,15.72,2l-10.51,10L3.48,13.54A10,10,0,0,0,0,21.15l0,4.68L0,94.94A4.07,4.07,0,0,0,4.07,99H77.46a14.17,14.17,0,0,0,9.26-3.44l2-1.73,9.46-9.41A5.82,5.82,0,0,0,100,80.18ZM4,15,16.58,3.35A5.79,5.79,0,0,1,20.5,1.82H95.27a.76.76,0,0,1,.51,1.31l-11.86,11a7.36,7.36,0,0,1-5,2H4.41A.63.63,0,0,1,4,15ZM79,97.42H4.56a3,3,0,0,1-3-3V23.84a6.15,6.15,0,0,1,6.15-6.15H78.24a3.07,3.07,0,0,1,3.08,3.07V95.09A2.33,2.33,0,0,1,79,97.42ZM96.81,83.49,84.36,95a.87.87,0,0,1-1.46-.64V20A6.45,6.45,0,0,1,85,15.33L97.48,3.74a.56.56,0,0,1,.94.41V79.81A5,5,0,0,1,96.81,83.49ZM27.13,31.31a6.45,6.45,0,1,1-6.45-6.45A6.45,6.45,0,0,1,27.13,31.31Zm41.54,0a6.45,6.45,0,1,1-6.45-6.45A6.45,6.45,0,0,1,68.67,31.31ZM27.13,56.07a6.45,6.45,0,1,1-6.45-6.45A6.45,6.45,0,0,1,27.13,56.07Zm41.54,0a6.45,6.45,0,1,1-6.45-6.45A6.45,6.45,0,0,1,68.67,56.07ZM27.13,80.83a6.45,6.45,0,1,1-6.45-6.45A6.45,6.45,0,0,1,27.13,80.83Zm41.54,0a6.45,6.45,0,1,1-6.45-6.45A6.45,6.45,0,0,1,68.67,80.83ZM89,77.21c0,3.56-1.1,6.45-2.47,6.45s-2.47-2.89-2.47-6.45,1.11-6.45,2.47-6.45S89,73.64,89,77.21Zm4.13-29.76c0,3.56-1.11,6.45-2.47,6.45S88.19,51,88.19,47.45,89.3,41,90.66,41,93.13,43.88,93.13,47.45Zm-69-39.64c0-1.37,2.89-2.47,6.45-2.47s6.45,1.1,6.45,2.47-2.89,2.47-6.45,2.47S24.17,9.17,24.17,7.81Zm31.6,0c0-1.37,2.89-2.47,6.45-2.47s6.45,1.1,6.45,2.47-2.89,2.47-6.45,2.47S55.77,9.17,55.77,7.81ZM95.6,17.69c0,3.56-1.11,6.45-2.47,6.45s-2.47-2.89-2.47-6.45,1.11-6.45,2.47-6.45S95.6,14.12,95.6,17.69Z"/></g></g></svg>