<svg xmlns="http://www.w3.org/2000/svg" viewBox="0 0 100 99.73"><g id="Layer_2" data-name="Layer 2"><g id="Layer_1-2" data-name="Layer 1"><path d="M49.87,99.73H7.3C2,99.73,0,97.69,0,92.36Q0,49.91,0,7.46C0,2.07,2.1,0,7.5,0H92.64C98,0,100,2,100,7.29q0,42.69,0,85.38c0,5-2,7-7.08,7.06ZM26.33,30.48a10.09,10.09,0,0,0,.23-20.18,10.35,10.35,0,0,0-10.23,9.89A10.22,10.22,0,0,0,26.33,30.48ZM83.66,79.26a10.15,10.15,0,0,0-10.27-10,10.1,10.1,0,0,0,.19,20.2A10.14,10.14,0,0,0,83.66,79.26ZM60,49.85A10,10,0,1,0,49.93,60,10,10,0,0,0,60,49.85Z"/></g></g></svg>