<svg xmlns="http://www.w3.org/2000/svg" viewBox="0 0 86.82 100"><g id="Layer_2" data-name="Layer 2"><g id="Layer_1-2" data-name="Layer 1"><path d="M48.67,28.88a4.18,4.18,0,0,0,2.41-3.49,4.18,4.18,0,0,0-2.41-3.49,11.49,11.49,0,0,0-10.52,0,4.16,4.16,0,0,0-2.41,3.49,4.16,4.16,0,0,0,2.41,3.49,11.53,11.53,0,0,0,10.52,0Zm-9.74-1.35a2.72,2.72,0,0,1-1.63-2.14,2.72,2.72,0,0,1,1.63-2.14,10.08,10.08,0,0,1,9,0,2.72,2.72,0,0,1,1.63,2.14,2.72,2.72,0,0,1-1.63,2.14A10.08,10.08,0,0,1,38.93,27.53ZM35.81,48.31A4.13,4.13,0,0,0,31.59,48a4.15,4.15,0,0,0-1.82,3.83A11.46,11.46,0,0,0,35,60.91a5.22,5.22,0,0,0,2.57.77,3.2,3.2,0,0,0,1.65-.43,4.15,4.15,0,0,0,1.82-3.83A11.49,11.49,0,0,0,35.81,48.31ZM38.47,59.9a2.72,2.72,0,0,1-2.66-.34,10.07,10.07,0,0,1-4.48-7.76,2.71,2.71,0,0,1,1-2.48,1.72,1.72,0,0,1,.88-.22,3.58,3.58,0,0,1,1.78.57,10.05,10.05,0,0,1,4.48,7.75A2.7,2.7,0,0,1,38.47,59.9ZM9.16,63.7a4.13,4.13,0,0,0-4.22-.34,4.13,4.13,0,0,0-1.82,3.83A11.47,11.47,0,0,0,8.38,76.3a5.22,5.22,0,0,0,2.56.77,3.26,3.26,0,0,0,1.66-.43,4.17,4.17,0,0,0,1.82-3.83A11.46,11.46,0,0,0,9.16,63.7Zm2.66,11.59A2.72,2.72,0,0,1,9.16,75a10.07,10.07,0,0,1-4.48-7.76,2.71,2.71,0,0,1,1-2.48,1.72,1.72,0,0,1,.88-.22,3.66,3.66,0,0,1,1.78.56,10.07,10.07,0,0,1,4.48,7.76A2.71,2.71,0,0,1,11.82,75.29ZM86.43,24.71h0L43.8.1A.83.83,0,0,0,43,.1L.39,24.71a.79.79,0,0,0-.39.68V74.61a.79.79,0,0,0,.39.68L43,99.9a.76.76,0,0,0,.39.1.9.9,0,0,0,.39-.1L86.43,75.29a.79.79,0,0,0,.39-.68V25.39A.81.81,0,0,0,86.43,24.71Zm-43-23L84.47,25.39,43.41,49.1,2.34,25.39ZM1.56,26.74l11.17,6.45,29.9,17.26V97.87L1.56,74.16V26.74ZM44.19,97.87V50.45L85.25,26.74V74.16ZM68.55,55.66a4.16,4.16,0,0,0-4.22.35,11.46,11.46,0,0,0-5.26,9.11,4.14,4.14,0,0,0,1.82,3.82,3.25,3.25,0,0,0,1.65.43,5.12,5.12,0,0,0,2.57-.77,11.46,11.46,0,0,0,5.26-9.11A4.15,4.15,0,0,0,68.55,55.66ZM64.33,67.25a2.22,2.22,0,0,1-3.7-2.13,10.05,10.05,0,0,1,4.48-7.76,3.64,3.64,0,0,1,1.78-.57,1.79,1.79,0,0,1,.88.22,2.71,2.71,0,0,1,1,2.48A10.05,10.05,0,0,1,64.33,67.25ZM81.88,32.58a4.16,4.16,0,0,0-4.22.35A11.46,11.46,0,0,0,72.4,42a4.14,4.14,0,0,0,1.81,3.82,3.26,3.26,0,0,0,1.66.43,5.15,5.15,0,0,0,2.57-.77,11.46,11.46,0,0,0,5.26-9.11A4.17,4.17,0,0,0,81.88,32.58ZM77.66,44.17A2.21,2.21,0,0,1,74,42a10.05,10.05,0,0,1,4.48-7.76,3.58,3.58,0,0,1,1.78-.57,1.79,1.79,0,0,1,.88.22,2.71,2.71,0,0,1,1,2.48A10.05,10.05,0,0,1,77.66,44.17ZM55.23,78.75a4.13,4.13,0,0,0-4.22.34,11.46,11.46,0,0,0-5.26,9.11A4.16,4.16,0,0,0,47.56,92a3.37,3.37,0,0,0,1.66.43,5.17,5.17,0,0,0,2.57-.78,11.46,11.46,0,0,0,5.26-9.11A4.14,4.14,0,0,0,55.23,78.75ZM51,90.33a2.69,2.69,0,0,1-2.67.34,2.7,2.7,0,0,1-1-2.47,10.05,10.05,0,0,1,4.48-7.76,3.58,3.58,0,0,1,1.78-.57,1.82,1.82,0,0,1,.88.22,2.71,2.71,0,0,1,1,2.48A10.08,10.08,0,0,1,51,90.33Z"/></g></g></svg>