<svg xmlns="http://www.w3.org/2000/svg" viewBox="0 0 100 100"><g id="Layer_2" data-name="Layer 2"><g id="Layer_1-2" data-name="Layer 1"><path d="M100,7.12C100,2,98.07,0,93,0H7.3C1.78,0,0,1.77,0,7.27v85.2C0,98,2,100,7.44,100q42.6,0,85.2,0c5.24,0,7.35-2.14,7.36-7.42Q100,49.85,100,7.12Zm-8.78,87Q50,94,8.86,94.13c-2.28,0-3-.66-3-3,.07-27.37,0-54.73,0-82.1C5.92,6,6,5.91,9.17,5.91H90.8c3.27,0,3.28,0,3.28,3.34q0,20.4,0,40.81c0,13.68,0,27.37,0,41.05C94.14,93.34,93.57,94.14,91.21,94.13ZM73.74,68.38a11.13,11.13,0,0,0-11.17,11,11,11,0,0,0,11,11.16,11.08,11.08,0,1,0,.21-22.16Zm-.11,17.67a6.48,6.48,0,0,1-6.57-6.68,6.58,6.58,0,1,1,6.57,6.68ZM26.28,68.38a11.08,11.08,0,0,0,.06,22.16,11.08,11.08,0,1,0-.06-22.16Zm0,17.66a6.39,6.39,0,0,1-6.49-6.5A6.59,6.59,0,1,1,26.25,86ZM49.93,38.79A11.28,11.28,0,0,0,38.82,49.92a11.14,11.14,0,0,0,22.28-.05A11.36,11.36,0,0,0,49.93,38.79Zm.17,17.67a6.65,6.65,0,0,1-6.8-6.55,6.78,6.78,0,0,1,6.52-6.62,6.41,6.41,0,0,1,6.64,6.36A6.29,6.29,0,0,1,50.1,56.46ZM73.67,9.21a11.12,11.12,0,0,0-11.1,11.08,11.08,11.08,0,0,0,22.16.08A11.32,11.32,0,0,0,73.67,9.21Zm-.1,17.66a6.4,6.4,0,0,1-6.51-6.72,6.59,6.59,0,1,1,6.51,6.72ZM26.12,31.35A11.14,11.14,0,0,0,37.43,20.52,11.34,11.34,0,0,0,26.26,9.2a11.15,11.15,0,0,0-11,10.93A10.91,10.91,0,0,0,26.12,31.35Zm.2-17.65a6.59,6.59,0,1,1,0,13.17,6.39,6.39,0,0,1-6.53-6.44A6.59,6.59,0,0,1,26.32,13.7Z"/></g></g></svg>