<svg xmlns="http://www.w3.org/2000/svg" viewBox="0 0 66 100"><defs><style>.cls-1{fill:#020203;}</style></defs><g id="Layer_2" data-name="Layer 2"><g id="Layer_1-2" data-name="Layer 1"><path class="cls-1" d="M63.55,11.9,27.07.33a7,7,0,0,0-5.16.35l-6.1,2.87a1,1,0,0,0,.12,1.82l36.28,11.5a7.88,7.88,0,0,0,5.86-.42l5.61-2.71A1,1,0,0,0,63.55,11.9ZM33,6.33c-.28.84-2,1-3.85.39S26,4.91,26.31,4.07s2-1,3.85-.38S33.27,5.5,33,6.33ZM51.81,12.6c-.28.83-2,1-3.85.38s-3.11-1.81-2.82-2.64,2-1,3.85-.39S52.09,11.76,51.81,12.6ZM18.73,54.87c.15-.66.7-1.3,1.37-1.23a1.31,1.31,0,0,1,.66,1.8c-.12.22-.3.4-.41.62a1.05,1.05,0,1,0,2,.66c.12-.64-.35-1.35.16-1.9a1,1,0,0,1,1-.25,2.1,2.1,0,0,1,1.29,1.6,6.44,6.44,0,0,1-1.14,5.71c-.25.32-.54.62-.78,1a2.47,2.47,0,0,0,3.57,3.36,4.28,4.28,0,0,0,1.26-3.68,32.14,32.14,0,0,1-.38-4,2,2,0,0,1,1.22-2A1.72,1.72,0,0,1,30.2,57,2.9,2.9,0,0,1,30.63,60c-.14.4-1.71,3.38-.24,3.67,2.84.57,1.29-2.5,1.5-3.26.26-.94.09-2.23,2-2.24a1.29,1.29,0,0,1,.81.24A2.78,2.78,0,0,1,35.58,60c.65,2.56-.66,5.15-1.23,7.72a6,6,0,0,0,.09,3.53,2.85,2.85,0,0,0,2.79,1.84,3,3,0,0,0,2.55-2.31,5.66,5.66,0,0,0-.25-3.11,7.49,7.49,0,0,1-.07-4.47,4.65,4.65,0,0,1,1.21-2.26,6,6,0,0,0,1-1.84l.82-2.32L52.68,24.41l.81-2.56a3.39,3.39,0,0,0-2.2-4.24L15.38,6.23a2.28,2.28,0,0,0-2.86,1.48L.47,45.66l-.14.48A2.38,2.38,0,0,0,.48,47.9c.24.49.46,1,.15,1.35a2.16,2.16,0,0,0-.57,2c.15.6.38,1,.92,1.12A1.26,1.26,0,0,0,2.4,51.28c.21-1.35-.25-3.33,1.41-3.05a2.79,2.79,0,0,1,2.06,3.84c-.69,1.34-2.54,2.3-2.22,3.75a1.81,1.81,0,0,0,1.14,1.25,2.92,2.92,0,0,0,1,.2,2,2,0,0,0,2-2.12c-.1-1.23-.54-2.58,0-3.64a1.92,1.92,0,0,1,1.44-.95A1.58,1.58,0,0,1,11,52.68a1.67,1.67,0,0,0-.06.59,1.06,1.06,0,0,0,.49.76.64.64,0,0,0,.94-.47c.08-.62-.06-1.3.65-1.74a1.52,1.52,0,0,1,1.92.3c.93,1,.61,2.47.08,3.64s-1.28,2.32-1.14,3.66a2.08,2.08,0,0,0,1,1.63,1.87,1.87,0,0,0,2.24-.54,5.06,5.06,0,0,0,1.57-3.64A9.53,9.53,0,0,1,18.73,54.87ZM39.78,19.69a3.52,3.52,0,1,1-3.53,3.52A3.53,3.53,0,0,1,39.78,19.69ZM35.37,32.31a3.52,3.52,0,1,1-3.52,3.52A3.53,3.53,0,0,1,35.37,32.31ZM30.68,44.93a3.52,3.52,0,1,1-3.52,3.52A3.52,3.52,0,0,1,30.68,44.93Zm-9.1-31.4a3.52,3.52,0,1,1-3.52,3.52A3.52,3.52,0,0,1,21.58,13.53ZM12.49,45.81A3.52,3.52,0,1,1,16,42.29,3.53,3.53,0,0,1,12.49,45.81Zm1.17-16.14a3.52,3.52,0,1,1,3.52,3.52A3.52,3.52,0,0,1,13.66,29.67ZM42.52,56.75c.08-.19,0,.17,0,0Zm13.88,41a4.52,4.52,0,0,1,3.17.86c-.9,1.12-2.74,1.11-4.26.89s-3.24-.49-4.46.36l-.15.13a3.82,3.82,0,0,1,2.43-1.88A11.17,11.17,0,0,1,56.4,97.76ZM42.2,71.63a38,38,0,0,1,1.1,4.81A1.55,1.55,0,0,1,42,78.14a1.55,1.55,0,0,1-1.32-1.7A29.2,29.2,0,0,1,42.2,71.63ZM64.79,14.3l-7.06,3.41A5.53,5.53,0,0,0,54.87,21L42.71,59.37a3.76,3.76,0,0,0-.16.74l0,.34c0,.12,0,.29,0,.46s0,.74,0,.92c-.13,1.08-.68,2.32-.14,3a1.2,1.2,0,0,0,1.95-.36,3,3,0,0,0-.16-2.32,8.2,8.2,0,0,1-.49-1.65.74.74,0,0,1,.67-.84.7.7,0,0,1,.65.22c.39.48-.2,1.3.43,1.77a.83.83,0,0,0,1.23-.24c.36-.69-.37-1.54-.15-2.29a1.3,1.3,0,0,1,1-.8l.12,0a1.09,1.09,0,0,1,1.21.9,1.06,1.06,0,0,0,.12.34.72.72,0,0,0,1,.32,1.37,1.37,0,0,0,.11-1.48c-.1-.18-.24-.34-.33-.52a.75.75,0,0,1,0-.36A.84.84,0,0,1,51.22,57c.1.17.15.37.27.54a.94.94,0,0,0,1.33,0,1.82,1.82,0,0,0,.5-1.37,5.05,5.05,0,0,1,.19-1.69L66,15.31A.84.84,0,0,0,64.79,14.3Zm-12,27.91c-1-.36-1.37-2.18-.73-4.07s2-3.14,3.06-2.79,1.37,2.18.73,4.07S53.85,42.56,52.8,42.21Zm-6.74,23a23.13,23.13,0,0,1,.94,3,1,1,0,0,1-.75,1.15,1,1,0,0,1-.93-1A18.57,18.57,0,0,1,46.06,65.17Zm-14.6,2a21.53,21.53,0,0,1,1,3.33,1.18,1.18,0,0,1-2.35,0A17.25,17.25,0,0,1,31.46,67.18ZM59.14,90.72c-4.57-2-10.31-2.67-15.91-2.83-5.41-.15-11.13-.48-16.51,0-3.65.34-7.45,1.55-8.34,3.6-.73,1.69.78,3.5,3.06,4.65a31.11,31.11,0,0,0,8.12,2.3c5.89,1.09,12.62,1.88,18,.15,1.72-.55,3.19-1.33,4.93-1.87a20,20,0,0,1,7.86-.68,4.15,4.15,0,0,0,1.65,0,1.49,1.49,0,0,0,.64-.44C64.13,93.89,61.82,91.87,59.14,90.72ZM41,88.73a15.2,15.2,0,0,1,1.65.09,15.17,15.17,0,0,1-3.3,0A15.2,15.2,0,0,1,41,88.73Zm-11.57,6.4a52.39,52.39,0,0,0,8.35,1.36h-.85a51.06,51.06,0,0,1-8.25-1.36c-2.28-.68-3.8-1.74-3.06-2.74.89-1.21,4.69-1.92,8.34-2.12h.75c-3.64.2-7.45.91-8.34,2.12C25.62,93.39,27.13,94.45,29.41,95.13Zm3.38,2.39a36.59,36.59,0,0,1-8.12-1.85c-2.28-.92-3.79-2.37-3.06-3.73.89-1.65,4.7-2.63,8.34-2.9,2.54-.19,5.15-.23,7.76-.21-1.85,0-3.69.07-5.49.21-3.65.27-7.45,1.25-8.34,2.9-.73,1.36.78,2.81,3.06,3.73a36.46,36.46,0,0,0,8.12,1.85,77.39,77.39,0,0,0,9.5.92A69.74,69.74,0,0,1,32.79,97.52Zm25.52-1.94a7.88,7.88,0,0,0-1.88,0c-.31,0-.63,0-.94,0a7.3,7.3,0,0,0-.94.07A9.71,9.71,0,0,0,51,96.83l0,0a9.3,9.3,0,0,1,3.54-1.44,7.93,7.93,0,0,1,1-.14c.32,0,.65,0,1,0a4.23,4.23,0,0,1,1.89.34ZM59.58,95c-.4-.06-.78-.13-1.18-.18s-.78-.11-1.17-.14a11.06,11.06,0,0,0-2.37.08h0a10,10,0,0,1,2.38-.22,7.86,7.86,0,0,1,1.19.11,5.46,5.46,0,0,1,1.15.34Z"/></g></g></svg>