<svg xmlns="http://www.w3.org/2000/svg" viewBox="0 0 100 88.84"><g id="Layer_2" data-name="Layer 2"><g id="Layer_1-2" data-name="Layer 1"><path d="M48.42,43.17c.95-2.63,1.94-5.36,2.86-8a60,60,0,0,0-5.77-6.64C37.82,20.31,24.75,7.41,19.76,3.07A14.55,14.55,0,0,0,18,1.66h0l-.14.11a1,1,0,0,0-.29.28c-.38.81-.81,1.63-1.21,2.43a37.84,37.84,0,0,0-2,4.37c-.82,2.21-1.67,4.44-2.51,6.59S10.14,19.8,9.33,22c-.88,2.41-1.69,4.88-2.47,7.28-.16.46-.31.94-.46,1.4l-.05.14c-1,2.93-2,6-2.86,9-.63,2.1-1.24,4.35-1.85,6.88s-1,4.56-1.4,6.56C0,54.92-.12,55.82.27,56.7a8.44,8.44,0,0,0,1.57,2.07c1.85,2,3.8,4,5.69,5.87.37.38.73.75,1.11,1.12A160.07,160.07,0,0,0,22.68,78l3.39,2.74c2,1.64,4.07,3.27,6.06,4.86l1.57,1.25c.23.18.49.35.81.57s.36.23.57.37h0c2.33-9.69,4.69-18.46,7.24-26.79C44.17,55,46.33,49,48.42,43.17Zm-20.77,6a10.17,10.17,0,0,1-2.59,3.1,4.32,4.32,0,0,1-6.64-1.7,9.88,9.88,0,0,1-.76-2.94,11.33,11.33,0,0,1,1.9-6.94A6.36,6.36,0,0,1,22.72,38a4,4,0,0,1,3.87.39,4.8,4.8,0,0,1,1.75,2.21,10.67,10.67,0,0,1,.56,1.94A11.29,11.29,0,0,1,27.65,49.2ZM100,33.07,99.71,33a2.93,2.93,0,0,0-.65-.1c-15.71.21-41.67,2-45.54,3.09-3.35,8.15-6.08,16.55-9,25.88-2.5,7.85-4.79,16.33-7.2,26.66h0l.32.11a1.7,1.7,0,0,0,.63.17h.25c1.19,0,2.41,0,3.61-.08l2.23-.15c3-.21,6.1-.43,9.13-.78,4.21-.48,8.48-1.09,12.6-1.67L68,85.87c2.08-.29,4.2-.64,6.24-1l2.19-.35c.44-.07.88-.17,1.4-.3a3.32,3.32,0,0,0,2.11-1.49l1-1.53c.49-.72,1-1.48,1.44-2.24,2.73-4.6,5.26-9.23,7.51-13.77A103.74,103.74,0,0,0,97,47c.34-1.18.72-2.37,1.08-3.52.27-.82.54-1.67.79-2.5A33.73,33.73,0,0,0,100,33.08h0ZM59,77.64c-.64,2-2.12,3.24-4.63,4.39a8.09,8.09,0,0,1-4.9.3c-2.31-.57-4.23-2.35-3.72-5a5.5,5.5,0,0,1,1.74-3.16,8.91,8.91,0,0,1,5.11-2.32A6.91,6.91,0,0,1,57.48,73,4.06,4.06,0,0,1,59,77.64ZM62.7,63a6.35,6.35,0,0,1-3.77,4,11.74,11.74,0,0,1-1.53.58,7.16,7.16,0,0,1-6.87-1.39,3.17,3.17,0,0,1-1.12-2.51A5.32,5.32,0,0,1,50.86,60a8.26,8.26,0,0,1,8.51-2.49,5.7,5.7,0,0,1,2,1A3.9,3.9,0,0,1,62.7,63Zm.6-12.2c-.15.07-.39.19-.65.29a7.73,7.73,0,0,1-5.75.06,4.27,4.27,0,0,1-2.14-6.64,11.47,11.47,0,0,1,1.65-1.77,8.15,8.15,0,0,1,9.14-.7,3.57,3.57,0,0,1,1.75,4.34A6.29,6.29,0,0,1,63.3,50.83Zm17,24.4a7.91,7.91,0,0,1-3.72,3.31,10,10,0,0,1-4.84.49,6.66,6.66,0,0,1-3.08-1.45,3.63,3.63,0,0,1-1.13-4.22,5.82,5.82,0,0,1,1.19-2.09,8.11,8.11,0,0,1,9.65-2A4,4,0,0,1,80.31,75.23Zm5.86-15.67a6,6,0,0,1-.69,1.89c-.73,1.39-2.06,2.1-3.46,2.9a15.5,15.5,0,0,1-2.44.66,6.84,6.84,0,0,1-4.88-1A4.23,4.23,0,0,1,73.47,58a7.24,7.24,0,0,1,1.62-1.78,8.53,8.53,0,0,1,2.35-1.29l.12,0,.13,0,.16,0,.1,0a8.65,8.65,0,0,1,5,0A4.25,4.25,0,0,1,86.17,59.56Zm4.51-11.65a7.8,7.8,0,0,1-2.92,2.51c-.84.24-1.68.54-2.54.7a7.32,7.32,0,0,1-4.75-.68,4.16,4.16,0,0,1-2.35-3.12,5,5,0,0,1,1.82-4.51,8.48,8.48,0,0,1,6.76-2.22,6.15,6.15,0,0,1,3.82,1.74,3.29,3.29,0,0,1,1.11,2.52A5.21,5.21,0,0,1,90.68,47.91Zm-37.5-14.4a428.84,428.84,0,0,1,45.29-2.92.56.56,0,0,0,.08-.47.88.88,0,0,0-.26-.29c-1.66-1.33-3.34-2.7-5-4-3.82-3.09-7.76-6.29-11.71-9.34-3.63-2.82-7.43-5.54-11.1-8.16L68,6.49a6.58,6.58,0,0,0-2.22-1A130.47,130.47,0,0,0,51.37,2.71c-5.72-.77-11.93-1.51-19-2.26A58.7,58.7,0,0,0,21.59.12a5.9,5.9,0,0,0-.8.15l-.18,0s-.06,0-.09.12a1.15,1.15,0,0,1-.08.14h0C30.46,9.92,42.18,21.11,53.18,33.51ZM66.9,16.14a5.53,5.53,0,0,1,1.74-.46,11,11,0,0,1,8,2.71,4.47,4.47,0,0,1,1.77,2.2,5.4,5.4,0,0,0,.23.52,2.76,2.76,0,0,1-2.34,4,10.67,10.67,0,0,1-9-2.86,5.39,5.39,0,0,1-2-3.24A2.65,2.65,0,0,1,66.9,16.14ZM45.5,7.4A3.81,3.81,0,0,1,47.72,7,11.68,11.68,0,0,1,56,11.55a5,5,0,0,1,.67,1.24,2.84,2.84,0,0,1-1.78,3.91,5.36,5.36,0,0,1-1.38.27,10,10,0,0,1-5.79-1.57,8.24,8.24,0,0,1-4-4.19C43.13,9.43,43.62,8.24,45.5,7.4Z"/></g></g></svg>