<svg xmlns="http://www.w3.org/2000/svg" viewBox="0 0 86.82 100"><g id="Layer_2" data-name="Layer 2"><g id="Layer_1-2" data-name="Layer 1"><path d="M9.16,63.7a4.15,4.15,0,0,0-4.23-.34,4.14,4.14,0,0,0-1.81,3.83A11.49,11.49,0,0,0,8.38,76.3a5.22,5.22,0,0,0,2.56.77,3.26,3.26,0,0,0,1.66-.43,4.17,4.17,0,0,0,1.82-3.83A11.46,11.46,0,0,0,9.16,63.7Zm2.66,11.59A2.72,2.72,0,0,1,9.16,75a10.08,10.08,0,0,1-4.48-7.76,2.7,2.7,0,0,1,1-2.48,1.69,1.69,0,0,1,.88-.22,3.69,3.69,0,0,1,1.78.56,10.07,10.07,0,0,1,4.48,7.76A2.71,2.71,0,0,1,11.82,75.29Zm24-27A4.13,4.13,0,0,0,31.59,48a4.15,4.15,0,0,0-1.82,3.83A11.46,11.46,0,0,0,35,60.91a5.11,5.11,0,0,0,2.56.77,3.26,3.26,0,0,0,1.66-.43,4.15,4.15,0,0,0,1.82-3.83A11.49,11.49,0,0,0,35.81,48.31ZM38.47,59.9a2.67,2.67,0,0,1-2.66-.34,10.07,10.07,0,0,1-4.48-7.76,2.71,2.71,0,0,1,1-2.48,1.79,1.79,0,0,1,.88-.22,3.64,3.64,0,0,1,1.78.57,10.05,10.05,0,0,1,4.48,7.75A2.69,2.69,0,0,1,38.47,59.9Zm-.32-31a11.53,11.53,0,0,0,10.52,0,4.16,4.16,0,0,0,2.4-3.49,4.16,4.16,0,0,0-2.4-3.49,11.49,11.49,0,0,0-10.52,0,4.16,4.16,0,0,0-2.41,3.49A4.16,4.16,0,0,0,38.15,28.88Zm.78-5.62a10,10,0,0,1,9,0,2.68,2.68,0,0,1,1.62,2.13,2.7,2.7,0,0,1-1.62,2.14,10.08,10.08,0,0,1-9,0,2.72,2.72,0,0,1-1.63-2.14A2.69,2.69,0,0,1,38.93,23.26Zm-.78-9.77a10.7,10.7,0,0,0,5.26,1.28,10.75,10.75,0,0,0,5.26-1.28A4.15,4.15,0,0,0,51.07,10a4.14,4.14,0,0,0-2.4-3.48h0a11.49,11.49,0,0,0-10.52,0A4.16,4.16,0,0,0,35.74,10,4.13,4.13,0,0,0,38.15,13.49Zm.78-5.62a10.08,10.08,0,0,1,9,0A2.7,2.7,0,0,1,49.51,10a2.72,2.72,0,0,1-1.62,2.14,10.08,10.08,0,0,1-9,0A2.72,2.72,0,0,1,37.3,10,2.69,2.69,0,0,1,38.93,7.87Zm9.74,29.42a11.49,11.49,0,0,0-10.52,0,4.14,4.14,0,0,0-2.41,3.49,4.16,4.16,0,0,0,2.41,3.49,11.53,11.53,0,0,0,10.52,0,4.16,4.16,0,0,0,2.4-3.49A4.16,4.16,0,0,0,48.67,37.29Zm-.78,5.62a10.05,10.05,0,0,1-9,0h0a2.69,2.69,0,0,1-1.63-2.13,2.72,2.72,0,0,1,1.63-2.14,10,10,0,0,1,9,0,2.69,2.69,0,0,1,1.63,2.13A2.71,2.71,0,0,1,47.89,42.91ZM86.42,24.72,43.79.1A.83.83,0,0,0,43,.1L.39,24.71A.81.81,0,0,0,.1,25a.87.87,0,0,0-.1.39V74.61a.79.79,0,0,0,.39.68L43,99.9a.87.87,0,0,0,.39.1.9.9,0,0,0,.39-.1L86.43,75.29a.79.79,0,0,0,.39-.68V25.39A.78.78,0,0,0,86.42,24.72Zm-43-23L84.47,25.39,43.41,49.1l-20.77-12L2.34,25.39ZM1.56,26.74,35.82,46.52l6.81,3.93V97.87L1.56,74.16V26.74ZM44.19,97.87V50.45L85.25,26.74V74.16Zm11-34.51A4.15,4.15,0,0,0,51,63.7a11.46,11.46,0,0,0-5.26,9.11,4.17,4.17,0,0,0,1.82,3.83,3.25,3.25,0,0,0,1.65.43,5.22,5.22,0,0,0,2.57-.77A11.47,11.47,0,0,0,57,67.19,4.12,4.12,0,0,0,55.23,63.36ZM51,75a2.74,2.74,0,0,1-2.67.34,2.71,2.71,0,0,1-1-2.48,10.07,10.07,0,0,1,4.48-7.76,3.66,3.66,0,0,1,1.78-.56,1.74,1.74,0,0,1,.88.22,2.7,2.7,0,0,1,1,2.48A10.11,10.11,0,0,1,51,75ZM81.88,48a4.13,4.13,0,0,0-4.22.34,11.47,11.47,0,0,0-5.26,9.11,4.14,4.14,0,0,0,1.81,3.83,3.26,3.26,0,0,0,1.66.43,5.28,5.28,0,0,0,2.57-.77A11.48,11.48,0,0,0,83.7,51.8,4.17,4.17,0,0,0,81.88,48ZM77.66,59.56A2.22,2.22,0,0,1,74,57.42a10.08,10.08,0,0,1,4.49-7.76,3.66,3.66,0,0,1,1.78-.56,1.74,1.74,0,0,1,.88.22,2.73,2.73,0,0,1,1,2.48A10.1,10.1,0,0,1,77.66,59.56Zm4.22-27a4.13,4.13,0,0,0-4.22.34A11.46,11.46,0,0,0,72.4,42a4.16,4.16,0,0,0,1.81,3.83,3.26,3.26,0,0,0,1.66.43,5.28,5.28,0,0,0,2.57-.77,11.51,11.51,0,0,0,5.26-9.11A4.15,4.15,0,0,0,81.88,32.59ZM77.66,44.17A2.22,2.22,0,0,1,74,42a10.05,10.05,0,0,1,4.48-7.76,3.62,3.62,0,0,1,1.78-.56,1.75,1.75,0,0,1,.89.22,2.72,2.72,0,0,1,1,2.48A10,10,0,0,1,77.66,44.17ZM55.23,48a4.2,4.2,0,0,0-4.23.34,11.47,11.47,0,0,0-5.26,9.11,4.15,4.15,0,0,0,1.82,3.83,3.25,3.25,0,0,0,1.65.43,5.12,5.12,0,0,0,2.57-.77A11.46,11.46,0,0,0,57,51.8,4.14,4.14,0,0,0,55.23,48ZM51,59.56a2.69,2.69,0,0,1-2.67.34,2.68,2.68,0,0,1-1-2.47,10.05,10.05,0,0,1,4.48-7.76,3.58,3.58,0,0,1,1.78-.57,1.85,1.85,0,0,1,.88.22,2.71,2.71,0,0,1,1,2.48A10.1,10.1,0,0,1,51,59.56Zm4.22,19.18a4.2,4.2,0,0,0-4.23.34,11.49,11.49,0,0,0-5.26,9.12A4.17,4.17,0,0,0,47.56,92a3.36,3.36,0,0,0,1.65.43,5.14,5.14,0,0,0,2.57-.78A11.46,11.46,0,0,0,57,82.57,4.14,4.14,0,0,0,55.23,78.74ZM51,90.33a2.72,2.72,0,0,1-2.67.35,2.71,2.71,0,0,1-1-2.48,10.05,10.05,0,0,1,4.48-7.76,3.69,3.69,0,0,1,1.78-.57,1.75,1.75,0,0,1,.88.23,2.68,2.68,0,0,1,1,2.47A10.08,10.08,0,0,1,51,90.33Zm30.87-27a4.13,4.13,0,0,0-4.22.34,11.46,11.46,0,0,0-5.26,9.11,4.16,4.16,0,0,0,1.81,3.83,3.26,3.26,0,0,0,1.66.43,5.28,5.28,0,0,0,2.57-.77,11.5,11.5,0,0,0,5.26-9.11A4.15,4.15,0,0,0,81.88,63.36ZM77.66,75a2.74,2.74,0,0,1-2.67.34,2.71,2.71,0,0,1-1-2.48,10.08,10.08,0,0,1,4.49-7.76,3.66,3.66,0,0,1,1.78-.56,1.74,1.74,0,0,1,.88.22,2.72,2.72,0,0,1,1,2.48A10.11,10.11,0,0,1,77.66,75Z"/></g></g></svg>