<svg xmlns="http://www.w3.org/2000/svg" viewBox="0 0 66.68 100"><defs><style>.cls-1{fill:#020203;}</style></defs><g id="Layer_2" data-name="Layer 2"><g id="Layer_1-2" data-name="Layer 1"><path class="cls-1" d="M7.85,38.38l5.24,3.1a.4.4,0,0,0,.6-.43l-6.2-28.7a2.17,2.17,0,0,0-1-1.38L.54,7.3A.36.36,0,0,0,0,7.68L6.12,36A3.69,3.69,0,0,0,7.85,38.38Zm-.64-9.26C7.82,29,8.58,30,8.9,31.31S9,33.88,8.36,34,7,33.19,6.67,31.83,6.59,29.26,7.21,29.12ZM5.06,20.2c-.62.12-1.34-.9-1.59-2.26s0-2.58.66-2.69,1.33.9,1.59,2.26S5.68,20.08,5.06,20.2Zm-4-13.4,5.74,3.52a2.28,2.28,0,0,0,1.67.29L36.92,4.47a.51.51,0,0,0,.15-.94L31.83.43A3.11,3.11,0,0,0,29.6.07L1.17,6.21A.32.32,0,0,0,1.07,6.8ZM20.72,3.33c1.4-.26,2.66.16,2.81.93s-.88,1.62-2.28,1.89S18.59,6,18.44,5.22,19.32,3.6,20.72,3.33ZM65.85,41.38l-2.48-1.66L42.88,25.81,38.52,5.61A.75.75,0,0,0,37.63,5L9.47,11.12a1.47,1.47,0,0,0-1.14,1.77l6,27.91a1,1,0,0,0,1.21.77l7.68-1.66-7.72,11.4a1.06,1.06,0,0,0,.29,1.48L21,56.31,7.42,65a.91.91,0,0,0-.37.55L5.74,72.74a.4.4,0,0,0,.61.42l20.37-13,.63.43L6.65,73.8a.81.81,0,0,0-.24,1.12L22.06,99.49a1.11,1.11,0,0,0,1.53.34L47.86,84.36a1.16,1.16,0,0,0,.35-1.61L39.05,68.53l1.45,1,.21.14,8.27,13a.32.32,0,0,0,.59-.12l1.21-6.68A2.45,2.45,0,0,0,50.43,74l-3.32-5.21,1.3-.22a3.45,3.45,0,0,0,2.27-1.46l13.8-20.42L66.35,44A1.86,1.86,0,0,0,65.85,41.38ZM19.15,62.87c-1.19.79-2.51.9-2.95.24s.18-1.83,1.37-2.62,2.51-.9,2.94-.24S20.34,62.08,19.15,62.87ZM16.61,82a2.52,2.52,0,1,1,1.79-3.08A2.52,2.52,0,0,1,16.61,82Zm7.61,11.44A2.51,2.51,0,1,1,26,90.35,2.52,2.52,0,0,1,24.22,93.43Zm.25-17a2.52,2.52,0,1,1,1.79-3.08A2.52,2.52,0,0,1,24.47,76.42ZM40.79,25.6a1.47,1.47,0,0,1,1.06.23l1.22.83L65.77,42a.2.2,0,0,1-.09.37l-6.75,1a1.59,1.59,0,0,1-1.12-.25L44.73,34.34l-7.62-5.16L33.84,27a.17.17,0,0,1,.07-.31l3-.46Zm-4.45.07-3.26.49a2.72,2.72,0,0,1,.82-.63A2.51,2.51,0,0,1,36.34,25.67ZM31,11.31a2.52,2.52,0,1,1-1.17,3.37A2.52,2.52,0,0,1,31,11.31Zm-14.35,6A2.52,2.52,0,1,1,20,18.48,2.51,2.51,0,0,1,16.65,17.31ZM22.91,32.7a2.52,2.52,0,1,1,1.18-3.36A2.51,2.51,0,0,1,22.91,32.7Zm9.17,55.16a2.52,2.52,0,1,1,1.79-3.08A2.52,2.52,0,0,1,32.08,87.86Zm.3-16.8A2.52,2.52,0,1,1,34.17,68,2.52,2.52,0,0,1,32.38,71.06Zm9.4,8.36a2.52,2.52,0,1,1-3.09-1.79A2.52,2.52,0,0,1,41.78,79.42Zm-1.89-11-1.67-1.14-10.31-7-.64-.44L21.56,56l-5.23-3.55a.68.68,0,0,1-.19-.95l8-11.73,5.73-8.48,2.28-3.36a1.14,1.14,0,0,1,1.58-.3l3,2.05,8.19,5.55,12.22,8.27a.85.85,0,0,1,.22,1.18L44.13,64.16l-2.65,3.91A1.15,1.15,0,0,1,39.89,68.38Zm7.55,6c-.52.36-1.58-.3-2.35-1.46s-1-2.38-.44-2.73,1.58.3,2.35,1.46S48,74.05,47.44,74.4ZM66,43.41,50,67.05a2.14,2.14,0,0,1-1.43.9l-1.86.29-4.25.65a.41.41,0,0,1-.4-.63l2.41-3.55,13.56-20a1.5,1.5,0,0,1,1-.64l6.7-1A.26.26,0,0,1,66,43.41ZM36.62,38.54a2.45,2.45,0,0,1-3.4.65A2.4,2.4,0,0,1,32.28,38a2.45,2.45,0,1,1,4.75-1A2.36,2.36,0,0,1,36.62,38.54Zm9,6.1a2.45,2.45,0,1,1,.66,3.4A2.46,2.46,0,0,1,45.63,44.64ZM40.82,26.72c.26-.39,1.31-.13,2.38.56l.14.09c1.12.76,1.81,1.7,1.54,2.09-.16.24-.62.23-1.2,0a5.94,5.94,0,0,1-1.32-.68C41.24,28.05,40.55,27.11,40.82,26.72ZM47.58,33c.26-.4,1.39-.11,2.51.65s1.81,1.7,1.54,2.1-1.39.1-2.51-.66S47.31,33.39,47.58,33Zm6.76,6.25c.27-.4,1.4-.1,2.52.65s1.81,1.7,1.54,2.1-1.4.11-2.52-.65S54.07,39.64,54.34,39.24Zm-26,11.53a2.45,2.45,0,1,1-.65-3.41A2.45,2.45,0,0,1,28.34,50.77ZM41.4,59.62a.83.83,0,0,1-.08.12,2.47,2.47,0,0,1-1.65.93,2.41,2.41,0,0,1-1.67-.4,2.43,2.43,0,0,1-1.07-2,2.38,2.38,0,0,1,.42-1.44,2.41,2.41,0,0,1,1.49-1,2.45,2.45,0,0,1,2.56,3.77Zm18.08-10.9c.56.38.4,1.6-.36,2.72s-1.83,1.72-2.39,1.34-.4-1.6.36-2.72S58.92,48.34,59.48,48.72ZM51.19,61c.56.38.4,1.59-.36,2.72S49,65.39,48.44,65s-.39-1.6.36-2.72S50.63,60.57,51.19,61Z"/></g></g></svg>