<svg xmlns="http://www.w3.org/2000/svg" viewBox="0 0 86.82 100"><g id="Layer_2" data-name="Layer 2"><g id="Layer_1-2" data-name="Layer 1"><path d="M38.15,28.88a11.53,11.53,0,0,0,10.52,0h0a4.16,4.16,0,0,0,2.4-3.49,4.16,4.16,0,0,0-2.4-3.49,11.49,11.49,0,0,0-10.52,0,4.16,4.16,0,0,0-2.41,3.49A4.18,4.18,0,0,0,38.15,28.88Zm.78-5.62a9.08,9.08,0,0,1,4.48-1.06,9.24,9.24,0,0,1,4.48,1.05,2.7,2.7,0,0,1,1.62,2.14,2.7,2.7,0,0,1-1.62,2.14,10.08,10.08,0,0,1-9,0,2.72,2.72,0,0,1-1.63-2.14A2.69,2.69,0,0,1,38.93,23.26ZM22.49,56a4.15,4.15,0,0,0-4.23-.34,4.14,4.14,0,0,0-1.81,3.83,11.45,11.45,0,0,0,5.26,9.1,5.13,5.13,0,0,0,2.56.78A3.26,3.26,0,0,0,25.93,69a4.17,4.17,0,0,0,1.82-3.83A11.51,11.51,0,0,0,22.49,56ZM25.15,67.6a2.7,2.7,0,0,1-2.66-.35A10.05,10.05,0,0,1,18,59.5,2.68,2.68,0,0,1,19,57a1.75,1.75,0,0,1,.89-.22,3.72,3.72,0,0,1,1.78.56,10.07,10.07,0,0,1,4.48,7.76A2.73,2.73,0,0,1,25.15,67.6ZM35.81,48.31A4.18,4.18,0,0,0,31.59,48a4.15,4.15,0,0,0-1.82,3.83A11.46,11.46,0,0,0,35,60.91a5.14,5.14,0,0,0,2.57.78,3.33,3.33,0,0,0,1.65-.43,4.17,4.17,0,0,0,1.82-3.83A11.49,11.49,0,0,0,35.81,48.31ZM38.47,59.9a2.67,2.67,0,0,1-2.66-.34,10.07,10.07,0,0,1-4.48-7.76,2.68,2.68,0,0,1,1-2.47,1.7,1.7,0,0,1,.88-.23,3.72,3.72,0,0,1,1.78.57,10.05,10.05,0,0,1,4.48,7.76A2.68,2.68,0,0,1,38.47,59.9ZM9.16,63.7a4.13,4.13,0,0,0-4.22-.34,4.13,4.13,0,0,0-1.82,3.83A11.49,11.49,0,0,0,8.38,76.3a5.22,5.22,0,0,0,2.56.77,3.26,3.26,0,0,0,1.66-.43,4.17,4.17,0,0,0,1.82-3.83A11.46,11.46,0,0,0,9.16,63.7Zm2.66,11.59A2.72,2.72,0,0,1,9.16,75a10.08,10.08,0,0,1-4.48-7.76,2.7,2.7,0,0,1,1-2.48,1.72,1.72,0,0,1,.88-.22,3.69,3.69,0,0,1,1.78.56,10.07,10.07,0,0,1,4.48,7.76A2.71,2.71,0,0,1,11.82,75.29Zm74.6-50.57L43.8.1A.83.83,0,0,0,43,.1L.39,24.71a.79.79,0,0,0-.39.68H0V74.61a.79.79,0,0,0,.39.68L43,99.9a.87.87,0,0,0,.39.1.9.9,0,0,0,.39-.1L86.42,75.29a.78.78,0,0,0,.4-.68V25.39A.78.78,0,0,0,86.42,24.72Zm-43-23L84.47,25.39,43.41,49.1l-20.79-12L2.34,25.39ZM1.56,26.74,42.63,50.45V97.87L1.56,74.16ZM44.19,97.87V50.45l41.06-23.7V74.16Zm24.37-42.2a4.15,4.15,0,0,0-4.23.34,11.46,11.46,0,0,0-5.26,9.11A4.17,4.17,0,0,0,60.89,69a3.25,3.25,0,0,0,1.65.43,5.22,5.22,0,0,0,2.57-.77,11.49,11.49,0,0,0,5.26-9.11A4.14,4.14,0,0,0,68.56,55.67ZM64.33,67.25a2.21,2.21,0,0,1-3.7-2.13,10.05,10.05,0,0,1,4.48-7.76,3.72,3.72,0,0,1,1.78-.56,1.75,1.75,0,0,1,.89.22,2.7,2.7,0,0,1,1,2.47A10.05,10.05,0,0,1,64.33,67.25ZM81.88,32.59a4.13,4.13,0,0,0-4.22.34A11.46,11.46,0,0,0,72.4,42a4.16,4.16,0,0,0,1.81,3.83,3.26,3.26,0,0,0,1.66.43,5.22,5.22,0,0,0,2.57-.77,11.49,11.49,0,0,0,5.26-9.11A4.15,4.15,0,0,0,81.88,32.59ZM77.66,44.17A2.22,2.22,0,0,1,74,42a10.06,10.06,0,0,1,4.49-7.76,3.66,3.66,0,0,1,1.78-.56,1.74,1.74,0,0,1,.88.22,2.7,2.7,0,0,1,1,2.48A10.08,10.08,0,0,1,77.66,44.17ZM55.23,48a4.13,4.13,0,0,0-4.22.34,11.47,11.47,0,0,0-5.26,9.11,4.14,4.14,0,0,0,1.81,3.83,3.26,3.26,0,0,0,1.66.43,5.15,5.15,0,0,0,2.57-.77,11.48,11.48,0,0,0,5.26-9.11A4.17,4.17,0,0,0,55.23,48ZM51,59.56a2.69,2.69,0,0,1-2.67.34,2.68,2.68,0,0,1-1-2.47,10.05,10.05,0,0,1,4.48-7.76,3.58,3.58,0,0,1,1.78-.57,1.72,1.72,0,0,1,.88.23,2.68,2.68,0,0,1,1,2.47A10.1,10.1,0,0,1,51,59.56Zm4.22,19.18a4.16,4.16,0,0,0-4.22.35,11.46,11.46,0,0,0-5.26,9.11A4.16,4.16,0,0,0,47.56,92a3.37,3.37,0,0,0,1.66.43,5.17,5.17,0,0,0,2.57-.78,11.48,11.48,0,0,0,5.26-9.11A4.17,4.17,0,0,0,55.23,78.74ZM51,90.33a2.72,2.72,0,0,1-2.67.35,2.71,2.71,0,0,1-1-2.48,10.05,10.05,0,0,1,4.48-7.76,3.66,3.66,0,0,1,1.78-.56,1.72,1.72,0,0,1,.88.22,2.68,2.68,0,0,1,1,2.47A10.08,10.08,0,0,1,51,90.33Zm30.87-27a4.13,4.13,0,0,0-4.22.34,11.47,11.47,0,0,0-5.27,9.11,4.17,4.17,0,0,0,1.82,3.83,3.26,3.26,0,0,0,1.66.43,5.28,5.28,0,0,0,2.57-.77,11.47,11.47,0,0,0,5.26-9.11A4.15,4.15,0,0,0,81.88,63.36ZM77.66,75a2.74,2.74,0,0,1-2.67.34,2.71,2.71,0,0,1-1-2.48,10.08,10.08,0,0,1,4.49-7.76,3.66,3.66,0,0,1,1.78-.56,1.72,1.72,0,0,1,.88.22,2.7,2.7,0,0,1,1,2.48A10.11,10.11,0,0,1,77.66,75Z"/></g></g></svg>