<svg xmlns="http://www.w3.org/2000/svg" viewBox="0 0 100 98.28"><defs><style>.cls-1{fill:#020203;}</style></defs><g id="Layer_2" data-name="Layer 2"><g id="Layer_1-2" data-name="Layer 1"><path class="cls-1" d="M77.71,17.79l-73.32-1A3.31,3.31,0,0,0,1,20L0,92.94a4.27,4.27,0,0,0,4.21,4.33l71.85,1A4.37,4.37,0,0,0,80.5,94l1-72.26A3.86,3.86,0,0,0,77.71,17.79ZM15.13,34a6.53,6.53,0,1,1,4.7,8A6.53,6.53,0,0,1,15.13,34Zm4.6,45.58a6.53,6.53,0,1,1,8-4.71A6.54,6.54,0,0,1,19.73,79.58ZM50,34a6.53,6.53,0,1,1,4.7,7.95A6.53,6.53,0,0,1,50,34Zm4.6,45.57a6.53,6.53,0,1,1,8-4.7A6.54,6.54,0,0,1,54.58,79.53ZM98.68,3.32,85.15,15.9a5.63,5.63,0,0,0-1.78,4L82.32,95.05a1.47,1.47,0,0,0,2.46,1.12l12-10.82a6.51,6.51,0,0,0,2.14-4.73L100,3.9A.78.78,0,0,0,98.68,3.32Zm-5.11,35.3c-1.64,0-3-2.89-3.06-6.49s1.24-6.55,2.88-6.57,3,2.88,3.06,6.49S95.21,38.6,93.57,38.62ZM92.25,75.44c-1.64,0-2.87-3-2.76-6.62s1.53-6.49,3.17-6.44,2.88,3,2.77,6.62S93.89,75.49,92.25,75.44Zm-8.18-61L96.85,2.52a.84.84,0,0,0-.56-1.45L20.27,0a6.45,6.45,0,0,0-4.4,1.66L2.93,13.3a.93.93,0,0,0,.61,1.62L80,16A5.92,5.92,0,0,0,84.07,14.41ZM45.23,11.18c-3.71.05-6.73-1.57-6.76-3.62s3-3.75,6.66-3.8,6.73,1.57,6.76,3.62S48.93,11.13,45.23,11.18Z"/></g></g></svg>