<svg xmlns="http://www.w3.org/2000/svg" viewBox="0 0 87 100"><g id="Layer_2" data-name="Layer 2"><g id="Layer_1-2" data-name="Layer 1"><path d="M86.61,24.71h0L44,.1a.83.83,0,0,0-.78,0L.75,24.61a.88.88,0,0,0-.36.1.79.79,0,0,0-.39.68V74.61a.76.76,0,0,0,.39.67L43,99.9a.78.78,0,0,0,.39.1l.09,0,.09,0a.9.9,0,0,0,.39-.1L86.61,75.28a.76.76,0,0,0,.39-.67V25.39A.79.79,0,0,0,86.61,24.71Zm-43-23L84.65,25.39,43.59,49.1,2.52,25.39Zm-1,96.19L1.56,74.16V26.74L42.63,50.45Zm1.74,0V50.45L85.44,26.74V74.16ZM68.74,55.66a4.18,4.18,0,0,0-4.22.34,11.49,11.49,0,0,0-5.26,9.12,4.14,4.14,0,0,0,1.81,3.82,3.27,3.27,0,0,0,1.66.44,5.17,5.17,0,0,0,2.57-.78,11.48,11.48,0,0,0,5.26-9.11A4.17,4.17,0,0,0,68.74,55.66ZM64.52,67.25a2.21,2.21,0,0,1-3.7-2.13,10.09,10.09,0,0,1,4.48-7.77,3.66,3.66,0,0,1,1.78-.56A1.74,1.74,0,0,1,68,57a2.71,2.71,0,0,1,1,2.48A10.05,10.05,0,0,1,64.52,67.25ZM22.2,21.9a11.49,11.49,0,0,0-10.52,0,4.18,4.18,0,0,0-2.41,3.49,4.18,4.18,0,0,0,2.41,3.49,10.72,10.72,0,0,0,5.26,1.28,10.75,10.75,0,0,0,5.26-1.28,4.18,4.18,0,0,0,2.41-3.49A4.18,4.18,0,0,0,22.2,21.9Zm-.78,5.63a10.08,10.08,0,0,1-9,0,2.72,2.72,0,0,1-1.63-2.14,2.72,2.72,0,0,1,1.63-2.14,9.21,9.21,0,0,1,4.48-1.05,9.24,9.24,0,0,1,4.48,1.05,2.72,2.72,0,0,1,1.63,2.14A2.72,2.72,0,0,1,21.42,27.53ZM65,28.88a11.45,11.45,0,0,0,10.52,0,4.16,4.16,0,0,0,2.41-3.49A4.16,4.16,0,0,0,75.5,21.9,11.49,11.49,0,0,0,65,21.9a4.18,4.18,0,0,0-2.41,3.49A4.18,4.18,0,0,0,65,28.88Zm.78-5.62a10.08,10.08,0,0,1,9,0,2.69,2.69,0,0,1,1.63,2.13,2.72,2.72,0,0,1-1.63,2.14,10.08,10.08,0,0,1-9,0,2.72,2.72,0,0,1-1.63-2.14A2.69,2.69,0,0,1,65.76,23.26ZM21.71,68.6a5.13,5.13,0,0,0,2.56.78,3.27,3.27,0,0,0,1.66-.44,4.14,4.14,0,0,0,1.82-3.82A11.46,11.46,0,0,0,22.49,56a4.15,4.15,0,0,0-4.23-.34,4.14,4.14,0,0,0-1.81,3.82A11.46,11.46,0,0,0,21.71,68.6ZM19,57a2.74,2.74,0,0,1,2.67.34,10.09,10.09,0,0,1,4.48,7.77,2.68,2.68,0,0,1-1,2.47,2.67,2.67,0,0,1-2.66-.34A10.05,10.05,0,0,1,18,59.49,2.71,2.71,0,0,1,19,57ZM35,91.68a5.17,5.17,0,0,0,2.57.78A3.37,3.37,0,0,0,39.26,92a4.16,4.16,0,0,0,1.81-3.83,11.49,11.49,0,0,0-5.26-9.12,4.18,4.18,0,0,0-4.22-.34,4.17,4.17,0,0,0-1.82,3.83A11.46,11.46,0,0,0,35,91.68ZM32.37,80.1a1.72,1.72,0,0,1,.88-.22,3.56,3.56,0,0,1,1.78.56,10.07,10.07,0,0,1,4.48,7.76,2.73,2.73,0,0,1-1,2.48,2.74,2.74,0,0,1-2.67-.34,10.08,10.08,0,0,1-4.48-7.76A2.69,2.69,0,0,1,32.37,80.1Zm-24-34.58a5.22,5.22,0,0,0,2.57.77,3.25,3.25,0,0,0,1.65-.43A4.13,4.13,0,0,0,14.42,42a11.47,11.47,0,0,0-5.26-9.11,4.18,4.18,0,0,0-4.22-.34,4.17,4.17,0,0,0-1.82,3.83A11.46,11.46,0,0,0,8.38,45.52ZM5.72,33.93a1.79,1.79,0,0,1,.88-.22,3.61,3.61,0,0,1,1.78.57A10.05,10.05,0,0,1,12.86,42a2.68,2.68,0,0,1-1,2.47,2.67,2.67,0,0,1-2.66-.34,10.05,10.05,0,0,1-4.48-7.76A2.71,2.71,0,0,1,5.72,33.93Z"/></g></g></svg>