<svg xmlns="http://www.w3.org/2000/svg" viewBox="0 0 88.46 100"><defs><style>.cls-1{fill:#020203;}</style></defs><g id="Layer_2" data-name="Layer 2"><g id="Layer_1-2" data-name="Layer 1"><path class="cls-1" d="M24.72,51.67a4.81,4.81,0,1,1-6.66-1.4A4.81,4.81,0,0,1,24.72,51.67ZM44.43,18.9c2.23-1.45,3.61-3.27,3.1-4.06s-2.74-.26-5,1.2S39,19.31,39.46,20.1,42.2,20.36,44.43,18.9Zm-33,15c2.23-1.46,3.61-3.28,3.1-4.07s-2.74-.25-5,1.2S6,34.28,6.49,35.08,9.23,35.33,11.46,33.88ZM28,26.41c2.23-1.45,3.61-3.27,3.1-4.06s-2.74-.26-5,1.19-3.61,3.28-3.1,4.07S25.73,27.86,28,26.41Zm6,48.16A4.81,4.81,0,1,0,40.58,76,4.81,4.81,0,0,0,33.92,74.57ZM88.33,52.48l-2.2,10.05L85.71,64a10.38,10.38,0,0,1-4.1,5.71l-.51.35-1.89,1.25L36,99.42a3.56,3.56,0,0,1-4.93-1L1.85,53.72,1.38,53a8.61,8.61,0,0,1-1.1-6.85l.31-1.23L3,35A6.76,6.76,0,0,1,5.9,31l45-29.47,1.66-1a3,3,0,0,1,4.21,1l.42.69,30.44,46.4A5,5,0,0,1,88.33,52.48ZM2.11,47.6,49.26,16.83A3.1,3.1,0,0,0,50.57,15L53.69,2.51a.63.63,0,0,0-.95-.68L6.53,32A5.46,5.46,0,0,0,4.2,35.26L1.26,47A.56.56,0,0,0,2.11,47.6Zm80,18L51.54,18.75a1.68,1.68,0,0,0-2.31-.49L2.74,48.6a2.35,2.35,0,0,0-.68,3.24l30,46a2.31,2.31,0,0,0,3.19.68L81.58,68.22A1.88,1.88,0,0,0,82.13,65.63ZM86.51,49,56.31,2.71a.83.83,0,0,0-1.5.25L51.75,15.17a3,3,0,0,0,.39,2.34L83.4,65.4a.26.26,0,0,0,.47-.08l3.22-12.89A4.42,4.42,0,0,0,86.51,49ZM76.4,42.31c-1.11.72-.83,3.12.62,5.34s3.53,3.45,4.65,2.72.83-3.12-.62-5.35S77.52,41.58,76.4,42.31ZM60.54,18c-1.11.73-.84,3.12.62,5.35s3.53,3.44,4.64,2.72.84-3.13-.61-5.35S61.66,17.28,60.54,18ZM44,33.32a4.82,4.82,0,1,0,6.67,1.4A4.83,4.83,0,0,0,44,33.32ZM59.88,57.63A4.81,4.81,0,1,0,66.55,59,4.82,4.82,0,0,0,59.88,57.63Z"/></g></g></svg>