<svg xmlns="http://www.w3.org/2000/svg" viewBox="0 0 100 98.99"><defs><style>.cls-1{fill:#020203;}</style></defs><g id="Layer_2" data-name="Layer 2"><g id="Layer_1-2" data-name="Layer 1"><path class="cls-1" d="M100,3.61A3.45,3.45,0,0,0,96.61.16L89.67,0,19.13.23a3.83,3.83,0,0,0-2.63,1L8.76,8.61l-7.51,6.8A3.74,3.74,0,0,0,0,18.23l.14,7.59L0,96.84A2.15,2.15,0,0,0,2.15,99H81.23a3.85,3.85,0,0,0,2.59-1L94,88.65l4.94-4.94A3.49,3.49,0,0,0,100,81.19V3.61ZM3.2,15.74,16.75,3.2a5.14,5.14,0,0,1,3.51-1.38H96.42a.29.29,0,0,1,.2.51L83.11,14.87A4.6,4.6,0,0,1,80,16.1H3.34A.21.21,0,0,1,3.2,15.74ZM81.3,96.41a1,1,0,0,1-1,1H2.68a1.1,1.1,0,0,1-1.1-1.1V17.68H79.81a1.5,1.5,0,0,1,1.49,1.5Zm16.22-13.6L83.43,95.88a.32.32,0,0,1-.54-.24v-76a5.53,5.53,0,0,1,1.78-4.07l13-12a.46.46,0,0,1,.78.34V80.78A2.79,2.79,0,0,1,97.52,82.81ZM27.13,37.21a6.45,6.45,0,1,1-6.45-6.45A6.45,6.45,0,0,1,27.13,37.21Zm41.52,0a6.45,6.45,0,1,1-6.44-6.45A6.44,6.44,0,0,1,68.65,37.21ZM47.89,53.89a6.45,6.45,0,1,1-6.45-6.45A6.45,6.45,0,0,1,47.89,53.89ZM40.25,9.22c0-1.92,2.89-3.46,6.45-3.46s6.45,1.54,6.45,3.46-2.89,3.46-6.45,3.46S40.25,11.13,40.25,9.22ZM27.13,76.09a6.45,6.45,0,1,1-6.45-6.45A6.44,6.44,0,0,1,27.13,76.09Zm41.52,0a6.45,6.45,0,1,1-6.44-6.45A6.44,6.44,0,0,1,68.65,76.09Zm26.53-44c0,3.56-1.45,6.45-3.23,6.45s-3.22-2.89-3.22-6.45,1.44-6.45,3.22-6.45S95.18,28.56,95.18,32.12Zm0,38.87c0,3.56-1.45,6.45-3.23,6.45S88.73,74.55,88.73,71s1.44-6.45,3.22-6.45S95.18,67.43,95.18,71Z"/></g></g></svg>