<svg xmlns="http://www.w3.org/2000/svg" viewBox="0 0 100 100"><g id="Layer_2" data-name="Layer 2"><g id="Layer_1-2" data-name="Layer 1"><path d="M98.46,0H1.54A1.54,1.54,0,0,0,0,1.54V98.46A1.54,1.54,0,0,0,1.54,100H98.46A1.54,1.54,0,0,0,100,98.46V1.54A1.54,1.54,0,0,0,98.46,0ZM96.92,96.93H3.07V3.07H96.92Zm-77.22-4A12.61,12.61,0,1,0,7.09,80.3,12.62,12.62,0,0,0,19.7,92.91Zm0-22.15a9.54,9.54,0,1,1-9.54,9.54A9.54,9.54,0,0,1,19.7,70.76ZM80.29,92.91A12.61,12.61,0,1,0,67.69,80.3,12.63,12.63,0,0,0,80.29,92.91Zm0-22.15a9.54,9.54,0,1,1-9.53,9.54A9.55,9.55,0,0,1,80.29,70.76Zm0-38.45A12.61,12.61,0,1,0,67.69,19.7,12.63,12.63,0,0,0,80.29,32.31Zm0-22.15a9.54,9.54,0,1,1-9.53,9.54A9.55,9.55,0,0,1,80.29,10.16ZM19.7,32.31A12.61,12.61,0,1,0,7.09,19.7,12.62,12.62,0,0,0,19.7,32.31Zm0-22.15a9.54,9.54,0,1,1-9.54,9.54A9.54,9.54,0,0,1,19.7,10.16Z"/></g></g></svg>