<svg xmlns="http://www.w3.org/2000/svg" viewBox="0 0 100 99.19"><g id="Layer_2" data-name="Layer 2"><g id="Layer_1-2" data-name="Layer 1"><path d="M95.48,34.9c-7.39-4.32-21.27,6-31,23S52.86,92.21,60.26,96.53s21.31-6,31-23S102.87,39.22,95.48,34.9ZM71.1,82.77c-1.25,2.22-3.28,3.44-4.53,2.73s-1.2-3.11.08-5.33,3.29-3.44,4.53-2.73S72.39,80.55,71.1,82.77Zm.58-20.89c-1.25,2.22-3.28,3.44-4.53,2.73s-1.2-3.11.09-5.33,3.28-3.44,4.52-2.69S73,59.65,71.68,61.88ZM80.11,67c-1.24,2.22-3.28,3.44-4.53,2.72s-1.2-3.1,0-5.32S79,61,80.15,61.71,81.4,64.82,80.11,67ZM88,72.74c-1.28,2.23-3.28,3.44-4.52,2.73s-1.21-3.1,0-5.33,3.32-3.44,4.53-2.72S89.25,70.52,88,72.74Zm1.13-21.48C87.84,53.49,85.84,54.7,84.6,54s-1.21-3.11,0-5.29,3.32-3.44,4.53-2.72S90.37,49,89.13,51.26Zm-39.26-16c21.93,0,39.71-7.89,39.71-17.62S71.8,0,49.87,0s-39.7,7.89-39.7,17.62S27.94,35.24,49.87,35.24ZM74.34,22.91c.41,1.59-1.5,3-4.32,3s-5.36-1.43-5.65-3,1.7-2.82,4.36-2.82S73.88,21.31,74.34,22.91Zm-8.56-16c2.25,0,4.28.88,4.61,2S69.06,11,66.7,11s-4.45-1-4.66-2.09S63.54,6.92,65.78,6.92Zm-20.06,2c0-1.14,1.91-2,4.15-2S54,7.8,54,8.94,52.24,11,49.87,11,45.64,10.07,45.72,8.94Zm-.83,14c.08-1.6,2.33-2.82,5-2.82s4.86,1.22,5,2.82-2.12,3-5,3S44.81,24.54,44.89,22.91Zm-15.53-14c.33-1.14,2.36-2,4.61-2s3.9.88,3.69,2S35.42,11,33.05,11,29,10.07,29.36,8.94Zm-3.95,14c.46-1.6,2.95-2.82,5.61-2.82s4.61,1.22,4.32,2.82-2.79,3-5.65,3S25,24.5,25.41,22.91ZM59.63,97.62a10.22,10.22,0,0,0,1.33.59,63.33,63.33,0,0,1-22,0,9.87,9.87,0,0,0,1.37-.63c5.15-3,5.53-10.53,4.94-15.77-.91-8.43-4.52-17.29-8.68-24.59s-10-14.85-16.74-19.88c-4.23-3.15-10.79-6.59-16-3.57a8.22,8.22,0,0,0-2.28,2A53.34,53.34,0,0,1,9,17.2c0,.13,0,.29,0,.42,0,6.71,7,11.24,12.38,13.63,8.64,3.82,19.23,5.25,28.57,5.25s19.94-1.43,28.58-5.25c5.36-2.39,12.38-6.92,12.38-13.63,0-.13,0-.29,0-.42a54,54,0,0,1,7.27,18.21,7.43,7.43,0,0,0-2-1.6c-5.15-3-11.75.42-16,3.57-6.77,5-12.54,12.58-16.7,19.88s-7.76,16.15-8.72,24.59C54.15,87.09,54.48,94.6,59.63,97.62ZM35.54,57.89c-9.72-17-23.59-27.31-31-23S-1,56.51,8.75,73.54s23.6,27.31,31,23S45.26,74.93,35.54,57.89ZM15.44,54c-1.25.75-3.28-.46-4.53-2.69s-1.33-4.61-.08-5.32,3.28.5,4.53,2.72S16.65,53.24,15.44,54Zm9,15.77c-1.24.72-3.28-.5-4.56-2.72s-1.29-4.58-.05-5.29,3.29.46,4.53,2.69S25.66,69,24.45,69.72Zm9,15.78c-1.21.71-3.24-.51-4.53-2.73s-1.29-4.61,0-5.33,3.24.51,4.52,2.73S34.67,84.78,33.43,85.5Z"/></g></g></svg>