<svg xmlns="http://www.w3.org/2000/svg" viewBox="0 0 100 98.28"><defs><style>.cls-1{fill:#020203;}</style></defs><g id="Layer_2" data-name="Layer 2"><g id="Layer_1-2" data-name="Layer 1"><path class="cls-1" d="M18.48,21.7,19.5,94a4.37,4.37,0,0,0,4.44,4.32l71.85-1A4.27,4.27,0,0,0,100,92.94L99,20a3.31,3.31,0,0,0-3.36-3.27l-73.32,1A3.86,3.86,0,0,0,18.48,21.7ZM80.17,42a6.53,6.53,0,1,1,4.7-8A6.53,6.53,0,0,1,80.17,42ZM72.32,74.87a6.53,6.53,0,1,1,8,4.71A6.54,6.54,0,0,1,72.32,74.87Zm-27-33A6.53,6.53,0,1,1,50,34,6.53,6.53,0,0,1,45.32,41.91ZM37.47,74.83a6.54,6.54,0,1,1,8,4.7A6.54,6.54,0,0,1,37.47,74.83ZM0,3.9,1.08,80.62a6.51,6.51,0,0,0,2.14,4.73l12,10.82a1.47,1.47,0,0,0,2.46-1.12L16.63,19.9a5.63,5.63,0,0,0-1.78-4L1.32,3.32A.78.78,0,0,0,0,3.9ZM3.55,32.05C3.6,28.44,5,25.53,6.61,25.56s2.93,3,2.88,6.57-1.42,6.51-3.06,6.49S3.5,35.65,3.55,32.05Zm1,37c-.11-3.6,1.13-6.57,2.77-6.62s3.06,2.83,3.17,6.44-1.12,6.57-2.76,6.62S4.69,72.61,4.57,69ZM20,16l76.42-1.07a.93.93,0,0,0,.61-1.62L84.13,1.66A6.45,6.45,0,0,0,79.73,0l-76,1.07a.84.84,0,0,0-.56,1.45L15.93,14.41A5.92,5.92,0,0,0,20,16ZM48.11,7.38c0-2,3.06-3.67,6.76-3.62s6.69,1.75,6.66,3.8-3.05,3.67-6.76,3.62S48.09,9.43,48.11,7.38Z"/></g></g></svg>