<svg xmlns="http://www.w3.org/2000/svg" viewBox="0 0 100 78.11"><g id="Layer_2" data-name="Layer 2"><g id="Layer_1-2" data-name="Layer 1"><path d="M31.43,38.21l3.43-5.28.49.31A4.51,4.51,0,0,1,36.5,34.3a5.92,5.92,0,0,1,.71,1.23q.27.63.57,1.56c.21.64.4,1.17.57,1.58a6,6,0,0,0,.72,1.22A4.35,4.35,0,0,0,40.22,41a1.73,1.73,0,0,0,.72.3.51.51,0,0,0,.51-.28c.22-.33,0-.7-.58-1.1l-1.24-.8L41,36.92l.64.39a7.57,7.57,0,0,1,1.75,1.47,2.4,2.4,0,0,1,.6,1.57,3.58,3.58,0,0,1-.67,1.89,3.15,3.15,0,0,1-2,1.51,3.33,3.33,0,0,1-2.48-.62,5.65,5.65,0,0,1-1.37-1.22,6.35,6.35,0,0,1-.83-1.34c-.19-.45-.39-1-.61-1.67-.15-.48-.29-.89-.43-1.23a9,9,0,0,0-.47-1l-1.8,2.77Zm45.29,7a1.3,1.3,0,0,0,1.1.6,1.34,1.34,0,0,0,.72-.21,1.32,1.32,0,0,0,.39-1.82l-1.52-2.35a1.31,1.31,0,1,0-2.21,1.42ZM66.08,28.68a1.31,1.31,0,0,0,1.11.6,1.33,1.33,0,0,0,.71-.21,1.31,1.31,0,0,0,.39-1.82l-1.52-2.36a1.32,1.32,0,0,0-2.21,1.43Zm5.32,8.24a1.32,1.32,0,0,0,1.11.61,1.31,1.31,0,0,0,1.1-2l-1.52-2.36a1.32,1.32,0,1,0-2.21,1.43ZM60.76,20.43a1.32,1.32,0,0,0,1.11.6,1.33,1.33,0,0,0,.71-.21A1.31,1.31,0,0,0,63,19l-1.52-2.35a1.31,1.31,0,1,0-2.21,1.42ZM82,53.42a1.3,1.3,0,0,0,1.1.6,1.34,1.34,0,0,0,.72-.21A1.32,1.32,0,0,0,84.25,52l-1.52-2.36a1.32,1.32,0,1,0-2.21,1.43Zm17.8,24a1.37,1.37,0,0,1-.33.39h0l-.05,0h0l0,0,0,0-.05,0h0l0,0,0,0,0,0h0l0,0H.9l0,0h0l0,0L.74,78h0l0,0h0l-.06,0h0l-.07,0h0a1.07,1.07,0,0,1-.19-.18h0l0-.06a.91.91,0,0,1-.11-.16v0l0,0a1,1,0,0,0,0-.1h0a.49.49,0,0,1,0-.11v0s0-.05,0-.07v0s0-.07,0-.1v-.16a.38.38,0,0,1,0-.1v0s0,0,0-.07v0l0-.1v0l0-.08v0l.05-.09v0l0-.07L48.89.6h0l0,0L49,.5l0,0A.46.46,0,0,1,49.06.4l0,0,.06,0,0,0,.07,0,0,0,.06,0,.07,0,0,0,.06,0h0l.1,0h0l.09,0h.44l.09,0h0l.09,0h.05l0,0,.05,0,.06,0,.06,0,0,0,.08.06h0l.07.06,0,0L51,.48h0l.06.08v0h0l5.83,9h0l.71,1.11a1.31,1.31,0,0,1-.39,1.82,1.31,1.31,0,0,1-1.82-.4l-.71-1.1h0l-3.42-5.3V45l43,27.49-7.74-12,0,0-.71-1.1a1.32,1.32,0,0,1,2.21-1.43l.7,1.09v0l11,17.09A1.33,1.33,0,0,1,99.84,77.43ZM50,47.23,5.82,75.48H94.18ZM48.68,5.79,5.7,72.43,48.68,45ZM67,34.53,56.75,41.17l1.06,1.64a2.28,2.28,0,0,1,1.35.18,3.06,3.06,0,0,1,1.09.77l1.63-1.06a2.15,2.15,0,0,0-.61-.59,1.67,1.67,0,0,0-.77-.31l7.87-5.11ZM46.92,60h3.45l-.49,1.27c-.08.24-.22.59-.41,1.07-.59,1.49-1.06,2.8-1.39,3.93A16.17,16.17,0,0,0,47.45,70H50.2a19.78,19.78,0,0,1,.49-3.38,26.93,26.93,0,0,1,1-3.17c.12-.29.28-.65.49-1.09s.47-1.06.61-1.46a4.89,4.89,0,0,0,.29-1.27V57.77H46.92Z"/></g></g></svg>