<svg xmlns="http://www.w3.org/2000/svg" viewBox="0 0 100 89.84"><defs><style>.cls-1{fill:#141515;}</style></defs><g id="Layer_2" data-name="Layer 2"><g id="Layer_1-2" data-name="Layer 1"><path class="cls-1" d="M35.2,64.4a10.12,10.12,0,1,0-10-10.09A10.08,10.08,0,0,0,35.2,64.4Zm0-18.35a8.24,8.24,0,1,1-8.13,8.26A8.22,8.22,0,0,1,35.2,46.05ZM100,.68a.94.94,0,0,0-.7-.65h-.1l-.1,0H30.48a.89.89,0,0,0-.5.15L.44,18.87s-.06.06-.1.08L.25,19a.63.63,0,0,0-.13.2.22.22,0,0,0,0,.08,1.14,1.14,0,0,0-.07.33H0V88.9a.94.94,0,0,0,.94.94H69.49a1,1,0,0,0,.33-.06l.09,0,.08,0L99.53,71a.94.94,0,0,0,.44-.79v-69A1,1,0,0,0,100,.68ZM68.55,88H1.88V20.6H68.55Zm.67-69.24h-65L30.75,1.88H95.8L70.09,18.18ZM98.09,69.66,70.43,87.2v-67L98.09,2.67ZM29.8,11.37c-3.95-.11-8.47.65-10.28,1.75-1.15.68-1.14,1.46-1,1.86s.45,1.7,5.32,1.8h.83c3.72,0,7.73-.72,9.42-1.73,1.15-.71,1.14-1.5,1-1.9S34.61,11.47,29.8,11.37Zm-6,3.53a13,13,0,0,1-3-.34,23.37,23.37,0,0,1,8.94-1.31h0a12.19,12.19,0,0,1,3.06.35C31.27,14.34,27.52,15,23.84,14.9ZM53,7.58h0c-3.46-.06-8.25.57-10.23,1.75-1.14.68-1.14,1.45-1,1.86S42.14,12.88,47,13h.54c3.43,0,7.85-.63,9.74-1.75,1.14-.69,1.13-1.46,1-1.86S57.86,7.73,53,7.58ZM47,11.15a13.5,13.5,0,0,1-3-.37,24.6,24.6,0,0,1,8.92-1.32A12.54,12.54,0,0,1,56,9.83,24.45,24.45,0,0,1,47,11.15ZM81.48,5.63c-.1-.42-.44-1.69-5.31-1.84h0c-3.47-.06-8.25.57-10.25,1.76-1.14.7-1.12,1.48-1,1.89s.46,1.7,5.31,1.79H71c3.66,0,7.78-.75,9.47-1.75C81.59,6.8,81.59,6,81.48,5.63ZM70.25,7.36A12.18,12.18,0,0,1,67.17,7a24.22,24.22,0,0,1,9-1.33,12.51,12.51,0,0,1,3,.37A23.87,23.87,0,0,1,70.25,7.36ZM82.33,53.5a2.24,2.24,0,0,0,1.08.29,2.56,2.56,0,0,0,1.38-.43c2.29-1.49,3.66-6.51,3.66-10.5,0-3.3-.85-5.74-2.28-6.52a2.25,2.25,0,0,0-2.39.13h0C81.37,38,80.07,43,80.07,47,80.07,50.32,80.9,52.7,82.33,53.5Zm2.45-15.44c.29-.19.42-.12.49-.08.52.29,1.3,1.83,1.3,4.88,0,4.18-1.48,8.07-2.78,8.92-.33.2-.47.12-.54.08C82.73,51.57,82,50,82,47,82,42.79,83.44,38.92,84.78,38.06Zm5.36-7.45a2.19,2.19,0,0,0,1.08.29,2.62,2.62,0,0,0,1.37-.43C94.88,29,96.25,24,96.25,20c0-3.36-.82-5.73-2.27-6.53a2.3,2.3,0,0,0-2.4.14h0c-2.41,1.54-3.71,6.57-3.71,10.51C87.87,27.43,88.7,29.81,90.14,30.61Zm2.44-15.44c.3-.19.43-.12.5-.08.52.28,1.3,1.82,1.3,4.88,0,4.18-1.48,8.06-2.79,8.92-.33.2-.46.12-.54.08-.52-.29-1.3-1.83-1.3-4.88C89.75,19.9,91.24,16,92.58,15.17Zm-18,61.22a2.21,2.21,0,0,0,1.08.29A2.64,2.64,0,0,0,77,76.26c2.08-1.37,3.66-5.88,3.66-10.51,0-3.3-.85-5.73-2.28-6.52a2.28,2.28,0,0,0-2.39.13h0c-2.4,1.54-3.7,6.56-3.7,10.51C72.27,73.21,73.09,75.59,74.53,76.39ZM77,61c.29-.18.42-.11.49-.08.52.29,1.3,1.83,1.3,4.88,0,4.19-1.48,8.07-2.79,8.92-.32.2-.46.12-.53.08-.53-.29-1.31-1.83-1.31-4.87C74.14,65.69,75.64,61.81,77,61Z"/></g></g></svg>