<svg xmlns="http://www.w3.org/2000/svg" viewBox="0 0 100 60.07"><defs><style>.cls-1{fill:#010101;}</style></defs><g id="Layer_2" data-name="Layer 2"><g id="Layer_1-2" data-name="Layer 1"><path class="cls-1" d="M24.93,59.9a8.86,8.86,0,0,1-1.4-.68,4.63,4.63,0,0,0-.86-.42,5.47,5.47,0,0,1-.85-.52c-.43-.25-1.11-.59-1.45-.76s-1.15-.51-1.79-.81-1.19-.56-1.23-.56-.6-.25-1.24-.55-1.36-.64-1.62-.72a7.89,7.89,0,0,1-1-.52c-.3-.17-.94-.51-1.41-.72s-1-.51-1.19-.64c-.55-.34-2.9-1.49-3.49-1.75A24.61,24.61,0,0,1,3.28,49,7.39,7.39,0,0,1,.34,45L0,44.14l0-7C0,33.31,0,28,.09,25.3c.08-4.78.08-4.86.38-5.63.13-.42.43-1.19.6-1.7a10.06,10.06,0,0,1,.46-1.2C2,15.88,4.09,14.13,7,12.17c.64-.47,2.6-1.83,4.69-3.37.38-.25.93-.68,1.27-.93.94-.69,3.2-2.35,4.9-3.58,4.27-3.2,4.52-3.37,7.46-4,.34-.08.81-.17,1.11-.25,1.11-.26,2.26.17,5.71,2.13.73.38,1.66.94,2,1.15a34.32,34.32,0,0,1,3.11,1.87c.13.09.72.43,1.24.73.93.51,1.49.85,3.79,2.3.59.38,1.66,1,2.34,1.32A20.22,20.22,0,0,1,47.05,11c.64.43,1.79,1.15,2.52,1.58,1.53.89,1.36.89,2.55,0,.6-.47,3.5-3.07,3.88-3.5.21-.21,1.62-1.45,2.13-1.83l1-.85,1.19-1a10.19,10.19,0,0,1,3.92-1.87,17,17,0,0,1,5.07-.13c1.24.21,2.94.56,3.67.73.93.21,1.91.46,3.07.72.55.13,1.4.34,2,.51s1.66.43,2.51.6,1.79.42,2.13.51c1.11.3,2.64.68,3.28.77A10.73,10.73,0,0,1,91,9.44c1.07.94,1.41,1.62,2.09,4.14a15.32,15.32,0,0,0,.56,1.7c.12.3.38,1.24.64,2.09s.72,2.34,1.06,3.32.81,2.39,1.11,3.2c1.49,4.69,1.83,5.63,2.13,6.39A26.5,26.5,0,0,1,100,34.8a6.12,6.12,0,0,1-.17,1.88c-.55,2.81-1.06,3.62-3.7,6.48-.56.59-1.41,1.57-1.92,2.17-2.56,3.07-3.11,3.79-4.43,5.28a89.88,89.88,0,0,1-7.68,7.55,17.11,17.11,0,0,1-3.7,1.74,6.73,6.73,0,0,1-1.32.17,25.09,25.09,0,0,1-4-.63,31.18,31.18,0,0,0-4.65-.86c-.64,0-1.92-.17-2.77-.3s-2.09-.21-2.73-.25c-2.21-.21-5.11-.6-6.82-.94A22.5,22.5,0,0,1,52,55.94a8,8,0,0,1-3.07-3.79c-.25-.51-.55-1.24-.72-1.54a17.12,17.12,0,0,1-.64-1.74A3.72,3.72,0,0,0,47,47.63c-.13-.09-.38.13-1,.72a31.5,31.5,0,0,1-6.14,4.56l-2.13,1.33-2.35,1.49a31.92,31.92,0,0,0-2.72,1.92,12.1,12.1,0,0,1-3.75,2.17,16.86,16.86,0,0,1-2,.21,4.15,4.15,0,0,1-2-.13Zm4.61-1.83a24.22,24.22,0,0,0,6.39-4.22,25.23,25.23,0,0,1,4.39-3.36c1.11-.73,2.43-1.67,2.94-2.09a19.13,19.13,0,0,0,2.68-2.65c.43-.68,0-3.15-1.19-6.22a13.83,13.83,0,0,1-.68-2.17c-.43-1.88-.68-2.47-1-2.64a8,8,0,0,1-2.82-3.63,2.58,2.58,0,0,1,.13-1.91,1.63,1.63,0,0,1,.6-.47l.47-.3a1.53,1.53,0,0,0-.09-.68,6.1,6.1,0,0,1,0-3.28,5.85,5.85,0,0,1,1.23-2.6c.64-1,.69-1.07.3-1.62a6.54,6.54,0,0,1-1-2.94A3,3,0,0,1,43,15c.47-.17.9,0,2,1.15s1.49,1.28,1.87,1c2.77-2.25,2.82-2.3,2.73-2.68,0-.21-.64-.51-2.94-1.66-1.58-.77-3.15-1.54-3.45-1.66A20,20,0,0,1,40,9.19a10,10,0,0,0-1.15-.68,1.15,1.15,0,0,1-.39-.22c-.17-.13-.68-.42-1.15-.68S36,6.89,35.46,6.55a34.68,34.68,0,0,0-7.59-3.93c-1-.25-1.45.22-1.74,1.58-.22,1.11-.56,5.29-.73,8.4-.08,1.49-.17,3.49-.25,4.39-.43,4.81-.47,6.52-.22,8.35a7.85,7.85,0,0,0,.77,2.77,25.21,25.21,0,0,1,1.24,2.26,10.29,10.29,0,0,0,2.77,2.47c3.23,2.17,5.54,3.58,7.67,4.77a29.9,29.9,0,0,1,4.09,2.77c2.56,2,3.11,2.69,2.21,2.78-.42,0-.63-.09-4.47-2.82a40.93,40.93,0,0,0-4.65-3c-1.87-.94-3.75-1.92-4.85-2.56a12.52,12.52,0,0,0-2.31-1.07c-.55-.17-1.4-.42-1.83-.59a3.41,3.41,0,0,0-2.73.12c-3.19,1.62-4.77,2.43-4.9,2.56a4.28,4.28,0,0,1-.59.39,14.9,14.9,0,0,0-1.41.85,16.67,16.67,0,0,1-1.45.89,34.45,34.45,0,0,0-3.07,2.35,17.19,17.19,0,0,1-3.24,2.21l-1.53.94c-.9.55-1.28.64-1.32.34,0-.13.17-.38.55-.77a11.16,11.16,0,0,1,2-1.49c.34-.25,1.15-.81,1.79-1.32a70.45,70.45,0,0,1,7.46-5,24.23,24.23,0,0,0,3.84-2.72,6.85,6.85,0,0,0,1.4-2,3.12,3.12,0,0,0,.17-.85A3.78,3.78,0,0,1,23,28.2a5.58,5.58,0,0,0,.6-1.67c0-.34.17-3.83.21-7.75s.13-7.16.17-7.21a57.41,57.41,0,0,0,.17-6.86c-.17-1.11-.21-1.19-.47-1.4s-.29-.13-1,.08a6.64,6.64,0,0,0-2.21,1.24l-1.37,1c-.29.21-.76.59-1.06.81a56.13,56.13,0,0,1-5.46,3.45s-.47.26-.93.51l-1.41.81c-3.45,1.92-7.42,5.12-8.06,6.39a13.36,13.36,0,0,0-.85,2.77c-.21,1.15-.25,4.14,0,12.32.25,11.21.3,11.42.85,12.7.43.94,2.43,2.6,4.56,3.71.6.3,1.58.81,2.17,1.15,1.07.55,3.12,1.58,4.48,2.17a46.66,46.66,0,0,1,4.3,2.22c.13.08.69.38,1.2.64s.89.51.94.55.42.26.85.51l1.49.81a17.48,17.48,0,0,0,1.66.77c.56.21,1,.38,1.11.43a3.52,3.52,0,0,0,.94.3,4.77,4.77,0,0,0,3.71-.56Zm-4.82-5.33c-1.49-.25-2.81-1.15-3-2a1.72,1.72,0,0,1,.89-1.58,16.5,16.5,0,0,1,4.48-1c1.62,0,2.47.72,2.47,2a1.24,1.24,0,0,1-.26,1,4.36,4.36,0,0,1-2.73,1.54c-.34.08-.72.13-.81.17a3.47,3.47,0,0,1-1.06-.09Zm-3.07-8.9c-1.11-.34-1.83-1-1.83-1.88S20.5,40.47,22,40a8.38,8.38,0,0,1,2.52-.25c1.62,0,1.79,0,2.21.25a1.73,1.73,0,0,1,.9,1.67c0,.51,0,.59-.51,1.06-.85.81-1.32.94-4.31,1.15a3.89,3.89,0,0,1-1.19-.08ZM5.71,36.42A1.33,1.33,0,0,1,5,36.08a1.75,1.75,0,0,1,0-1.45A12.57,12.57,0,0,1,7.46,31.9c.85-.68,1.28-.72,1.75-.21.68.73.64,1.75-.05,3a2.62,2.62,0,0,1-2,1.66c-.34.08-.68.13-.77.17a4.36,4.36,0,0,1-.64-.13Zm10.1-5.71a1.59,1.59,0,0,1-.64-2.22,7.05,7.05,0,0,1,1.66-2.08,1.89,1.89,0,0,1,2.48.12,2.62,2.62,0,0,1-.13,2.22c-.56,1.41-1.41,2.09-2.47,2.09a1.29,1.29,0,0,1-.9-.13Zm16.54-1.92a4.35,4.35,0,0,1-2.3-1.49,4.85,4.85,0,0,1-1.67-3.45,2.78,2.78,0,0,1,.22-1.54,1.89,1.89,0,0,1,.55-.76c.43-.26,1.28-.05,2.26.55,1.32.85,1.92,1.79,2.69,4.09.42,1.28.46,1.79.21,2.26-.34.68-.81.73-2,.34ZM6.14,28.41a1.29,1.29,0,0,1-.64-.34c-.22-.22-.26-.34-.26-.9a3.67,3.67,0,0,1,.56-2,2.69,2.69,0,0,1,3.28-.47c.64.3.68.34.68.73a2.65,2.65,0,0,1-1,1.92,2.93,2.93,0,0,1-2.64,1Zm9-5.8a1.11,1.11,0,0,1-.55-1.23,3.58,3.58,0,0,1,1-2.09,2.37,2.37,0,0,1,2.13-1c1.19-.09,1.28,0,1.28,1.06a2.27,2.27,0,0,1-.3,1.32,5.05,5.05,0,0,1-1.75,2,2,2,0,0,1-1.79-.05ZM5.84,20.69A1,1,0,0,1,5,19.59,3.57,3.57,0,0,1,6.27,17.2c1-1,1.66-1.41,2.42-1.32,1.16.08,1.58,1,1.24,2.47a4,4,0,0,1-2.09,2.09,2.73,2.73,0,0,1-2,.25Zm27.62-4.3a6.34,6.34,0,0,1-2.22-1.62,3.56,3.56,0,0,1-1.11-2.56,1.72,1.72,0,0,1,.39-1.32,3.82,3.82,0,0,1,.76-.85c.34-.26.47-.3,1.2-.3,1.44,0,2,.47,2.77,2s.76,2.38.21,3.45a2.63,2.63,0,0,1-1.32,1.24,4.55,4.55,0,0,1-.68-.09ZM15.6,14.73a1.06,1.06,0,0,1-.68-1,6,6,0,0,1,1.36-3.07,4.79,4.79,0,0,1,1.58-1.32c1.15-.77,2-.18,2,1.36a4,4,0,0,1-1.32,3.07,3.66,3.66,0,0,1-2.9,1ZM75.69,58.28a2.83,2.83,0,0,0,.85-.68c.6-.68.77-.72,1.45-.25,1,.68,1.75.47,3.8-1a17.8,17.8,0,0,0,1.79-1.54c.38-.42,1.49-1.53,2.47-2.51,2.21-2.18,3.92-4,4.86-5.12s1.23-1.49,3.28-3.7a13.1,13.1,0,0,0,3.24-4.91,8.21,8.21,0,0,0,.42-2.38,18.68,18.68,0,0,0-.59-3.45c-.43-1.58-.9-3.2-1.11-3.92-.13-.43-.38-1.33-.51-2s-.39-1.57-.56-2.13a33.18,33.18,0,0,1-1.06-4,28,28,0,0,0-1.49-5.37c-.22-.51-.43-1-.47-1.15-.34-1.1-1.41-2.81-1.66-2.77A11,11,0,0,0,88.56,13c-.89.86-2.13,2-2.72,2.52s-1.33,1.11-1.54,1.28-1,.81-1.75,1.4a16.73,16.73,0,0,0-1.87,1.67c-.9,1.06-1.32,1.44-1.49,1.4-.34-.08-.26-.25.29-1,.3-.43.73-.94.9-1.15a9.8,9.8,0,0,1,1.24-1.28c.51-.47,1.62-1.49,2.47-2.34s1.83-1.75,2.17-2.05c1.37-1.19,2.35-2.39,2.35-2.94s-.56-.9-1.84-1.11c-.38-.08-.93-.17-1.23-.26L84.3,8.76c-1.06-.3-5.28-1.49-6.22-1.7a12.08,12.08,0,0,1-1.58-.51,32.44,32.44,0,0,0-4-1.2A17.64,17.64,0,0,0,65.12,5,11.87,11.87,0,0,0,61.37,6.8c-.55.38-1.06.77-1.15.85s-.77.69-1.53,1.32A45.37,45.37,0,0,0,54,13.28c-.43.47-1.54,1.58-2.52,2.47A41.72,41.72,0,0,1,47.61,19a13.37,13.37,0,0,0-4,3.71,4.16,4.16,0,0,0-.85,2.94,17.85,17.85,0,0,0,.94,4.94c.21.77.47,1.66.51,2,.3,1.41,1.49,5.88,1.62,6.27.08.21.38,1,.64,1.83s.55,1.66.68,2,.38,1.15.64,2,.51,1.71.6,2,.25,1,.38,1.62a12.54,12.54,0,0,0,1.32,4.18A6.92,6.92,0,0,0,53,55.05a25.74,25.74,0,0,0,5.71,1.27c.94.13,2.9.52,3.79.73s3.2.55,4.86.77c2.39.29,3.15.38,4,.51a17.19,17.19,0,0,0,2.39.17,6.32,6.32,0,0,0,2-.22Zm-8.52-5.11a3.64,3.64,0,0,1-2.3-2.09,4.22,4.22,0,0,1-.26-1.57l0-1.2.34-.38c.34-.39.34-.39,1.19-.39a3,3,0,0,1,2.43,1.07,5.11,5.11,0,0,1,1.41,2.69,2.56,2.56,0,0,1-.68,1.49,2.39,2.39,0,0,1-2.09.38ZM55,50.1c-1.66-.81-3.2-3.15-3.07-4.6a2.27,2.27,0,0,1,.38-1c.3-.47.39-.52.77-.56.64,0,1.19.3,2,1.24a10.42,10.42,0,0,1,1.83,2.64,2,2,0,0,1,.21,1.32c0,.64-.08.77-.38,1s-.94.35-1.79,0ZM81.91,49c-.68-.6-1.1-3.79-.64-4.73a1.62,1.62,0,0,1,2-.81c1.41.51,1.62,3.45.43,5.12a1.3,1.3,0,0,1-1.84.42Zm-7.07-1.49A13.84,13.84,0,0,1,73,43.2c-.17-.64-.46-1.62-.64-2.26a19.56,19.56,0,0,1-.63-2.56,16.43,16.43,0,0,0-.77-3c-.09-.22-.3-.86-.51-1.45a14.33,14.33,0,0,0-2.09-4,7,7,0,0,0-3.88-1.19,41,41,0,0,1-4.69-.86c-4.13-1-5.24-1.23-5.92-1.32s-1.62-.25-3.2-.59c-.25-.05-1.11-.13-1.92-.22a18.5,18.5,0,0,1-3.41-.51c-.12,0-.17-.13-.17-.3s.13-.25.81-.25a14,14,0,0,1,1.84.13c.59.08,1.45.21,1.91.29s1.58.3,2.43.52a21.25,21.25,0,0,0,2.43.46c1.24.18,3.28.6,4.73.94a13.76,13.76,0,0,0,5,.47,5.39,5.39,0,0,1,2.21,0,4.65,4.65,0,0,0,2.48,0,6.19,6.19,0,0,0,2.25-1.23c1.54-1.2,1.92-1.45,2.18-1.45s.3.08.3.17-.26.64-1.33,1.7-1.27,1.54-1,3a15.43,15.43,0,0,1,.26,2A16.61,16.61,0,0,0,72,33.86a34.32,34.32,0,0,1,.86,3.5,13.34,13.34,0,0,0,.34,1.49c0,.13.17.68.3,1.24s.34,1.36.42,1.79.26,1.23.39,1.79.38,1.49.55,2.08c.43,1.41.51,2,.3,2,0,0-.17-.17-.3-.34Zm-15.51-2.9A5.24,5.24,0,0,1,57.62,43a4.56,4.56,0,0,1-1.28-3.58c.09-.34.22-.46.6-.72a2.83,2.83,0,0,1,.72-.3,4.71,4.71,0,0,1,1.75.77,9,9,0,0,1,1.66,2.22c.86,1.53.39,3.15-.93,3.32a1.2,1.2,0,0,1-.81-.13Zm5.07-4.9a4.45,4.45,0,0,1-2.26-2c-.64-1.23-.73-3-.13-3.45s1.62-.3,2.86.9a10.94,10.94,0,0,1,1.36,1.53c.77,1.15.85,2.69.17,3.33-.43.34-.81.29-2-.26Zm20.41-1c-.38-.26-.42-.39-.85-2.52a5,5,0,0,1-.17-2.43,4.15,4.15,0,0,1,.77-2.38,1.43,1.43,0,0,1,2.21.47,5.5,5.5,0,0,1,.73,2.55,11.5,11.5,0,0,1-.68,3.33c-.47.93-1.37,1.36-2,1ZM51.7,37a5.45,5.45,0,0,1-3-2.22,3.64,3.64,0,0,1-.77-2.73c.09-1.06.3-1.4,1-1.53s1.79.51,2.77,1.49c1.92,2,2.48,3.24,2,4.39-.39.81-.77.94-2,.6Zm36-10.27a4.21,4.21,0,0,1-.94-1.88,4.87,4.87,0,0,1-.25-2.13c0-1.28.25-1.83.85-2.34.81-.69,1.53-.13,2.22,1.57A4,4,0,0,1,90,24c0,1.7-.59,2.9-1.53,3-.39.08-.47,0-.77-.3ZM64.44,18.9a2.79,2.79,0,0,1-2.09-1.44c-.3-.64-.25-.94.3-1.62A6.83,6.83,0,0,1,66,13.62a4.8,4.8,0,0,1,3.75.55c1.92,1.2.42,3.5-2.86,4.44a5,5,0,0,1-2.47.29Z"/></g></g></svg>