<svg xmlns="http://www.w3.org/2000/svg" viewBox="0 0 100 77.37"><g id="Layer_2" data-name="Layer 2"><g id="Layer_1-2" data-name="Layer 1"><path d="M17,60.22a4.8,4.8,0,0,1,0-6.75,4.7,4.7,0,0,1,6.68,0,4.8,4.8,0,0,1,0,6.75A4.68,4.68,0,0,1,17,60.22Zm31.21,0a4.8,4.8,0,0,0,0-6.75,4.7,4.7,0,0,0-6.68,0,4.8,4.8,0,0,0,0,6.75A4.68,4.68,0,0,0,48.19,60.22Zm0-24.77a4.8,4.8,0,0,0,0-6.75,4.68,4.68,0,0,0-6.68,0,4.8,4.8,0,0,0,0,6.75A4.7,4.7,0,0,0,48.19,35.45ZM35.92,47.83a4.79,4.79,0,0,0,0-6.74,4.67,4.67,0,0,0-6.67,0,4.79,4.79,0,0,0,0,6.74A4.67,4.67,0,0,0,35.92,47.83ZM23.66,35.45a4.8,4.8,0,0,0,0-6.75,4.68,4.68,0,0,0-6.68,0,4.8,4.8,0,0,0,0,6.75A4.7,4.7,0,0,0,23.66,35.45ZM54.83,4.61a27.33,27.33,0,0,0-7.17,0C44.64,5,43,5.45,44,5.76s4.15.34,7.17,0S55.81,5,54.83,4.61ZM0,11.55H65.17V77.37H0ZM5.66,44.48A26.93,26.93,0,1,0,32.57,17.27,27.06,27.06,0,0,0,5.66,44.48Zm82.11,2.4c-.94,2.17-.94,5.18,0,6.75s2.53,1.1,3.48-1.07.94-5.18,0-6.75S88.76,44.71,87.77,46.88ZM100,1.14V67L66.3,77.37V11.55ZM97.09,35c0-15-6.22-25.27-13.92-22.91S69.25,28.55,69.25,43.56s6.22,25.27,13.92,22.91S97.09,50,97.09,35ZM81.43,36.4c-1,2.17-1,5.22,0,6.78s2.49,1.11,3.48-1.06.94-5.19,0-6.79S82.38,34.27,81.43,36.4ZM75.06,26c-1,2.17-1,5.18,0,6.74s2.53,1.11,3.47-1.07.94-5.18,0-6.74S76,23.78,75.06,26ZM98.79,0,65.17,10.4H0L33.62,0Zm-37,1.37c-13.28,0-29.62,1.72-36.45,3.81S23.7,9,37,9,66.6,7.32,73.43,5.18,75.09,1.37,61.81,1.37Z"/></g></g></svg>