<svg xmlns="http://www.w3.org/2000/svg" viewBox="0 0 82.1 100"><defs><style>.cls-1{fill-rule:evenodd;}</style></defs><g id="Layer_2" data-name="Layer 2"><g id="Layer_1-2" data-name="Layer 1"><path class="cls-1" d="M81.81,69.63,42.48.84a1.66,1.66,0,0,0-2.9,0L.23,69.76a1.68,1.68,0,0,0,1.43,2.52H80.44A1.7,1.7,0,0,0,81.81,69.63ZM45.76,58.22H36.34V54.57h2.32V31.32H36.34V27.7H43.4V54.57h2.36ZM7.59,17.65C5,19,5.17,19.27,4.83,22L.47,67.28,38.12,1.39ZM19.7,25.16a4.08,4.08,0,0,1-2.22,1,1.08,1.08,0,0,1,1.06,1.21,6.74,6.74,0,0,1-1,2.89,10.56,10.56,0,0,1-3,3.48A5.8,5.8,0,0,1,11,34.87c-1.22,0-1.94-.34-2.14-1.1s.1-1.83,1-3.28l.41-.75H12.4l-.37.62a3.93,3.93,0,0,0-.65,1.86c0,.38.27.58.78.58a2.16,2.16,0,0,0,1.47-.55,7.86,7.86,0,0,0,1.54-2.13,4.78,4.78,0,0,0,.92-2.38c-.11-.38-.55-.55-1.37-.55h-.17l1.09-1.93h.11a3.53,3.53,0,0,0,2-.52,7.35,7.35,0,0,0,1.67-2.17,4.52,4.52,0,0,0,.72-1.82c0-.38-.24-.55-.75-.55a2.34,2.34,0,0,0-1.44.58,7.26,7.26,0,0,0-1.4,1.83l-.27.48H14.18l.34-.62a10,10,0,0,1,2.73-3.24,5.72,5.72,0,0,1,3.3-1.07c1.2,0,1.91.38,2.12,1.11s-.1,1.79-.89,3.2A10,10,0,0,1,19.7,25.16ZM77.24,22c-.31-2.72-.14-3-2.73-4.34L44,1.42,81.64,67.25ZM69.77,34.22h0l-1.2-1.89h1.27l-1.57-2.55H63.9l-1.26-2-1.57-9.58h2.35l6,9.75h1.16l1.16,1.86H70.62l1.53,2.55h1.16l1.16,1.9Zm-6.28-12.3,3.65,6H64.45ZM38.63,98.77c2.32,1.58,2.56,1.65,4.64.14L79,73.31H3.09Zm7.91-21.36v3.44h-2.9V79H39.17l4.75,4.44a14.38,14.38,0,0,1,1.91,2.17,3.72,3.72,0,0,1,.57,1.79A2.54,2.54,0,0,1,45,89.74a7,7,0,0,1-3.82.86,7.89,7.89,0,0,1-4.13-.89A3,3,0,0,1,35.66,87V86.2h3.17v.65a2,2,0,0,0,.48,1.48,2.35,2.35,0,0,0,1.6.48,2.27,2.27,0,0,0,1.44-.38,1.51,1.51,0,0,0,.47-1.2,2.93,2.93,0,0,0-.61-1.62,11.25,11.25,0,0,0-1.91-2.14L35.56,79V77.41Z"/></g></g></svg>