<svg xmlns="http://www.w3.org/2000/svg" viewBox="0 0 91.1 100"><defs><style>.cls-1{fill:#020203;}</style></defs><g id="Layer_2" data-name="Layer 2"><g id="Layer_1-2" data-name="Layer 1"><path class="cls-1" d="M33.9,18.74,8.47,70.27a3.87,3.87,0,0,0,1.76,5.19l48.63,24a5.1,5.1,0,0,0,6.84-2.32L89.37,49.22A4.66,4.66,0,0,0,87.25,43L36.43,17.89A1.9,1.9,0,0,0,33.9,18.74ZM31.41,70.31a5.13,5.13,0,1,1-2.05-7A5.13,5.13,0,0,1,31.41,70.31Zm36.3-23.72a5.13,5.13,0,1,1,2.05,7A5.15,5.15,0,0,1,67.71,46.59Zm-7.14,33a5.13,5.13,0,1,1-7,2.05A5.13,5.13,0,0,1,60.57,79.6ZM46.77,53.86a5.13,5.13,0,1,1,2,7A5.13,5.13,0,0,1,46.77,53.86Zm-3.3-25.13a5.13,5.13,0,1,1-7,2.05A5.13,5.13,0,0,1,43.47,28.73ZM32.75,14.06,28.26,2.75a1.3,1.3,0,0,0-2.37-.1L.94,53.18A9.11,9.11,0,0,0,.6,60.45L4.2,69.9A1.52,1.52,0,0,0,7,70L32.59,18.17A5.08,5.08,0,0,0,32.75,14.06ZM17.89,36.19c-1.28,2.71-3.09,4.53-4.05,4.08s-.71-3,.57-5.72S17.5,30,18.46,30.47,19.16,33.48,17.89,36.19Zm18.34-20L89.52,42.5A1.09,1.09,0,0,0,91,41.13L87.18,31.08a10.15,10.15,0,0,0-5-5.47L30.52.1a.94.94,0,0,0-1.29,1.19l5.09,12.82A3.93,3.93,0,0,0,36.23,16.19ZM70.1,26.05c.55-1.16,3.08-1.11,5.63.11s4.18,3.15,3.63,4.31-3.08,1.12-5.64-.1S69.54,27.22,70.1,26.05ZM44.53,12.53c.55-1.16,3.07-1.12,5.63.1s4.18,3.15,3.63,4.32-3.08,1.11-5.64-.11S44,13.69,44.53,12.53Z"/></g></g></svg>