<svg xmlns="http://www.w3.org/2000/svg" viewBox="0 0 86.82 100"><g id="Layer_2" data-name="Layer 2"><g id="Layer_1-2" data-name="Layer 1"><path d="M22.49,56a4.18,4.18,0,0,0-4.23-.35,4.16,4.16,0,0,0-1.81,3.83,11.46,11.46,0,0,0,5.26,9.11,5.22,5.22,0,0,0,2.56.77,3.26,3.26,0,0,0,1.66-.43,4.14,4.14,0,0,0,1.82-3.82A11.46,11.46,0,0,0,22.49,56Zm2.66,11.58a2.67,2.67,0,0,1-2.66-.34A10.05,10.05,0,0,1,18,59.49,2.68,2.68,0,0,1,19,57a1.75,1.75,0,0,1,.89-.22,3.62,3.62,0,0,1,1.78.56,10.07,10.07,0,0,1,4.48,7.76A2.68,2.68,0,0,1,25.15,67.59ZM86.43,24.71h0L43.8.1A.83.83,0,0,0,43,.1L.39,24.71a.79.79,0,0,0-.39.68V74.61a.79.79,0,0,0,.39.68L43,99.9a.76.76,0,0,0,.39.1.9.9,0,0,0,.39-.1L86.43,75.29a.79.79,0,0,0,.39-.68V25.39A.79.79,0,0,0,86.43,24.71Zm-43-23L84.47,25.39,43.41,49.1,2.34,25.39ZM1.56,26.74,5.42,29,42.63,50.45V97.87L1.56,74.16ZM44.19,97.87V50.45L85.25,26.74V74.16ZM68.56,55.66a4.18,4.18,0,0,0-4.23.35,11.46,11.46,0,0,0-5.26,9.11,4.14,4.14,0,0,0,1.82,3.82,3.26,3.26,0,0,0,1.66.43,5.22,5.22,0,0,0,2.56-.77,11.46,11.46,0,0,0,5.26-9.11A4.16,4.16,0,0,0,68.56,55.66ZM64.33,67.25a2.22,2.22,0,0,1-3.7-2.13,10.08,10.08,0,0,1,4.48-7.76,2.21,2.21,0,0,1,3.7,2.13A10.05,10.05,0,0,1,64.33,67.25ZM55.23,48a4.18,4.18,0,0,0-4.22.34,11.49,11.49,0,0,0-5.26,9.11,4.17,4.17,0,0,0,1.81,3.83,3.26,3.26,0,0,0,1.66.43,5.22,5.22,0,0,0,2.57-.77,11.49,11.49,0,0,0,5.26-9.11A4.17,4.17,0,0,0,55.23,48ZM51,59.56a2.69,2.69,0,0,1-2.67.34,2.72,2.72,0,0,1-1-2.48,10.08,10.08,0,0,1,4.48-7.76,3.69,3.69,0,0,1,1.78-.56,1.69,1.69,0,0,1,.88.22,2.7,2.7,0,0,1,1,2.48A10.07,10.07,0,0,1,51,59.56Zm30.87,3.8a4.13,4.13,0,0,0-4.22.34,11.46,11.46,0,0,0-5.26,9.11,4.17,4.17,0,0,0,1.82,3.83,3.25,3.25,0,0,0,1.65.43,5.14,5.14,0,0,0,2.57-.78,11.46,11.46,0,0,0,5.26-9.11A4.14,4.14,0,0,0,81.88,63.36ZM77.66,75A2.22,2.22,0,0,1,74,72.81a10.07,10.07,0,0,1,4.48-7.76,3.69,3.69,0,0,1,1.78-.56,1.75,1.75,0,0,1,.89.22,2.7,2.7,0,0,1,1,2.47A10.09,10.09,0,0,1,77.66,75ZM38.15,28.88a11.53,11.53,0,0,0,10.52,0,4.18,4.18,0,0,0,2.41-3.49,4.18,4.18,0,0,0-2.41-3.49,11.49,11.49,0,0,0-10.52,0,4.16,4.16,0,0,0-2.41,3.49A4.18,4.18,0,0,0,38.15,28.88Zm.78-5.63a10.08,10.08,0,0,1,9,0,2.72,2.72,0,0,1,1.63,2.14,2.69,2.69,0,0,1-1.63,2.13,10.05,10.05,0,0,1-9,0,2.69,2.69,0,0,1-1.63-2.13A2.72,2.72,0,0,1,38.93,23.25ZM64.8,28.88a11.53,11.53,0,0,0,10.52,0,4.18,4.18,0,0,0,2.41-3.49,4.18,4.18,0,0,0-2.41-3.49,11.49,11.49,0,0,0-10.52,0,4.18,4.18,0,0,0-2.41,3.49A4.18,4.18,0,0,0,64.8,28.88Zm.78-5.63a10.08,10.08,0,0,1,9,0,2.72,2.72,0,0,1,1.63,2.14,2.69,2.69,0,0,1-1.63,2.13,10,10,0,0,1-9,0A2.69,2.69,0,0,1,64,25.39,2.72,2.72,0,0,1,65.58,23.25ZM38.15,13.49a11.45,11.45,0,0,0,10.52,0A4.18,4.18,0,0,0,51.08,10a4.18,4.18,0,0,0-2.41-3.49,11.49,11.49,0,0,0-10.52,0A4.18,4.18,0,0,0,35.74,10,4.18,4.18,0,0,0,38.15,13.49Zm.78-5.62a10.08,10.08,0,0,1,9,0A2.69,2.69,0,0,1,49.52,10a2.72,2.72,0,0,1-1.63,2.14,10.08,10.08,0,0,1-9,0A2.72,2.72,0,0,1,37.3,10,2.69,2.69,0,0,1,38.93,7.87ZM22,21.9a11.49,11.49,0,0,0-10.52,0,4.18,4.18,0,0,0-2.41,3.49,4.18,4.18,0,0,0,2.41,3.49,10.72,10.72,0,0,0,5.26,1.27A10.75,10.75,0,0,0,22,28.88a4.16,4.16,0,0,0,2.4-3.49A4.15,4.15,0,0,0,22,21.9Zm-.78,5.63a10.08,10.08,0,0,1-9,0,2.72,2.72,0,0,1-1.63-2.14,2.72,2.72,0,0,1,1.63-2.14,9.21,9.21,0,0,1,4.48-1.05,9.24,9.24,0,0,1,4.48,1.05,2.7,2.7,0,0,1,1.62,2.14A2.7,2.7,0,0,1,21.24,27.53Zm22.17,18a10.72,10.72,0,0,0,5.26-1.28,4.15,4.15,0,0,0,2.41-3.48,4.15,4.15,0,0,0-2.41-3.49,11.49,11.49,0,0,0-10.52,0,4.16,4.16,0,0,0-2.41,3.49,4.15,4.15,0,0,0,2.41,3.48A10.72,10.72,0,0,0,43.41,45.54Zm-4.48-6.9a10.08,10.08,0,0,1,9,0,2.7,2.7,0,0,1,1.63,2.14,2.69,2.69,0,0,1-1.63,2.13,10.08,10.08,0,0,1-9,0,2.69,2.69,0,0,1-1.63-2.13A2.69,2.69,0,0,1,38.93,38.64Z"/></g></g></svg>