<svg xmlns="http://www.w3.org/2000/svg" viewBox="0 0 100 98.39"><g id="Layer_2" data-name="Layer 2"><g id="Layer_1-2" data-name="Layer 1"><path d="M12.34,72.84a.79.79,0,0,1-.13.83.68.68,0,0,1-.83.14c-.07,0-.16-.09-.2-.18a.67.67,0,0,1-.06-.5.87.87,0,0,1,.26-.5.49.49,0,0,1,.52-.14A.65.65,0,0,1,12.34,72.84Zm.48-1.75a.47.47,0,0,0-.51.14.89.89,0,0,0-.27.5.8.8,0,0,0,.08.5.44.44,0,0,0,.2.18.68.68,0,0,0,.83-.14.75.75,0,0,0,.11-.83A.63.63,0,0,0,12.82,71.09Zm-1.71,2.84a.49.49,0,0,0-.52.14.9.9,0,0,0-.26.5.86.86,0,0,0,.07.5.43.43,0,0,0,.2.18.67.67,0,0,0,.83-.14.81.81,0,0,0,.12-.83A.67.67,0,0,0,11.11,73.93Zm-1.5-4.6a.42.42,0,0,0-.45.07.52.52,0,0,0-.22.41.67.67,0,0,0,.13.53.69.69,0,0,0,.11.12.49.49,0,0,0,.58,0,.63.63,0,0,0,.13-.85A.72.72,0,0,0,9.61,69.33Zm4.49.93a.59.59,0,0,0,.64,0,.39.39,0,0,0,.16-.3.59.59,0,0,0-.1-.34.67.67,0,0,0-.62-.34.41.41,0,0,0-.41.39A.65.65,0,0,0,14.1,70.26Zm-2.78-.61a.58.58,0,0,0,.43.07.38.38,0,0,0,.29-.5.69.69,0,0,0-.58-.47.61.61,0,0,0-.18,0,.25.25,0,0,0-.13.09.39.39,0,0,0-.11.49A.67.67,0,0,0,11.32,69.65Zm-1.26-2.43a.66.66,0,0,0,.55,0,.29.29,0,0,0,.16-.34.47.47,0,0,0-.28-.37,2.34,2.34,0,0,0-.33-.09.36.36,0,0,0-.43.32.49.49,0,0,0,.06.23A.75.75,0,0,0,10.06,67.22ZM12.7,70a.62.62,0,0,0,.55,0,.25.25,0,0,0,.16-.33.6.6,0,0,0-.31-.37l-.23-.09a.25.25,0,0,0-.26,0h0a.34.34,0,0,0-.12.53A.63.63,0,0,0,12.7,70Zm-1.25-2.47a.62.62,0,0,0,.56,0,.25.25,0,0,0,.16-.33.59.59,0,0,0-.32-.37,1.45,1.45,0,0,0-.22-.09.29.29,0,0,0-.27,0h0a.33.33,0,0,0-.11.51A.59.59,0,0,0,11.45,67.54Zm-3.57.15,0,0a.57.57,0,0,0,.14.69.41.41,0,0,0,.5-.06.53.53,0,0,0,0-.73A.37.37,0,0,0,7.88,67.69Zm5-.36a.25.25,0,0,0-.14.16.32.32,0,0,0,0,.27.65.65,0,0,0,.58.39h.11a.26.26,0,0,0,.21-.33.69.69,0,0,0-.33-.43A.48.48,0,0,0,12.84,67.33Zm-.09,3.22c-.53-.12-1.05-.28-1.57-.44L10.93,70s0,.06,0,.06l.08,0c.27.11.53.2.8.29l1,.27c.32.07.64.15,1,.2s.88.16,1.33.24l.15,0a.19.19,0,0,0,.09,0s0-.06-.07-.06l-1.51-.27Zm-2.1-.83c0-.06,0-.1,0-.14s-.18-.33-.26-.5c-.35-.67-.71-1.34-1-2-.13-.24-.22-.49-.34-.74l0-.06s0,.06,0,.1.1.25.15.36c.39.85.84,1.66,1.27,2.47.08.15.17.3.25.46S10.6,69.72,10.65,69.72ZM99.6,54.41c-1.19,3.05-2.43,6.09-3.88,9-1.6,3.24-3.37,6.41-5.22,9.53-2.27,3.88-4.67,7.68-7,11.5a17.28,17.28,0,0,1-1.11,1.67c-1.57,2-3.15,4-4.77,6a15.78,15.78,0,0,1-9.8,5.8,39.8,39.8,0,0,1-7.4.49,106.61,106.61,0,0,1-14.16-1.53,85.81,85.81,0,0,1-19.35-5.07,34.68,34.68,0,0,1-6.21-3.27,30.43,30.43,0,0,1-6.1-5.46,52.67,52.67,0,0,1-5.19-7.58,5.82,5.82,0,0,1-.89-.3,2.81,2.81,0,0,1-.62-.32,2.67,2.67,0,0,1-.61-.55,5.73,5.73,0,0,1-.64-1,5.64,5.64,0,0,1-.48-1.06,7.91,7.91,0,0,1-.33-1.44,1.84,1.84,0,0,1,.1-.9c.07-.16.13-.34.2-.51a59.55,59.55,0,0,1-2.65-6.51A70.35,70.35,0,0,1,.19,48.65a17.22,17.22,0,0,1,.92-8.88c.79-1.91,1.5-3.85,2.3-5.77a21.87,21.87,0,0,1,1.27-2.51c.89-1.57,1.82-3.13,2.73-4.68l-.13-.1c2.47-3.66,4.86-7.39,7.46-11a112.39,112.39,0,0,1,9.4-11.49c1.88-2,4-3.57,6.8-3.91a36.51,36.51,0,0,1,8-.23A98.86,98.86,0,0,1,62.38,5.34,77.85,77.85,0,0,1,74,10.41a25.52,25.52,0,0,1,8.18,6.67c1.89,2.43,3.78,4.86,5.52,7.4a105.7,105.7,0,0,1,10.51,19.4A22,22,0,0,1,100,51.26,7.58,7.58,0,0,1,99.6,54.41ZM13.23,67.11a6.37,6.37,0,0,0-.79-.37c-.3-.11-.62-.22-.93-.31a9.41,9.41,0,0,0-2-.37,3.65,3.65,0,0,0-.66,0,.84.84,0,0,0-.55.32L8,66.82c-.13.15-.25.29-.37.45l-.4.54c-.14.19-.28.39-.4.59.23.5.48,1,.73,1.51a.54.54,0,0,1,.28-.32.37.37,0,0,1,.47.1.7.7,0,0,1,0,.78.38.38,0,0,1-.31.22H7.94c.32.63.66,1.26,1,1.88l0-.07.41-.65.51-.79.51-.84.1-.13s0,0,.08,0a.69.69,0,0,1,0,.1c-.34.52-.66,1-1,1.57L9,72.67c.56,1,1.13,2,1.73,3a6.73,6.73,0,0,0,.89.1,4.31,4.31,0,0,0,.88,0,1.48,1.48,0,0,0,.76-.29,1.14,1.14,0,0,0,.16-.15l.36-.41a12.16,12.16,0,0,0,.75-1.14,10.16,10.16,0,0,0,.81-1.48l.39-.91a.7.7,0,0,0,0-.29,2.88,2.88,0,0,0-.17-.64,6.58,6.58,0,0,1-.73-.81,7.52,7.52,0,0,1-1-2A2.73,2.73,0,0,0,13.23,67.11Zm-3.9,8.25c-.33-.56-.65-1.12-1-1.68l0,.08c-.09.14-.17.28-.27.41a2.61,2.61,0,0,1-.19.27h0a.2.2,0,0,1,0-.07c.11-.16.21-.34.32-.51l.16-.26,0-.07c-.1-.16-.19-.32-.28-.48a.49.49,0,0,1-.58,0A.69.69,0,0,1,7.3,73a.67.67,0,0,1-.13-.53A.52.52,0,0,1,7.39,72l0,0c-.21-.4-.42-.79-.62-1.19a.38.38,0,0,1-.41,0,.55.55,0,0,1-.13-.69l0-.05a.43.43,0,0,1,.09-.1l-.2-.42,0,.09c-.08.21-.17.42-.23.64a1,1,0,0,0,0,.34,7.29,7.29,0,0,0,.33,1.58A7.46,7.46,0,0,0,7.12,74a2.6,2.6,0,0,0,.57.62,3.31,3.31,0,0,0,.9.54A6.44,6.44,0,0,0,9.33,75.36ZM99.05,50.7a26.93,26.93,0,0,0-2.42-8.06A122.14,122.14,0,0,0,81.66,18,25.82,25.82,0,0,0,74,11.55a52.07,52.07,0,0,0-7.81-3.68c-3.06-1.19-6.15-2.24-9.3-3.15A87.1,87.1,0,0,0,37.47,1a36.62,36.62,0,0,0-6.62.28A8.5,8.5,0,0,0,25.4,4.4C24.22,5.76,23,7.09,21.84,8.47s-2.48,3-3.66,4.53c-1.34,1.76-2.59,3.58-3.93,5.33A94.63,94.63,0,0,0,7.7,28.46a61.64,61.64,0,0,0-4.1,8.06c-.84,2.11-1.69,4.21-2.34,6.39a9.21,9.21,0,0,0-.33,3.38A65.43,65.43,0,0,0,4.22,62a59.62,59.62,0,0,0,2.54,6.3c.17-.26.34-.52.53-.77a10.47,10.47,0,0,1,.94-1.15A1.1,1.1,0,0,1,8.92,66a2.74,2.74,0,0,1,.81,0,10.06,10.06,0,0,1,2.36.52,8.7,8.7,0,0,1,1.16.52,3,3,0,0,1,.54.37,7.56,7.56,0,0,1-.18-3.11c.22-1.56.6-3.17,2.15-4.11s2.91-1.4,4.52-.59A6.48,6.48,0,0,1,23,61.85a6.36,6.36,0,0,1-1.27,8.51,5,5,0,0,1-5.78.43l-.18-.18a1.76,1.76,0,0,1,.09.51.85.85,0,0,1,0,.32,7.89,7.89,0,0,1-.39.9,8,8,0,0,1-.53,1c-.24.39-.48.77-.71,1.16,0,0-.07.11-.12.17s-.31.4-.48.6a1.65,1.65,0,0,1-1,.58,3.73,3.73,0,0,1-.75,0c-.36,0-.72-.06-1.08-.11.77,1.26,1.57,2.49,2.4,3.72a29.7,29.7,0,0,0,5.65,6.2,34.41,34.41,0,0,0,9,5.29,82.84,82.84,0,0,0,18.76,4.91,101.92,101.92,0,0,0,11.15,1.37,46.08,46.08,0,0,0,8.63-.1,15.29,15.29,0,0,0,7.61-2.92,12.66,12.66,0,0,0,1.62-1.49c1.21-1.34,2.38-2.71,3.55-4.09,3.23-3.79,5.35-8.33,7.41-11.25a126.77,126.77,0,0,0,8.29-14.7c1.4-3,2.65-6,3.91-9A6,6,0,0,0,99.05,50.7ZM60.36,64.9a4.71,4.71,0,0,0-5.08,1.34,9.44,9.44,0,0,0-2.67,5.05,7.74,7.74,0,0,0,.73,4.87,4.77,4.77,0,0,0,2,1.79,6.55,6.55,0,0,0,8.23-1.39,7.51,7.51,0,0,0,1.24-8.23C64,66.37,62.24,65.51,60.36,64.9ZM69.66,51a4.71,4.71,0,0,0-5.08,1.34,9.46,9.46,0,0,0-2.66,5,7.74,7.74,0,0,0,.72,4.86,4.83,4.83,0,0,0,2,1.79,6.54,6.54,0,0,0,8.23-1.39,7.47,7.47,0,0,0,1.24-8.22C73.29,52.47,71.55,51.62,69.66,51ZM52.57,79.23a4.69,4.69,0,0,0-5.08,1.33,9.49,9.49,0,0,0-2.66,5,7.76,7.76,0,0,0,.72,4.87,5,5,0,0,0,2,1.79,6.57,6.57,0,0,0,8.23-1.39A7.5,7.5,0,0,0,57,82.66C56.2,80.69,54.46,79.84,52.57,79.23ZM37.82,33.57c-1.61-.81-3.1-.29-4.53.59s-1.92,2.56-2.15,4.12a7.29,7.29,0,0,0,1.25,5.34,9,9,0,0,0,1.1,1.18,5,5,0,0,0,5.78-.42,6.35,6.35,0,0,0,1.27-8.51A6.61,6.61,0,0,0,37.82,33.57ZM82.35,42.8a6.3,6.3,0,0,0,6.42-.2,3.39,3.39,0,0,0,1.57-2.89,5.78,5.78,0,0,0-.92-3.43,6.49,6.49,0,0,0-6.19-3.34,4.06,4.06,0,0,0-4.08,3.91C78.88,39.58,80.31,41.41,82.35,42.8ZM25.07,44.87a6.9,6.9,0,0,0-.44-7.71,3.71,3.71,0,0,0-4.63-1,5.94,5.94,0,0,0-3.27,5.94,8.44,8.44,0,0,0,.6,2.51A3.82,3.82,0,0,0,22,47.12,4.21,4.21,0,0,0,25.07,44.87Zm29.67-8.18a5.4,5.4,0,0,0,4.24.7,3.91,3.91,0,0,0,3-5,6.65,6.65,0,0,0-5.73-4.58,5,5,0,0,0-1.9.46,5.46,5.46,0,0,0-1.31.9,3.66,3.66,0,0,0-1,4.79A6.18,6.18,0,0,0,54.74,36.69ZM42.25,12.56a6.06,6.06,0,0,0,5.46-.14A3,3,0,0,0,49.32,9a4.3,4.3,0,0,0-2.79-3.63,20.92,20.92,0,0,0-3.25-1A3.58,3.58,0,0,0,39,7.68,4.2,4.2,0,0,0,39.56,10,6.27,6.27,0,0,0,42.25,12.56Zm26.23,27.6a6.17,6.17,0,0,0,5.56.38,2.44,2.44,0,0,0,1.57-3.23,5.68,5.68,0,0,0-3.15-3.68,21.55,21.55,0,0,0-2.21-.94,2.72,2.72,0,0,0-2.66.2l-.18.09a3.3,3.3,0,0,0-1.15,5.2A5.52,5.52,0,0,0,68.48,40.16ZM56.17,15.82a6.17,6.17,0,0,0,5.56.38A2.44,2.44,0,0,0,63.3,13a5.75,5.75,0,0,0-3.15-3.69,22.46,22.46,0,0,0-2.21-.93,2.76,2.76,0,0,0-2.67.21l-.18.09A3.28,3.28,0,0,0,54,13.84,5.45,5.45,0,0,0,56.17,15.82Zm-51.42,25c-.12.16-.2.35-.31.52a5.46,5.46,0,0,0,1.33,6.83,4,4,0,0,0,5-.62,5.19,5.19,0,0,0-.09-7.2A3.77,3.77,0,0,0,4.75,40.79ZM21.58,24.52a4,4,0,0,0,4.94-.62,5.19,5.19,0,0,0-.08-7.2,3.78,3.78,0,0,0-5.88.48c-.12.15-.2.34-.31.51A5.46,5.46,0,0,0,21.58,24.52Zm52.81-2.65a3.16,3.16,0,0,0,1.19-.12c1.38-.44,2.53-1.39,2-3.32a6.69,6.69,0,0,0-3.38-4.31c-1.36-1-2.85-.83-4.37-.36a2,2,0,0,0-1.41,1.55,3.61,3.61,0,0,0,.15,2.55A6.66,6.66,0,0,0,74.39,21.87Zm-27,19.24a.48.48,0,0,0-.79,0,9.42,9.42,0,0,0-1,1.3c-1.73,2.79-3.41,5.6-5.16,8.39-1.63,2.61-3.32,5.2-5,7.8-1.36,2.15-2.74,4.3-4.1,6.44q-4.18,6.63-8.35,13.28Q21.51,80.94,20,83.53a1.82,1.82,0,0,0-.15.66l.41.16c.63-.86,1.29-1.7,1.87-2.59.9-1.33,1.75-2.7,2.6-4.06q6.26-10,12.49-19.94L47,42.06A10.42,10.42,0,0,0,47.43,41.11ZM79.25,47.9c-3.46-.69-6.91-1.47-10.34-2.3-5.26-1.26-10.44-2.78-15.59-4.42-.8-.25-1.57-.61-2.46-1,0,.33,0,.58.12.67a4,4,0,0,0,.85.5,64.35,64.35,0,0,0,7.94,2.77c3.34.92,6.67,1.87,10,2.68,3.18.77,6.39,1.42,9.6,2,4.4.84,8.81,1.58,13.21,2.36a10.46,10.46,0,0,0,1.59.18,3.22,3.22,0,0,0,.84-.27,4.44,4.44,0,0,0-.83-.48C89.23,49.73,84.23,48.86,79.25,47.9ZM32.37,7.73C36.2,16.07,40.64,24.1,45,32.18c.82,1.54,1.66,3.07,2.48,4.59.14.28.25.62.72.68.29-.59-.07-1-.29-1.48C47,34.31,46.08,32.68,45.2,31c-3.46-6.65-7-13.29-10.36-20-1.22-2.38-2.23-4.86-3.35-7.29a3.35,3.35,0,0,0-.39-.59.57.57,0,0,0-.33.87C31.28,5.28,31.82,6.52,32.37,7.73Z"/></g></g></svg>