<svg xmlns="http://www.w3.org/2000/svg" viewBox="0 0 100 99.94"><g id="Layer_2" data-name="Layer 2"><g id="Layer_1-2" data-name="Layer 1"><path d="M97.32,37.22A16,16,0,0,0,94.07,34Q73.73,18.46,53.42,2.87a13.32,13.32,0,0,0-18.58,2c-.47.56-.9,1.16-1.35,1.75Q18.37,26.37,3.24,46.09A17.83,17.83,0,0,0,.76,50.35,13.69,13.69,0,0,0,3.11,63.47a10.78,10.78,0,0,0,1.64,1.44L26,81.22h0c6.94,5.32,14,10.53,20.8,16a13.39,13.39,0,0,0,15.57.42,16.37,16.37,0,0,0,3.25-3.19l6-7.86Q84.33,70,97,53.52A13.84,13.84,0,0,0,100,46,12.73,12.73,0,0,0,97.32,37.22ZM29.78,60.52A7.4,7.4,0,0,1,19.38,62a7.3,7.3,0,0,1-1.47-10.42c2.64-3.69,8.14-3.61,10.42-1.46C31.18,51.94,32.49,57,29.78,60.52ZM42.5,18.2c1.9-3.07,7-4.06,10.38-1.38a7.41,7.41,0,1,1-9.19,11.61A7.14,7.14,0,0,1,42.5,18.2ZM56.88,81.3a7.41,7.41,0,0,1-10.4,1.47A7.29,7.29,0,0,1,45,72.35c2.64-3.69,8.14-3.61,10.42-1.46C58.28,72.71,59.59,77.75,56.88,81.3ZM82,48.52A7.36,7.36,0,0,1,71.44,49.7a7.15,7.15,0,0,1-1.19-10.23c1.9-3.07,7-4.06,10.38-1.38A7.33,7.33,0,0,1,82,48.52Z"/></g></g></svg>