<svg xmlns="http://www.w3.org/2000/svg" viewBox="0 0 100 88.13"><g id="Layer_2" data-name="Layer 2"><g id="Layer_1-2" data-name="Layer 1"><path d="M99.9,45,76.44,1.73a.76.76,0,0,0-.67-.41h0L26.56,0a.85.85,0,0,0-.7.38L.12,42.33a.79.79,0,0,0,0,.8L23.56,86.4a.78.78,0,0,0,.67.41l49.21,1.32h0a.79.79,0,0,0,.68-.38l25.74-42A.77.77,0,0,0,99.9,45ZM27,1.6,74.35,2.86,49.56,43.26l-34.17-.92L2.19,42ZM24.74,85.24,2.15,43.58l19,.5,28.37.76L72.11,86.5Zm48.77.51-4.28-7.89L50.92,44.09,75.7,3.7,98.29,45.35ZM59.43,36.63c-1.39-.07-2.63.79-3.57,2.32a11.48,11.48,0,0,0-.28,10.53A4.19,4.19,0,0,0,59,52h.09a4.23,4.23,0,0,0,3.48-2.32,11.53,11.53,0,0,0,.28-10.54A4.18,4.18,0,0,0,59.43,36.63Zm1.8,12.21a2.72,2.72,0,0,1-2.17,1.56A2.68,2.68,0,0,1,57,48.72a10,10,0,0,1,.24-8.94,2.72,2.72,0,0,1,2.12-1.56h0a2.67,2.67,0,0,1,2.08,1.67A10.06,10.06,0,0,1,61.23,48.84Zm28.55,4h.09a4.2,4.2,0,0,0,3.47-2.32A11.48,11.48,0,0,0,93.63,40a4.19,4.19,0,0,0-3.44-2.51,4.15,4.15,0,0,0-3.56,2.32,11.48,11.48,0,0,0-.28,10.53A4.16,4.16,0,0,0,89.78,52.81ZM88,40.6A2.71,2.71,0,0,1,90.11,39h0a2.67,2.67,0,0,1,2.08,1.67A10,10,0,0,1,92,49.66a2.74,2.74,0,0,1-2.17,1.56,2.67,2.67,0,0,1-2.07-1.67A10.06,10.06,0,0,1,88,40.6ZM34.47,59.3A4.22,4.22,0,0,0,30.58,61a4.17,4.17,0,0,0,.23,4.25,11.47,11.47,0,0,0,9,5.51H40a4.11,4.11,0,0,0,3.7-1.72,4.19,4.19,0,0,0-.23-4.25A11.49,11.49,0,0,0,34.47,59.3Zm7.85,8.93a2.64,2.64,0,0,1-2.49,1,10,10,0,0,1-7.63-4.68,2.71,2.71,0,0,1-.27-2.66,2.62,2.62,0,0,1,2.34-1h.16a10.05,10.05,0,0,1,7.62,4.68A2.68,2.68,0,0,1,42.32,68.23Zm-15.9,4.19a4.29,4.29,0,0,0-3.89,1.72,4.15,4.15,0,0,0,.23,4.24,11.49,11.49,0,0,0,9,5.51h.19a4.09,4.09,0,0,0,3.7-1.72,4.15,4.15,0,0,0-.23-4.24A11.49,11.49,0,0,0,26.42,72.42Zm7.86,8.92a2.65,2.65,0,0,1-2.5,1,10.07,10.07,0,0,1-7.62-4.68A2.68,2.68,0,0,1,23.89,75a2.61,2.61,0,0,1,2.49-1A10,10,0,0,1,34,78.68,2.71,2.71,0,0,1,34.28,81.34Zm4.35-33.43a4.15,4.15,0,0,0,.23,4.24,11.47,11.47,0,0,0,9,5.51H48a4.07,4.07,0,0,0,3.69-1.72,4.15,4.15,0,0,0-.23-4.24,11.47,11.47,0,0,0-9-5.51A4.25,4.25,0,0,0,38.63,47.91ZM50.1,52.45a2.68,2.68,0,0,1,.27,2.66,2.65,2.65,0,0,1-2.49,1,10.09,10.09,0,0,1-7.63-4.68A2.71,2.71,0,0,1,40,48.74a2.6,2.6,0,0,1,2.34-1h.15A10,10,0,0,1,50.1,52.45ZM19.93,27.6h.2a11.5,11.5,0,0,0,9.05-5,4.17,4.17,0,0,0,.46-4.23,4.18,4.18,0,0,0-3.79-1.92,11.69,11.69,0,0,0-9.26,5,4.19,4.19,0,0,0-.46,4.23A4.19,4.19,0,0,0,19.93,27.6Zm-2-5.32A10.12,10.12,0,0,1,25.65,18h.16a2.71,2.71,0,0,1,2.44,1.09,2.68,2.68,0,0,1-.42,2.64A9.91,9.91,0,0,1,20,26a2.7,2.7,0,0,1-2.44-1.1A2.68,2.68,0,0,1,17.94,22.28Zm32.75,6.15h.2a11.53,11.53,0,0,0,9.06-5,4.15,4.15,0,0,0,.45-4.22,4.15,4.15,0,0,0-3.79-1.93,11.75,11.75,0,0,0-9.26,5,4.17,4.17,0,0,0-.45,4.23A4.18,4.18,0,0,0,50.69,28.43Zm-2-5.33a10.11,10.11,0,0,1,7.71-4.26h.16A2.7,2.7,0,0,1,59,19.93a2.7,2.7,0,0,1-.41,2.64,10,10,0,0,1-7.87,4.27,2.71,2.71,0,0,1-2.44-1.09A2.72,2.72,0,0,1,48.7,23.1Zm10-7.79h.2a11.52,11.52,0,0,0,9.06-5,4.17,4.17,0,0,0,.45-4.23,4.16,4.16,0,0,0-3.79-1.92,11.54,11.54,0,0,0-9.26,5A4.17,4.17,0,0,0,55,13.39,4.16,4.16,0,0,0,58.74,15.31Zm-2-5.32a10.11,10.11,0,0,1,7.71-4.27h.16a2.74,2.74,0,0,1,2.44,1.1,2.69,2.69,0,0,1-.42,2.64,9.8,9.8,0,0,1-7.86,4.26,2.7,2.7,0,0,1-2.44-1.09A2.68,2.68,0,0,1,56.75,10ZM28,14.49h.21a11.51,11.51,0,0,0,9-5,4.17,4.17,0,0,0,.46-4.23A4.18,4.18,0,0,0,33.9,3.31a11.78,11.78,0,0,0-9.26,5,4.2,4.2,0,0,0-.46,4.23A4.17,4.17,0,0,0,28,14.49ZM26,9.17A10,10,0,0,1,33.85,4.9,2.69,2.69,0,0,1,36.29,6a2.68,2.68,0,0,1-.41,2.64A10,10,0,0,1,28,12.9a2.66,2.66,0,0,1-2.43-1.1A2.66,2.66,0,0,1,26,9.17ZM8.09,38.79a4.15,4.15,0,0,0,3.79,1.93h.2a11.52,11.52,0,0,0,9.06-5,4.19,4.19,0,0,0,.45-4.23,4.16,4.16,0,0,0-3.79-1.93,11.69,11.69,0,0,0-9.26,5A4.17,4.17,0,0,0,8.09,38.79Zm1.8-3.39a10.1,10.1,0,0,1,7.71-4.27h.16a2.68,2.68,0,0,1,2.44,1.1,2.71,2.71,0,0,1-.41,2.64,9.92,9.92,0,0,1-7.87,4.26A2.7,2.7,0,0,1,9.48,38,2.7,2.7,0,0,1,9.89,35.4Zm32.75,6.14h.2a11.52,11.52,0,0,0,9.06-5,4.19,4.19,0,0,0,.46-4.23,4.19,4.19,0,0,0-3.8-1.92,11.46,11.46,0,0,0-9.26,5,4.17,4.17,0,0,0-.45,4.23A4.19,4.19,0,0,0,42.64,41.54Zm-2-5.32A10.11,10.11,0,0,1,48.37,32h.15A2.71,2.71,0,0,1,51,33.05a2.68,2.68,0,0,1-.41,2.64A9.91,9.91,0,0,1,42.68,40a2.68,2.68,0,0,1-2.43-1.1A2.68,2.68,0,0,1,40.66,36.22Z"/></g></g></svg>