<svg xmlns="http://www.w3.org/2000/svg" viewBox="0 0 100 86.85"><defs><style>.cls-1{fill:#020203;}</style></defs><g id="Layer_2" data-name="Layer 2"><g id="Layer_1-2" data-name="Layer 1"><path class="cls-1" d="M81.58,43,44.69,3.59a3.51,3.51,0,0,0-5-.17L1.19,39.49A3.76,3.76,0,0,0,1,44.82L36.93,83.19a3.72,3.72,0,0,0,5.26.16l39.3-37.14A2.27,2.27,0,0,0,81.58,43Zm-60.5-4.65a4.87,4.87,0,1,1-6.5-2.3A4.87,4.87,0,0,1,21.08,38.36Zm13.38,13A4.87,4.87,0,1,1,28,49,4.87,4.87,0,0,1,34.46,51.32Zm13,13.13a4.88,4.88,0,1,1-6.5-2.3A4.87,4.87,0,0,1,47.48,64.45ZM40.12,19.82a4.87,4.87,0,1,1-6.49-2.3A4.86,4.86,0,0,1,40.12,19.82Zm13.39,13a4.87,4.87,0,1,1-6.5-2.3A4.86,4.86,0,0,1,53.51,32.78Zm13,13.13A4.87,4.87,0,1,1,60,43.61,4.88,4.88,0,0,1,66.52,45.91Zm16.85.79L42.84,84.64a1.28,1.28,0,0,0,.88,2.21l10.16,0a8.17,8.17,0,0,0,5.55-2.21L99.2,47.37a1,1,0,0,0-.69-1.78l-12.17-.05A4.32,4.32,0,0,0,83.37,46.7ZM61.75,78.12c-1.92,1.88-4.18,2.69-5,1.81s0-3.11,1.94-5,4.19-2.69,5-1.81S63.68,76.25,61.75,78.12Zm19.78-19c-1.93,1.88-4.18,2.69-5,1.81s0-3.1,1.94-5,4.19-2.69,5-1.81S83.46,57.21,81.53,59.08ZM99,44.23a1,1,0,0,0,.76-1.75L62.42,2.63A8.3,8.3,0,0,0,56.32,0L45.9.05A1.15,1.15,0,0,0,45.06,2L83.29,42.84a4.23,4.23,0,0,0,3.06,1.33ZM74.06,23.7C73,24.77,70.51,24,68.58,22s-2.6-4.45-1.5-5.51,3.54-.33,5.47,1.66S75.15,22.64,74.06,23.7Z"/></g></g></svg>