<svg xmlns="http://www.w3.org/2000/svg" viewBox="0 0 100 87.86"><g id="Layer_2" data-name="Layer 2"><g id="Layer_1-2" data-name="Layer 1"><path d="M48.84,43.77c0-.06.09-.12.13-.19a3,3,0,0,1-.07.32S48.83,43.8,48.84,43.77ZM55.59,13c1.34-2.4,0-4.68-2.74-4.79a8,8,0,0,0-.85,0A8.16,8.16,0,0,0,46.63,11a4.79,4.79,0,0,0-.9,1.44c-1,2.64.4,4.42,2.8,4.51A7.39,7.39,0,0,0,55.59,13ZM42.71,33.55a7.11,7.11,0,0,0-1.63-.33c-2.87.31-6.06,2.15-7,5a2.42,2.42,0,0,0,.37,2.4,3.79,3.79,0,0,0,3.79,1.5,8.28,8.28,0,0,0,6.1-4.25,1.14,1.14,0,0,0,.1-.19C45.39,35.61,44.46,34.28,42.71,33.55ZM39.92,22.74a2.21,2.21,0,0,0-.34-2.2,4,4,0,0,0-3.81-1.64,8.32,8.32,0,0,0-6.18,4.35,2.94,2.94,0,0,0,2.19,4.39A7.58,7.58,0,0,0,39.92,22.74ZM20.78,59.08c-2.84.56-3.79,3.23-2,5.5C20,66.14,23,67.92,25.59,67.46a3.76,3.76,0,0,0,2.9-.93A3,3,0,0,0,29,62.48,8.14,8.14,0,0,0,20.78,59.08Zm0-28.43c-.29,0-.57,0-.86,0-2.87,0-4.81,1.61-6.26,3.84a3.06,3.06,0,0,0,2.69,4.82,7.6,7.6,0,0,0,7.13-4.26C24.68,32.85,23.34,30.73,20.79,30.65ZM79.62,45.09c0-.5,0-1-.07-1.5a7.94,7.94,0,0,0-1.1-4.7,9.25,9.25,0,0,0-1.61-2,3.78,3.78,0,0,0-5.68.36,7.75,7.75,0,0,0-2,4.43A11.46,11.46,0,0,0,70,48a7.6,7.6,0,0,0,2.21,2.84,3.67,3.67,0,0,0,5.19-.36A7.53,7.53,0,0,0,79.62,45.09ZM86.37,50A7.82,7.82,0,0,0,85,48.32a3.19,3.19,0,0,0-4.79.3,6.54,6.54,0,0,0-1.64,3.74,9.67,9.67,0,0,0,.67,5.3,6.23,6.23,0,0,0,1.86,2.39,3.08,3.08,0,0,0,4.38-.31,6.36,6.36,0,0,0,1.88-4.54c0-.42,0-.84-.06-1.26A6.68,6.68,0,0,0,86.37,50ZM99.81,39.25a116.85,116.85,0,0,1-4.94,14.58,276.35,276.35,0,0,1-15,30.33c-.28.49-.56,1-.89,1.46a3.08,3.08,0,0,1-2.48,1.45c-1.71.08-3.42.29-5.14.37-7.56.35-15.14.61-22.71.25-3-.14-6-.39-9-.62-2.21-.17-4.41-.39-6.61-.57a5.75,5.75,0,0,1-3.36-1.24c-1.8-1.53-3.61-3-5.33-4.65-2.56-2.39-4.92-5-7.32-7.52a119,119,0,0,1-12-14.52C3.6,56.38,2.18,54.15.71,52a3.37,3.37,0,0,1-.5-3.23c.36-1,.53-2.07.81-3.1A104.29,104.29,0,0,1,11.43,20.36,109.64,109.64,0,0,1,17.48,11c1.55-2.15,3.17-4.22,4.9-6.23a5.09,5.09,0,0,1,3.26-1.87c2.76-.37,5.5-.92,8.26-1.2C39.23,1.16,44.57.75,49,.37,55.5.24,61.07.14,66.64,0a5.66,5.66,0,0,1,4.07,1.54A111,111,0,0,1,81.58,12.47c2.52,2.92,5,5.9,7.37,8.91,3.61,4.52,6.93,9.27,10.22,14A4.33,4.33,0,0,1,99.81,39.25ZM96,38c-.42-.67-.88-1.46-1.41-2.21C91.32,31.12,88,26.49,84.37,22.05c-2.57-3.15-5.1-6.35-7.92-9.28-1.94-2-3.91-4-5.87-6a10.33,10.33,0,0,0-.9-.73,11.3,11.3,0,0,0-1,1.21c-4.7,8-9.38,16-13.62,24.3-1.86,3.62-3.56,7.31-5.35,11l0,.07c-.14.33-.17.78-.67.82a1.61,1.61,0,0,0,0-.22.71.71,0,0,1,0-.14v-.27a1.11,1.11,0,0,1,.07-.37c3.15-8.33,5.9-16.82,9.47-25a138.47,138.47,0,0,1,6-12.53,2,2,0,0,0,.15-.55C64.46,3.85,64,4,63.59,4c-6.56.27-13.12.5-19.68.84-3,.15-6,.5-8.95.79q-2.88.28-5.74.67a17.74,17.74,0,0,0-2.51.52,4.47,4.47,0,0,0-1,.39A3.32,3.32,0,0,0,24.5,8.33,3.65,3.65,0,0,0,24,9.54a8.23,8.23,0,0,1,1.43-1.17,8.79,8.79,0,0,1,2.81-1.14A5,5,0,0,1,31,7.31a2.87,2.87,0,0,1,1.85,3.92,7.06,7.06,0,0,1-4.59,4.15,6.17,6.17,0,0,1-4,.18,2.69,2.69,0,0,1-1.79-3.51c.18-.54.36-1.08.53-1.62-.18.24-.35.47-.54.7l-.54.7-1.09,1.39c-.72.93-1.43,1.87-2.08,2.85a96.39,96.39,0,0,0-6.86,11.86,89.65,89.65,0,0,0-6,15.33c-.33,1.23-.55,2.49-.85,3.85a3,3,0,0,0,.85.18c2.87-.39,5.7.11,8.55.25s5.55.4,8.33.63c1.7.13,3.41.28,5.11.44l11.72,1.16c.78.07,1.57,0,2.35.08A13.28,13.28,0,0,1,43.4,50c-.13.24-.19.44-.27.45-3.55.35-7.09.82-10.65,1C24.06,52,15.7,53.16,7.12,53.23a3.05,3.05,0,0,0,.29.83c3.53,4.59,7.12,9.12,10.59,13.75,2.62,3.51,5.81,6.5,8.78,9.68a47.89,47.89,0,0,0,4.68,4.07,4.94,4.94,0,0,0,3.17,1.07c2.07.07,4.12.37,6.19.55,1.27.1,2.55.16,3.84.23.14,0,.29,0,.43,0,3.55.47,7.13.28,10.7.43,5.3.22,10.57-.24,15.86-.4.11,0,.22-.14.46-.31-4.06-4.39-8-8.83-11.81-13.43S53,60.38,49.56,55.46c.68-.18.81.33,1.08.56a13.25,13.25,0,0,1,1.07,1l.9.92c.35.36.69.73,1,1.08s.6.62.91.92.7.71,1.07,1l.94.88c.37.33.73.67,1.1,1l.93.89c.32.29.63.58.93.88s.72.7,1.08,1.05.6.61.91.91.73.69,1.08,1l.93.89,1.09,1,.92.89c.37.34.73.69,1.1,1l1,.86,1,.86c.37.33.73.67,1.11,1s.66.56,1,.83l1.15,1c.32.28.65.57,1,.84l1.17.93c.34.27.68.52,1,.8s.75.65,1.13,1,.62.55.93.83c1.23-1.25,3.68-5.56,7.48-13.46q3.38-7,6.49-14.22A103.16,103.16,0,0,0,96,38ZM47.71,74a2.28,2.28,0,0,0-.2,2.43A5.36,5.36,0,0,0,49.73,79c1.58.88,3.19,1.66,4.94,1.26a4.78,4.78,0,0,0,3.17-.79,2.79,2.79,0,0,0,1.08-3.73,5.68,5.68,0,0,0-1.59-2,8.43,8.43,0,0,0-6.44-1.7A4.52,4.52,0,0,0,47.71,74ZM49,43.58a.44.44,0,0,0,.08-.11l0,0C49,43.49,49,43.54,49,43.58ZM69.58,32.91c0-.5,0-1-.07-1.5a8.09,8.09,0,0,0-1.1-4.7,9.3,9.3,0,0,0-1.62-2,3.77,3.77,0,0,0-5.67.36,7.77,7.77,0,0,0-2,4.43,11.47,11.47,0,0,0,.8,6.27,7.5,7.5,0,0,0,2.21,2.84,3.66,3.66,0,0,0,5.19-.37A7.49,7.49,0,0,0,69.58,32.91Z"/></g></g></svg>