<svg xmlns="http://www.w3.org/2000/svg" viewBox="0 0 87.34 100"><g id="Layer_2" data-name="Layer 2"><g id="Layer_1-2" data-name="Layer 1"><path d="M87.34,53.14c-.51-4.14-1-8.27-1.53-12.41A5.2,5.2,0,0,0,84,37.31L70.22,25,51.44,8.35C48.73,6,46,3.55,43.28,1.19a4,4,0,0,0-5.9.24C35.77,3.2,34.19,5,32.61,6.79q-8.4,9.53-16.76,19.06Q8.41,34.33,1,42.78A3.73,3.73,0,0,0,0,45.67q.49,5.71,1,11.44a11,11,0,0,0,3.66,7.42c3.58,3.21,7.23,6.35,10.84,9.54L38.66,94.44c1.59,1.4,3.16,2.81,4.76,4.2a4.6,4.6,0,0,0,6.92-.44q6.12-6.87,12.2-13.77Q73.7,71.83,84.85,59.22A8.72,8.72,0,0,0,87.34,53.14ZM4,58.25c-.23.27-.44.68-.87.58s-.44-.62-.47-1C2.3,53.91,1.9,50,1.57,46A4.25,4.25,0,0,1,2.8,42.86L17.49,26.27Q26.24,16.38,35,6.49c1.15-1.3,2.31-2.61,3.48-3.91.24-.26.46-.66.89-.54s.45.62.49,1c.33,3.29.65,6.59,1,9.88.06.64.13,1.28.2,1.92a4.32,4.32,0,0,1-1.19,3l-7.74,8.74Q24,35.73,15.87,44.9,10,51.58,4,58.25Zm80.09-.37Q76,67.08,67.87,76.28,60.45,84.68,53,93.07c-1.16,1.31-2.33,2.61-3.46,3.94a3.59,3.59,0,0,1-2.88,1.39,3.49,3.49,0,0,1-2.34-.9L28.67,83.68,9.87,67.05c-1.52-1.34-3-2.67-4.55-4a2.53,2.53,0,0,1-.22-3.77C6.31,57.79,7.61,56.4,8.87,55q8.79-10,17.59-19.91L40.91,18.74c.86-1,1.2-1,2.21-.12,3.53,3.1,7,6.21,10.54,9.32L72.06,44.2q6,5.29,12,10.61C85.33,56,85.3,56.57,84.13,57.88Zm1.09-4.38c-.47.21-.78-.25-1.09-.52q-10.84-9.6-21.68-19.21c-6-5.32-12-10.69-18.09-15.89-1.89-1.61-2-3.59-2.2-5.68l-.87-8.87c0-.39-.2-.85.22-1.1s.82.12,1.12.39l10.06,8.89L71.15,27.83Q76.91,32.92,82.65,38a5,5,0,0,1,1.72,3.18c.42,3.71.78,7.43,1.16,11.09C85.48,52.74,85.72,53.28,85.22,53.5ZM41.36,56.68a4.89,4.89,0,0,1,9.78,0,4.89,4.89,0,1,1-9.78,0Zm29.31,1a4.89,4.89,0,0,1-9.78-.1,5,5,0,0,1,5-4.81A4.94,4.94,0,0,1,70.67,57.67ZM28.89,58.75A4.89,4.89,0,1,1,24,54,4.9,4.9,0,0,1,28.89,58.75Zm14-16.48a4.84,4.84,0,1,1,4.93-4.79A4.88,4.88,0,0,1,42.9,42.27ZM51.73,79a4.79,4.79,0,0,1-4.91,4.85,4.84,4.84,0,0,1,0-9.68A4.85,4.85,0,0,1,51.73,79ZM25.34,22A7.49,7.49,0,0,1,28,17.63a5.37,5.37,0,0,1,2.82-1.46,1.54,1.54,0,0,1,1.92,1.64,3.24,3.24,0,0,1-.25,1.35,7.83,7.83,0,0,1-5,4.9C26.15,24.46,25.29,23.71,25.34,22ZM13.83,39.31c0,2.45-3.08,5.88-5.53,6.21A1.55,1.55,0,0,1,6.39,44a3.33,3.33,0,0,1,.25-1.43,8.77,8.77,0,0,1,3.65-4.36,3.8,3.8,0,0,1,1.64-.58C13.2,37.45,13.84,38,13.83,39.31Zm55.32-8A1.84,1.84,0,0,1,67,33.37a7.71,7.71,0,0,1-5.86-5.21,1.78,1.78,0,0,1,2-2.37C65.59,25.84,68.86,28.81,69.15,31.3Z"/></g></g></svg>