<svg xmlns="http://www.w3.org/2000/svg" viewBox="0 0 82.41 100"><defs><style>.cls-1{fill:#141515;}</style></defs><g id="Layer_2" data-name="Layer 2"><g id="Layer_1-2" data-name="Layer 1"><path class="cls-1" d="M82.15,69.12,77.62,22.38h0l-.06-.57c-.25-2.4-.41-3-3.06-4.35L42.73.53A2.45,2.45,0,0,0,41.2,0h0a2.55,2.55,0,0,0-1.43.47l-31.81,17c-2.66,1.34-2.82,1.95-3.11,4.33l-.07.58v0L.2,69.27a2.47,2.47,0,0,0,.15,2.24,2.37,2.37,0,0,0,1.77,1.17L38.33,98.63h0c1.3.89,2.1,1.36,2.9,1.36a4.81,4.81,0,0,0,2.63-1.23Q54.66,91,65.46,83.3L80.22,72.73a2.45,2.45,0,0,0,1.89-1.33A2.48,2.48,0,0,0,82.15,69.12ZM73.71,19c1.94,1,1.94,1,2.16,3L80.1,65.55,44.6,3.45ZM6.43,22.55,6.5,22c.25-2,.25-2,2.21-3L37.79,3.43,20.12,34.37,2.26,65.61Zm58,59.38L42.88,97.39c-1.63,1.19-1.63,1.19-3.58-.14L5.11,72.75H77.29ZM80.61,70.62a.77.77,0,0,1-.69.43H2.71a1.09,1.09,0,0,0-.26,0,.82.82,0,0,1-.65-.37.77.77,0,0,1,0-.8l24.91-43.6L40.47,2.17c.1-.12.2-.25.3-.36a.83.83,0,0,1,.42-.12.72.72,0,0,1,.42.13l0,0a1,1,0,0,1,.2.24L80.6,69.88l.06.09A.84.84,0,0,1,80.61,70.62ZM42.27,53.48h3.29v1.76H36.84a3.1,3.1,0,0,1,.23-1.52c.17-.17.68-.24,1.58-.24h1.68V34.55l-1.95.3V33.23l1.95-.34h.13a3.43,3.43,0,0,1,1.58.2,2.1,2.1,0,0,1,.23,1.22Zm-22.8-27.7a2.08,2.08,0,0,1-.27,1.11c-.2.44-.4.85-.6,1.26a4.4,4.4,0,0,1-1.71,1.69,8.77,8.77,0,0,1-2.31,1.05c-2.05.61-3.29,1.29-3.66,2L9.48,35.7l-.33.47,4.19,2.2-.57,1.16L7.3,36.68l2.38-4.6a5,5,0,0,1,3-2.24c.64-.24,1.24-.44,1.88-.64a4.49,4.49,0,0,0,2.78-1.93,5.7,5.7,0,0,0,.4-.85,1.6,1.6,0,0,0,.07-.74c0-.51-.5-1-1.51-1.56l-1-.51c-.5-.27-.77-.47-.81-.58a1.93,1.93,0,0,1,.31-.91L17,23a8.86,8.86,0,0,1,2,1.43A2,2,0,0,1,19.47,25.78ZM73.39,35.6a2.06,2.06,0,0,1-.54,2.1,5.26,5.26,0,0,1-1.14.81A5.4,5.4,0,0,1,70.6,39c-.27.11-.6.21-.94.31s-.63.17-.8.24l-.54-1.09a21.64,21.64,0,0,0,2.32-.91c.83-.44,1.24-1,1.17-1.49a15.45,15.45,0,0,0-1.48-3.59,13.61,13.61,0,0,0-2-3.29c-.4-.37-1-.33-1.84.11l-1.07.54-.47-6.2-3.26,1.66-.6-1.12,5.13-2.64.5,6.2a4.56,4.56,0,0,1,1-.34,1.41,1.41,0,0,1,.84.07,2.76,2.76,0,0,1,.71.34,3.44,3.44,0,0,1,.67.84A36.51,36.51,0,0,1,71.81,32,23.54,23.54,0,0,1,73.39,35.6ZM35.13,81.11Zm8.38,9.52V83.51l-.13-.77h1.34V81.11H43.38l.13-.74V76.51h-.07a3.11,3.11,0,0,0-1.54.2c-.17.1-.23.51-.23,1.22v2.44l.13.74H35.13l6.1,9.52ZM41.8,82.74l-.13.77v4h-.24L38,82.74Z"/></g></g></svg>