<svg xmlns="http://www.w3.org/2000/svg" viewBox="0 0 86.6 100"><defs><style>.cls-1{fill-rule:evenodd;}</style></defs><g id="Layer_2" data-name="Layer 2"><g id="Layer_1-2" data-name="Layer 1"><path class="cls-1" d="M65,12.5,43.3,0,21.65,12.5,0,25,43.3,50h0L86.6,25ZM24.39,25a7.35,7.35,0,0,1-6.84.07c-1.91-1.11-2-2.93-.11-4.08A7.35,7.35,0,0,1,24.28,21C26.2,22.08,26.25,23.9,24.39,25ZM35.6,9.87h0a7.35,7.35,0,0,1,6.84-.06c1.92,1.11,2,2.93.11,4.07a7.35,7.35,0,0,1-6.84.06C33.8,12.84,33.75,11,35.6,9.87Zm3.56,17.28c-1.92-1.1-2-2.93-.11-4.07A7.35,7.35,0,0,1,45.89,23c1.91,1.11,2,2.93.11,4.07A7.35,7.35,0,0,1,39.16,27.15ZM51,40.41a7.35,7.35,0,0,1-6.84.06c-1.92-1.11-2-2.93-.11-4.07a7.35,7.35,0,0,1,6.84-.07C52.81,37.44,52.86,39.26,51,40.41ZM69.16,29.25a7.38,7.38,0,0,1-6.84.06c-1.92-1.11-2-2.93-.11-4.08a7.38,7.38,0,0,1,6.84-.06C71,26.28,71,28.1,69.16,29.25ZM0,50V75L21.65,87.5,43.3,100V52.06L0,27.06Zm31-1.8a7.36,7.36,0,0,1,3.48,5.89h0c0,2.22-1.56,3.17-3.48,2.13a7.36,7.36,0,0,1-3.47-5.89C27.55,48.12,29.11,47.16,31,48.2ZM34.5,69.45c0,2.22-1.56,3.17-3.48,2.13a7.35,7.35,0,0,1-3.47-5.89h0c0-2.21,1.56-3.16,3.47-2.13A7.36,7.36,0,0,1,34.5,69.45ZM31,78.93a7.33,7.33,0,0,1,3.48,5.89C34.5,87,32.94,88,31,87a7.38,7.38,0,0,1-3.47-5.89C27.55,78.84,29.11,77.89,31,78.93ZM12.28,38.05a7.38,7.38,0,0,1,3.47,5.89c0,2.22-1.56,3.17-3.47,2.13a7.32,7.32,0,0,1-3.47-5.89C8.81,38,10.36,37,12.28,38.05Zm0,15.37h0a7.35,7.35,0,0,1,3.47,5.89c0,2.21-1.56,3.16-3.47,2.13a7.35,7.35,0,0,1-3.47-5.89C8.81,53.33,10.36,52.38,12.28,53.42Zm0,15.36a7.36,7.36,0,0,1,3.47,5.89c0,2.21-1.56,3.17-3.47,2.13a7.35,7.35,0,0,1-3.47-5.89C8.81,68.69,10.36,67.74,12.28,68.78ZM86.6,50V27.06L45.09,51V99L65,87.5,86.6,75V50Zm-29.54.93c1.92-1,3.47-.09,3.47,2.13A7.35,7.35,0,0,1,57.06,59c-1.92,1-3.47.08-3.47-2.13A7.34,7.34,0,0,1,57.06,50.93Zm0,32.28c-1.92,1-3.47.08-3.47-2.13a7.34,7.34,0,0,1,3.47-5.89c1.92-1,3.47-.09,3.47,2.13A7.35,7.35,0,0,1,57.06,83.21ZM75.81,73.06c-1.92,1-3.47.08-3.47-2.13A7.35,7.35,0,0,1,75.81,65c1.92-1,3.47-.08,3.47,2.13A7.34,7.34,0,0,1,75.81,73.06Zm0-24.26c-1.92,1-3.47.08-3.47-2.13a7.35,7.35,0,0,1,3.47-5.89c1.92-1,3.47-.08,3.47,2.13A7.34,7.34,0,0,1,75.81,48.8Z"/></g></g></svg>