<svg xmlns="http://www.w3.org/2000/svg" viewBox="0 0 100 90.57"><g id="Layer_2" data-name="Layer 2"><g id="Layer_1-2" data-name="Layer 1"><path d="M99.89,62.85A146.72,146.72,0,0,1,99,40.91c-.25-5.07.22-10-.21-15-.35-4-2-6.95-5.56-8.92a100.66,100.66,0,0,0-16-7.27C72.06,7.93,66.78,6.44,61.79,4.13a62.52,62.52,0,0,0-8-3.38A12.64,12.64,0,0,0,48.65.06,43.49,43.49,0,0,0,36.14,3.61c-7,3.07-13.88,6.25-20.82,9.39a85.78,85.78,0,0,0-8.74,4.1A9,9,0,0,0,2.2,22.93,60.33,60.33,0,0,0,.76,34.74C.59,39.21.58,43.69.41,48.16.19,53.84.07,59.53,0,65.21c0,4.45,1.88,7.2,6.08,8.68A122.87,122.87,0,0,1,20.66,80c9.26,4.66,19.15,7.44,29.13,10A16.49,16.49,0,0,0,60,89.52c4.85-1.85,9.8-3.42,14.44-5.79,3.24-1.66,6.62-3,10-4.4A97.11,97.11,0,0,0,95.9,73.94a7.22,7.22,0,0,0,3.79-5.59A20.71,20.71,0,0,0,99.89,62.85Zm-1.7,5.8a5,5,0,0,1-2.27,3.59,14.79,14.79,0,0,1-3.13,1.57C86.74,76.17,81,79.22,75,81.56c-5,2-10.18,3.56-15.19,5.59a15.31,15.31,0,0,1-9.74.22,175.63,175.63,0,0,1-33-11.64c-4.07-2-8.15-3.92-12.39-5.48A3.88,3.88,0,0,1,1.8,66.09c0-1.12,0-2.25,0-3.38h0c.19-6.69.3-13.39.61-20.07.23-4.92.75-9.83,1.1-14.75a31.83,31.83,0,0,0,.09-4.14,4.83,4.83,0,0,1,2.17-4.39A16.22,16.22,0,0,1,9.34,17.3c8.38-3.49,16.48-7.6,24.92-11a101.32,101.32,0,0,1,12.42-4A10.54,10.54,0,0,1,53,2.61a31.69,31.69,0,0,1,4.31,1.71c6.4,3.38,13.22,5.66,20,8A107.08,107.08,0,0,1,91.88,18.7c4,2.08,5.54,5.1,5.51,9.37,0,5.39-.32,10.78-.27,16.18,0,6.45.54,12.86,1.17,19.27A22,22,0,0,1,98.19,68.65Zm-37.88-33c.12.39-.32.65-.63.84A9,9,0,0,1,55,37.66c-3-.17-5.92-1.24-8.87-2.13C35.57,32.37,25.34,28.34,15,24.75c-1.42-.49-2.85-.95-4.27-1.44-.26-.09-.69-.16-.63-.49.07-.48.53-.32.82-.25,2,.45,4.09.86,6.1,1.4,6.59,1.78,12.9,4.36,19.33,6.63A140.61,140.61,0,0,0,52,35.34a17.8,17.8,0,0,0,7.34.22C59.66,35.49,60.16,35.17,60.31,35.69Zm-39.4,16a4.32,4.32,0,0,1-4.33,4.54c-2.71,0-5-2.63-5-5.69a4.13,4.13,0,0,1,4.5-4.17A5.06,5.06,0,0,1,20.91,51.69Zm19,5.12c-.06,2.75-1.85,4.68-4.35,4.68a4.35,4.35,0,0,1-4.71-4.55c0-2.95,2-5.11,4.72-5.09C38.13,51.87,40,54,40,56.81ZM56.38,73.06c-.07,2.2.15,4.42.16,6.63a4.2,4.2,0,0,1-1,3.08A15.06,15.06,0,0,1,55,78.32a167.91,167.91,0,0,1,.11-18.77c.14-2.84.11-5.68.1-8.52a39.69,39.69,0,0,1,.27-5c.06-.42,0-1.13.51-1.13s.46.69.48,1.11c.11,1.79.23,3.59.26,5.38C56.87,58.62,56.61,65.83,56.38,73.06ZM47.28,20.2a3.38,3.38,0,0,1,.36-3.67c1.61-2.2,6.43-2,7.83.38A3.14,3.14,0,0,1,54.68,21,7.16,7.16,0,0,1,51,22.07C49.54,21.89,48,21.76,47.28,20.2Zm45.31,4.35a59.93,59.93,0,0,1-9.2,4c-6.27,2.22-12.7,3.92-19,5.95a2.54,2.54,0,0,1-.47.07l-.16-.29a16.78,16.78,0,0,1,3.6-2.14c4.74-2.17,9.79-3.37,14.77-4.81a54.64,54.64,0,0,0,9.4-3.46,3.44,3.44,0,0,1,.69-.28c.37-.08.83-.15,1,.3S92.86,24.4,92.59,24.55ZM82.75,46.83c0,2.29-1.6,4.39-3.4,4.4a3.71,3.71,0,0,1,.25-7.42A2.77,2.77,0,0,1,82.75,46.83Zm0,15.13c-.1,2.36-1.78,4.39-3.54,4.27a4,4,0,0,1-3.34-3.91,3.92,3.92,0,0,1,3.91-3.63A2.91,2.91,0,0,1,82.74,62ZM62.85,52.41A4.5,4.5,0,0,1,67,48.12a2.77,2.77,0,0,1,3,3.07,3.93,3.93,0,0,1-3.63,4.19A3.42,3.42,0,0,1,62.85,52.41ZM70,66.11c0,2.28-1.63,4.19-3.59,4.19s-3.53-1.3-3.52-3A4.43,4.43,0,0,1,67,63.14,2.75,2.75,0,0,1,70,66.11Zm23.5-22.65c0,2-1,3.26-2.77,3.31A3.71,3.71,0,0,1,87,43a3,3,0,0,1,3.08-3.1A3.35,3.35,0,0,1,93.48,43.46Zm0,15.2a2.84,2.84,0,0,1-2.88,3.09A3.81,3.81,0,0,1,87,57.84a2.94,2.94,0,0,1,3.18-3C92.17,54.9,93.51,56.44,93.48,58.66Z"/></g></g></svg>