<svg xmlns="http://www.w3.org/2000/svg" viewBox="0 0 100 98.57"><g id="Layer_2" data-name="Layer 2"><g id="Layer_1-2" data-name="Layer 1"><path d="M98.12,39.08C95,35.29,91.8,31.5,88.49,27.85c-2.53-2.79-5.21-5.45-7.8-8.19-2-2.08-3.93-4.2-5.91-6.28-1.6-1.69-3.25-3.34-4.87-5-.58-.59-1.08-1.25-1.68-1.81C66.68,5.11,65,3.75,63.54,2.25a7.4,7.4,0,0,0-7.22-2c-2.56.53-5.13,1-7.65,1.73a196.5,196.5,0,0,0-26.8,9.47c-1.5.66-2.94,1.48-4.42,2.2a4.09,4.09,0,0,0-2.07,2.2c-1.42,3.5-3.33,6.77-4.59,10.34-.48,1.36-1.18,2.63-1.71,4C8,32.79,7,35.47,6,38.19c-1.24,3.48-2.44,7-3.53,10.51C1.6,51.52.88,54.38.15,57.23a5.38,5.38,0,0,0,.41,3.6A163.78,163.78,0,0,0,10.45,79.6a151.63,151.63,0,0,0,9.37,14c.75,1,1.63,1.85,2.39,2.82a5.67,5.67,0,0,0,4.36,2A41.68,41.68,0,0,0,34,98.38c5.33-.49,10.68-1,16-1.54s10.79-1.24,16.17-2c4-.55,8-1.25,12-2,3.43-.64,3.14-.55,5.1-3.58l.21-.35.13.06q2.26-4.74,4.5-9.49c.87-1.86,1.73-3.74,2.56-5.62.56-1.26,1.09-2.52,1.55-3.81C94,65,95.82,60,97.51,54.94c.86-2.6,1.42-5.3,2.08-8,.16-.6.16-1.22.27-1.82A7,7,0,0,0,98.12,39.08Zm.9,4.66a43.22,43.22,0,0,1-1.36,6.66c-1,3.34-2,6.7-3.07,10-.67,2.08-1.45,4.14-2.23,6.19-.7,1.86-1.46,3.7-2.21,5.54q-1,2.38-2,4.73-1.25,2.84-2.56,5.62c-1.16,2.41-2.35,4.8-3.55,7.21a3.79,3.79,0,0,1-2.87,2.11c-.61.11-1.21.26-1.83.36-1.76.27-3.53.53-5.31.76-6,.84-12,1.77-18,2.46s-12.3,1.29-18.46,1.79c-2.94.24-5.9.18-8.86.22a4.92,4.92,0,0,1-3.95-1.84,72.37,72.37,0,0,1-5.21-6.89A226.85,226.85,0,0,1,1.72,61.22a5.6,5.6,0,0,1-.49-3.78,83.26,83.26,0,0,1,2.2-8.56c.87-2.74,1.73-5.49,2.7-8.2s2-5.26,3-7.87,2.1-5.22,3.19-7.81c.86-2,1.79-4,2.7-6,.4-.87.83-1.74,1.24-2.6a5.16,5.16,0,0,1,3.52-3,6.12,6.12,0,0,0,.75-.33C24.37,11.56,28.15,9.92,32,8.51Q38.71,6.08,45.5,4a87.69,87.69,0,0,1,12-2.9,4.87,4.87,0,0,1,4.21,1.08C63.55,3.73,65.36,5.3,67.09,7c2.26,2.19,4.46,4.45,6.66,6.72Q77.88,18,82,22.35c2.93,3.17,5.86,6.36,8.72,9.58,2.49,2.82,4.93,5.7,7.37,8.58A4,4,0,0,1,99,43.74ZM31.33,24.07a10.08,10.08,0,0,1,1.78-7,9.05,9.05,0,0,1,6.33-4.19A4.56,4.56,0,0,1,43.25,14a6,6,0,0,1,1.94,4.19c.27,2.94-.83,5.51-2.26,8a7,7,0,0,1-4.62,3.53,4.8,4.8,0,0,1-5-1.2A7.25,7.25,0,0,1,31.33,24.07Zm-8.1,49a4.77,4.77,0,0,1-4.95-1.2,7.42,7.42,0,0,1-2-4.4,10.08,10.08,0,0,1,1.78-7,9.09,9.09,0,0,1,6.34-4.2,4.53,4.53,0,0,1,3.8,1.15,6,6,0,0,1,1.94,4.19c.28,2.94-.82,5.51-2.26,8A7,7,0,0,1,23.23,73ZM57,31.39a9.33,9.33,0,0,1,8-9.72,5.45,5.45,0,0,1,5.81,2.92A7.83,7.83,0,0,1,70.27,33a7.88,7.88,0,0,1-8.43,3.78C58.44,36.24,57,34.34,57,31.39ZM53.17,80.18A8,8,0,0,1,47,86.54,5.59,5.59,0,0,1,42,85.09a7.58,7.58,0,0,1-2-3.3,8.8,8.8,0,0,1,1.22-8.38c.32-.45.68-.89,1-1.34a4,4,0,0,1,2.67-1.75,5.37,5.37,0,0,1,3.59.45A8.67,8.67,0,0,1,53.17,80.18ZM14.42,59.91c-1.68,1.53-5.15,1.75-6.67-.8a8,8,0,0,1-.87-1.85,10.14,10.14,0,0,1,1.1-8,9.91,9.91,0,0,1,3.93-3.74A5.83,5.83,0,0,1,14.07,45a3.86,3.86,0,0,1,4,3.4A11.47,11.47,0,0,1,14.42,59.91ZM15,31.49a10.16,10.16,0,0,1,1.09-8A10,10,0,0,1,20,19.76a5.61,5.61,0,0,1,2.15-.59,3.87,3.87,0,0,1,4,3.4,11.52,11.52,0,0,1-3.68,11.57c-1.68,1.54-5.14,1.75-6.66-.81A7.94,7.94,0,0,1,15,31.49Zm58.84.73a4.39,4.39,0,0,1,1.43-.15,6.9,6.9,0,0,1,5.52,3.8,5.11,5.11,0,0,1,.56,3.19A7.24,7.24,0,0,1,77,44.84a6.72,6.72,0,0,1-5.7-.21A5,5,0,0,1,69,41.73a9.63,9.63,0,0,1-.13-4.07A6.94,6.94,0,0,1,73.85,32.22ZM66.47,76.53A5.09,5.09,0,0,1,67,79.71a7.24,7.24,0,0,1-4.4,5.78,6.72,6.72,0,0,1-5.7-.21,5,5,0,0,1-2.25-2.9,9.63,9.63,0,0,1-.13-4.07,6.94,6.94,0,0,1,5-5.44,4.31,4.31,0,0,1,1.42-.13A6.87,6.87,0,0,1,66.47,76.53Zm24.17-34c1.56,1.92,1.48,5.07.22,7.27a12.4,12.4,0,0,1-2,1.7,6.84,6.84,0,0,1-6.33.16,3.61,3.61,0,0,1-2.15-2.6,21.79,21.79,0,0,1-.3-2.43,5.45,5.45,0,0,1,2.58-5.45C85.72,39.11,88.64,40.11,90.64,42.57Zm-12,40.06c-2,3.46-7.67,4.38-10.06.26a6.47,6.47,0,0,1-.87-4,4.63,4.63,0,0,1,1.07-2.84c.53-.54,1-1.1,1.57-1.62a4.32,4.32,0,0,1,3.33-1.36C78.51,73.37,81.28,79,78.68,82.63Zm-20.05-77C47.1,34.41,36.91,63.73,25.87,92.83c-.58-.56-.36-1.06-.19-1.56.68-2,1.36-4,2.07-6q1.68-4.74,3.41-9.48c.92-2.5,1.89-5,2.83-7.5l3.6-9.63q1.26-3.37,2.51-6.75c.89-2.38,1.74-4.77,2.63-7.14s1.74-4.63,2.6-6.94,1.67-4.5,2.51-6.75c.93-2.51,1.85-5,2.8-7.51s1.89-4.86,2.84-7.29c.6-1.53,1.22-3.05,1.84-4.58s1.26-3.18,1.93-4.76c.27-.61.66-1.18,1.09-1.95C58.53,5.37,58.66,5.51,58.63,5.59Z"/></g></g></svg>