<svg xmlns="http://www.w3.org/2000/svg" viewBox="0 0 100 88.31"><g id="Layer_2" data-name="Layer 2"><g id="Layer_1-2" data-name="Layer 1"><path d="M100,54.5c0-4.55-.08-9.1-.23-13.65-.24-7.6-.21-15.22-.73-22.82a1.75,1.75,0,0,0-1.2-1.77c-3.4-1.43-6.87-2.65-10.38-3.76A140.57,140.57,0,0,1,71.31,6.43,112.82,112.82,0,0,0,54.9.39,7.52,7.52,0,0,0,48.79,1a27.37,27.37,0,0,1-3.18,1.4C37.46,5.74,29,8.23,20.63,11A178.6,178.6,0,0,0,3.09,17.57a2,2,0,0,0-1.34,1.86,139,139,0,0,0-.95,15c0,4.42-.07,8.85,0,13.28A143.09,143.09,0,0,1,.12,63.18C-.45,68.92.87,70.92,6.28,73l1.17.41c2.28.77,4.57,1.5,6.82,2.31,8.49,3.07,16.92,6.26,25.75,8.27A46.91,46.91,0,0,1,51,87.5a6.52,6.52,0,0,0,5.38.41c1.45-.5,2.87-1.11,4.35-1.48a141.57,141.57,0,0,0,38-15.63,2,2,0,0,0,1.08-1.9C99.91,64.1,100,59.3,100,54.5ZM16.55,14.07c7-2.61,14.17-4.62,21.07-7.44,4-1.63,7.9-3.42,12-4.82a4.67,4.67,0,0,1,2.67-.14C59.14,3.26,65.64,6,72.16,8.61,79.76,11.68,87.27,15,95.25,17a3,3,0,0,1,.5.27c-2.52,1-4.89,1.93-7.26,2.85C78.79,23.83,69,27.42,59.43,31.36A29.76,29.76,0,0,0,56,33.05a4.21,4.21,0,0,1-4,.14,265.56,265.56,0,0,0-30-11.09Q15.16,20,8.25,18.44A2.17,2.17,0,0,1,7,17.89C10.2,16.45,13.38,15.26,16.55,14.07Zm36,22.71a11.88,11.88,0,0,0,0,2c-.65,13.56-1.16,27.12-1,40.69,0,1.61,0,3.23.13,4.83,0,.88-.23,1-1,.77-9.4-2.8-18.79-5.6-28.08-8.75C16.08,74.11,9.7,71.69,3.43,69a1.89,1.89,0,0,1-1.34-2.15c.6-12.77.69-25.55.85-38.33,0-2.77.16-5.54.19-8.32,0-.9.26-1.14,1.18-.89A403,403,0,0,1,51.56,35.22C52.32,35.53,52.7,35.9,52.54,36.78ZM98.13,67.09c.06,1.94-.14,2.15-2,2.72a14.33,14.33,0,0,0-3.82,2c-5.84,4-12.36,6.48-19,8.67-6,2-12.13,3.6-18.22,5.33-1.07.3-1.31.08-1.38-1-.21-2.89-.13-5.79-.19-9,.24-10.45.5-21.24.72-32,0-2.39,0-4.8-.12-7.19,0-.9.49-1,1.09-1.2a201.2,201.2,0,0,0,22-8.56,169.46,169.46,0,0,1,18.65-7.15c1.63-.48,1.94-.33,1.86,1.41-.28,6-.44,12-.19,18,.28,6.86.76,13.71.62,20.58C98.07,62.13,98.05,64.61,98.13,67.09ZM30.19,51.46c0,3.28-2.29,5.82-5.2,5.81a5.59,5.59,0,0,1-5.77-5.69A5.45,5.45,0,0,1,24.93,46C28.13,46,30.21,48.15,30.19,51.46Zm51.1,1.61a3.64,3.64,0,0,1-3.72,3.68,4.11,4.11,0,0,1-4.27-3.93,3.87,3.87,0,0,1,4-3.77A4,4,0,0,1,81.29,53.07ZM69.2,44a3.64,3.64,0,0,1-3.72,3.8,3.79,3.79,0,0,1-3.77-3.93A3.72,3.72,0,0,1,65.53,40,3.77,3.77,0,0,1,69.2,44Zm23.73,19.2A3.6,3.6,0,0,1,89.17,67C87,67,85,65.25,85,63.35a3.82,3.82,0,0,1,4-3.83A3.87,3.87,0,0,1,92.93,63.23ZM28.31,14.78a5.89,5.89,0,0,1,7-1.54,2.77,2.77,0,0,1,.18,5,7.19,7.19,0,0,1-4,1.16,10.55,10.55,0,0,1-1.7-.24A2.74,2.74,0,0,1,28.31,14.78ZM56,19.6a2.46,2.46,0,0,1,1.32,3.58A5.44,5.44,0,0,1,51.48,26a3.16,3.16,0,0,1-1-5.81,6,6,0,0,1,3.3-1A4.81,4.81,0,0,1,56,19.6ZM66.5,17.33c-.27-1.46.69-2.9,2.45-3.57a5.92,5.92,0,0,1,3.76-.32A3,3,0,0,1,75.09,16a2.8,2.8,0,0,1-1.57,2.85,6.41,6.41,0,0,1-3.41,1C68.05,19.81,66.79,19,66.5,17.33ZM46.87,9.7a2.38,2.38,0,0,1,1.4-2.31,7.67,7.67,0,0,1,5.08-.56,2.54,2.54,0,0,1,.86,4.65,6.65,6.65,0,0,1-3.45,1.08,6.05,6.05,0,0,1-2.55-.65A2.37,2.37,0,0,1,46.87,9.7Z"/></g></g></svg>