<svg xmlns="http://www.w3.org/2000/svg" viewBox="0 0 100 90.18"><g id="Layer_2" data-name="Layer 2"><g id="Layer_1-2" data-name="Layer 1"><path d="M99.89,18.09c-.54-2.24-2.8-3.59-4.45-5L89.35,8l-5.94-5a23.43,23.43,0,0,0-2.25-1.84,6.78,6.78,0,0,0-5.37-1c-.78.19-1.56.36-2.34.57l-6.8,1.82-7.54,2-2.77.74A5.92,5.92,0,0,0,53,8.39,15.32,15.32,0,0,0,51.86,12c-.45,1.92-1,3.87-1.34,5.81s-.85,3.68-1.27,5.52c-.2.94-1.21,7.43-1,7.46l-.36,0-7.57-1.2c-3.47-.55-6.93-1.11-10.4-1.65l-3.38-.53a8,8,0,0,0-5.8,1.18A11.57,11.57,0,0,0,18.46,31c-1,1.16-2,2.32-3,3.47-1.75,2.08-3.52,4.15-5.27,6.23C9,42.22,7.82,43.8,6.62,45.31L2.89,50l-1,1.25A7.23,7.23,0,0,0,0,54.91a9.29,9.29,0,0,0,.82,3.94c1,2.51,2.84,4.65,4.39,6.83,2.36,3.34,4.72,6.67,7.08,10A24,24,0,0,0,15.58,80a12.65,12.65,0,0,0,4.18,2.41c1.9.68,3.86,1.13,5.77,1.77,3.68,1.23,7.36,2.48,11,3.72L41,89.34c.52.18,1,.33,1.54.52a4.5,4.5,0,0,0,3.84-.24,11.15,11.15,0,0,0,2.57-2,11.82,11.82,0,0,0,1.77-2.76L56,75.77c1.75-3,3.52-6,5.28-9.06.6-1,1.19-2.07,1.8-3.11a9.27,9.27,0,0,0,1.27-5.34c0-.63,0-1.31-.11-1.93a8.56,8.56,0,0,0-.55-1.69L62.41,51.1c-.5-1.42-1-2.84-1.53-4.25,1,.83,2,1.63,3,2.47a8.46,8.46,0,0,0,2.66,2c2.1.75,4.32-.2,6.26-1l5.36-2.11c1.41-.56,2.82-1.12,4.21-1.65h0c.86-.44,1.73-.85,2.58-1.29a28.34,28.34,0,0,0,4-2.05,8.42,8.42,0,0,0,1.95-1.91A15.58,15.58,0,0,0,92.16,39c1-2,1.77-4.18,2.64-6.25,1-2.46,2-4.93,3.09-7.39.42-1,.82-2,1.23-2.94A6.85,6.85,0,0,0,99.89,18.09Zm-14.06-4.6c.33-1.21,2.32-1.72,4.44-1.13s3.58,2,3.25,3.25-2.33,1.72-4.45,1.13S85.48,14.71,85.83,13.49ZM84,14.32c2.2.61,3.68,2.16,3.33,3.46S84.89,19.65,82.7,19,79,16.89,79.37,15.59,81.8,13.73,84,14.32ZM78.61,29.88c1.63-1.64,3.61-2.3,4.42-1.48s.16,2.79-1.47,4.43S78,35.12,77.13,34.3,77,31.51,78.61,29.88ZM75.93,21.2c-2.2-.61-3.68-2.16-3.33-3.46s2.43-1.87,4.62-1.26,3.68,2.15,3.33,3.45S78.12,21.8,75.93,21.2ZM74.53,3.82c.29-1.07,2.18-1.47,4.23-.92s3.47,1.89,3.18,2.95-2.19,1.48-4.24.92S74.23,4.88,74.53,3.82ZM61.34,7.54c.33-1.22,2.32-1.72,4.44-1.13s3.57,2,3.24,3.24-2.32,1.72-4.44,1.13S61,8.75,61.34,7.54ZM55,13.85c1.25-.45,2.89.94,3.67,3.09s.4,4.27-.85,4.71-2.88-.94-3.67-3.09S53.78,14.31,55,13.85ZM51.44,27.71c.9-.73,2.21.33,2.74,1a4.78,4.78,0,0,1,.54.74,6.45,6.45,0,0,1,.71,2.8c0,.21.14.88,0,1.06-.3.34-.39,0-.58-.14A7.09,7.09,0,0,0,52.78,32c-.61-.23-1.53-.18-1.89-.78a1.57,1.57,0,0,1-.18-.78C50.7,29.68,50.78,28.23,51.44,27.71ZM10.67,46.38c2.38-1.37,5-1.23,5.94.32s-.32,3.92-2.7,5.29-5,1.23-5.93-.31S8.27,47.75,10.67,46.38ZM9.26,66c-2.22-1.7-3.5-3.77-2.84-4.64s3-.17,5.22,1.51,3.51,3.77,2.85,4.64S11.48,67.68,9.26,66Zm13.39,14.2c-.54.81-2.8.26-5-1.22S14,75.63,14.49,74.81s2.79-.26,5,1.22S23.17,79.36,22.65,80.18ZM20.11,43.92c-2.41,1.39-5,1.33-5.87-.11s.44-3.75,2.85-5.13,5-1.34,5.87.1S22.52,42.53,20.11,43.92Zm0-8.33C19.5,34,21,32,23.44,31.16s4.85-.29,5.42,1.27-.94,3.56-3.37,4.42S20.63,37.17,20.08,35.59Zm14.7,15.32c.94,1.77-.35,4.29-2.87,5.63s-5.32,1-6.26-.78.35-4.29,2.86-5.63S33.84,49.14,34.78,50.91ZM26.46,71.07c-2.36-1.79-3.66-4-2.93-5s3.23-.29,5.59,1.5,3.66,4,2.93,5S28.82,72.85,26.46,71.07ZM39.52,85.16c-.54.94-2.88.62-5.21-.73s-3.78-3.21-3.23-4.15,2.88-.62,5.21.73S40.07,84.22,39.52,85.16Zm-1.7-36.95c-2.52,1.33-5.28,1-6.18-.63s.41-4.13,2.93-5.47,5.28-1.06,6.18.63S40.33,46.87,37.82,48.21Zm8.14,16c-.84,2.67-2.76,4.44-4.31,4s-2.13-3-1.3-5.71,2.76-4.45,4.3-4S46.77,61.52,46,64.19Zm-2.64-24c-2.43,1.29-5.09,1.06-5.92-.52s.45-3.9,2.88-5.2,5.09-1.06,5.92.52S45.75,38.9,43.32,40.2Zm8.56,37.67c-.8,2.59-2.5,4.36-3.79,4s-1.66-2.83-.87-5.42,2.5-4.36,3.79-4S52.67,75.28,51.88,77.87Zm2.3-15c-.83,2.67-2.58,4.51-3.92,4.1s-1.75-2.92-.92-5.59,2.59-4.52,3.92-4.1S55,60.22,54.18,62.89Zm-1-11c-1.37-.25-2.1-2.59-1.63-5.21s2-4.57,3.35-4.31S57,45,56.56,47.58,54.6,52.13,53.21,51.89Zm8.13,9.89c-.77,2.45-2.37,4.13-3.56,3.75s-1.57-2.68-.8-5.12,2.36-4.13,3.56-3.75S62.1,59.33,61.34,61.78Zm3.31-16.27c-1.23.46-2.85-.88-3.59-3s-.35-4.13.88-4.59,2.85.89,3.6,3S65.88,45.06,64.65,45.51Zm4.17-13.07c-1.36.49-3.08-.86-3.86-3s-.29-4.3,1.06-4.79,3.07.87,3.86,3S70.17,32,68.82,32.44ZM68,5.61c.33-1.22,2.32-1.72,4.44-1.13s3.57,2,3.24,3.25S73.4,9.45,71.28,8.86,67.71,6.83,68,5.61ZM76.7,46.09c-1.55,1.54-3.37,2.2-4.1,1.47s-.07-2.57,1.48-4.09,3.36-2.21,4.09-1.48S78.22,44.54,76.7,46.09Zm4.6-7.48c-.73-.73-.07-2.55,1.47-4.1s3.37-2.2,4.1-1.48.07,2.56-1.48,4.1S82,39.34,81.3,38.61Zm7.51,2.29c-1.54,1.54-3.31,2.25-4,1.59s0-2.43,1.59-4,3.32-2.26,4-1.6S90.36,39.35,88.81,40.9Zm5.56-13.09c-1.39,1.74-3.15,2.62-3.94,2s-.32-2.55,1.07-4.27,3.14-2.62,3.94-2S95.76,26.09,94.37,27.81Z"/></g></g></svg>