<svg xmlns="http://www.w3.org/2000/svg" viewBox="0 0 100 98.43"><g id="Layer_2" data-name="Layer 2"><g id="Layer_1-2" data-name="Layer 1"><path d="M98.69,24Q75.49,12.22,52.3.39A3.12,3.12,0,0,0,49.8.16q-21.67,6.51-43.36,13c-1.34.4-1.63.8-1.75,2.24-.22,2.85-.47,5.71-.72,8.56q-.69,7.77-1.4,15.53Q2,45.91,1.39,52.38C1,57.32.5,62.25,0,67.51c-.16.76.33,1.46,1.23,2,2.57,1.62,5.11,3.29,7.66,4.94Q26.2,85.66,43.48,96.86c3,2,2.13,2,5.54.52l.39-.16q19.89-8.49,39.8-17a2.89,2.89,0,0,0,1.89-2.49q4.38-25.59,8.81-51.19C100.16,25.15,99.94,24.68,98.69,24ZM18.3,12.78Q34,8.09,49.71,3.39a2.56,2.56,0,0,1,2.08.17Q72.6,14.21,93.4,24.81c.31.16.6.34,1,.55a1.81,1.81,0,0,1-1,.54L55.61,39.44a1.87,1.87,0,0,1-1.69-.08q-21.48-11.91-43-23.8c-.11-.07-.22-.16-.54-.4ZM45.31,93c-.17,1.16-.28,1.21-1.27.56L11.51,72.48c-2.43-1.57-4.85-3.17-7.3-4.72-.7-.44-1.13-.92-.94-1.64.39-4.42.76-8.69,1.14-13s.79-8.69,1.18-13q.8-8.71,1.58-17.42c.13-1.42.24-2.85.35-4.28.06-.82.28-1.1,1.15-.61Q21,24.7,33.42,31.51q9.26,5.13,18.52,10.25a1.27,1.27,0,0,1,.8,1.54q-3.08,20.31-6.09,40.61C46.2,86.94,45.76,90,45.31,93ZM96.25,29.57q-4,23.22-8,46.44a2.28,2.28,0,0,1-1.54,2Q68.11,85.86,49.53,93.81c-.41.17-1,.77-1.18-.26.31-2.12.62-4.19.92-6.26L54.46,52.5c.43-2.9.87-5.8,1.29-8.7A1.72,1.72,0,0,1,57,42.19Q76,35.41,95,28.57C96.52,28,96.52,28,96.25,29.57Zm-76.39,4.9A15.45,15.45,0,0,1,19.61,36a2.63,2.63,0,0,1-4,1.84c-2.76-1.36-4.84-6-4-9,.59-2.17,2.33-2.93,4.27-1.74C18.49,28.82,19.49,31.47,19.86,34.47ZM40.79,79.71a4.71,4.71,0,0,1-.42,2,2.43,2.43,0,0,1-3.1,1.41,5.73,5.73,0,0,1-3.06-2.41,9.68,9.68,0,0,1-1.86-5.34,4.81,4.81,0,0,1,.37-2.05A2.49,2.49,0,0,1,36,71.83a4.69,4.69,0,0,1,1.62.94A9.56,9.56,0,0,1,40.79,79.71ZM44.6,49.46a4.9,4.9,0,0,1-.22,1.66c-.59,1.84-2.05,2.55-3.78,1.67-2.54-1.28-3.7-3.58-4.26-6.25a6,6,0,0,1,0-2.6c.49-2.24,2.3-3.06,4.29-1.93a6.3,6.3,0,0,1,1.93,1.74A9.33,9.33,0,0,1,44.6,49.46ZM28.47,73.07c-.53,2.21-2.39,3-4.32,1.8-2.65-1.71-3.7-4.33-4-7.33.07-.48.11-.94.21-1.37.51-2.2,2.24-3,4.22-1.87C27.25,65.77,29.18,70.1,28.47,73.07ZM16.91,64.48A4.34,4.34,0,0,1,16.7,66a2.56,2.56,0,0,1-3.93,1.72,8.16,8.16,0,0,1-3.88-5.12,6.91,6.91,0,0,1-.27-3.72c.49-2.16,2.25-3,4.22-1.94a7.92,7.92,0,0,1,3.36,4.15A8.2,8.2,0,0,1,16.91,64.48ZM32.08,41.92a11.6,11.6,0,0,1-.21,1.49,2.58,2.58,0,0,1-4,1.77c-2.82-1.38-4.91-6-4.06-9.06a2.65,2.65,0,0,1,4.27-1.62A9,9,0,0,1,32.08,41.92Zm31.54,35.4a11,11,0,0,1-3.77,7.75,4.24,4.24,0,0,1-.78.52c-1.91,1.06-3.59.2-3.85-2a8.68,8.68,0,0,1,.71-4.29,9.84,9.84,0,0,1,3-4.19c.93-.73,2-1.29,3.19-.7S63.45,76.22,63.62,77.32Zm21.83-8a10.35,10.35,0,0,1-3.89,7.22c-2.15,1.7-4.08.89-4.48-1.8-.43-2.88,2-7.56,4.66-8.84C83.84,64.87,85.46,66.14,85.45,69.31Zm-17-22.72A6.68,6.68,0,0,1,68.3,50a10.25,10.25,0,0,1-3.58,5.64,2.82,2.82,0,0,1-3.1.65,2.78,2.78,0,0,1-1.39-2.84A10.32,10.32,0,0,1,64,45.59a3.33,3.33,0,0,1,2.29-.89A2.16,2.16,0,0,1,68.45,46.59ZM90.59,39.5A9.74,9.74,0,0,1,86.29,48a2.41,2.41,0,0,1-2.76.29c-1.13-.68-1.24-1.86-1.32-3.22a10.41,10.41,0,0,1,4-7.56C88.44,35.87,90.51,36.76,90.59,39.5ZM77.93,60a10.23,10.23,0,0,1-3.8,7,2.84,2.84,0,0,1-3.1.67,2.73,2.73,0,0,1-1.4-2.82,10,10,0,0,1,3.56-7.72,3,3,0,0,1,3.34-.9C77.48,56.67,77.94,57.76,77.93,60ZM71,23.21a1.73,1.73,0,0,1,.51-2.87,5.45,5.45,0,0,1,2.29-.66,12.24,12.24,0,0,1,7.53,1.61,4.22,4.22,0,0,1,1.18,1A1.72,1.72,0,0,1,82,25.1a8.19,8.19,0,0,1-3.45.74,12.93,12.93,0,0,1-6-1.47A5.35,5.35,0,0,1,71,23.21ZM21.48,16.63A1.76,1.76,0,0,1,22,13.56a8.48,8.48,0,0,1,3.51-.68,14.4,14.4,0,0,1,5.43,1.28,6.08,6.08,0,0,1,1.64,1.11c1.22,1.23,1,2.53-.56,3.27a6.71,6.71,0,0,1-2.85.58,12,12,0,0,1-6.62-1.64A4.83,4.83,0,0,1,21.48,16.63Zm33.6,10.8A9.61,9.61,0,0,1,58.81,29c.75.56,1.44,1.2,1.25,2.24s-1,1.37-1.86,1.65a7.74,7.74,0,0,1-2.79.36,12.14,12.14,0,0,1-6-1.54,5.6,5.6,0,0,1-.93-.69c-1.45-1.32-1.22-2.74.63-3.46A10.16,10.16,0,0,1,55.08,27.43ZM46.2,7.3a11.1,11.1,0,0,1,9.88,1.54A2.12,2.12,0,0,1,57.19,11c-.16,1-.95,1.32-1.75,1.62a7.64,7.64,0,0,1-2.89.4,12.06,12.06,0,0,1-6.1-1.59,5.26,5.26,0,0,1-.92-.69C44.16,9.38,44.4,7.87,46.2,7.3Z"/></g></g></svg>