<svg xmlns="http://www.w3.org/2000/svg" viewBox="0 0 86.82 100"><g id="Layer_2" data-name="Layer 2"><g id="Layer_1-2" data-name="Layer 1"><path d="M64.8,28.88a11.45,11.45,0,0,0,10.52,0,4.18,4.18,0,0,0,2.41-3.49,4.18,4.18,0,0,0-2.41-3.49,11.49,11.49,0,0,0-10.52,0,4.18,4.18,0,0,0-2.41,3.49A4.18,4.18,0,0,0,64.8,28.88Zm.78-5.62a10,10,0,0,1,9,0,2.69,2.69,0,0,1,1.63,2.13,2.72,2.72,0,0,1-1.63,2.14,10.08,10.08,0,0,1-9,0A2.72,2.72,0,0,1,64,25.39,2.69,2.69,0,0,1,65.58,23.26ZM38.15,13.49a11.45,11.45,0,0,0,10.52,0A4.16,4.16,0,0,0,51.08,10a4.15,4.15,0,0,0-2.41-3.48,11.46,11.46,0,0,0-10.52,0A4.18,4.18,0,0,0,35.74,10,4.13,4.13,0,0,0,38.15,13.49Zm.78-5.62a9.07,9.07,0,0,1,4.48-1,9.13,9.13,0,0,1,4.48,1A2.68,2.68,0,0,1,49.51,10a2.7,2.7,0,0,1-1.62,2.14,10.08,10.08,0,0,1-9,0A2.72,2.72,0,0,1,37.3,10,2.69,2.69,0,0,1,38.93,7.87Zm-27.44,21a10.75,10.75,0,0,0,5.26,1.28A10.7,10.7,0,0,0,22,28.88a4.16,4.16,0,0,0,2.41-3.49A4.16,4.16,0,0,0,22,21.9a11.49,11.49,0,0,0-10.52,0,4.16,4.16,0,0,0-2.4,3.49A4.16,4.16,0,0,0,11.49,28.88Zm.78-5.62a9.13,9.13,0,0,1,4.48-1.06,9.08,9.08,0,0,1,4.48,1.06,2.69,2.69,0,0,1,1.63,2.13,2.7,2.7,0,0,1-1.63,2.14,10.08,10.08,0,0,1-9,0,2.72,2.72,0,0,1-1.62-2.14A2.7,2.7,0,0,1,12.27,23.26Zm36.4,14a11.49,11.49,0,0,0-10.52,0,4.18,4.18,0,0,0-2.41,3.49,4.18,4.18,0,0,0,2.41,3.49,11.53,11.53,0,0,0,10.52,0,4.18,4.18,0,0,0,2.41-3.49A4.18,4.18,0,0,0,48.67,37.29Zm-.78,5.62a10.08,10.08,0,0,1-9,0,2.72,2.72,0,0,1-1.63-2.14,2.72,2.72,0,0,1,1.63-2.14,10.08,10.08,0,0,1,9,0,2.72,2.72,0,0,1,1.63,2.14A2.69,2.69,0,0,1,47.89,42.91ZM22.48,56a4.11,4.11,0,0,0-4.22-.35,4.17,4.17,0,0,0-1.82,3.83A11.46,11.46,0,0,0,21.7,68.6a5.17,5.17,0,0,0,2.57.78,3.27,3.27,0,0,0,1.66-.44,4.14,4.14,0,0,0,1.81-3.82A11.44,11.44,0,0,0,22.48,56Zm2.67,11.58a2.69,2.69,0,0,1-2.67-.34A10.1,10.1,0,0,1,18,59.49,2.71,2.71,0,0,1,19,57a1.82,1.82,0,0,1,.88-.22,3.58,3.58,0,0,1,1.78.57,10.05,10.05,0,0,1,4.48,7.75A2.7,2.7,0,0,1,25.15,67.59ZM35.81,48.31A4.16,4.16,0,0,0,31.59,48a4.15,4.15,0,0,0-1.82,3.83A11.47,11.47,0,0,0,35,60.91a5.22,5.22,0,0,0,2.57.77,3.23,3.23,0,0,0,1.65-.43,4.16,4.16,0,0,0,1.82-3.83A11.47,11.47,0,0,0,35.81,48.31ZM38.47,59.9a2.7,2.7,0,0,1-2.66-.34,10.07,10.07,0,0,1-4.48-7.76,2.71,2.71,0,0,1,1-2.48,1.69,1.69,0,0,1,.88-.22,3.72,3.72,0,0,1,1.78.56,10.07,10.07,0,0,1,4.48,7.76A2.71,2.71,0,0,1,38.47,59.9Zm-29.31-27a4.15,4.15,0,0,0-4.23-.34,4.16,4.16,0,0,0-1.81,3.83,11.47,11.47,0,0,0,5.26,9.11,5.11,5.11,0,0,0,2.56.77,3.26,3.26,0,0,0,1.66-.43A4.15,4.15,0,0,0,14.42,42,11.46,11.46,0,0,0,9.16,32.92Zm2.66,11.59a2.7,2.7,0,0,1-2.66-.34,10.07,10.07,0,0,1-4.48-7.76,2.7,2.7,0,0,1,1-2.48,1.75,1.75,0,0,1,.89-.22,3.72,3.72,0,0,1,1.78.56A10.07,10.07,0,0,1,12.86,42,2.69,2.69,0,0,1,11.82,44.51ZM9.16,63.7a4.18,4.18,0,0,0-4.23-.35,4.16,4.16,0,0,0-1.81,3.83A11.49,11.49,0,0,0,8.38,76.3a5.22,5.22,0,0,0,2.56.77,3.26,3.26,0,0,0,1.66-.43,4.17,4.17,0,0,0,1.82-3.83A11.46,11.46,0,0,0,9.16,63.7Zm2.66,11.59a2.71,2.71,0,0,1-2.66-.35,10.05,10.05,0,0,1-4.48-7.76,2.68,2.68,0,0,1,1-2.47,1.75,1.75,0,0,1,.89-.22,3.72,3.72,0,0,1,1.78.56,10.1,10.1,0,0,1,4.48,7.76A2.71,2.71,0,0,1,11.82,75.29Zm24,3.79a4.18,4.18,0,0,0-4.22-.34,4.17,4.17,0,0,0-1.82,3.83A11.46,11.46,0,0,0,35,91.68a5.14,5.14,0,0,0,2.57.78A3.23,3.23,0,0,0,39.25,92a4.14,4.14,0,0,0,1.82-3.83A11.49,11.49,0,0,0,35.81,79.08Zm2.66,11.59a2.67,2.67,0,0,1-2.66-.34,10.05,10.05,0,0,1-4.48-7.76,2.68,2.68,0,0,1,1-2.47,1.7,1.7,0,0,1,.88-.23,3.61,3.61,0,0,1,1.78.57,10.05,10.05,0,0,1,4.48,7.76A2.68,2.68,0,0,1,38.47,90.67Zm48-66h0L43.8.1A.83.83,0,0,0,43,.1L.41,24.71h0a.79.79,0,0,0-.39.68V74.61a.77.77,0,0,0,.39.67L43,99.89h0a.81.81,0,0,0,.78,0L86.43,75.29a.79.79,0,0,0,.39-.68V25.39A.79.79,0,0,0,86.43,24.71Zm-43-23L84.47,25.39,43.41,49.1,2.34,25.39ZM1.56,26.74,42.63,50.45V97.87L1.56,74.16ZM44.19,97.87V50.45L85.26,26.74V74.16Zm11-34.51A4.15,4.15,0,0,0,51,63.7a11.45,11.45,0,0,0-5.26,9.11,4.16,4.16,0,0,0,1.81,3.83,3.26,3.26,0,0,0,1.66.43,5.22,5.22,0,0,0,2.56-.77A11.47,11.47,0,0,0,57,67.19,4.12,4.12,0,0,0,55.23,63.36ZM51,74.94a2.72,2.72,0,0,1-2.67.35,2.71,2.71,0,0,1-1-2.48,10.07,10.07,0,0,1,4.48-7.76,3.66,3.66,0,0,1,1.78-.56,1.72,1.72,0,0,1,.88.22,2.71,2.71,0,0,1,1,2.48A10,10,0,0,1,51,74.94ZM81.88,48a4.13,4.13,0,0,0-4.22.34,11.46,11.46,0,0,0-5.26,9.11,4.14,4.14,0,0,0,1.82,3.83,3.25,3.25,0,0,0,1.65.43,5.22,5.22,0,0,0,2.57-.77A11.47,11.47,0,0,0,83.7,51.8,4.16,4.16,0,0,0,81.88,48ZM77.66,59.56A2.22,2.22,0,0,1,74,57.42a10.07,10.07,0,0,1,4.48-7.76,3.66,3.66,0,0,1,1.78-.56,1.72,1.72,0,0,1,.88.22,2.7,2.7,0,0,1,1,2.48A10.07,10.07,0,0,1,77.66,59.56Zm4.22-27a4.13,4.13,0,0,0-4.22.34A11.48,11.48,0,0,0,72.4,42a4.15,4.15,0,0,0,1.82,3.83,3.36,3.36,0,0,0,1.65.43,5.14,5.14,0,0,0,2.57-.78,11.46,11.46,0,0,0,5.26-9.11A4.17,4.17,0,0,0,81.88,32.58ZM77.66,44.17A2.22,2.22,0,0,1,74,42a10.05,10.05,0,0,1,4.48-7.76,3.58,3.58,0,0,1,1.78-.57,1.72,1.72,0,0,1,.88.22,2.71,2.71,0,0,1,1,2.48A10.07,10.07,0,0,1,77.66,44.17ZM55.23,48a4.15,4.15,0,0,0-4.22.34,11.45,11.45,0,0,0-5.26,9.11,4.15,4.15,0,0,0,1.81,3.83,3.26,3.26,0,0,0,1.66.43,5.22,5.22,0,0,0,2.56-.77A11.47,11.47,0,0,0,57,51.8,4.14,4.14,0,0,0,55.23,48ZM51,59.56a2.72,2.72,0,0,1-2.67.34,2.7,2.7,0,0,1-1-2.48,10.07,10.07,0,0,1,4.48-7.76,3.66,3.66,0,0,1,1.78-.56,1.72,1.72,0,0,1,.88.22,2.7,2.7,0,0,1,1,2.48A10.06,10.06,0,0,1,51,59.56Zm4.22,19.18a4.18,4.18,0,0,0-4.22.34,11.46,11.46,0,0,0-5.26,9.12A4.16,4.16,0,0,0,47.56,92a3.37,3.37,0,0,0,1.66.43,5.17,5.17,0,0,0,2.57-.78,11.46,11.46,0,0,0,5.26-9.11A4.17,4.17,0,0,0,55.23,78.74ZM51,90.33a2.72,2.72,0,0,1-2.67.35,2.71,2.71,0,0,1-1-2.48,10.05,10.05,0,0,1,4.48-7.76,3.66,3.66,0,0,1,1.78-.56,1.72,1.72,0,0,1,.88.22,2.68,2.68,0,0,1,1,2.47A10,10,0,0,1,51,90.33Zm30.87-27a4.13,4.13,0,0,0-4.22.34,11.47,11.47,0,0,0-5.26,9.11,4.15,4.15,0,0,0,1.82,3.83,3.25,3.25,0,0,0,1.65.43,5.22,5.22,0,0,0,2.57-.77,11.47,11.47,0,0,0,5.26-9.11A4.15,4.15,0,0,0,81.88,63.36ZM77.66,74.94A2.21,2.21,0,0,1,74,72.81a10.07,10.07,0,0,1,4.48-7.76,3.66,3.66,0,0,1,1.78-.56,1.72,1.72,0,0,1,.88.22,2.68,2.68,0,0,1,1,2.47A10.05,10.05,0,0,1,77.66,74.94Z"/></g></g></svg>