<svg xmlns="http://www.w3.org/2000/svg" viewBox="0 0 100 89.82"><defs><style>.cls-1{fill:#020203;}</style></defs><g id="Layer_2" data-name="Layer 2"><g id="Layer_1-2" data-name="Layer 1"><path class="cls-1" d="M97.69,24.58l-4.11-1.95L44.63.45A5.11,5.11,0,0,0,41,.25L30,3.6,28,4.36a7.65,7.65,0,0,0-4.21,4l-1.08,2.44L.43,59.56A4.79,4.79,0,0,0,2.8,65.9L51.6,88.23l1.31.66a11.76,11.76,0,0,0,8.4.29l2.75-1,8.94-3a3.85,3.85,0,0,0,2.24-2L98.83,31.81l.85-2A4.05,4.05,0,0,0,97.69,24.58Zm-68.83-19L40.49,1.71A6.11,6.11,0,0,1,44.94,2L97.05,25.72A.7.7,0,0,1,97,27L84.51,31.17A3.65,3.65,0,0,1,81.89,31L28.79,6.81A.68.68,0,0,1,28.86,5.55ZM54,87.9l-50.45-23a3.83,3.83,0,0,1-1.89-5.07L25.15,8.33a1.65,1.65,0,0,1,2.19-.82L81.26,32.09a1.18,1.18,0,0,1,.58,1.55L57.72,86.51A2.8,2.8,0,0,1,54,87.9ZM98.56,29.05l-24,52.62a5,5,0,0,1-3,2.68l-12.13,4a.66.66,0,0,1-.81-.9l24.16-53a4.36,4.36,0,0,1,2.58-2.31l12.34-4.07A.69.69,0,0,1,98.56,29.05Zm-60.93-.14a5,5,0,1,1-2.49-6.65A5,5,0,0,1,37.63,28.91ZM67.05,42.33a5,5,0,1,1-2.49-6.65A5,5,0,0,1,67.05,42.33ZM40.3,49.92A5,5,0,1,1,47,47.43,5,5,0,0,1,40.3,49.92ZM56,13.32c.62-1.36,3.17-1.52,5.69-.37s4.07,3.18,3.45,4.53S62,19,59.42,17.85,55.36,14.67,56,13.32ZM25.07,56.45a5,5,0,1,1-2.49-6.65A5,5,0,0,1,25.07,56.45ZM54.49,69.87A5,5,0,1,1,52,63.22,5,5,0,0,1,54.49,69.87Zm33-22.58c-1.15,2.52-3.1,4.1-4.36,3.53s-1.35-3.09-.2-5.62,3.1-4.1,4.36-3.52S88.64,44.77,87.48,47.29ZM74.93,74.83c-1.16,2.52-3.11,4.1-4.37,3.53s-1.35-3.09-.2-5.61,3.1-4.11,4.36-3.53S76.08,72.31,74.93,74.83Z"/></g></g></svg>