<svg xmlns="http://www.w3.org/2000/svg" viewBox="0 0 100 92.41"><g id="Layer_2" data-name="Layer 2"><g id="Layer_1-2" data-name="Layer 1"><path d="M99.73,69.88Q94.65,50.44,89.6,31q-2.37-9.14-4.8-18.27A9.47,9.47,0,0,0,80.15,6.8c-3.8-2.19-7.83-3.94-11.72-6A7.4,7.4,0,0,0,62.87.31Q40.69,6.25,18.49,12.12c-5.11,1.36-10.24,2.67-15.36,4A3.67,3.67,0,0,0,0,19.55,7.62,7.62,0,0,0,.44,22Q8.1,51,15.78,79.93a8.64,8.64,0,0,0,4.37,5.69C23.2,87.3,26.22,89,29.27,90.7a11.73,11.73,0,0,0,6.15,1.7,9.83,9.83,0,0,0,2.9-.37L95.51,77.2C99.12,76.26,100.68,73.52,99.73,69.88ZM3.42,18c.06-.48.54-.47.9-.57L50.26,5.33c4.14-1.09,8.29-2.15,12.42-3.27a7.65,7.65,0,0,1,6,.78c3.6,2,7.25,3.87,10.87,5.8l1.18.65-8.11,2.15q-26.2,6.89-52.4,13.76a6.46,6.46,0,0,1-4.95-.5c-3.71-2-7.43-4-11.13-6C3.84,18.56,3.35,18.45,3.42,18ZM32.08,90C31,89.49,30,88.92,29,88.36c-2.42-1.29-4.84-2.6-7.27-3.87a8.54,8.54,0,0,1-4.48-5.62q-7.6-29-15.23-58c-.09-.37-.45-.84,0-1.15s.72.13,1,.3c3.65,1.94,7.28,3.94,11,5.83a6.65,6.65,0,0,1,3.62,4.55q7.56,29,15.22,58c.09.37.19.74.29,1.14C33,90.27,32.61,90.31,32.08,90ZM95.53,75.52c-3.19.85-6.39,1.68-9.59,2.52L38.3,90.56c-2.33.61-3.25.08-3.87-2.28L19.37,30.94c-.08-.3-.17-.61-.24-.91-.42-1.81.21-2.89,2-3.37,3.69-1,7.4-2,11.1-2.93L79.9,11.22c1.82-.48,2.69,0,3.16,1.81q6.68,25.34,13.32,50.68c.63,2.39,1.26,4.77,1.88,7.16.12.44.19.89.23,1.1A3.55,3.55,0,0,1,95.53,75.52ZM70.06,30.94a5.66,5.66,0,0,1-5.59-5.59A5.59,5.59,0,0,1,70,19.85a5.55,5.55,0,0,1,0,11.09ZM86,65.35A5.55,5.55,0,1,1,75,65.25a5.7,5.7,0,0,1,5.51-5.48A5.62,5.62,0,0,1,86,65.35ZM52.57,74.11A5.54,5.54,0,1,1,47,68.57,5.67,5.67,0,0,1,52.57,74.11ZM41.85,59.68a5.52,5.52,0,1,1,5.47-5.58A5.59,5.59,0,0,1,41.85,59.68Zm-5.27-20A5.55,5.55,0,1,1,42,34.16,5.54,5.54,0,0,1,36.58,39.73ZM75.17,50.85a5.5,5.5,0,1,1,5.64-5.48A5.53,5.53,0,0,1,75.17,50.85ZM17.22,48.68a12,12,0,0,1,2.39,6.71,5.73,5.73,0,0,1-.33,2.23,1.21,1.21,0,0,1-2.08.55,2.51,2.51,0,0,1-.51-.52,11.31,11.31,0,0,1-2.11-8.27,1.56,1.56,0,0,1,1-1.45C16.32,47.73,16.82,48.2,17.22,48.68ZM29,77a7.7,7.7,0,0,1,0,3.31c-.16.59-.37,1.15-1,1.32A1.48,1.48,0,0,1,26.48,81a11.76,11.76,0,0,1-2.42-7,14.16,14.16,0,0,1,.15-1.43c.14-.66.36-1.33,1.12-1.49a1.62,1.62,0,0,1,1.59.81A11.16,11.16,0,0,1,29,77ZM11.28,32.18a5.4,5.4,0,0,1-.18,1.65c-.44,1.42-1.45,1.68-2.48.61a6,6,0,0,1-1-1.35,12.22,12.22,0,0,1-1.48-6.43c0-.07,0-.14,0-.2.12-.81.21-1.7,1.12-2s1.53.49,2,1.18A12.79,12.79,0,0,1,11.28,32.18Zm15.38-16.8a5.09,5.09,0,0,1,1.56-1.2,12.17,12.17,0,0,1,5.69-1.47,4.31,4.31,0,0,1,2.24.37,1.08,1.08,0,0,1,.44,1.8,3.2,3.2,0,0,1-.79.81,11.72,11.72,0,0,1-7.59,2.08,3.56,3.56,0,0,1-1-.25A1.22,1.22,0,0,1,26.66,15.38ZM52.09,8.74a4.68,4.68,0,0,1,1.46-1.16,12.12,12.12,0,0,1,6.82-1.53,2.85,2.85,0,0,1,.71.12c1.45.43,1.72,1.38.63,2.44a9.9,9.9,0,0,1-5.05,2.29c-.68.15-1.37.19-2.06.28a6.36,6.36,0,0,1-2-.37A1.21,1.21,0,0,1,52.09,8.74Z"/></g></g></svg>