<svg xmlns="http://www.w3.org/2000/svg" viewBox="0 0 86.81 100"><g id="Layer_2" data-name="Layer 2"><g id="Layer_1-2" data-name="Layer 1"><path d="M68.55,55.67a4.13,4.13,0,0,0-4.22.34,11.46,11.46,0,0,0-5.26,9.11A4.17,4.17,0,0,0,60.89,69a3.25,3.25,0,0,0,1.65.43,5.22,5.22,0,0,0,2.57-.77,11.49,11.49,0,0,0,5.26-9.12A4.12,4.12,0,0,0,68.55,55.67ZM64.33,67.25a2.72,2.72,0,0,1-2.67.35,2.73,2.73,0,0,1-1-2.48,10.05,10.05,0,0,1,4.48-7.76,3.66,3.66,0,0,1,1.78-.56,1.69,1.69,0,0,1,.88.22,2.68,2.68,0,0,1,1,2.47A10.05,10.05,0,0,1,64.33,67.25ZM86.42,24.72,43.8.1A.83.83,0,0,0,43,.1L.39,24.71a.79.79,0,0,0-.39.68H0V74.61a.79.79,0,0,0,.39.68L43,99.9a.87.87,0,0,0,.39.1.9.9,0,0,0,.39-.1L86.42,75.29a.77.77,0,0,0,.39-.68V25.39A.77.77,0,0,0,86.42,24.72Zm-43-23L84.47,25.39,43.41,49.1l-25-14.42L2.34,25.39ZM1.56,26.74l30.8,17.78,10.27,5.93V97.87L1.56,74.16V26.74ZM44.19,97.87V50.45L85.25,26.74V74.16Zm-6-69a11.45,11.45,0,0,0,10.52,0,4.16,4.16,0,0,0,2.4-3.49,4.16,4.16,0,0,0-2.4-3.49h0a11.51,11.51,0,0,0-10.53,0,4.16,4.16,0,0,0-2.4,3.49A4.16,4.16,0,0,0,38.15,28.88Zm.78-5.62a10,10,0,0,1,9,0,2.68,2.68,0,0,1,1.62,2.13,2.72,2.72,0,0,1-1.62,2.14,10.1,10.1,0,0,1-9,0,2.7,2.7,0,0,1-1.62-2.14A2.69,2.69,0,0,1,38.93,23.26Zm-.78-9.77a11.43,11.43,0,0,0,10.51,0A4.14,4.14,0,0,0,51.07,10a4.16,4.16,0,0,0-2.41-3.49,11.49,11.49,0,0,0-10.52,0A4.14,4.14,0,0,0,35.74,10,4.13,4.13,0,0,0,38.15,13.49Zm.78-5.62a10.06,10.06,0,0,1,9,0A2.69,2.69,0,0,1,49.51,10a2.72,2.72,0,0,1-1.63,2.14,10.08,10.08,0,0,1-9,0A2.7,2.7,0,0,1,37.3,10,2.69,2.69,0,0,1,38.93,7.87Zm9.74,29.42a11.49,11.49,0,0,0-10.52,0,4.16,4.16,0,0,0-2.41,3.49,4.16,4.16,0,0,0,2.41,3.49,11.53,11.53,0,0,0,10.52,0,4.16,4.16,0,0,0,2.4-3.49A4.16,4.16,0,0,0,48.67,37.29Zm-.78,5.63a10.05,10.05,0,0,1-9,0,2.67,2.67,0,0,1-1.63-2.13,2.67,2.67,0,0,1,1.63-2.13,10,10,0,0,1,9,0,2.68,2.68,0,0,1,1.62,2.13A2.7,2.7,0,0,1,47.89,42.92ZM22.48,56a4.13,4.13,0,0,0-4.22-.34,4.14,4.14,0,0,0-1.82,3.82A11.46,11.46,0,0,0,21.7,68.6a5.17,5.17,0,0,0,2.57.78A3.26,3.26,0,0,0,25.93,69a4.16,4.16,0,0,0,1.81-3.83A11.46,11.46,0,0,0,22.48,56ZM25.15,67.6a2.72,2.72,0,0,1-2.67-.35A10.05,10.05,0,0,1,18,59.49,2.68,2.68,0,0,1,19,57a1.72,1.72,0,0,1,.88-.22,3.66,3.66,0,0,1,1.78.56,10.07,10.07,0,0,1,4.48,7.76A2.71,2.71,0,0,1,25.15,67.6ZM35.81,48.31A4.15,4.15,0,0,0,31.59,48a4.15,4.15,0,0,0-1.82,3.83A11.46,11.46,0,0,0,35,60.91a5.11,5.11,0,0,0,2.56.77,3.26,3.26,0,0,0,1.66-.43,4.15,4.15,0,0,0,1.82-3.83A11.49,11.49,0,0,0,35.81,48.31ZM38.47,59.9a2.7,2.7,0,0,1-2.66-.34,10.07,10.07,0,0,1-4.48-7.76,2.73,2.73,0,0,1,1-2.48,1.86,1.86,0,0,1,.89-.22,3.64,3.64,0,0,1,1.78.57,10.05,10.05,0,0,1,4.48,7.75A2.69,2.69,0,0,1,38.47,59.9Zm-29.31-27a4.13,4.13,0,0,0-4.22-.34,4.13,4.13,0,0,0-1.82,3.83,11.49,11.49,0,0,0,5.26,9.11,5.22,5.22,0,0,0,2.56.77,3.26,3.26,0,0,0,1.66-.43A4.17,4.17,0,0,0,14.42,42,11.46,11.46,0,0,0,9.16,32.93Zm2.66,11.58a2.69,2.69,0,0,1-2.66-.33,10.08,10.08,0,0,1-4.48-7.76,2.69,2.69,0,0,1,1-2.48,1.69,1.69,0,0,1,.88-.22,3.69,3.69,0,0,1,1.78.56A10.05,10.05,0,0,1,12.86,42,2.68,2.68,0,0,1,11.82,44.51ZM9.16,63.7a4.13,4.13,0,0,0-4.22-.34,4.13,4.13,0,0,0-1.82,3.83A11.49,11.49,0,0,0,8.38,76.3a5.22,5.22,0,0,0,2.56.77,3.26,3.26,0,0,0,1.66-.43,4.17,4.17,0,0,0,1.82-3.83A11.46,11.46,0,0,0,9.16,63.7Zm2.66,11.59A2.72,2.72,0,0,1,9.16,75a10.08,10.08,0,0,1-4.48-7.76,2.7,2.7,0,0,1,1-2.48,1.69,1.69,0,0,1,.88-.22,3.69,3.69,0,0,1,1.78.56,10.07,10.07,0,0,1,4.48,7.76A2.71,2.71,0,0,1,11.82,75.29Zm24,3.79a4.17,4.17,0,0,0-4.23-.33,4.14,4.14,0,0,0-1.81,3.82A11.46,11.46,0,0,0,35,91.68a5.13,5.13,0,0,0,2.56.78A3.37,3.37,0,0,0,39.25,92a4.17,4.17,0,0,0,1.82-3.83A11.49,11.49,0,0,0,35.81,79.08Zm2.66,11.6a2.7,2.7,0,0,1-2.66-.35,10.05,10.05,0,0,1-4.48-7.76,2.7,2.7,0,0,1,1-2.47,1.75,1.75,0,0,1,.89-.22,3.69,3.69,0,0,1,1.78.56,10.05,10.05,0,0,1,4.48,7.76A2.71,2.71,0,0,1,38.47,90.68Z"/></g></g></svg>