<svg xmlns="http://www.w3.org/2000/svg" viewBox="0 0 85.21 100"><defs><style>.cls-1{fill:#020203;}</style></defs><g id="Layer_2" data-name="Layer 2"><g id="Layer_1-2" data-name="Layer 1"><path class="cls-1" d="M84,89.23,47.23,92.09a2.81,2.81,0,0,0-1.91.94l-5.5,6.14a.5.5,0,0,0,.41.83l35.64-2.77a5.45,5.45,0,0,0,3.56-1.73l5-5.38A.53.53,0,0,0,84,89.23ZM64.6,96.44c-1.79.2-3.32-.45-3.43-1.44s1.26-1.94,3-2.13,3.32.46,3.42,1.45S66.38,96.26,64.6,96.44ZM82.4,51a1.68,1.68,0,0,0-1.8-1.54L65,50.65l.09-.14-4-2.68L79.8,33.63a.52.52,0,0,0-.27-.94l-8.59-.75a2.39,2.39,0,0,0-1.67.49L54.6,43.53,53.83,43,68.28,32.06a1.16,1.16,0,0,0,.23-1.62L46.69,1.63a1.61,1.61,0,0,0-2.24-.31L16.34,22.61A2,2,0,0,0,16,25.46l4.45,5.89L1,60.53l-.6.89A2.2,2.2,0,0,0,1,64.49H1l30,20a2.6,2.6,0,0,0,1.88.41L37,84.28l1.1,14.25a.5.5,0,0,0,.88.29l5.79-6.46a2.74,2.74,0,0,0,.68-2l-.73-9.29.8-1.19.74,9.52a1.86,1.86,0,0,0,2,1.72l35.82-2.78A1.25,1.25,0,0,0,85.2,87ZM65.63,38.8C67,37.73,68.52,37.37,69,38s-.23,2-1.61,3.07-2.88,1.43-3.37.8S64.26,39.87,65.63,38.8Zm-8.85-11A3.15,3.15,0,1,1,56,32.16,3.15,3.15,0,0,1,56.78,27.77ZM41.61,10.47a3.16,3.16,0,1,1-.79,4.4A3.17,3.17,0,0,1,41.61,10.47Zm-.36,16.59a3.16,3.16,0,1,1-.79,4.39A3.16,3.16,0,0,1,41.25,27.06ZM24.08,23.17a3.15,3.15,0,1,1-.79,4.39A3.16,3.16,0,0,1,24.08,23.17ZM.68,62.3,20.89,32l.19-.29a1.46,1.46,0,0,1,1-.62L31,29.64a.21.21,0,0,1,.21.32l-5.53,8.29L11.18,59.91a3.06,3.06,0,0,1-2.07,1.33L.85,62.56A.17.17,0,0,1,.68,62.3ZM40.31,88.06c-.78.09-1.57-1.26-1.76-3a6,6,0,0,1,0-1l2.67-.43a7.94,7.94,0,0,1,.23,1.16C41.6,86.5,41.11,88,40.31,88.06Zm.61-5.18-2.3.37-1.72.28-4.09.65a1.94,1.94,0,0,1-1.39-.3L1,63.58A.15.15,0,0,1,1,63.31L9.21,62a3.53,3.53,0,0,1,2.51.55L36.55,79.1,42,82.71Zm20-.8a3.17,3.17,0,1,1-2.62-3.64A3.16,3.16,0,0,1,60.91,82.08ZM54.62,66.16l3.51-5.25a3.17,3.17,0,0,1-2.47,5.61A3.14,3.14,0,0,1,54.62,66.16Zm9-14.79-6.1,9.14L54,65.72,45.39,78.64l-.8,1.2L43.18,82a.55.55,0,0,1-.75.15l-6-4-24.07-16a1.47,1.47,0,0,1-.41-2L26.11,38.89l5.83-8.74a.7.7,0,0,1,1-.19L53.19,43.5,54,44l6.45,4.3,2.94,2A.79.79,0,0,1,63.58,51.37Zm6.29,10A3.17,3.17,0,1,1,72.49,65,3.16,3.16,0,0,1,69.87,61.32Zm7.87,19.19a3.17,3.17,0,1,1-2.62-3.64A3.17,3.17,0,0,1,77.74,80.51ZM41.46,73.64a3.07,3.07,0,0,1-4.27.85,3,3,0,0,1-1.09-1.27,3.07,3.07,0,0,1-.17-2.13h0a3.41,3.41,0,0,1,.4-.87,3.09,3.09,0,0,1,3.73-1.14,2.64,2.64,0,0,1,.55.29A3.08,3.08,0,0,1,41.46,73.64ZM25,62.63a3.08,3.08,0,1,1-.85-4.27A3.07,3.07,0,0,1,25,62.63ZM48,63.8A3.07,3.07,0,0,1,44.32,65a3.46,3.46,0,0,1-.57-.3,2.48,2.48,0,0,1-.36-.28h0a3.08,3.08,0,0,1-.49-4,1.77,1.77,0,0,1,.16-.22,3.18,3.18,0,0,1,.83-.73A3.08,3.08,0,0,1,48,63.8Zm-16.51-11a3.08,3.08,0,1,1-.85-4.27A3.08,3.08,0,0,1,31.51,52.79Zm-8.33-14c-.52-.35-.24-1.66.59-3,0-.07.09-.14.14-.21.94-1.42,2.15-2.27,2.69-1.91s.22,1.8-.73,3.22a8.22,8.22,0,0,1-.64.83C24.43,38.61,23.61,39.08,23.18,38.8Zm-8.8,7.51c.94-1.41,2.15-2.27,2.69-1.91s.22,1.81-.73,3.22-2.15,2.27-2.69,1.91S13.43,47.73,14.38,46.31Zm16.9,34c-.36.54-1.8.21-3.22-.73s-2.27-2.15-1.9-2.69,1.8-.22,3.21.73S31.64,79.81,31.28,80.35ZM18.72,72c-.36.54-1.8.22-3.22-.73s-2.27-2.15-1.91-2.69,1.81-.21,3.22.73S19.08,71.43,18.72,72ZM7.47,58.8c-.94,1.41-2.15,2.27-2.69,1.9s-.22-1.8.73-3.21,2.15-2.27,2.69-1.91S8.42,57.38,7.47,58.8Zm26.34-15a3.08,3.08,0,1,1,4.77-2.26h0a3,3,0,0,1-.43,1.29l-.07.12A3.09,3.09,0,0,1,33.81,43.8ZM69.19,29.87A3.09,3.09,0,0,0,71.4,31.1l7.54.65a.77.77,0,0,0,.68-1.23L58.11,2.13A3.58,3.58,0,0,0,55.6.72L48.47,0a.91.91,0,0,0-.81,1.45Zm-7-16.4c.51-.4,1.85.44,3,1.89s1.64,2.95,1.13,3.35-1.86-.44-3-1.89S61.67,13.88,62.19,13.47Zm-7.2,38a2.84,2.84,0,0,1,.11.91A3.08,3.08,0,1,1,49,51.89a3.13,3.13,0,0,1,.5-1.35,3.07,3.07,0,0,1,4.27-.86,3.54,3.54,0,0,1,.47.38A3.13,3.13,0,0,1,55,51.42Z"/></g></g></svg>