<svg xmlns="http://www.w3.org/2000/svg" viewBox="0 0 100 99.74"><g id="Layer_2" data-name="Layer 2"><g id="Layer_1-2" data-name="Layer 1"><path d="M50.19,99.73H7.13c-4.77,0-6.8-1.92-7.07-6.68-.1-1.66,0-3.33,0-5Q0,48.68,0,9.3A28.21,28.21,0,0,1,.19,5.51C.67,1.85,2.71,0,6.43,0,17,0,27.52,0,38.07,0H92.55C98.05,0,100,1.94,100,7.43V92.37c0,5.52-1.88,7.36-7.46,7.36ZM36.53,20.39A10.19,10.19,0,0,0,26.33,10.3a10.33,10.33,0,0,0-10,10.17,10.19,10.19,0,0,0,10,10A10,10,0,0,0,36.53,20.39Zm27.18,59a10,10,0,1,0,10-10.15A9.94,9.94,0,0,0,63.71,79.41Zm0-59.06a10,10,0,1,0,19.95.13,10,10,0,1,0-19.95-.13ZM36.53,79.42A10.18,10.18,0,0,0,26.42,69.26a10.1,10.1,0,0,0-.12,20.2A10.13,10.13,0,0,0,36.53,79.42Z"/></g></g></svg>