<svg xmlns="http://www.w3.org/2000/svg" viewBox="0 0 86.96 100"><g id="Layer_2" data-name="Layer 2"><g id="Layer_1-2" data-name="Layer 1"><path d="M87,41.74a1.34,1.34,0,1,1-2.68,0V39A1.34,1.34,0,0,1,87,39Zm0,7a1.34,1.34,0,1,0-2.68,0v2.79a1.34,1.34,0,1,0,2.68,0Zm-1.34,8.42a1.34,1.34,0,0,0-1.34,1.34v2.79a1.34,1.34,0,1,0,2.68,0V58.48A1.34,1.34,0,0,0,85.62,57.14ZM86.8,75l0,0a1.23,1.23,0,0,1-.51.5L44.15,99.82h0l0,0-.07,0,0,0-.1,0h0l-.09,0h0l-.12,0h-.3l-.11,0h0l-.09,0h0l-.11,0h0l-.1,0h0L.67,75.49A1.35,1.35,0,0,1,0,74.33V25.62s0-.07,0-.1v0s0-.07,0-.11v0a.38.38,0,0,1,0-.1h0s0-.08,0-.12v0a2.53,2.53,0,0,1,.13-.22h0l.08-.1h0l.08-.09h0l.09-.08h0l.1-.07h0L42.81.18h0l0,0,.06,0,0,0,.1,0,0,0,.08,0h0l.11,0h.3l.11,0h0l.07,0,0,0L44,.1l0,0,.06,0,0,0h0L86.29,24.51l0,0h0a.83.83,0,0,1,.21.16h0a1.31,1.31,0,0,1,.31.43h0l0,.12h0l0,.11v0a.36.36,0,0,1,0,.11v0a.34.34,0,0,1,0,.1v5h0V32a1.34,1.34,0,1,1-2.68,0V30.63h0V28L64.06,39.67V60.33L84.28,72V69.59h0V68.25a1.34,1.34,0,1,1,2.68,0v1.34h0v4.74h0v.11s0,.08,0,.12v0s0,0,0,.06v0l0,.08,0,.06a.08.08,0,0,1,0,.05ZM2.69,72,22.9,60.33V39.67L2.69,28ZM61.38,60.33V39.67L43.48,29.34,25.59,39.67V60.33L43.48,70.66ZM82.93,25.67l-38.1-22V27L62.72,37.34Zm-40.79-22L4,25.67,24.24,37.34,42.14,27ZM4,74.33l38.11,22V73L24.24,62.66Zm40.8,22,38.1-22L62.72,62.66,44.83,73ZM62.61,77.72a8.87,8.87,0,0,0-.67-1,2,2,0,0,0-.63-.54,1.65,1.65,0,0,0-.83-.14,1.22,1.22,0,0,0,.32-1,3.33,3.33,0,0,0-.46-1.22c-.92-1.58-2.13-1.94-3.65-1.06a2.72,2.72,0,0,0-1.43,1.59,2.87,2.87,0,0,0,.46,2.14l.19.31,1.85-1.07-.15-.27c0-.07-.08-.17-.14-.32a1.13,1.13,0,0,1-.09-.41q0-.18.27-.33c.29-.17.58,0,.87.5a1,1,0,0,1,.16.82,1.2,1.2,0,0,1-.6.63L59,78a.85.85,0,0,1,.17-.12c.5-.29,1,0,1.43.72l.12.22c.16.27.27.48.34.63a.89.89,0,0,1,.09.44.4.4,0,0,1-.22.34.5.5,0,0,1-.55,0,1.73,1.73,0,0,1-.47-.58l-.54-.93-1.83,1.06.54.93a3.22,3.22,0,0,0,1.63,1.58,2.54,2.54,0,0,0,2.08-.37,2.63,2.63,0,0,0,1.44-1.78A3.77,3.77,0,0,0,62.61,77.72ZM80.14,52H69.8v1.66a2,2,0,0,1,.88.76,2.47,2.47,0,0,1,.42,1.05h1.65a1.73,1.73,0,0,0-.16-.71,1.45,1.45,0,0,0-.41-.57h8Zm-.33-6.45a2.35,2.35,0,0,0-1.34-.8,10.56,10.56,0,0,0-2.25-.2,5.65,5.65,0,0,0-2.58.48,1.8,1.8,0,0,0-.91,1.77,1.26,1.26,0,0,0,.13.6,1.19,1.19,0,0,0,.33.42H71.74v-3H69.8v4.91h5.5V47.89c-.57,0-.86-.2-.86-.59a.41.41,0,0,1,.3-.43,2.45,2.45,0,0,1,.79-.1h2a1.37,1.37,0,0,1,.6.11.44.44,0,0,1,.2.43.43.43,0,0,1-.3.44,2.31,2.31,0,0,1-.83.11h-.87V50h1.52a2.18,2.18,0,0,0,1.8-.73,3,3,0,0,0,.61-2A2.79,2.79,0,0,0,79.81,45.54ZM61.7,18.11a16.65,16.65,0,0,1-1.8,2.27,18.81,18.81,0,0,1-2.07,1.9c-.21.17-.48.37-.82.6s-.79.58-1.07.82a4.15,4.15,0,0,0-.75.81l-.77,1.33,4.52,2.61,1-1.66-2.53-1.46.9-.73L59,24c1.07-.84,2-1.61,2.7-2.3a13.82,13.82,0,0,0,2-2.42ZM17.16,50a3.26,3.26,0,0,1-.36,1.67,2,2,0,0,1-1.08.87,5.78,5.78,0,0,1-1.88.25H11.05a12.9,12.9,0,0,1-2.52-.19,2.32,2.32,0,0,1-1.4-.81,2.88,2.88,0,0,1-.49-1.85,3.25,3.25,0,0,1,.23-1.23,2.07,2.07,0,0,1,.7-.89,1.76,1.76,0,0,1,1.1-.34H9.78v2H9.57a2.54,2.54,0,0,0-.81.1.4.4,0,0,0-.3.42.56.56,0,0,0,.18.47.89.89,0,0,0,.56.14h2.07a1.06,1.06,0,0,1-.45-.44,1.46,1.46,0,0,1-.16-.71A2.25,2.25,0,0,1,11,48.08a1.77,1.77,0,0,1,1-.64,6.82,6.82,0,0,1,1.74-.18,4.35,4.35,0,0,1,2.54.63A2.34,2.34,0,0,1,17.16,50Zm-1.9.07a.39.39,0,0,0-.26-.41,2.75,2.75,0,0,0-.83-.09h-.85q-.84,0-.84.48c0,.36.25.54.74.54H14.5C15,50.54,15.26,50.37,15.26,50ZM33.54,25.2a2,2,0,0,1,.22-1.14,2.74,2.74,0,0,1,.7-.89l-.83-1.43a2,2,0,0,0-.53.49,1.52,1.52,0,0,0-.29.64l-4-6.89-1.89,1.09,5.17,9ZM21.45,21.05a2.46,2.46,0,0,1,1.38-1.73A2.47,2.47,0,0,1,25,19a3.73,3.73,0,0,1,1.75,1.74l.34.59a3.22,3.22,0,0,1,.48,1.23,1.33,1.33,0,0,1-.24,1,1.21,1.21,0,0,1,.91.21,2.84,2.84,0,0,1,.74.89l.14.24a2.6,2.6,0,0,1,.41,2.06,2.84,2.84,0,0,1-1.43,1.55,2.74,2.74,0,0,1-2.08.45,2.72,2.72,0,0,1-1.6-1.44A3.44,3.44,0,0,1,24,26.27a1.26,1.26,0,0,1,.24-.95,1.28,1.28,0,0,1-1-.35,5.69,5.69,0,0,1-.95-1.31,1.28,1.28,0,0,1-.12-.23A3.76,3.76,0,0,1,21.45,21.05Zm4.78,5.26a1.56,1.56,0,0,0,.44.5.42.42,0,0,0,.49,0,.44.44,0,0,0,.23-.44,1.55,1.55,0,0,0-.22-.62c-.33-.57-.65-.77-1-.59S25.91,25.74,26.23,26.31Zm-2.36-4,.27.44a3.58,3.58,0,0,0,.56.78.43.43,0,0,0,.57.08.44.44,0,0,0,.22-.49,2.18,2.18,0,0,0-.28-.75,2.27,2.27,0,0,0-.16-.25L25,22l-.15-.29c-.34-.59-.68-.79-1-.6S23.53,21.67,23.87,22.26Zm3.21,48.79a2,2,0,0,1-1.09.38,2.67,2.67,0,0,1-1.12-.16L24,72.7a1.86,1.86,0,0,0,.69.21,1.34,1.34,0,0,0,.7-.07l-4,6.9,1.89,1.09,5.17-9Zm7,4.83a2.69,2.69,0,0,0-1.38-1.64,3,3,0,0,0-1.63-.48,2.09,2.09,0,0,0-1.31.58,6.3,6.3,0,0,0-1.17,1.55l-.3.57,1.88,1.08.63-1.09c.31-.53.62-.71.91-.54a.44.44,0,0,1,.26.42,1.45,1.45,0,0,1-.22.62,3.78,3.78,0,0,1-.85,1,4.6,4.6,0,0,1-1,.66c-.34.17-.78.35-1.31.56s-1,.39-1.31.55a4.78,4.78,0,0,0-1,.67,3.73,3.73,0,0,0-.85,1l-.25.43,4.65,2.68,1-1.69-2.44-1.4a8.13,8.13,0,0,1,.82-.45c.29-.13.63-.27,1-.42.56-.21,1-.41,1.39-.59a5.63,5.63,0,0,0,1.11-.76,4.83,4.83,0,0,0,1-1.22A2.8,2.8,0,0,0,34.06,75.88Zm7.45-23.52c.56-.7,1-1.31,1.36-1.83a7.25,7.25,0,0,0,.87-1.81,7.13,7.13,0,0,0,.35-2.33A4.23,4.23,0,0,0,43,43.3a4,4,0,0,0-3-1.1,4.51,4.51,0,0,0-2.5.6,3.09,3.09,0,0,0-1.26,1.73,9.85,9.85,0,0,0-.36,2.91l0,1h3.27V46.5c0-.92.26-1.39.78-1.39a.67.67,0,0,1,.65.35,2.24,2.24,0,0,1,.18,1,5.79,5.79,0,0,1-.33,2,7.23,7.23,0,0,1-.82,1.62c-.31.47-.75,1-1.29,1.71s-1,1.22-1.28,1.7a7.32,7.32,0,0,0-.82,1.63,5.47,5.47,0,0,0-.34,2v.74H44V54.87H39.75a10.65,10.65,0,0,1,.74-1.19Q40.89,53.1,41.51,52.36Zm7.07-10.11a2.78,2.78,0,0,1-1.13,1.32,4.15,4.15,0,0,1-1.58.64v2.47a2.64,2.64,0,0,0,1.06-.23,2.25,2.25,0,0,0,.86-.62v12h3.29V42.25Z"/></g></g></svg>