<svg xmlns="http://www.w3.org/2000/svg" viewBox="0 0 100 100"><g id="Layer_2" data-name="Layer 2"><g id="Layer_1-2" data-name="Layer 1"><path d="M100,50.18q0,21.46,0,42.93c0,5-1.9,6.89-6.93,6.89H7c-5,0-7-1.89-7-6.87Q0,50,0,6.79C0,2,2,0,6.82,0H93.16C98,0,100,2,100,6.77Q100,28.48,100,50.18ZM83.61,20.52a10,10,0,1,0-20-.09,10,10,0,1,0,20,.09ZM36.35,50.24a10,10,0,1,0-10.08,9.88A10,10,0,0,0,36.35,50.24Zm0,29.45a10,10,0,1,0-10,10A10,10,0,0,0,36.36,79.69ZM63.64,50a10,10,0,1,0,10-10.1A10,10,0,0,0,63.64,50ZM16.39,20.51a10,10,0,1,0,20-.18,10,10,0,1,0-20,.18Zm47.26,58.9a10,10,0,1,0,10.08-10A10,10,0,0,0,63.65,79.41Z"/></g></g></svg>