<svg xmlns="http://www.w3.org/2000/svg" viewBox="0 0 79.3 100"><g id="Layer_2" data-name="Layer 2"><g id="Layer_1-2" data-name="Layer 1"><path d="M9.26,18.61H70.09c5.07,0,7.45-1.74,5.51-3.65L63,2.49C60.92.45,59.47,0,55.85,0H23.58c-4,0-5.24.49-7.49,2.72C12,6.77,7.85,10.86,3.7,15,1.76,16.87,4.19,18.61,9.26,18.61ZM39.63,6.86c5.47,0,9.92.93,9.92,2.13s-4.45,2.1-9.92,2.1-9.87-.94-9.87-2.1S34.21,6.86,39.63,6.86ZM.4,23.42a22.57,22.57,0,0,1,1.67-5.83,5.15,5.15,0,0,0,3,1.87A10.71,10.71,0,0,0,.4,23.42ZM62.46,74.93a5.49,5.49,0,0,1,1.59,3.21,5.57,5.57,0,0,1-1.59,3.25,5.65,5.65,0,0,1-9.61-3.25,5.65,5.65,0,0,1,9.61-3.21ZM74.19,19.46a5.09,5.09,0,0,0,3-1.87,20.51,20.51,0,0,1,1.63,5.83A10.39,10.39,0,0,0,74.19,19.46ZM33.33,9.39c0-.75,2.82-1.38,6.3-1.38s6.3.63,6.3,1.38a.34.34,0,0,1-.17.32,28.39,28.39,0,0,1-6.13.62,28,28,0,0,1-6.08-.62A.38.38,0,0,1,33.33,9.39ZM24.86,74.93a5.55,5.55,0,0,1,1.59,3.21,5.65,5.65,0,0,1-11.2,0,5.65,5.65,0,0,1,9.61-3.21Zm37.6-38a5.57,5.57,0,0,1,1.59,3.25,5.49,5.49,0,0,1-1.59,3.21,5.65,5.65,0,0,1-9.61-3.21,5.65,5.65,0,0,1,9.61-3.25Zm-18.82,19a5.68,5.68,0,0,1,1.63,3.25,5.73,5.73,0,0,1-1.63,3.21,5.61,5.61,0,0,1-8,0A5.79,5.79,0,0,1,34,59.17a5.75,5.75,0,0,1,1.63-3.25A5.61,5.61,0,0,1,43.64,55.92ZM70.05,20H9.26A9.29,9.29,0,0,0,0,29.25V90.69A9.29,9.29,0,0,0,9.26,100H70.05a9.29,9.29,0,0,0,9.25-9.31V29.25A9.28,9.28,0,0,0,70.05,20ZM25.79,84a6.93,6.93,0,0,1-9.88,0,7.09,7.09,0,0,1,0-10,6.93,6.93,0,0,1,9.88,0A7.09,7.09,0,0,1,25.79,84Zm0-38a6.93,6.93,0,0,1-9.88,0,7.14,7.14,0,0,1,0-10,6.91,6.91,0,0,1,9.88,0A7.14,7.14,0,0,1,25.79,46ZM44.61,65a7,7,0,0,1-9.92,0,7.09,7.09,0,0,1,0-10,7,7,0,0,1,9.92,0A7.07,7.07,0,0,1,44.61,65ZM63.39,84a6.92,6.92,0,0,1-9.87,0,7.07,7.07,0,0,1,0-10,6.92,6.92,0,0,1,9.87,0A7.09,7.09,0,0,1,63.39,84Zm0-38a6.92,6.92,0,0,1-9.87,0,7.12,7.12,0,0,1,0-10,6.9,6.9,0,0,1,9.87,0A7.14,7.14,0,0,1,63.39,46ZM24.86,36.91a5.63,5.63,0,0,1,1.59,3.25,5.65,5.65,0,0,1-11.2,0,5.65,5.65,0,0,1,9.61-3.25Z"/></g></g></svg>