<svg xmlns="http://www.w3.org/2000/svg" viewBox="0 0 100 89.77"><g id="Layer_2" data-name="Layer 2"><g id="Layer_1-2" data-name="Layer 1"><path d="M99.88,39.56,93.14,12.07a4,4,0,0,0-2.66-2.86l0,0-28.8-9h0A4,4,0,0,0,57.79,1L36.58,19.77a4,4,0,0,0-1.24,4L36,26.27l-5.64-3.41a4,4,0,0,0-4.15,0L1.94,37.5A4,4,0,0,0,0,40.94V71.1H0a4,4,0,0,0,1.94,3.44L26.17,89.19a4,4,0,0,0,4.15,0L54.55,74.55a4,4,0,0,0,1.94-3.41V57.77l17.09,5.34h0a4,4,0,0,0,3.83-.83l21.2-18.76A4,4,0,0,0,99.88,39.56ZM59.65,3.11a1.18,1.18,0,0,1,1.16-.24h0l25,7.82L65.38,28.77a3.78,3.78,0,0,0-.51.55l-25.75-8ZM3.39,39.91,27.62,25.26a1.23,1.23,0,0,1,1.25,0L53.1,39.91a1.21,1.21,0,0,1,.59,1h0v0a1.13,1.13,0,0,1-.58,1L28.87,56.61a1.18,1.18,0,0,1-1.25,0L3.39,42a1.16,1.16,0,0,1-.58-1h0A1.16,1.16,0,0,1,3.39,39.91Zm0,32.24a1.18,1.18,0,0,1-.58-1h0V44.9L26.17,59a3.73,3.73,0,0,0,.67.32v27Zm49.71,0L29.65,86.32v-27a3.43,3.43,0,0,0,.67-.32L53.68,44.9V71.1h0A1.18,1.18,0,0,1,53.1,72.15ZM56.49,41v-.05a4,4,0,0,0-1.94-3.44L39.36,28.32,38.28,24,64,32a3.9,3.9,0,0,0,.11.74l6.5,26.51L56.49,54.82Zm40.29.44L75.58,60.18a1.19,1.19,0,0,1-1.16.25,1.17,1.17,0,0,1-.81-.87L66.86,32.07a1.21,1.21,0,0,1,.38-1.19l21.2-18.76a1.18,1.18,0,0,1,.79-.31,1.41,1.41,0,0,1,.37.06,1.2,1.2,0,0,1,.82.87l6.74,27.49A1.23,1.23,0,0,1,96.78,41.43Z"/></g></g></svg>