<svg xmlns="http://www.w3.org/2000/svg" viewBox="0 0 100 83.18"><defs><style>.cls-1{fill:#010101;}</style></defs><g id="Layer_2" data-name="Layer 2"><g id="Layer_1-2" data-name="Layer 1"><path class="cls-1" d="M32.68,82.86a1.69,1.69,0,0,1-.19-2,21.15,21.15,0,0,1,3.21-1.7,85.33,85.33,0,0,0,12.87-6.85,93.58,93.58,0,0,0,7.91-6.07l1.32-1.12L58.09,63c.14-1.16.34-3.1.43-4.37.15-2.57.25-16.22,0-19.28l-.09-2-.44.29c-2,1.41-10.3,5.54-16.32,8.06-3.69,1.56-10.3,4.18-10.64,4.18,0,0,1.26-.73,2.87-1.6,4.27-2.33,13.6-8,20.49-12.39l2.43-1.55L56.58,34a43.38,43.38,0,0,0-5.2-4.9C46.72,25.26,34.43,17,33.56,17s-9.47,3.6-15,6.27c-2.43,1.11-6.12,3.11-8.31,4.42a49.86,49.86,0,0,0-5.44,3.69c-.24.29,0,.58,5.88,6.41C17.14,44.1,20.1,47,23.36,49.93l.58.53L23.07,50C20.49,48.67,13,43.18,5,36.77c-1.07-.83-2-1.51-2-1.51-.24,0,.1,9.38.54,15.5.24,3.44.92,9.86,1.26,11.8l.19,1.07L7.62,66c1.51,1.31,3.31,2.86,4,3.5,2.43,2.13,10.93,9.27,11.71,9.81s1.07,1.11.78,1.84a1.15,1.15,0,0,1-1.17.83c-.68,0-8.6-5.88-12.68-9.47-3.35-2.92-6.75-6.56-7.77-8.31a5.24,5.24,0,0,1-.58-1.65c-.05-.49-.29-2.14-.53-3.69A133.49,133.49,0,0,1,.05,38.76c-.1-6.41,0-6.9.24-7.38S1.11,30.5,8.5,26C17.43,20.55,25.79,16.27,31,14.38c2.63-.93,3.11-.83,6.07,1C46,21,53.18,26.37,58.28,31.28c3.11,3,3.06,2.91,3.3,5.2.68,5.53.39,17.87-.68,27.34l-.29,2.43L59,67.9A68.45,68.45,0,0,1,36.81,82.08c-3.06,1.27-3.54,1.32-4.13.78Zm2.87-7.48a3.11,3.11,0,0,1-2.23-4.61c1.4-3.06,5.87-3.6,7.28-.93S39,76,35.55,75.38ZM18,72.22a5.34,5.34,0,0,1-2.82-4.42,2.82,2.82,0,0,1,.39-2A2.57,2.57,0,0,1,18,64.11a3.54,3.54,0,0,1,2.62,1.17c2.09,2.09,2.09,5.63,0,6.85a3.38,3.38,0,0,1-2.67.09ZM50.61,66a3.34,3.34,0,0,1-1.85-2.92,4.72,4.72,0,0,1,1.41-2.86,4.53,4.53,0,0,1,3.25-1.17,2.46,2.46,0,0,1,1.9.49,2.78,2.78,0,0,1,1.46,2.52,3.62,3.62,0,0,1-1.12,2.82,4.37,4.37,0,0,1-3.4,1.41A4.48,4.48,0,0,1,50.61,66Zm-9.52-3C38,61.39,39.29,57,43,56.15a3.69,3.69,0,0,1,4.08,1.65,4.8,4.8,0,0,1,0,2.86,4.86,4.86,0,0,1-2.28,2.24,4.7,4.7,0,0,1-3.69.1Zm-27.93-.73a5,5,0,0,1-2.67-6.56c1.75-3.5,6.6-1.07,6.6,3.3a3.2,3.2,0,0,1-3,3.45,1.88,1.88,0,0,1-.92-.19Zm49.54-.63a1.45,1.45,0,0,1-.1-2c.3-.39.34-.39,3-.34a47.16,47.16,0,0,0,8.55-.63c2.23-.34,16.41-2.67,17.19-2.86,1.36-.3,3.3-8.41,5.15-21.42a34.59,34.59,0,0,0,.43-3.7,9.94,9.94,0,0,0-1.5.15c-1.41.24-6.66.78-10.2,1.07-3.94.34-10.54.63-15.25.73l-4.81.09,2.19-.38c5.19-1,8.79-1.66,15.25-2.92,7.72-1.55,14.18-2.86,14.23-2.91a39.2,39.2,0,0,0-2.53-6.7C92,14.86,85.92,3.5,85.38,3.11,85,2.87,81.06,2.77,78,3A168.57,168.57,0,0,0,50.85,7.09l-2.19.54.05.92a73.12,73.12,0,0,0,3.06,13.94c.25.58-.24.1-.73-.78a44.86,44.86,0,0,1-2.86-7.09,13,13,0,0,0-1.12-2.77c-.05.15-.29,1.46-.48,2.92-.34,2.13-.49,2.76-.78,3.06a1,1,0,0,1-1.51,0c-.34-.3-.43-.54-.53-1.27a72.29,72.29,0,0,1,1-9A4.33,4.33,0,0,1,47.3,4.86c2.92-1.07,13.7-3,22.49-4A88.71,88.71,0,0,1,82,0c4.71,0,4.76,0,5.39,1.21A30.41,30.41,0,0,0,89.22,4c4.86,7.29,8.74,15.5,10.49,22.25a8.23,8.23,0,0,1,.24,3.25,104.47,104.47,0,0,1-4.42,23.31c-1.45,4.52-1.65,4.86-3.1,5.44C88.54,59.84,75.28,61.73,66.54,62l-3.35.1ZM31.81,59.26a2.85,2.85,0,0,1-1.65-1.51c-1.36-2.67,1.89-6.27,5.1-5.49,2.82.68,3.5,3.74,1.36,5.88a4.48,4.48,0,0,1-4.81,1.12Zm34.44-3.45a3.51,3.51,0,0,1-3.11-3.74c.19-2.77,3.64-4.28,6.46-2.87,3.2,1.65,2.48,5.68-1.22,6.51a3.27,3.27,0,0,1-2.13.1Zm9.91-1.17a3.92,3.92,0,0,1-2.77-2.57c-.59-2.24,1.41-4.37,4.13-4.37a4,4,0,0,1,3,1c2.58,2.18,1,5.83-2.71,6.17a14.24,14.24,0,0,1-1.7-.2Zm10.73-.78a3.73,3.73,0,0,1-3.4-3.54,4.31,4.31,0,0,1,1.31-2.48,4.45,4.45,0,0,1,3.06-1,3.74,3.74,0,0,1,2,.44,3.89,3.89,0,0,1,1.94,1.94,3.39,3.39,0,0,1,0,2,4.76,4.76,0,0,1-2,2.28,6.23,6.23,0,0,1-3,.34Zm-79-2c-2.82-1.31-3.55-6.12-1.12-7.53a3.46,3.46,0,0,1,2.67-.24,5.51,5.51,0,0,1,2.91,4A3.85,3.85,0,0,1,10.59,52a3.36,3.36,0,0,1-2.72-.15ZM50,51.34a3.5,3.5,0,0,1-1.85-1.6,4.6,4.6,0,0,1-.05-2.68,5,5,0,0,1,2.14-2.23,3.11,3.11,0,0,1,2.09-.49,3.38,3.38,0,0,1,3,1.27,2.25,2.25,0,0,1,.53,1.6,2.84,2.84,0,0,1-.39,1.89A4.59,4.59,0,0,1,50,51.34ZM67.22,42.6a4.38,4.38,0,0,1-2.33-2.43C64.3,38,66.34,35.75,69,35.75a4.38,4.38,0,0,1,3.06,1c2.62,2.23.92,6-2.87,6.17a3.76,3.76,0,0,1-2-.29Zm10.34-1.07c-2.62-1-3.35-3.69-1.4-5.64C79,33,84.46,35.31,83.49,39A4.25,4.25,0,0,1,81,41.48a5.42,5.42,0,0,1-3.4.05Zm10.35-.78a3.48,3.48,0,0,1-2.33-4.57,4.2,4.2,0,0,1,4.32-2.33A4.09,4.09,0,0,1,93,35.26a3.3,3.3,0,0,1-1.12,5.1,5.49,5.49,0,0,1-3.93.39ZM28.41,35.6A7,7,0,0,1,25.54,34a2.72,2.72,0,0,1-.19-3.54,4.44,4.44,0,0,1,2.38-1.75,10.06,10.06,0,0,1,5.39,0c1.6.63,2.92,2.08,2.92,3.3a5.13,5.13,0,0,1-.39,1.26,4.93,4.93,0,0,1-3,2.24,11.41,11.41,0,0,1-4.23.14ZM69.55,20.93c-2.91-.72-4.27-3.25-3.06-5.68,1-2,4.13-3.4,6.56-3s4,1.89,4,4-1.7,3.89-4.23,4.57a8.44,8.44,0,0,1-3.3.09Z"/></g></g></svg>