<svg xmlns="http://www.w3.org/2000/svg" viewBox="0 0 94.95 100"><defs><style>.cls-1{fill:#020203;}</style></defs><g id="Layer_2" data-name="Layer 2"><g id="Layer_1-2" data-name="Layer 1"><path class="cls-1" d="M63.6,17.71,3.42,32.26A4.47,4.47,0,0,0,.13,37.65L14.22,96a5.27,5.27,0,0,0,6.37,3.88L78.85,85.76a4.51,4.51,0,0,0,3.33-5.44L67.64,20.18A3.35,3.35,0,0,0,63.6,17.71Zm-49,27.08a5.66,5.66,0,1,1,5.66,5.66A5.65,5.65,0,0,1,14.59,44.79ZM28.26,82a5.66,5.66,0,1,1,5.66-5.65A5.65,5.65,0,0,1,28.26,82ZM43.82,37.25a5.66,5.66,0,1,1,5.66,5.66A5.66,5.66,0,0,1,43.82,37.25ZM57.49,74.49a5.66,5.66,0,1,1,5.66-5.66A5.66,5.66,0,0,1,57.49,74.49ZM77.21,2.41,69.43,14.53a4.81,4.81,0,0,0-.62,3.73L84,81a1.55,1.55,0,0,0,2.79.49l7-10.52a7.36,7.36,0,0,0,1-5.81L79.69,2.83A1.37,1.37,0,0,0,77.21,2.41Zm4.18,29.36c-1.37.37-3.14-1.77-4-4.78s-.37-5.77,1-6.14,3.15,1.77,4,4.79S82.76,31.4,81.39,31.77ZM88.21,63c-1.38.31-3.06-1.92-3.74-5s-.11-5.78,1.28-6.09,3.06,1.92,3.74,5S89.6,62.64,88.21,63Zm-20-49.44L75.56,2.05a1.33,1.33,0,0,0-1.43-2L13.76,14.63A11.27,11.27,0,0,0,7,19.36l-6.63,10A1.14,1.14,0,0,0,1.6,31.07L65.1,15.72A5.1,5.1,0,0,0,68.2,13.51ZM34.93,19.16c-3.1.84-6,.13-6.45-1.58S30.15,13.8,33.25,13s6-.13,6.45,1.58S38,18.32,34.93,19.16Z"/></g></g></svg>