<svg xmlns="http://www.w3.org/2000/svg" viewBox="0 0 100 66.16"><defs><style>.cls-1{fill:#020203;}</style></defs><g id="Layer_2" data-name="Layer 2"><g id="Layer_1-2" data-name="Layer 1"><path class="cls-1" d="M100,24l-1.88-5.33a4,4,0,0,0-2.23-2.39L67.91,4.19A.66.66,0,0,0,67,5l2.33,6.42a2.36,2.36,0,0,0,1.28,1.35L98.86,25A.81.81,0,0,0,100,24ZM87.46,16.36c-.35.77-1.77.88-3.17.25s-2.25-1.79-1.9-2.56,1.78-.89,3.18-.25S87.82,15.59,87.46,16.36ZM66.93,31.66c.14-.3.71-.36,1.46-.2a6.45,6.45,0,0,1,1.33.44,4.85,4.85,0,0,1,1.86,1.35.61.61,0,0,1,.15.61c-.08.17-.3.27-.62.28a3.3,3.3,0,0,1-1-.11,6.56,6.56,0,0,1-1.19-.42C67.62,33,66.71,32.13,66.93,31.66Zm31.45-6L70.86,13.72a1.25,1.25,0,0,0-1.66.65L64.53,25l-.79-.36,4.84-11.18a2.36,2.36,0,0,0,.06-1.77L66.36,5.41a.61.61,0,0,0-1.13,0L58,22l-5.38-2.45a5.37,5.37,0,0,0-3.9-.21l-5.44,1.79L37.89,1.88A1,1,0,0,0,36,1.64L33,6.85a2.31,2.31,0,0,0-.24,1.8l5.58,19.93-.49,1.07L32.18,9.59a1.59,1.59,0,0,0-2-1.11L1.45,16.53A2,2,0,0,0,.07,19L7.89,46.89A2.48,2.48,0,0,0,11,48.61l20.87-5.85-3.47,7.63a2.32,2.32,0,0,0,1.14,3.07L55,65l.57.27a5.41,5.41,0,0,0,5.17.36l.88-.3,4.23-1.43a3.82,3.82,0,0,0,2.2-2L73,51.11l11.82,5.13a2.32,2.32,0,0,0,3-1.2L99.43,28.32A2,2,0,0,0,98.38,25.65ZM10,24.92a2.72,2.72,0,1,1,2.61-2.81A2.72,2.72,0,0,1,10,24.92Zm4.38,15A2.71,2.71,0,1,1,17,37.12,2.7,2.7,0,0,1,14.37,39.92Zm6.69-21.74a2.71,2.71,0,1,1,2.81,2.62A2.72,2.72,0,0,1,21.06,18.18ZM28.25,35.8A2.71,2.71,0,1,1,30.87,33,2.71,2.71,0,0,1,28.25,35.8ZM69.18,24.58a2.71,2.71,0,1,1,2.43,3A2.72,2.72,0,0,1,69.18,24.58Zm-6.75-7.82c.63-1.36,1.63-2.24,2.25-2s.62,1.62,0,3S63.05,20,62.43,19.74,61.81,18.12,62.43,16.76Zm-19,5,5.62-1.86a4.26,4.26,0,0,1,3.12.17l5.54,2.53,5.73,2.61.78.36,14.16,6.45a.72.72,0,0,1-.07,1.34l-5.79,1.92a1.71,1.71,0,0,1-1.24-.07L61.91,31l-.75-.34-2.3-1.05-1.36-.62-2.07-1L43.71,22.65l-.28-.13a.39.39,0,0,1,0-.73ZM37,12.68c-.44-1.43-.27-2.75.38-2.95s1.54.79,2,2.23.28,2.75-.37,2.95S37.44,14.12,37,12.68ZM56,64.85,30.16,53.05a2.1,2.1,0,0,1-1-2.78l3.52-7.73,5.44-11.92.48-1.07,2.25-4.92h0l.06-.13a2.22,2.22,0,0,1,2.93-1.1l.14.07,11.23,5.12,1.81.82,1.86.85,2.06.94.75.35,9,4.1a.91.91,0,0,1,.45,1.21L66,48.07,58.8,63.81C58.16,65.53,57.09,65.33,56,64.85ZM77.76,43a2.72,2.72,0,0,1-2.13,2.38l1.81-4A2.77,2.77,0,0,1,77.76,43ZM77,40.79,74.89,45.4l-2.48,5.45L67.66,61.26a4.09,4.09,0,0,1-2.43,2.18l-4.92,1.63c-1.28.61-1.33-.37-.9-1l7.17-15.75,5.27-11.54a1.6,1.6,0,0,1,1-.87L78.53,34a.84.84,0,0,1,1,1.15Zm3.94-8.86a2.71,2.71,0,1,1,3-2.43A2.72,2.72,0,0,1,80.94,31.93Zm6.12,15.63a2.71,2.71,0,1,1-2.42-3A2.71,2.71,0,0,1,87.06,47.56Zm6.16-13.47a2.71,2.71,0,1,1-2.43-3A2.73,2.73,0,0,1,93.22,34.09ZM1.36,15.77,30.89,7.5a2.45,2.45,0,0,0,1.45-1.11l2.93-4.95A1,1,0,0,0,34.19,0L7,7.66a7.35,7.35,0,0,0-4.26,3.21L.45,14.56A.81.81,0,0,0,1.36,15.77Zm14.21-9c1.47-.45,2.87-.17,3.12.65S18,9.21,16.48,9.66s-2.86.17-3.12-.64S14.1,7.18,15.57,6.72ZM41.38,48.58a2.64,2.64,0,1,1-1.31-3.5A2.64,2.64,0,0,1,41.38,48.58Zm15.47,7.05a2.64,2.64,0,1,1-1.31-3.5A2.65,2.65,0,0,1,56.85,55.63ZM48,34.1a2.63,2.63,0,0,1-3.49,1.3l-.09,0h0a2.64,2.64,0,0,1,1.47-5,2.72,2.72,0,0,1,.81.22A2.64,2.64,0,0,1,48,34.1Zm15.71,6h0a2.89,2.89,0,0,1-.13.77c0,.09-.07.18-.11.27A2.65,2.65,0,0,1,60,42.46a2.62,2.62,0,0,1-1-.82l0,0c0-.05-.07-.1-.1-.16a1.18,1.18,0,0,1-.11-.19s0,0,0,0a2.65,2.65,0,0,1,3.47-3.56l.14.07a2.8,2.8,0,0,1,.74.58h0A2.67,2.67,0,0,1,63.69,40.11Zm3.9,18.13c-.6,1.32-1.63,2.15-2.3,1.85s-.71-1.62-.1-3,1.63-2.15,2.29-1.85S68.2,56.91,67.59,58.24ZM50.32,20.79c.21-.48,1.46-.37,2.79.24s2.23,1.48,2,1.95-1.46.36-2.79-.25S50.1,21.26,50.32,20.79ZM72.74,41.28c.47-.45,1-.64,1.35-.47.66.3.71,1.62.1,2.95a5,5,0,0,1-.71,1.14,2.62,2.62,0,0,1-.88.68.82.82,0,0,1-.7,0,.7.7,0,0,1-.31-.26,1.35,1.35,0,0,1-.18-.49,3.76,3.76,0,0,1,.34-2.11.36.36,0,0,0,0-.09,4.73,4.73,0,0,1,.95-1.38ZM58.81,26.9a.67.67,0,0,1-.19-.66A.49.49,0,0,1,59,26a2.23,2.23,0,0,1,.79,0,5.79,5.79,0,0,1,1.67.51,6,6,0,0,1,.91.5l0,0,.27.19h0a3,3,0,0,1,.64.63,1.3,1.3,0,0,1,.11.19.46.46,0,0,1,0,.41.39.39,0,0,1-.12.14l-.07.05a1.31,1.31,0,0,1-.33.09h0a3.18,3.18,0,0,1-.89-.06h0a7,7,0,0,1-1.38-.46,8.27,8.27,0,0,1-.89-.49A3.84,3.84,0,0,1,58.81,26.9Z"/></g></g></svg>