<svg xmlns="http://www.w3.org/2000/svg" viewBox="0 0 100 100"><g id="Layer_2" data-name="Layer 2"><g id="Layer_1-2" data-name="Layer 1"><path d="M100,75.92v0A24.1,24.1,0,0,1,75.94,100H24.06A24.09,24.09,0,0,1,0,75.94V24.06A24.08,24.08,0,0,1,24.06,0H75.94A24.09,24.09,0,0,1,100,24.06v1.53a1.53,1.53,0,0,1-3,0V24.06h0a21,21,0,0,0-21-21H24.06a21,21,0,0,0-21,21V75.94a21,21,0,0,0,21,21H75.94A21,21,0,0,0,97,76h0V74.41a1.53,1.53,0,0,1,3,0Zm0-32.58a1.53,1.53,0,0,0-3,0v3a1.53,1.53,0,1,0,3,0ZM97,64.06v3a1.53,1.53,0,0,0,3,0v-3a1.53,1.53,0,1,0-3,0Zm3-10.36a1.53,1.53,0,0,0-3,0v3a1.53,1.53,0,0,0,3,0ZM100,33a1.53,1.53,0,1,0-3,0v2.95a1.53,1.53,0,1,0,3,0ZM15.46,76.51a8,8,0,1,0,8-8A8,8,0,0,0,15.46,76.51ZM42,50a8,8,0,1,0,8-8A8,8,0,0,0,42,50ZM68.48,23.49a8,8,0,1,0,8-8A8,8,0,0,0,68.48,23.49Z"/></g></g></svg>