<svg xmlns="http://www.w3.org/2000/svg" viewBox="0 0 100 87.13"><defs><style>.cls-1{fill:#020203;}</style></defs><g id="Layer_2" data-name="Layer 2"><g id="Layer_1-2" data-name="Layer 1"><path class="cls-1" d="M21.77,39.31a4.75,4.75,0,1,1-6.7-.46A4.76,4.76,0,0,1,21.77,39.31ZM99,49.57l-.79.73L57.63,85.5a6.7,6.7,0,0,1-5,1.6l-9.62-.84-1-.13a9.75,9.75,0,0,1-6.43-3.59L1.14,43.22a4.63,4.63,0,0,1,.44-6.53l39-34.14.91-.73A8.14,8.14,0,0,1,46.94,0l1.69.06,10.7,1.48a5.45,5.45,0,0,1,3.5,1.83L97,42.86l2.21,2.4A3.07,3.07,0,0,1,99,49.57ZM45.48,1.23,82.25,43.46a5.45,5.45,0,0,0,3.52,1.83l11.89,1.27a.53.53,0,0,0,.46-.88l-35.68-41a6.18,6.18,0,0,0-4-2.08ZM39.91,82.68,80.83,47.05a2.27,2.27,0,0,0,.22-3.2L45.25,2.75a1.9,1.9,0,0,0-2.68-.19L2.07,37.83a3.08,3.08,0,0,0-.3,4.34l35.1,40.3A2.15,2.15,0,0,0,39.91,82.68ZM98.06,47.79,85.6,46.45A4.74,4.74,0,0,0,82,47.58l-41.35,36a.58.58,0,0,0,.32,1l10.95,1.17A7.33,7.33,0,0,0,57.53,84L98.29,48.53A.42.42,0,0,0,98.06,47.79ZM35.51,27.35A4.75,4.75,0,1,0,35.05,34,4.75,4.75,0,0,0,35.51,27.35ZM60.4,9.07c-.76.66,0,2.8,1.74,4.78s3.73,3,4.49,2.38,0-2.79-1.75-4.77S61.15,8.42,60.4,9.07ZM75.67,26.61c-.76.66,0,2.8,1.74,4.77s3.74,3.05,4.49,2.39,0-2.8-1.74-4.77S76.42,26,75.67,26.61ZM35.15,61.9a4.75,4.75,0,1,0,6.69.46A4.75,4.75,0,0,0,35.15,61.9Zm14.1-46.52a4.75,4.75,0,1,0-.46,6.7A4.75,4.75,0,0,0,49.25,15.38ZM69.34,63.76c-2,1.72-3,3.73-2.38,4.49s2.79,0,4.77-1.75,3-3.73,2.38-4.49S71.32,62,69.34,63.76ZM50.83,75.85c-2,1.72-3,3.73-2.38,4.49s2.79,0,4.77-1.75,3-3.73,2.38-4.49S52.81,74.13,50.83,75.85Zm36.22-25.1c-2,1.72-3,3.73-2.39,4.48s2.8,0,4.78-1.74,3-3.73,2.38-4.49S89,49,87.05,50.75ZM62.63,38a4.75,4.75,0,1,0,6.69.46A4.74,4.74,0,0,0,62.63,38Zm-13.74,12a4.75,4.75,0,1,0,6.69.47A4.75,4.75,0,0,0,48.89,49.93Z"/></g></g></svg>