<svg xmlns="http://www.w3.org/2000/svg" viewBox="0 0 100 100"><g id="Layer_2" data-name="Layer 2"><g id="Layer_1-2" data-name="Layer 1"><path d="M98.46,0H1.54A1.54,1.54,0,0,0,0,1.54V98.46A1.54,1.54,0,0,0,1.54,100H98.46A1.54,1.54,0,0,0,100,98.46V1.54A1.54,1.54,0,0,0,98.46,0ZM96.92,96.93H3.07V3.07H96.92ZM80.3,62.61A12.61,12.61,0,1,0,67.69,50,12.63,12.63,0,0,0,80.3,62.61Zm0-22.15A9.54,9.54,0,1,1,70.76,50,9.55,9.55,0,0,1,80.3,40.46ZM19.7,62.61A12.61,12.61,0,1,0,7.09,50,12.63,12.63,0,0,0,19.7,62.61Zm0-22.15A9.54,9.54,0,1,1,10.16,50,9.55,9.55,0,0,1,19.7,40.46Zm0,52.45A12.61,12.61,0,1,0,7.09,80.3,12.63,12.63,0,0,0,19.7,92.91Zm0-22.15a9.54,9.54,0,1,1-9.54,9.54A9.55,9.55,0,0,1,19.7,70.76ZM80.3,92.91A12.61,12.61,0,1,0,67.69,80.3,12.63,12.63,0,0,0,80.3,92.91Zm0-22.15a9.54,9.54,0,1,1-9.54,9.54A9.55,9.55,0,0,1,80.3,70.76Zm0-38.45A12.61,12.61,0,1,0,67.69,19.7,12.63,12.63,0,0,0,80.3,32.31Zm0-22.15a9.54,9.54,0,1,1-9.54,9.54A9.55,9.55,0,0,1,80.3,10.16ZM19.7,32.31A12.61,12.61,0,1,0,7.09,19.7,12.63,12.63,0,0,0,19.7,32.31Zm0-22.15a9.54,9.54,0,1,1-9.54,9.54A9.55,9.55,0,0,1,19.7,10.16Z"/></g></g></svg>